<?xml version="1.0" encoding="utf-8"?>
<!-- Generator: Adobe Illustrator 16.0.0, SVG Export Plug-In . SVG Version: 6.00 Build 0)  -->
<!DOCTYPE svg PUBLIC "-//W3C//DTD SVG 1.1//EN" "http://www.w3.org/Graphics/SVG/1.1/DTD/svg11.dtd">
<svg version="1.1" id="Layer_1" xmlns="http://www.w3.org/2000/svg" xmlns:xlink="http://www.w3.org/1999/xlink" x="0px" y="0px"
	 width="229.43px" height="46.343px" viewBox="0 0 229.43 46.343" enable-background="new 0 0 229.43 46.343" xml:space="preserve">
<g>
	<path fill-rule="evenodd" clip-rule="evenodd" fill="#757676" d="M17.423,24.533v1.004c2.855,0,2.78,3.756,2.78,3.756l0.012,6.629
		c0,2.336-0.278,4.188-0.991,5.398c-0.711,1.221-2.392,2.531-5.239,2.531c-2.844,0-4.973-1.896-6.32-5.016
		c-1.358-3.113-1.588-9.156-1.588-10.623c0-1.459-0.144-7.724,1.841-13.183c1.995-5.471,5.068-6.325,6.828-6.325
		c1.759,0,3.524,0.604,5.305,2.85c1.781,2.237,2.465,5.646,2.465,5.646l1.376-0.186L22.925,6.442L22.382,6.46
		c-0.255,0.316-1.114,1.793-4.358,0.641c-2.967-1.02-5.733-0.35-7.485,0.348c-1.746,0.679-5.892,3.203-8.237,8.768
		C-0.042,21.763,0,26.412,0,27.867c0,1.479,0.076,7.26,3.132,11.869c3.048,4.615,6.298,5.65,7.86,6.08
		c1.568,0.439,4.404,0.295,6.413-0.365c2.009-0.691,4.1-2.469,5.514-3.512c1.422-1.047,2.692-1.186,2.692-1.186v-4.832l-0.028-6.629
		c0-3.516,2.424-3.756,2.424-3.756v-1.004H17.423"/>
	<path fill-rule="evenodd" clip-rule="evenodd" fill="#757676" d="M156.251,45.531h7.165V44.56c0,0-3.688-0.23-3.825-4.744
		l-0.334-27.563l10.657,26.081c0,0,0.101,0.217,0.383,0.217c0.269,0,0.396-0.064,0.468-0.217c0.069-0.15,9.682-26.299,9.682-26.299
		l0.178,27.745c0,4.799-3.454,4.781-3.454,4.781v0.971h13.064V44.56c0,0-3.701-0.23-3.826-4.744l-0.059-26.479
		c0-4.787,2.601-4.775,2.601-4.775V7.588h-8.913l-8.012,22.263l-8.534-22.263h-9.253v0.974c0,0,3.091-0.012,3.091,4.775
		l0.164,26.442c0,4.799-3.46,4.781-3.46,4.781v0.971H156.251"/>
	<path fill-rule="evenodd" clip-rule="evenodd" fill="#757676" d="M195.448,45.531h7.167V44.56c0,0-3.686-0.23-3.817-4.744
		l-0.34-27.563l10.663,26.081c0,0,0.097,0.217,0.377,0.217c0.269,0,0.4-0.064,0.464-0.217c0.071-0.15,9.686-26.299,9.686-26.299
		l0.178,27.745c0,4.799-3.454,4.781-3.454,4.781v0.971h13.059V44.56c0,0-3.695-0.23-3.822-4.744l-0.059-26.479
		c0-4.787,2.597-4.775,2.597-4.775V7.588h-8.903l-8.012,22.263l-8.546-22.263h-9.239v0.974c0,0,3.089-0.012,3.089,4.775
		l0.152,26.442c0,4.799-3.452,4.781-3.452,4.781v0.971H195.448"/>
	<path fill-rule="evenodd" clip-rule="evenodd" fill="#757676" d="M125.88,33.988l-0.081-20.69
		c-0.134-4.512-3.817-4.736-3.817-4.736V7.588h13.026v0.974c0,0-3.456-0.012-3.456,4.775l0.04,20.809c0,0-0.966,10.021,6.45,10.021
		c7.418,0,7.521-5.381,7.521-10.135l-0.083-20.735c-0.13-4.512-3.815-4.736-3.815-4.736V7.588h9.186v0.974
		c0,0-3.46-0.012-3.46,4.775l0.047,20.854c0,4.398-0.018,12.092-10.598,12.092C126.27,46.283,125.88,38.697,125.88,33.988"/>
	<path fill-rule="evenodd" clip-rule="evenodd" fill="#757676" d="M79.808,45.531h8.6v-1.166c0,0-4.424-0.279-4.58-5.684
		L83.414,5.603l12.784,31.295c0,0,0.138,0.25,0.46,0.25c0.324,0,0.469-0.07,0.564-0.256c0.077-0.178,11.629-31.549,11.629-31.549
		l0.214,33.286c0,5.756-4.155,5.736-4.155,5.736v1.166h15.669v-1.166c0,0-4.426-0.279-4.58-5.684L115.943,6.9
		c0-5.747,3.102-5.733,3.102-5.733V0h-10.683l-9.616,26.718L88.492,0H77.396v1.167c0,0,3.693-0.014,3.693,5.733l0.211,31.728
		c0,5.756-4.155,5.736-4.155,5.736v1.166H79.808"/>
	<path fill-rule="evenodd" clip-rule="evenodd" fill="#757676" d="M60.913,40.779c0,0-0.047,3.752,2.524,3.752v0.994H52.595v-0.994
		c0,0,2.593-0.236,2.593-3.752l-0.035-14.684h-9.211l0.039,14.684c0,0-0.061,3.752,2.517,3.752v0.994H37.664v-0.994
		c0,0,2.585-0.236,2.585-3.752l-0.068-28.463c0,0-0.372-3.746-2.938-3.746V7.556h11.084v1.014c0,0-2.421,0.232-2.421,3.746
		l0.035,11.94h9.211l-0.027-11.94c0,0-0.233-3.746-2.801-3.746V7.556h10.812v1.014c0,0-2.287,0.232-2.287,3.746L60.913,40.779"/>
	<path fill-rule="evenodd" clip-rule="evenodd" fill="#757676" d="M71.638,43.804c0,1.402-1.144,2.539-2.544,2.539
		c-1.404,0-2.554-1.137-2.554-2.539c0-1.406,1.149-2.545,2.554-2.545C70.494,41.259,71.638,42.398,71.638,43.804"/>
</g>
</svg>
