<svg xmlns="http://www.w3.org/2000/svg" width="229.43" height="46.343" viewBox="0 0 229.43 46.343"><g fill-rule="evenodd" clip-rule="evenodd" fill="#757676"><path d="M17.423 24.533v1.004c2.855 0 2.78 3.756 2.78 3.756l.012 6.629c0 2.336-.278 4.188-.991 5.398-.711 1.221-2.392 2.531-5.239 2.531-2.844 0-4.973-1.896-6.32-5.016-1.358-3.113-1.588-9.156-1.588-10.623 0-1.459-.144-7.724 1.841-13.183 1.995-5.471 5.068-6.325 6.828-6.325 1.759 0 3.524.604 5.305 2.85 1.781 2.237 2.465 5.646 2.465 5.646l1.376-.186-.967-10.572-.543.018c-.255.316-1.114 1.793-4.358.641-2.967-1.02-5.733-.35-7.485.348-1.746.679-5.892 3.203-8.237 8.768C-.042 21.763 0 26.412 0 27.867c0 1.479.076 7.26 3.132 11.869 3.048 4.615 6.298 5.65 7.86 6.08 1.568.439 4.404.295 6.413-.365 2.009-.691 4.1-2.469 5.514-3.512 1.422-1.047 2.692-1.186 2.692-1.186v-4.832l-.028-6.629c0-3.516 2.424-3.756 2.424-3.756v-1.004H17.423M156.251 45.531h7.165v-.971s-3.688-.23-3.825-4.744l-.334-27.563 10.657 26.081s.101.217.383.217c.269 0 .396-.064.468-.217.069-.15 9.682-26.299 9.682-26.299l.178 27.745c0 4.799-3.454 4.781-3.454 4.781v.971h13.064v-.972s-3.701-.23-3.826-4.744l-.059-26.479c0-4.787 2.601-4.775 2.601-4.775v-.974h-8.913l-8.012 22.263-8.534-22.263h-9.253v.974s3.091-.012 3.091 4.775l.164 26.442c0 4.799-3.46 4.781-3.46 4.781v.971h2.217M195.448 45.531h7.167v-.971s-3.686-.23-3.817-4.744l-.34-27.563 10.663 26.081s.097.217.377.217c.269 0 .4-.064.464-.217.071-.15 9.686-26.299 9.686-26.299l.178 27.745c0 4.799-3.454 4.781-3.454 4.781v.971h13.059v-.972s-3.695-.23-3.822-4.744l-.059-26.479c0-4.787 2.597-4.775 2.597-4.775v-.974h-8.903l-8.012 22.263-8.546-22.263h-9.239v.974s3.089-.012 3.089 4.775l.152 26.442c0 4.799-3.452 4.781-3.452 4.781v.971h2.212M125.88 33.988l-.081-20.69c-.134-4.512-3.817-4.736-3.817-4.736v-.974h13.026v.974s-3.456-.012-3.456 4.775l.04 20.809s-.966 10.021 6.45 10.021c7.418 0 7.521-5.381 7.521-10.135l-.083-20.735c-.13-4.512-3.815-4.736-3.815-4.736v-.973h9.186v.974s-3.46-.012-3.46 4.775l.047 20.854c0 4.398-.018 12.092-10.598 12.092-10.57 0-10.96-7.586-10.96-12.295M79.808 45.531h8.6v-1.166s-4.424-.279-4.58-5.684l-.414-33.078 12.784 31.295s.138.25.46.25c.324 0 .469-.07.564-.256.077-.178 11.629-31.549 11.629-31.549l.214 33.286c0 5.756-4.155 5.736-4.155 5.736v1.166h15.669v-1.166s-4.426-.279-4.58-5.684L115.943 6.9c0-5.747 3.102-5.733 3.102-5.733V0h-10.683l-9.616 26.718L88.492 0H77.396v1.167s3.693-.014 3.693 5.733l.211 31.728c0 5.756-4.155 5.736-4.155 5.736v1.166h2.663M60.913 40.779s-.047 3.752 2.524 3.752v.994H52.595v-.994s2.593-.236 2.593-3.752l-.035-14.684h-9.211l.039 14.684s-.061 3.752 2.517 3.752v.994H37.664v-.994s2.585-.236 2.585-3.752l-.068-28.463s-.372-3.746-2.938-3.746V7.556h11.084V8.57s-2.421.232-2.421 3.746l.035 11.94h9.211l-.027-11.94s-.233-3.746-2.801-3.746V7.556h10.812V8.57s-2.287.232-2.287 3.746l.064 28.463M71.638 43.804a2.545 2.545 0 0 1-2.544 2.539 2.55 2.55 0 0 1-2.554-2.539 2.553 2.553 0 0 1 2.554-2.545c1.4 0 2.544 1.139 2.544 2.545"/></g></svg>