<?xml version="1.0" encoding="utf-8"?>
<!-- Generator: Adobe Illustrator 19.2.1, SVG Export Plug-In . SVG Version: 6.00 Build 0)  -->
<svg version="1.1" id="Lag_1" xmlns="http://www.w3.org/2000/svg" xmlns:xlink="http://www.w3.org/1999/xlink" x="0px" y="0px"
	 viewBox="0 0 17.2 13.6" style="enable-background:new 0 0 17.2 13.6;" xml:space="preserve">
<style type="text/css">
	.st0{fill:#7C562F;}
</style>
<g>
	<g>
		<path class="st0" d="M16.7,1H0.5C0.2,1,0,0.8,0,0.5S0.2,0,0.5,0h16.2c0.3,0,0.5,0.2,0.5,0.5S17,1,16.7,1z"/>
	</g>
	<g>
		<path class="st0" d="M16.7,7.3H0.5C0.2,7.3,0,7.1,0,6.8s0.2-0.5,0.5-0.5h16.2c0.3,0,0.5,0.2,0.5,0.5S17,7.3,16.7,7.3z"/>
	</g>
	<g>
		<path class="st0" d="M16.7,13.6H0.5c-0.3,0-0.5-0.2-0.5-0.5s0.2-0.5,0.5-0.5h16.2c0.3,0,0.5,0.2,0.5,0.5S17,13.6,16.7,13.6z"/>
	</g>
</g>
</svg>
