<?xml version="1.0" encoding="utf-8"?>
<!-- Generator: Adobe Illustrator 16.0.0, SVG Export Plug-In . SVG Version: 6.00 Build 0)  -->
<!DOCTYPE svg PUBLIC "-//W3C//DTD SVG 1.1//EN" "http://www.w3.org/Graphics/SVG/1.1/DTD/svg11.dtd">
<svg version="1.1" id="Layer_1" xmlns="http://www.w3.org/2000/svg" xmlns:xlink="http://www.w3.org/1999/xlink" x="0px" y="0px"
	 width="99.154px" height="137.335px" viewBox="120.641 49.287 99.154 137.335"
	 enable-background="new 120.641 49.287 99.154 137.335" xml:space="preserve">
<g>
	<path fill="#FFFFFF" d="M169.681,105.126l-2.259,0.596l-2.438,0.535l-2.198,0.357l-2.438,0.297l-2.378,0.18l-2.143,0.058
		c-3.483,0-6.601-0.499-9.333-1.485c-2.812-0.953-5.229-2.381-7.25-4.285c-2.021-1.864-3.588-4.166-4.696-6.901
		c-1.109-2.619-1.661-5.634-1.661-9.046c0-1.982,0.297-3.947,0.895-5.893c0.591-1.94,1.441-3.729,2.553-5.355
		c1.147-1.663,2.536-3.15,4.162-4.46c2.376-1.784,4.911-3.075,7.606-3.866c2.812-0.796,6.103-1.192,9.867-1.192
		c2.534,0,4.95,0.24,7.252,0.712c1.268,0.24,2.569,0.538,3.922,0.893c0.396,0.08,0.872,0.201,1.428,0.357
		c0.438,0.119,0.852,0.218,1.247,0.298c0.078,0.041,0.26,0.101,0.534,0.18c0.518,0.16,0.975,0.298,1.369,0.415
		c-0.318,1.151-0.576,2.438-0.772,3.867l-0.477,3.532h-1.845v-0.736c0-1.503-0.062-2.438-0.18-2.796
		c-0.119-0.318-0.438-0.675-0.952-1.07c-1.663-0.95-3.563-1.704-5.708-2.262c-2.178-0.595-4.375-0.893-6.598-0.893
		c-2.894,0-5.466,0.398-7.727,1.19c-2.141,0.755-4.002,1.925-5.59,3.513c-1.547,1.508-2.753,3.391-3.625,5.652
		c-0.831,2.184-1.249,4.699-1.249,7.559c0,1.547,0.118,2.912,0.357,4.104c0.157,1.149,0.491,2.399,1.009,3.748
		c0.911,2.34,2.224,4.401,3.928,6.188c1.737,1.825,3.765,3.191,6.062,4.104c2.336,0.952,4.896,1.427,7.667,1.427
		c2.651,0,5.942-0.691,9.865-2.082c0,0,1.935-6.729-2.243-10.208c-0.283-0.506-0.958-3.142-0.958-3.142s2.015,0.007,5.397,0
		c4.146-0.008,5.695,0,5.695,0s-1.082,2.344-1.325,3.142c-3.363,3.661-1.139,9.177-0.979,9.854l0.239,1.604
		C172.93,104.138,171.579,104.574,169.681,105.126"/>
	<path fill="#FFFFFF" d="M173.529,113.228c0.595,0.08,1.271,0.199,2.021,0.355c0.515,0.121,1.35,0.396,2.494,0.832
		c0.037,0.043,0.117,0.08,0.239,0.123c1.738,0.752,3.049,1.822,3.921,3.211c0.834,1.351,1.248,3.017,1.248,5
		c0,2.655-0.689,5.039-2.083,7.141c-1.464,2.145-3.463,3.771-6.003,4.879c-2.532,1.189-5.446,1.788-8.733,1.788l-2.26-0.062
		l-2.794-0.121h-2.258l-5.471,0.238v-1.307c0.952-0.518,1.604-0.912,1.962-1.189c0.237-0.199,0.454-0.535,0.653-1.017
		c0.075-0.634,0.116-1.429,0.116-2.379v-29.636c0-1.069-0.116-1.861-0.354-2.379c-0.279-0.556-0.635-0.91-1.073-1.07
		c-0.037,0-0.138-0.04-0.295-0.12c-0.24-0.038-0.414-0.08-0.537-0.118c-0.396-0.08-0.713-0.119-0.951-0.119l-2.555-0.062v-2.022
		l2.497,0.062l6.005,0.179l3.625-0.062l3.741-0.117h1.781l1.847-0.062c2.934,0,5.507,0.578,7.728,1.728
		c2.222,1.154,3.325,3.096,3.325,5.836c0,1.742-0.312,3.229-0.945,4.459c-0.638,1.27-1.686,2.4-3.147,3.394
		c-1.392,0.914-3.252,1.767-5.589,2.558C172.52,113.167,173.129,113.189,173.529,113.228z M164.614,112.455
		c3.764,0,6.52-0.633,8.262-1.906c1.743-1.266,2.615-3.332,2.615-6.188c0-4.523-2.914-6.783-8.735-6.783l-2.142,0.121
		c-0.16,0-0.457,0.038-0.893,0.118h-0.181c-0.199,0.039-0.396,0.058-0.594,0.058c-0.199,0.041-0.396,0.08-0.596,0.119l-0.183,2.678
		l-0.116,3.095l-0.062,4.938v3.629L164.614,112.455z M166.575,134.056c2.259,0,4.179-0.418,5.768-1.253
		c1.625-0.789,2.87-1.979,3.742-3.568c0.83-1.548,1.248-3.409,1.248-5.592c0-3.49-1.093-5.853-3.27-7.083
		c-2.188-1.229-5.093-1.846-8.737-1.846c-1.03,0-2.14,0.041-3.328,0.119v10.295l0.062,3.453l0.062,3.448v0.714l-0.12,0.895
		C163.703,133.914,165.227,134.056,166.575,134.056z"/>
	<path fill="#FFFFFF" d="M183.277,139.208c0.597,0.08,1.27,0.199,2.021,0.354c0.514,0.125,1.35,0.398,2.496,0.835
		c0.035,0.042,0.119,0.08,0.235,0.122c1.745,0.751,3.052,1.82,3.923,3.21c0.831,1.354,1.249,3.019,1.249,5
		c0,2.66-0.689,5.039-2.08,7.142c-1.466,2.144-3.469,3.771-6.005,4.879c-2.534,1.188-5.446,1.789-8.732,1.789l-2.262-0.062
		l-2.795-0.117h-2.257l-5.468,0.234v-1.307c0.949-0.518,1.604-0.912,1.96-1.191c0.236-0.196,0.455-0.535,0.652-1.012
		c0.078-0.635,0.117-1.432,0.117-2.379v-29.631c0-1.072-0.117-1.865-0.354-2.38c-0.28-0.558-0.634-0.911-1.073-1.071
		c-0.037,0-0.138-0.041-0.293-0.121c-0.24-0.033-0.417-0.08-0.538-0.114c-0.396-0.08-0.713-0.12-0.951-0.12l-2.555-0.062v-2.021
		l2.498,0.062l6.001,0.176l3.627-0.062l3.743-0.114h1.783l1.847-0.062c2.93,0,5.505,0.576,7.726,1.729
		c2.225,1.152,3.327,3.096,3.327,5.834c0,1.742-0.312,3.231-0.944,4.461c-0.642,1.27-1.688,2.399-3.152,3.394
		c-1.386,0.913-3.246,1.767-5.589,2.558C182.266,139.153,182.879,139.171,183.277,139.208z M174.362,138.437
		c3.764,0,6.517-0.631,8.263-1.9c1.741-1.27,2.618-3.332,2.618-6.188c0-4.521-2.914-6.785-8.742-6.785l-2.139,0.122
		c-0.16,0-0.454,0.037-0.89,0.116h-0.184c-0.193,0.039-0.396,0.059-0.595,0.059c-0.199,0.044-0.396,0.08-0.596,0.119l-0.183,2.68
		l-0.112,3.096l-0.062,4.938v3.631L174.362,138.437z M176.327,160.037c2.254,0,4.181-0.414,5.762-1.25
		c1.624-0.791,2.871-1.979,3.748-3.57c0.83-1.549,1.248-3.409,1.248-5.592c0-3.49-1.096-5.853-3.271-7.084
		c-2.183-1.223-5.093-1.842-8.738-1.842c-1.03,0-2.139,0.039-3.328,0.116v10.296l0.062,3.451l0.06,3.451v0.717l-0.122,0.893
		C173.448,159.901,174.977,160.037,176.327,160.037z"/>
	<path fill="#FFFFFF" d="M216.078,53.005v101.84l-47.937,27.439l-43.785-27.439V53.005H216.078z M217.745,51.337h-1.669h-91.72
		h-1.669v1.668v101.84v0.922l0.784,0.488l43.78,27.445l0.852,0.528l0.868-0.497l47.936-27.439l0.842-0.482v-0.965V53.005v-1.668
		H217.745z"/>
	<path fill="#FFFFFF" d="M218.865,50.217v2.79v101.838v1.615l-1.405,0.809l-47.936,27.439l-1.446,0.828l-1.414-0.888l-43.789-27.438
		l-1.307-0.821v-1.544V53.007v-2.79h2.787h91.721H218.865z M219.792,49.287h-3.716h-91.719h-3.716v3.72v101.838v2.06l1.741,1.095
		l43.786,27.439l1.888,1.184l1.932-1.104l47.937-27.438l1.871-1.072v-2.156V53.007v-3.72H219.792z"/>
</g>
</svg>
