<svg xmlns="http://www.w3.org/2000/svg" width="99.154" height="137.335" viewBox="120.641 49.287 99.154 137.335"><g fill="#FFF"><path d="M169.681 105.126l-2.259.596-2.438.535-2.198.357-2.438.297-2.378.18-2.143.058c-3.483 0-6.601-.499-9.333-1.485-2.812-.953-5.229-2.381-7.25-4.285-2.021-1.864-3.588-4.166-4.696-6.901-1.109-2.619-1.661-5.634-1.661-9.046 0-1.982.297-3.947.895-5.893a19.49 19.49 0 0 1 2.553-5.355 21.097 21.097 0 0 1 4.162-4.46c2.376-1.784 4.911-3.075 7.606-3.866 2.812-.796 6.103-1.192 9.867-1.192 2.534 0 4.95.24 7.252.712 1.268.24 2.569.538 3.922.893.396.08.872.201 1.428.357a19.6 19.6 0 0 0 1.247.298c.078.041.26.101.534.18.518.16.975.298 1.369.415a29.744 29.744 0 0 0-.772 3.867l-.477 3.532h-1.845v-.736c0-1.503-.062-2.438-.18-2.796-.119-.318-.438-.675-.952-1.07-1.663-.95-3.563-1.704-5.708-2.262a24.92 24.92 0 0 0-6.598-.893c-2.894 0-5.466.398-7.727 1.19a14.724 14.724 0 0 0-5.59 3.513c-1.547 1.508-2.753 3.391-3.625 5.652-.831 2.184-1.249 4.699-1.249 7.559 0 1.547.118 2.912.357 4.104.157 1.149.491 2.399 1.009 3.748a18.72 18.72 0 0 0 3.928 6.188 16.908 16.908 0 0 0 6.062 4.104c2.336.952 4.896 1.427 7.667 1.427 2.651 0 5.942-.691 9.865-2.082 0 0 1.935-6.729-2.243-10.208-.283-.506-.958-3.142-.958-3.142s2.015.007 5.397 0c4.146-.008 5.695 0 5.695 0s-1.082 2.344-1.325 3.142c-3.363 3.661-1.139 9.177-.979 9.854l.239 1.604c-.783.322-2.134.758-4.032 1.31"/><path d="M173.529 113.228c.595.08 1.271.199 2.021.355.515.121 1.35.396 2.494.832.037.043.117.08.239.123 1.738.752 3.049 1.822 3.921 3.211.834 1.351 1.248 3.017 1.248 5 0 2.655-.689 5.039-2.083 7.141-1.464 2.145-3.463 3.771-6.003 4.879-2.532 1.189-5.446 1.788-8.733 1.788l-2.26-.062-2.794-.121h-2.258l-5.471.238v-1.307c.952-.518 1.604-.912 1.962-1.189.237-.199.454-.535.653-1.017.075-.634.116-1.429.116-2.379v-29.636c0-1.069-.116-1.861-.354-2.379-.279-.556-.635-.91-1.073-1.07-.037 0-.138-.04-.295-.12a3.92 3.92 0 0 1-.537-.118 5.048 5.048 0 0 0-.951-.119l-2.555-.062v-2.022l2.497.062 6.005.179 3.625-.062 3.741-.117h1.781l1.847-.062c2.934 0 5.507.578 7.728 1.728 2.222 1.154 3.325 3.096 3.325 5.836 0 1.742-.312 3.229-.945 4.459-.638 1.27-1.686 2.4-3.147 3.394-1.392.914-3.252 1.767-5.589 2.558.836-.002 1.445.02 1.845.059zm-8.915-.773c3.764 0 6.52-.633 8.262-1.906 1.743-1.266 2.615-3.332 2.615-6.188 0-4.523-2.914-6.783-8.735-6.783l-2.142.121c-.16 0-.457.038-.893.118h-.181a3.074 3.074 0 0 1-.594.058c-.199.041-.396.08-.596.119l-.183 2.678-.116 3.095-.062 4.938v3.629l2.625.121zm1.961 21.601c2.259 0 4.179-.418 5.768-1.253 1.625-.789 2.87-1.979 3.742-3.568.83-1.548 1.248-3.409 1.248-5.592 0-3.49-1.093-5.853-3.27-7.083-2.188-1.229-5.093-1.846-8.737-1.846-1.03 0-2.14.041-3.328.119v10.295l.062 3.453.062 3.448v.714l-.12.895c1.701.276 3.225.418 4.573.418z"/><path d="M183.277 139.208c.597.08 1.27.199 2.021.354.514.125 1.35.398 2.496.835.035.042.119.08.235.122 1.745.751 3.052 1.82 3.923 3.21.831 1.354 1.249 3.019 1.249 5 0 2.66-.689 5.039-2.08 7.142-1.466 2.144-3.469 3.771-6.005 4.879-2.534 1.188-5.446 1.789-8.732 1.789l-2.262-.062-2.795-.117h-2.257l-5.468.234v-1.307c.949-.518 1.604-.912 1.96-1.191.236-.196.455-.535.652-1.012.078-.635.117-1.432.117-2.379v-29.631c0-1.072-.117-1.865-.354-2.38-.28-.558-.634-.911-1.073-1.071-.037 0-.138-.041-.293-.121a3.837 3.837 0 0 1-.538-.114 5.064 5.064 0 0 0-.951-.12l-2.555-.062v-2.021l2.498.062 6.001.176 3.627-.062 3.743-.114h1.783l1.847-.062c2.93 0 5.505.576 7.726 1.729 2.225 1.152 3.327 3.096 3.327 5.834 0 1.742-.312 3.231-.944 4.461-.642 1.27-1.688 2.399-3.152 3.394-1.386.913-3.246 1.767-5.589 2.558.832-.008 1.445.01 1.843.047zm-8.915-.771c3.764 0 6.517-.631 8.263-1.9 1.741-1.27 2.618-3.332 2.618-6.188 0-4.521-2.914-6.785-8.742-6.785l-2.139.122c-.16 0-.454.037-.89.116h-.184a3.032 3.032 0 0 1-.595.059c-.199.044-.396.08-.596.119l-.183 2.68-.112 3.096-.062 4.938v3.631l2.622.112zm1.965 21.6c2.254 0 4.181-.414 5.762-1.25a8.365 8.365 0 0 0 3.748-3.57c.83-1.549 1.248-3.409 1.248-5.592 0-3.49-1.096-5.853-3.271-7.084-2.183-1.223-5.093-1.842-8.738-1.842-1.03 0-2.139.039-3.328.116v10.296l.062 3.451.06 3.451v.717l-.122.893c1.7.278 3.229.414 4.579.414z"/><path d="M216.078 53.005v101.84l-47.937 27.439-43.785-27.439V53.005h91.722zm1.667-1.668h-95.058v104.43l.784.488 43.78 27.445.852.528.868-.497 47.936-27.439.842-.482V51.337h-.004z"/><path d="M218.865 50.217V156.46l-1.405.809-47.936 27.439-1.446.828-1.414-.888-43.789-27.438-1.307-.821V50.217h97.297zm.927-.93h-99.151v107.618l1.741 1.095 43.786 27.439 1.888 1.184 1.932-1.104 47.937-27.438 1.871-1.072V49.287h-.004z"/></g></svg>