<svg xmlns="http://www.w3.org/2000/svg" width="237.707" height="26.062" viewBox="0 0 237.707 26.062"><g fill="#835E48"><path d="M9.35 10.271l-.574.151-.619.136-.559.091-.619.075-.604.046-.544.015c-.886 0-1.677-.126-2.372-.377A4.986 4.986 0 0 1 1.616 9.32 4.81 4.81 0 0 1 .423 7.567C.141 6.903 0 6.138 0 5.271c0-.503.076-1.001.227-1.495a4.95 4.95 0 0 1 .649-1.359 5.37 5.37 0 0 1 1.057-1.133A6.068 6.068 0 0 1 3.867.302C4.582.101 5.417 0 6.375 0c.644 0 1.258.06 1.843.181.322.06.654.136.997.227.101.021.222.05.363.09.111.03.216.056.317.076.02.01.065.025.136.045.13.041.247.076.347.106a7.554 7.554 0 0 0-.196.981L10.06 2.9h-.468v-.483c0-.382-.015-.619-.045-.71-.03-.081-.111-.171-.242-.272a5.913 5.913 0 0 0-1.45-.574A6.31 6.31 0 0 0 6.178.634c-.735 0-1.39.101-1.963.302a3.739 3.739 0 0 0-1.421.892c-.393.382-.7.861-.921 1.435-.212.553-.317 1.193-.317 1.918 0 .393.03.74.091 1.042.04.292.125.609.257.951.231.595.563 1.118.996 1.571.443.464.957.811 1.541 1.043a5.115 5.115 0 0 0 1.949.362c.674 0 1.51-.176 2.507-.529v-.483l.045-1.193c0-.362-.055-.614-.166-.755a.799.799 0 0 0-.272-.15 1.287 1.287 0 0 0-.438-.061h-.091l-.498-.016V6.45l1.087.03 1.073.03.513-.015.514-.03h.392l.121-.015v.333l-.302.121c-.241.09-.408.231-.499.423-.09.191-.136.539-.136 1.042l.015.362v.333c0 .142.02.297.06.468l.061.408c-.201.08-.543.19-1.026.331zm4.803-7.099a4.812 4.812 0 0 1 1.163-1.707c.161-.141.292-.251.393-.333.141-.11.287-.206.438-.287.272-.171.604-.327.997-.468A7.181 7.181 0 0 1 19.516 0c.795 0 1.541.116 2.235.347a4.724 4.724 0 0 1 1.722.997 4.5 4.5 0 0 1 1.087 1.601c.252.604.378 1.289.378 2.055 0 1.067-.251 2.044-.755 2.93a5.314 5.314 0 0 1-2.084 2.084 5.738 5.738 0 0 1-2.931.771c-.826 0-1.566-.121-2.22-.362a4.894 4.894 0 0 1-1.692-1.087 5.029 5.029 0 0 1-1.118-1.708 7.81 7.81 0 0 1-.287-1.057 7.215 7.215 0 0 1-.091-1.178c0-.806.132-1.546.393-2.221zm1.405 3.821c.202.655.499 1.218.892 1.692.373.483.836.846 1.39 1.088a4.102 4.102 0 0 0 1.767.377c.786 0 1.46-.186 2.024-.559.574-.383 1.006-.932 1.299-1.647.302-.715.453-1.55.453-2.507 0-.725-.096-1.375-.287-1.949a4.568 4.568 0 0 0-.846-1.541 3.646 3.646 0 0 0-1.329-.982 4.239 4.239 0 0 0-1.692-.332c-.826 0-1.531.171-2.115.513a3.463 3.463 0 0 0-1.375 1.467c-.323.654-.483 1.379-.483 2.175 0 .806.1 1.541.302 2.205zm15.724 2.946l.634.015.831-.015.695-.016h.377a.859.859 0 0 1 .151-.015l.483-.06c.272-.031.563-.091.876-.182l.453-1.737h.483a80.415 80.415 0 0 0-.272 2.356l-.03.242-.438.061-.317.03-.468.015h-.21c-.091 0-.161.005-.211.015l-.725-.03-1.027-.015-2.326-.03-.514.015-.62.03-.559.03v-.333c.221-.121.383-.221.483-.302.061-.05.116-.146.167-.287a2.62 2.62 0 0 0 .045-.574V1.631c0-.272-.036-.474-.105-.604a.527.527 0 0 0-.257-.272 2.12 2.12 0 0 0-.453-.105l-.649-.015V.136l1.087.03 1.072.031 1.088-.031 1.072-.03v.499h-.272l-.317.03-.287.015a1.84 1.84 0 0 0-.287.09.42.42 0 0 0-.227.287 1.826 1.826 0 0 0-.076.574V8.82l.015.71v.272l-.015.106.65.031zm10.544-.786c0 .272.035.474.105.604.081.141.176.232.287.272.061.02.141.04.242.06l.348.015.483.03v.514l-1.072-.03-1.088-.03-1.072.03-1.088.03v-.514h.407a.501.501 0 0 1 .121-.015l.363-.045c.121-.01.252-.085.393-.226.121-.141.181-.373.181-.695V1.631c0-.272-.031-.474-.091-.604-.071-.141-.161-.231-.271-.272l-.076-.03-.121-.031a1.362 1.362 0 0 0-.257-.03l-.65-.015V.136l1.133.03.921.031 1.707-.015 1.541-.016 1.087-.03c.463 0 1.007.025 1.631.076l-.06.242c-.021.07-.04.136-.061.196-.03.131-.061.312-.09.544l-.061.589-.03.695h-.499c0-.523-.025-.977-.075-1.359a5.043 5.043 0 0 0-1.013-.242l-.619-.045L43.729.8c-.604 0-1.208.03-1.812.09-.061.584-.09 1.159-.09 1.723v2.295h.257c.111 0 .201.005.272.015l.77.046h.604c.101 0 .191-.005.272-.016h.272l.348-.03c.101-.01.211-.04.333-.09.13-.05.216-.126.257-.227l.06-.197.03-.272.015-.317.015-.257h.498l-.045 1.707.045 1.722h-.5l-.015-.257-.015-.316c0-.242-.056-.428-.166-.559-.091-.11-.277-.186-.559-.227L44 5.604l-.876-.016c-.584 0-1.017.021-1.299.061v3.504zm20.029-4.591l1.148.045 1.616-.03 1.616-.03-.09.483-.075.559-.499-.075-.438-.03-1.178-.06.061.347.015.302c0 .443-.095.866-.287 1.269-.181.382-.504.82-.967 1.313.957.686 1.848 1.028 2.674 1.028.13 0 .236-.02.317-.061.121-.04.297-.136.529-.287l.105.347c-.443.302-.876.634-1.299.997-.181.07-.383.105-.604.105-.393 0-.791-.096-1.193-.287-.453-.212-.937-.524-1.45-.937-.312.242-.64.469-.982.68a4.815 4.815 0 0 1-.468.211l-.514.182a3.9 3.9 0 0 1-1.133.151c-.413 0-.815-.07-1.208-.211a3.665 3.665 0 0 1-.513-.287 2.925 2.925 0 0 1-.469-.347 2.915 2.915 0 0 1-.634-.982 3.307 3.307 0 0 1-.227-1.224c0-.473.101-.901.302-1.284.211-.383.493-.725.846-1.027.11-.101.287-.242.528-.423l.408-.287c.07-.05.146-.101.227-.151l-.211-.589-.136-.484c0-.01-.005-.05-.016-.121l-.045-.272a4.464 4.464 0 0 1-.015-.438c0-.413.045-.73.136-.952.091-.231.262-.458.514-.68.353-.322.67-.584.952-.786.121-.08.262-.141.423-.181.129-.038.295-.058.497-.058.261 0 .493.055.694.166.212.111.368.267.469.469.11.241.166.488.166.74 0 .373-.075.72-.226 1.042a2.503 2.503 0 0 1-.287.483 4.047 4.047 0 0 1-.423.499c-.262.292-.67.634-1.224 1.027.272.513.564.992.876 1.435.362.503.71.937 1.042 1.299.322.363.7.745 1.132 1.148.252-.303.438-.604.559-.906.121-.292.181-.619.181-.982 0-.333-.03-.564-.091-.695-.06-.141-.181-.242-.362-.302l-.347-.061-.529-.015h-.317l-.045-.121.469-.664zm-2.16 2.733a19.397 19.397 0 0 1-1.42-2.19c-.463.333-.785.655-.966.967-.212.332-.317.71-.317 1.132 0 .494.111.942.332 1.344.211.393.519.721.921.982.403.252.841.378 1.314.378.554 0 1.168-.247 1.843-.74a14.168 14.168 0 0 1-1.707-1.873zm.362-4.471c.222-.342.333-.705.333-1.087 0-.272-.076-.503-.227-.695-.151-.191-.327-.287-.529-.287-.312 0-.554.116-.725.348-.171.232-.257.569-.257 1.012v.227c0 .091.005.156.016.196l.075.362c.061.323.156.66.287 1.012.463-.383.806-.745 1.027-1.088zm20.724 1.888c.151.021.322.051.514.091.131.03.343.101.635.211.01.01.03.021.061.03.443.192.775.463.997.816.211.343.317.766.317 1.269 0 .675-.176 1.278-.528 1.812a3.508 3.508 0 0 1-1.525 1.239c-.645.302-1.385.453-2.221.453l-.574-.015-.71-.03h-.574l-1.39.061v-.333c.242-.13.408-.231.499-.302a.665.665 0 0 0 .166-.256c.02-.161.03-.362.03-.604V1.631c0-.272-.03-.474-.09-.604a.517.517 0 0 0-.272-.272.264.264 0 0 1-.076-.03.95.95 0 0 1-.136-.031 1.3 1.3 0 0 0-.241-.03l-.649-.015V.136l.634.015 1.525.045.921-.015.952-.03h.453l.468-.015c.745 0 1.4.146 1.964.438s.846.786.846 1.48c0 .444-.081.821-.242 1.133-.161.322-.428.609-.8.861-.353.231-.826.448-1.42.65.21 0 .366.005.466.014zm-2.265-.195c.957 0 1.656-.162 2.1-.484.443-.322.665-.846.665-1.571 0-1.148-.74-1.722-2.221-1.722l-.544.03c-.041 0-.116.01-.227.03h-.045c-.05.01-.1.015-.151.015l-.151.03-.045.68-.03.785-.015 1.254v.921l.664.032zm.498 5.482c.574 0 1.062-.105 1.465-.317.413-.202.73-.503.952-.906.211-.393.317-.866.317-1.42 0-.885-.277-1.485-.831-1.797-.554-.312-1.294-.468-2.221-.468-.262 0-.543.01-.846.03v2.613l.015.876.015.876v.181l-.03.227c.434.07.821.105 1.164.105zM93.802.136l.891.03.922.031 1.798-.061V.65l-.589.015-.287.015a1.06 1.06 0 0 0-.272.091.408.408 0 0 0-.242.257c-.051.131-.076.333-.076.604v4.259l-.015.952-.015.559v.211c0 .03-.005.076-.015.136a.525.525 0 0 1-.015.151c-.011.1-.041.251-.091.453a2.205 2.205 0 0 1-.423.937c-.101.121-.181.217-.242.288a3.34 3.34 0 0 1-1.39.906c-.584.201-1.239.302-1.964.302-.967 0-1.792-.151-2.477-.453-.695-.312-1.153-.725-1.375-1.239l-.105-.273-.091-.272-.045-.317-.03-.377v-.65c0-.11-.005-.211-.015-.302V1.631c0-.272-.035-.474-.106-.604a.452.452 0 0 0-.287-.272l-.211-.061-.196-.03-.665-.015V.136l.453.015.634.015 1.073.031.453-.015.634-.016 1.073-.03V.65l-.317.015c-.332 0-.569.015-.709.045-.122.031-.232.116-.333.257-.071.131-.106.353-.106.665v4.546l.015.649.015.725.015.408c.01.051.04.146.09.287l.015.076c.061.211.146.388.257.528.231.323.574.564 1.027.726a4.454 4.454 0 0 0 1.601.272c.594 0 1.138-.091 1.631-.272.483-.161.84-.403 1.072-.726.171-.251.297-.599.378-1.042.081-.463.121-1.107.121-1.933V1.631c0-.242-.025-.438-.075-.589-.061-.141-.136-.231-.227-.272l-.241-.076a.946.946 0 0 0-.227-.03l-.694-.015V.136zm12.869 1.374l-.03.453-.031.71h-.513v-.589c0-.967-.746-1.45-2.235-1.45-.554 0-1.012.081-1.375.241a2.14 2.14 0 0 0-.906.725 1.819 1.819 0 0 0-.348 1.088c0 .645.176 1.103.529 1.375.342.282.831.468 1.465.559l1.873.211c.635.061 1.123.202 1.465.423.262.161.478.413.649.755.171.352.257.705.257 1.057 0 .543-.105 1.042-.317 1.495a3.644 3.644 0 0 1-.937 1.178 4.381 4.381 0 0 1-1.45.786 6.316 6.316 0 0 1-1.813.257c-.453 0-.785-.021-.997-.061h-.196l-.091-.015-.181-.045-.453-.106-.363-.121-.105-.03a1.899 1.899 0 0 1-.317-.121l-.196-.075a6.35 6.35 0 0 1 .045-.408c0-.07.005-.13.016-.181v-.044c.02-.171.03-.288.03-.348l.03-1.284h.514v.378c0 .393.015.649.045.77.03.131.111.257.242.377.272.212.599.378.982.499a4.4 4.4 0 0 0 1.299.181c.322 0 .599-.021.831-.061.242-.04.478-.11.71-.211.453-.202.796-.483 1.027-.846.242-.353.363-.761.363-1.224 0-.765-.247-1.253-.74-1.465-.483-.191-1.249-.342-2.296-.453-1.077-.111-1.873-.332-2.386-.665-.544-.353-.815-1.017-.815-1.994 0-.503.09-.957.271-1.359.182-.382.453-.719.816-1.012a3.955 3.955 0 0 1 1.269-.635c.182-.061.443-.115.785-.166.252-.04.554-.06.907-.06.916 0 1.863.211 2.84.634a3.544 3.544 0 0 0-.169.877zm7.81-.861l-.589.015-.287.015a1.964 1.964 0 0 0-.287.091.42.42 0 0 0-.227.287 1.826 1.826 0 0 0-.076.574v7.522c0 .272.035.474.105.604.081.141.176.232.288.272.06.02.141.04.241.06l.348.015.483.03v.514l-1.072-.03-1.088-.03-1.072.03-1.087.03v-.514h.407a.501.501 0 0 1 .121-.015l.363-.045c.121-.01.251-.085.393-.226.121-.141.181-.373.181-.695V1.631c0-.272-.03-.474-.091-.604a.512.512 0 0 0-.271-.272.264.264 0 0 1-.076-.03.918.918 0 0 1-.136-.031 1.308 1.308 0 0 0-.242-.03l-.649-.015V.136l1.087.03 1.072.031.453-.015.635-.016 1.072-.03v.513zm4.864 8.504c0 .272.035.474.105.604.08.141.176.232.287.272.061.02.141.04.241.06l.348.015.483.03v.514l-.876-.03-.922-.03-1.812.061v-.514h.407c.04-.01.08-.015.121-.015l.362-.045c.121-.01.251-.085.393-.226.121-.141.181-.373.181-.695V1.631c0-.272-.034-.474-.105-.604a.408.408 0 0 0-.257-.272 2.12 2.12 0 0 0-.453-.105L117.2.634V.136l1.147.03.967.031.271-.031.257-.03 1.466 1.873 1.253 1.571 2.522 3.097.604.755.771.937.589.619V1.631c0-.292-.02-.484-.06-.574a.584.584 0 0 0-.258-.287.44.44 0 0 0-.227-.076l-.105-.015a.66.66 0 0 0-.105-.015h-.121l-.317-.03h-.271V.136l.891.03.922.031 1.798-.061v.499h-.272l-.317.03-.287.015a2.003 2.003 0 0 0-.287.091c-.101.041-.181.136-.241.287-.05.151-.075.343-.075.574v5.981l.015.755.03.74.015.68.076 1.042a5.499 5.499 0 0 1-.726-.122 3.44 3.44 0 0 1-.543-.136 2.115 2.115 0 0 1-.348-.302l-.334-.392-.272-.348-.981-1.178-5.302-6.54v7.341zm15.543-1.707v1.027c0 .706.005 1.073.015 1.104v.166l.016.167c.061 0 .176.005.347.015.151.01.237.016.258.016.19.01.387.015.589.015l1.072.03c.584 0 1.012-.015 1.284-.045.292-.03.594-.106.906-.227l.241-.907.137-.71h.498a18.385 18.385 0 0 0-.196 2.478c-.574.061-1.113.091-1.616.091l-1.013-.015-1.404-.03-1.888-.03-1.526.045-.634.015v-.514h.407c.04-.01.08-.015.121-.015l.362-.045c.121-.01.252-.085.393-.226.121-.141.182-.373.182-.695V1.631c0-.272-.035-.474-.105-.604a.527.527 0 0 0-.257-.272 2.136 2.136 0 0 0-.453-.105l-.649-.015V.136l1.133.03.981.031 2.175-.031 2.16-.03.529.03 1.103.046a3.39 3.39 0 0 0-.061.242c-.03.091-.056.171-.075.241a3.789 3.789 0 0 0-.091.514l-.061.589-.015.68h-.499c0-.503-.025-.957-.075-1.359a4.222 4.222 0 0 0-.982-.242l-.619-.045-.785-.03c-.735 0-1.359.03-1.873.09l-.016 1.254-.015 1.269v1.496h.242c.11 0 .2.005.271.015l.785.046h.619c.091 0 .177-.005.257-.016h.272l.347-.03c.101-.01.212-.04.333-.09.131-.05.216-.126.256-.227l.061-.197.03-.272.03-.317v-.259h.499l-.046 1.707.046 1.722h-.499v-.257l-.03-.317c0-.242-.055-.428-.166-.559-.07-.1-.257-.176-.559-.227l-.574-.03-.876-.016c-.594 0-1.027.021-1.299.061v1.798zm14.863-5.936l-.03.453-.03.71h-.514v-.589c0-.967-.745-1.45-2.235-1.45-.554 0-1.013.081-1.375.241a2.147 2.147 0 0 0-.906.725 1.826 1.826 0 0 0-.348 1.088c0 .645.177 1.103.529 1.375.342.282.83.468 1.465.559l1.873.211c.635.061 1.123.202 1.465.423.263.161.479.413.65.755.171.352.256.705.256 1.057 0 .543-.105 1.042-.316 1.495a3.671 3.671 0 0 1-.937 1.178 4.381 4.381 0 0 1-1.45.786 6.319 6.319 0 0 1-1.812.257c-.453 0-.785-.021-.997-.061h-.196l-.091-.015-.182-.045-.453-.106-.362-.121-.105-.03a1.899 1.899 0 0 1-.317-.121l-.196-.075c.01-.131.024-.267.045-.408 0-.07.005-.13.016-.181v-.044c.021-.171.03-.288.03-.348l.03-1.284h.513v.378c0 .393.016.649.046.77.03.131.11.257.242.377.271.212.599.378.981.499.393.121.825.181 1.299.181.322 0 .599-.021.831-.061.241-.04.478-.11.71-.211.453-.202.795-.483 1.026-.846.242-.353.363-.761.363-1.224 0-.765-.247-1.253-.74-1.465-.483-.191-1.249-.342-2.296-.453-1.078-.111-1.873-.332-2.387-.665-.544-.353-.815-1.017-.815-1.994 0-.503.09-.957.271-1.359.182-.382.453-.719.815-1.012a3.96 3.96 0 0 1 1.27-.635c.181-.061.443-.115.785-.166.251-.04.554-.06.906-.06.916 0 1.863.211 2.84.634a3.53 3.53 0 0 0-.167.877zm9.999 0l-.03.453-.029.71h-.514v-.589c0-.967-.746-1.45-2.236-1.45-.554 0-1.012.081-1.374.241a2.14 2.14 0 0 0-.906.725 1.819 1.819 0 0 0-.348 1.088c0 .645.176 1.103.528 1.375.343.282.831.468 1.466.559l1.873.211c.634.061 1.123.202 1.465.423.262.161.479.413.649.755.172.352.257.705.257 1.057 0 .543-.105 1.042-.316 1.495a3.661 3.661 0 0 1-.938 1.178 4.381 4.381 0 0 1-1.45.786 6.309 6.309 0 0 1-1.812.257c-.453 0-.785-.021-.997-.061h-.196l-.09-.015-.182-.045-.453-.106-.362-.121-.105-.03a1.866 1.866 0 0 1-.317-.121l-.196-.075c.01-.131.024-.267.045-.408 0-.07.005-.13.016-.181v-.044c.02-.171.029-.288.029-.348l.03-1.284h.514v.378c0 .393.016.649.046.77.03.131.11.257.241.377.271.212.6.378.981.499.394.121.826.181 1.3.181.321 0 .599-.021.831-.061.241-.04.478-.11.71-.211.453-.202.795-.483 1.026-.846.242-.353.362-.761.362-1.224 0-.765-.246-1.253-.739-1.465-.484-.191-1.249-.342-2.297-.453-1.077-.111-1.872-.332-2.386-.665-.544-.353-.816-1.017-.816-1.994 0-.503.091-.957.272-1.359.181-.382.453-.719.815-1.012a3.965 3.965 0 0 1 1.269-.635 4.9 4.9 0 0 1 .786-.166c.251-.04.553-.06.906-.06.916 0 1.862.211 2.839.634a3.53 3.53 0 0 0-.167.877zm15.075 3.202c.151.021.322.051.514.091.131.03.342.101.635.211a.14.14 0 0 0 .061.03c.442.192.775.463.996.816.212.343.317.766.317 1.269 0 .675-.176 1.278-.528 1.812a3.51 3.51 0 0 1-1.526 1.239c-.644.302-1.385.453-2.22.453l-.574-.015-.71-.03h-.574l-1.39.061v-.333c.242-.13.408-.231.498-.302a.654.654 0 0 0 .167-.256c.02-.161.03-.362.03-.604V1.631c0-.272-.03-.474-.091-.604a.512.512 0 0 0-.271-.272.254.254 0 0 1-.076-.03.95.95 0 0 1-.136-.031 1.318 1.318 0 0 0-.242-.03l-.649-.015V.136l.635.015 1.525.045.922-.015.951-.03h.453l.469-.015c.745 0 1.399.146 1.964.438.563.292.846.786.846 1.48 0 .444-.081.821-.242 1.133-.161.322-.428.609-.8.861-.353.231-.826.448-1.42.65.209 0 .366.005.466.014zm-2.265-.195c.956 0 1.656-.162 2.1-.484s.665-.846.665-1.571c0-1.148-.74-1.722-2.221-1.722l-.544.03c-.04 0-.116.01-.227.03h-.046a.77.77 0 0 1-.15.015l-.151.03-.045.68-.03.785-.016 1.254v.921l.665.032zm.498 5.482c.574 0 1.062-.105 1.466-.317.412-.202.729-.503.951-.906.212-.393.317-.866.317-1.42 0-.885-.277-1.485-.831-1.797s-1.294-.468-2.221-.468c-.262 0-.543.01-.846.03v2.613l.016.876.015.876v.181l-.03.227c.432.07.821.105 1.163.105zM187.846.136l.891.03.922.031 1.797-.061V.65l-.589.015-.286.015a1.06 1.06 0 0 0-.272.091.407.407 0 0 0-.241.257c-.051.131-.076.333-.076.604v4.259l-.015.952-.016.559v.211c0 .03-.005.076-.015.136a.516.516 0 0 1-.016.151c-.01.101-.04.252-.091.453-.04.222-.12.443-.241.665-.04.071-.101.162-.181.272l-.242.288a3.333 3.333 0 0 1-1.39.906c-.584.201-1.238.302-1.964.302-.967 0-1.793-.151-2.477-.453-.695-.312-1.154-.725-1.375-1.239l-.105-.272-.091-.272-.045-.317-.031-.377v-.65c0-.11-.005-.211-.015-.302V1.631c0-.272-.035-.474-.105-.604a.454.454 0 0 0-.287-.272l-.212-.061-.196-.03-.664-.015V.136l.453.015.634.015 1.073.031.453-.015.634-.016 1.073-.03V.65l-.317.015c-.332 0-.569.015-.711.045-.12.031-.231.116-.331.257-.071.131-.106.353-.106.665v4.546l.016.649.015.725.015.408c.011.051.041.146.091.287l.016.076c.061.211.146.388.257.528.231.323.573.564 1.026.726a4.46 4.46 0 0 0 1.602.272c.594 0 1.138-.091 1.632-.272.483-.161.84-.403 1.072-.726.171-.251.297-.599.377-1.042.081-.463.121-1.107.121-1.933V1.631c0-.242-.024-.438-.075-.589-.061-.141-.136-.231-.227-.272l-.241-.076a.947.947 0 0 0-.228-.03l-.694-.015V.136zm8.428 9.999h.378a.56.56 0 0 1 .136-.015c.09 0 .166-.005.227-.015.03-.01.07-.02.12-.03a.404.404 0 0 0 .122-.015c.09-.02.196-.09.316-.211.111-.141.166-.373.166-.695V2.401l-.029-.891-.016-.695h-.74c-.121 0-.236.005-.348.015h-.771a4.62 4.62 0 0 1-.407.015c-.182 0-.303.005-.363.015a.472.472 0 0 0-.181.075c-.03.021-.065.086-.105.196l-.016.015-.061.393-.06.499-.046.514h-.468l.015-.876c0-.332-.03-.846-.091-1.541l.393.015 1.813.03.921.015h2.357l1.088-.015 1.797-.03.393-.015v.408a.846.846 0 0 0-.015.166.846.846 0 0 1-.015.166c0 .111-.011.257-.031.438-.01.071-.015.131-.015.181a.691.691 0 0 1-.015.181V2.1l.015.453h-.453l-.061-.846a.848.848 0 0 0-.045-.317.23.23 0 0 0-.016-.076c0-.04-.005-.065-.015-.076l-.03-.045-.045-.091a.37.37 0 0 0-.363-.242l-.739-.015-1.783-.03-.03 1.012-.03 1.269v6.057c0 .353.056.599.166.74.111.111.293.181.544.211l.756.03v.514l-1.072-.03-1.088-.03-1.072.03-1.088.03v-.513zm12.779-.196l.635.015.83-.015.695-.016h.378a.859.859 0 0 1 .151-.015l.482-.06c.272-.031.564-.091.877-.182l.453-1.737h.482a82.15 82.15 0 0 0-.271 2.356l-.03.242-.438.061-.317.03-.468.015h-.212c-.091 0-.161.005-.212.015l-.725-.03-1.027-.015-2.326-.03-.514.015-.619.03-.559.03v-.333c.221-.121.383-.221.482-.302.062-.05.116-.146.167-.287a2.62 2.62 0 0 0 .045-.574V1.631c0-.272-.035-.474-.105-.604a.527.527 0 0 0-.257-.272 2.12 2.12 0 0 0-.453-.105l-.649-.015V.136l1.087.03 1.073.031 1.087-.031 1.072-.03v.499h-.271l-.317.03-.286.015a1.974 1.974 0 0 0-.288.091.422.422 0 0 0-.226.287 1.826 1.826 0 0 0-.076.574v7.189l.016.71v.272l-.016.106.65.03zm10.724-2.493v1.027c0 .706.005 1.073.016 1.104v.166l.015.167c.061 0 .177.005.348.015.151.01.236.016.257.016.191.01.388.015.589.015l1.072.03c.584 0 1.013-.015 1.284-.045.292-.03.595-.106.906-.227l.242-.907.136-.71h.498a18.385 18.385 0 0 0-.196 2.478c-.573.061-1.112.091-1.616.091l-1.012-.015-1.405-.03-1.888-.03-1.525.045-.635.015v-.514h.408c.04-.01.08-.015.121-.015l.362-.045c.12-.01.251-.085.393-.226.12-.141.182-.373.182-.695V1.631c0-.272-.036-.474-.106-.604a.527.527 0 0 0-.257-.272 2.12 2.12 0 0 0-.453-.105l-.649-.015V.136l1.133.03.982.031 2.175-.031 2.16-.03.528.03 1.103.046c-.02.07-.04.151-.061.242a6.39 6.39 0 0 0-.075.241c-.04.162-.07.333-.091.514l-.061.589-.015.68h-.499c0-.503-.025-.957-.075-1.359a4.214 4.214 0 0 0-.981-.242l-.619-.045-.786-.03c-.735 0-1.359.03-1.873.09l-.015 1.254-.016 1.269v1.496h.242c.11 0 .201.005.271.015l.785.046h.62c.09 0 .176-.005.257-.016h.271l.348-.03c.101-.01.211-.04.332-.09.131-.05.217-.126.257-.227l.061-.197.03-.272.03-.317v-.259h.498l-.045 1.707.045 1.722h-.498v-.257l-.03-.317c0-.242-.056-.428-.166-.559-.071-.1-.257-.176-.56-.227l-.573-.03-.877-.016c-.594 0-1.026.021-1.299.061v1.798zm16.208 1.345l.528.74c.111.142.262.272.453.393.172.091.418.162.74.212v.514h-.423a.713.713 0 0 0-.136-.015c-.121 0-.282-.015-.483-.045l-1.043.061-2.521-3.537a15.303 15.303 0 0 0-1.524-1.903l.074-.241.575.03c.583 0 1.066-.095 1.449-.287.383-.181.689-.453.922-.815.211-.362.317-.786.317-1.269 0-.393-.091-.74-.272-1.042-.171-.292-.438-.529-.8-.71a2.768 2.768 0 0 0-.56-.166l-.15-.03a.69.69 0 0 1-.151-.015 3.147 3.147 0 0 0-.378-.015c-.493 0-1.007.096-1.541.287 0 .142-.005.282-.015.423-.01.151-.015.297-.015.438a18.85 18.85 0 0 1-.061 1.646v5.709c0 .272.035.474.105.604.08.141.176.232.287.272.061.02.141.04.241.06l.348.015.483.03v.514l-1.072-.03-1.088-.03-1.072.03-1.088.03v-.514h.408c.04-.01.08-.015.121-.015l.362-.045c.121-.01.252-.085.393-.226.121-.141.182-.373.182-.695V1.631c0-.272-.03-.474-.091-.604a.51.51 0 0 0-.272-.272.263.263 0 0 1-.075-.03.95.95 0 0 1-.136-.031 1.328 1.328 0 0 0-.242-.03l-.649-.015V.136l.635.015 1.525.045 1.012-.031.952-.03.846-.015c.503 0 .946.036 1.329.105.402.071.771.187 1.103.348.635.312.952.906.952 1.783 0 .755-.252 1.385-.756 1.888-.503.503-1.229.86-2.175 1.072l2.447 3.475zM66.841 24.881c0 .192.025.334.075.426.057.1.124.163.202.191.042.014.099.028.17.042l.244.012.34.021v.361l-.616-.021-.649-.021-1.276.042v-.361h.287a.348.348 0 0 1 .085-.011l.255-.032c.085-.007.177-.06.276-.158.085-.1.127-.263.127-.49v-5.294c0-.191-.025-.334-.074-.426a.285.285 0 0 0-.181-.191 1.573 1.573 0 0 0-.318-.075l-.458-.01v-.352l.808.022.681.021.191-.021.181-.022 1.032 1.318.882 1.106 1.776 2.18.425.531.542.659.414.436v-5.177c0-.206-.014-.341-.042-.404a.403.403 0 0 0-.181-.202.304.304 0 0 0-.16-.053l-.075-.011a.394.394 0 0 0-.074-.012h-.084l-.224-.021h-.191v-.352l.627.022.648.021 1.265-.043v.352h-.191l-.224.021-.202.012c-.064.014-.132.035-.203.063s-.127.096-.169.202c-.036.106-.054.24-.054.404v4.21l.011.531.021.521.011.478.053.734a3.88 3.88 0 0 1-.511-.085 2.33 2.33 0 0 1-.382-.097c-.1-.07-.181-.141-.245-.211l-.233-.277-.191-.244-.691-.83-3.732-4.604v5.169zm9.718-4.21c.192-.468.465-.868.819-1.201.114-.1.206-.178.277-.234.099-.078.202-.146.308-.201a3.63 3.63 0 0 1 .702-.33 5.032 5.032 0 0 1 1.669-.266c.56 0 1.084.081 1.574.244.468.156.872.39 1.212.701a3.2 3.2 0 0 1 .766 1.128c.177.425.266.906.266 1.445 0 .751-.177 1.438-.531 2.063a3.749 3.749 0 0 1-1.467 1.467 4.037 4.037 0 0 1-2.063.542 4.485 4.485 0 0 1-1.562-.255 3.427 3.427 0 0 1-1.978-1.968 5.456 5.456 0 0 1-.202-.743 5.106 5.106 0 0 1-.063-.829 4.23 4.23 0 0 1 .273-1.563zm.989 2.691c.142.461.351.857.627 1.189.262.342.588.597.978.766.376.179.791.266 1.244.266.552 0 1.027-.13 1.425-.392.404-.271.708-.656.914-1.16.213-.503.319-1.091.319-1.765 0-.511-.068-.968-.202-1.372a3.209 3.209 0 0 0-.595-1.084 2.567 2.567 0 0 0-.936-.691 2.991 2.991 0 0 0-1.191-.233c-.581 0-1.077.12-1.488.361a2.424 2.424 0 0 0-.967 1.031 3.42 3.42 0 0 0-.34 1.531c-.001.566.07 1.084.212 1.553zm14.736 1.264l.373.521c.078.099.184.191.318.276.121.063.294.113.521.148v.361h-.297a.497.497 0 0 0-.096-.01c-.085 0-.199-.012-.34-.032l-.733.042-1.776-2.488a10.741 10.741 0 0 0-1.074-1.339l.054-.171.404.021c.411 0 .75-.067 1.02-.202.27-.127.485-.318.648-.574.149-.255.224-.553.224-.893 0-.276-.063-.521-.191-.733a1.314 1.314 0 0 0-.563-.5 1.9 1.9 0 0 0-.394-.117l-.106-.021a.472.472 0 0 1-.106-.012 2.192 2.192 0 0 0-.266-.011c-.347 0-.708.068-1.084.203 0 .099-.004.198-.011.298a4.645 4.645 0 0 0-.011.308c0 .305-.003.521-.01.649-.007.19-.018.36-.032.51v4.019c0 .192.024.334.075.426.056.1.124.163.202.191.042.014.099.028.169.042l.245.012.34.021v.361l-.754-.021-.766-.021-.755.021-.766.021v-.361h.287a.354.354 0 0 1 .085-.011l.255-.032c.085-.007.177-.06.276-.158.084-.1.127-.263.127-.49v-5.294c0-.191-.021-.334-.063-.426-.05-.1-.113-.163-.191-.191a.197.197 0 0 1-.053-.021.7.7 0 0 1-.096-.021.856.856 0 0 0-.17-.022l-.458-.011v-.361l.447.012 1.074.031.712-.021.669-.022.596-.01c.354 0 .666.024.936.074.283.049.542.132.776.245.447.219.669.637.669 1.254 0 .531-.177.975-.531 1.329-.354.354-.865.606-1.531.755l1.722 2.446zm4.104 1.075c.198-.106.315-.178.351-.213.05-.028.086-.092.106-.191.021-.078.032-.216.032-.415v-5.294c0-.191-.021-.334-.064-.426a.313.313 0 0 0-.191-.191l-.053-.021-.085-.021a.847.847 0 0 0-.17-.022l-.468-.011v-.361l.319.012.446.011.755.021 1.063-.021 1.138-.022c.113 0 .209.004.287.012.071.007.188.011.351.011.057 0 .149.007.276.021.127.015.223.028.287.043.318.05.627.142.925.275.262.121.514.288.754.501.688.595 1.031 1.424 1.031 2.487a5.446 5.446 0 0 1-.074.84 2.97 2.97 0 0 1-.234.787 3.559 3.559 0 0 1-.872 1.286 3.915 3.915 0 0 1-1.35.84 4.9 4.9 0 0 1-1.723.298l-.34-.021-.319-.011-.882-.021-.405.012-.424.021-.468.021v-.237zm1.669-.299c.234.029.404.047.51.054.192.021.373.032.543.032 1.063 0 1.875-.297 2.435-.893.56-.582.84-1.411.84-2.488 0-.524-.071-.989-.212-1.394a2.296 2.296 0 0 0-.606-.945 2.855 2.855 0 0 0-1-.575 3.575 3.575 0 0 0-1.191-.212c-.425 0-.911.038-1.457.117-.042.305-.063.68-.063 1.126v3.402l.01.639.053 1.116.138.021zm11.216-6.507l-.414.011-.202.012a1.323 1.323 0 0 0-.202.063c-.079.035-.131.103-.16.202-.036.106-.054.24-.054.404v5.294c0 .192.025.334.075.426.057.1.124.163.202.191.042.014.099.028.169.042l.245.012.34.021v.361l-.754-.021-.766-.021-.755.021-.766.021v-.361h.287a.348.348 0 0 1 .085-.011l.255-.032c.084-.007.177-.06.276-.158.085-.1.128-.263.128-.49v-5.294c0-.191-.021-.334-.064-.426-.049-.1-.113-.163-.19-.191a.198.198 0 0 1-.054-.021.68.68 0 0 1-.095-.021.864.864 0 0 0-.171-.022l-.457-.011v-.361l.766.022.755.021.319-.011.446-.01.754-.022v.36zm8.963.596a3.39 3.39 0 0 0-.648-.351l-.319-.116a.716.716 0 0 0-.159-.032 5.624 5.624 0 0 1-.181-.043 3.493 3.493 0 0 0-.691-.063c-.475 0-.908.071-1.297.213a2.787 2.787 0 0 0-.967.627c-.27.276-.479.612-.627 1.01-.149.39-.223.825-.223 1.308 0 .646.145 1.23.435 1.755.284.518.685.933 1.202 1.244a3.307 3.307 0 0 0 1.711.457c.985 0 1.772-.22 2.36-.66l.106.097-.075.181-.063.149-.063.159c-.425.205-.833.36-1.222.468l-.511.096-.084.011c-.021 0-.071.003-.149.011-.057 0-.11.003-.159.01a3.472 3.472 0 0 1-.33.011c-.616 0-1.18-.088-1.691-.266a4.21 4.21 0 0 1-1.36-.776 3.542 3.542 0 0 1-.883-1.201 3.715 3.715 0 0 1-.319-1.521c0-.581.099-1.105.298-1.573.205-.482.492-.886.861-1.213.361-.318.826-.577 1.393-.775a7.25 7.25 0 0 1 .872-.203c.312-.042.624-.062.936-.062.241 0 .503.021.787.062.34.051.645.107.914.171l.808.171a4.088 4.088 0 0 0-.201.69 4.52 4.52 0 0 0-.075.882h-.34l-.046-.928zm14.418 6.178l-.404.105-.437.096-.393.063-.437.054-.425.031-.383.011c-.624 0-1.181-.088-1.669-.266a3.479 3.479 0 0 1-1.297-.766 3.373 3.373 0 0 1-.841-1.233c-.198-.468-.297-1.006-.297-1.616a3.596 3.596 0 0 1 .616-2.009c.205-.298.454-.563.744-.798.425-.318.878-.55 1.36-.691.503-.142 1.092-.212 1.766-.212.453 0 .886.042 1.297.127.228.043.46.097.702.159.07.015.155.036.255.064.078.021.152.039.224.054a.737.737 0 0 0 .095.031c.093.028.175.054.245.074a5.297 5.297 0 0 0-.139.691l-.085.84h-.329v-.34c0-.271-.011-.437-.032-.5a.489.489 0 0 0-.171-.191 4.082 4.082 0 0 0-1.02-.404 4.48 4.48 0 0 0-1.181-.159c-.517 0-.979.071-1.382.213a2.642 2.642 0 0 0-1 .627c-.276.27-.492.605-.647 1.01-.149.39-.225.84-.225 1.351 0 .276.022.521.064.733a3.343 3.343 0 0 0 .882 1.776c.312.325.674.57 1.085.732.418.171.875.255 1.372.255.475 0 1.062-.123 1.765-.371v-.341l.031-.84c0-.255-.038-.432-.116-.531a.585.585 0 0 0-.191-.106.935.935 0 0 0-.309-.042h-.063l-.352-.011v-.361l.769.022.756.021.361-.01.361-.021h.277l.085-.011v.233l-.213.085c-.17.064-.287.163-.351.298s-.096.379-.096.733l.011.255v.234c0 .1.015.209.043.33l.042.286a7.917 7.917 0 0 1-.723.236zm9.292-1.043l.372.521c.077.099.184.191.319.276.12.063.294.113.521.148v.361h-.298a.49.49 0 0 0-.096-.01c-.085 0-.198-.012-.34-.032l-.734.042-1.775-2.488a10.827 10.827 0 0 0-1.073-1.339l.053-.171.404.021c.411 0 .751-.067 1.021-.202.27-.127.485-.318.648-.574.149-.255.224-.553.224-.893a1.4 1.4 0 0 0-.191-.733 1.314 1.314 0 0 0-.563-.5 1.919 1.919 0 0 0-.394-.117l-.106-.021a.47.47 0 0 1-.105-.012 2.236 2.236 0 0 0-.267-.011c-.347 0-.709.068-1.084.203 0 .099-.004.198-.011.298a4.051 4.051 0 0 0-.011.308c0 .305-.004.521-.012.649a10.4 10.4 0 0 1-.03.51v4.019c0 .192.023.334.073.426a.4.4 0 0 0 .202.191c.043.014.1.028.171.042l.244.012.34.021v.361l-.755-.021-.766-.021-.754.021-.766.021v-.361h.287a.341.341 0 0 1 .085-.011l.255-.032c.084-.007.177-.06.276-.158.085-.1.128-.263.128-.49v-5.294c0-.191-.021-.334-.064-.426-.049-.1-.113-.163-.19-.191a.186.186 0 0 1-.054-.021.7.7 0 0 1-.096-.021.864.864 0 0 0-.17-.022l-.457-.011v-.361l.446.012 1.073.031.713-.021.67-.022.596-.01c.354 0 .666.024.935.074.284.049.543.132.777.245.445.219.669.637.669 1.254 0 .531-.177.975-.531 1.329s-.865.606-1.531.755l1.722 2.446zm3.881-3.955a3.38 3.38 0 0 1 1.094-1.435c.1-.078.202-.146.309-.201a3.62 3.62 0 0 1 .701-.33 5.038 5.038 0 0 1 1.67-.266c.56 0 1.084.081 1.573.244.468.156.872.39 1.212.701a3.2 3.2 0 0 1 .766 1.128c.178.425.266.906.266 1.445 0 .751-.177 1.438-.531 2.063a3.751 3.751 0 0 1-1.468 1.467 4.031 4.031 0 0 1-2.062.542 4.481 4.481 0 0 1-1.562-.255 3.427 3.427 0 0 1-1.191-.766c-.34-.34-.603-.74-.786-1.202a5.456 5.456 0 0 1-.202-.743 5.106 5.106 0 0 1-.063-.829 4.25 4.25 0 0 1 .274-1.563zm.988 2.691c.142.461.352.857.628 1.189.261.342.587.597.978.766.376.179.79.266 1.244.266.553 0 1.027-.13 1.425-.392.404-.271.709-.656.914-1.16.213-.503.319-1.091.319-1.765 0-.511-.067-.968-.202-1.372a3.209 3.209 0 0 0-.595-1.084 2.562 2.562 0 0 0-.937-.691 2.988 2.988 0 0 0-1.191-.233c-.58 0-1.077.12-1.487.361a2.426 2.426 0 0 0-.968 1.031 3.42 3.42 0 0 0-.341 1.531 5.38 5.38 0 0 0 .213 1.553zm14.46-4.828l.627.022.648.021 1.266-.043v.361l-.415.011-.202.012a.705.705 0 0 0-.19.063.287.287 0 0 0-.171.181 1.278 1.278 0 0 0-.053.426v2.998l-.011.669-.01.394v.149a.718.718 0 0 1-.012.096c0 .05-.004.085-.011.105a2.3 2.3 0 0 1-.063.319 1.557 1.557 0 0 1-.17.469 2.048 2.048 0 0 1-.128.19c-.07.085-.127.152-.17.202a2.347 2.347 0 0 1-.979.639c-.41.142-.872.212-1.382.212-.681 0-1.262-.105-1.744-.318-.489-.22-.811-.511-.968-.873l-.073-.19-.064-.191-.031-.224-.021-.266v-.458c0-.078-.004-.148-.011-.213v-3.71c0-.191-.024-.334-.074-.426a.313.313 0 0 0-.202-.191l-.149-.042-.138-.022-.468-.011v-.361l.318.012.447.011.755.021.319-.011.446-.01.754-.022v.361l-.223.011c-.233 0-.401.012-.5.032a.415.415 0 0 0-.233.181c-.05.093-.075.248-.075.469v3.2l.012.457.01.511.011.287c.007.035.028.103.064.201l.01.054c.042.148.104.272.182.372.163.227.403.396.723.51.333.128.709.192 1.127.192s.801-.064 1.148-.192c.34-.113.591-.283.755-.51.12-.178.209-.422.266-.733.057-.326.085-.78.085-1.361V19.59c0-.171-.018-.31-.053-.415-.043-.1-.096-.163-.16-.191l-.17-.053a.625.625 0 0 0-.159-.022l-.489-.011v-.364zm7.092 1.446l-.011.724v4.178c0 .192.024.334.074.426.057.1.124.163.202.191.043.014.1.028.17.042l.245.012.34.021v.361l-.755-.021-.766-.021-.755.021-.766.021v-.361h.287a.354.354 0 0 1 .085-.011l.256-.032c.085-.007.177-.06.276-.158.085-.1.127-.263.127-.49v-5.294c0-.191-.021-.334-.063-.426-.05-.1-.113-.163-.191-.191a.185.185 0 0 1-.053-.021.667.667 0 0 1-.096-.021.864.864 0 0 0-.17-.022l-.458-.011v-.361l.447.012 1.073.031h.436a.396.396 0 0 1 .096-.011l.712-.032.894-.021c.766 0 1.354.146 1.765.436.403.284.605.713.605 1.286 0 .355-.113.705-.34 1.053a2.472 2.472 0 0 1-.903.841 2.351 2.351 0 0 1-1.191.318 4.08 4.08 0 0 1-.882-.096l-.096-.394c.312.078.538.117.68.117.27 0 .5-.035.691-.106.213-.078.383-.181.511-.309.142-.142.248-.315.318-.521.078-.22.117-.457.117-.712 0-.482-.159-.855-.479-1.117-.305-.262-.755-.393-1.351-.393h-.159a.388.388 0 0 0-.117.011c-.035 0-.103.01-.202.031-.12.015-.314.064-.585.149l-.018.871z"/></g></svg>