<?xml version="1.0" encoding="utf-8"?>
<!-- Generator: Adobe Illustrator 16.0.0, SVG Export Plug-In . SVG Version: 6.00 Build 0)  -->
<!DOCTYPE svg PUBLIC "-//W3C//DTD SVG 1.1//EN" "http://www.w3.org/Graphics/SVG/1.1/DTD/svg11.dtd">
<svg version="1.1" id="Layer_1" xmlns="http://www.w3.org/2000/svg" xmlns:xlink="http://www.w3.org/1999/xlink" x="0px" y="0px"
	 width="99.152px" height="137.333px" viewBox="0 0 99.152 137.333" enable-background="new 0 0 99.152 137.333"
	 xml:space="preserve">
<path fill-rule="evenodd" clip-rule="evenodd" fill="#FFFFFF" d="M49.039,55.841l-2.257,0.595l-2.438,0.536l-2.198,0.357
	l-2.438,0.296l-2.378,0.18l-2.139,0.058c-3.487,0-6.6-0.499-9.333-1.486c-2.813-0.952-5.23-2.381-7.25-4.284
	c-2.023-1.866-3.588-4.167-4.698-6.903c-1.111-2.619-1.663-5.632-1.663-9.046c0-1.983,0.297-3.947,0.894-5.891
	c0.591-1.942,1.442-3.73,2.553-5.357c1.148-1.663,2.536-3.151,4.162-4.46c2.376-1.784,4.911-3.075,7.607-3.866
	c2.813-0.796,6.102-1.192,9.867-1.192c2.536,0,4.952,0.24,7.252,0.712c1.267,0.24,2.573,0.538,3.922,0.893
	c0.398,0.08,0.872,0.201,1.427,0.357c0.437,0.119,0.85,0.218,1.247,0.298c0.079,0.041,0.26,0.101,0.535,0.18
	c0.517,0.16,0.974,0.298,1.369,0.415c-0.319,1.151-0.576,2.438-0.773,3.867l-0.476,3.534H49.99v-0.738
	c0-1.503-0.06-2.437-0.178-2.796c-0.119-0.318-0.437-0.673-0.952-1.07c-1.663-0.952-3.567-1.704-5.708-2.262
	c-2.178-0.595-4.375-0.893-6.598-0.893c-2.891,0-5.465,0.398-7.724,1.19c-2.139,0.755-4.002,1.925-5.589,3.512
	c-1.546,1.508-2.752,3.391-3.625,5.653c-0.832,2.182-1.249,4.701-1.249,7.558c0,1.547,0.119,2.913,0.358,4.105
	c0.158,1.151,0.492,2.401,1.009,3.748c0.911,2.34,2.221,4.403,3.926,6.189c1.739,1.826,3.763,3.192,6.061,4.104
	c2.336,0.953,4.894,1.427,7.667,1.427c2.653,0,5.944-0.692,9.866-2.082c0,0,1.934-6.73-2.244-10.208
	c-0.283-0.506-0.958-3.14-0.958-3.14s2.015,0.005,5.4,0c4.146-0.009,5.697,0,5.697,0s-1.082,2.342-1.325,3.14
	c-3.367,3.661-1.139,9.176-0.983,9.853l0.24,1.605C52.288,54.851,50.939,55.287,49.039,55.841"/>
<path fill-rule="evenodd" clip-rule="evenodd" fill="#FFFFFF" d="M52.887,63.941c0.595,0.08,1.27,0.199,2.023,0.355
	c0.513,0.121,1.348,0.396,2.496,0.832c0.037,0.044,0.117,0.08,0.239,0.124c1.739,0.751,3.049,1.823,3.921,3.211
	c0.834,1.35,1.248,3.016,1.248,5c0,2.656-0.693,5.04-2.083,7.14c-1.464,2.143-3.463,3.771-6.003,4.879
	c-2.532,1.19-5.446,1.788-8.735,1.788l-2.258-0.062l-2.794-0.121h-2.258l-5.47,0.24V86.02c0.952-0.516,1.605-0.912,1.962-1.192
	c0.238-0.199,0.454-0.534,0.654-1.014c0.078-0.633,0.119-1.427,0.119-2.379V51.8c0-1.07-0.119-1.862-0.355-2.379
	c-0.28-0.555-0.635-0.91-1.074-1.07c-0.037,0-0.137-0.041-0.295-0.121c-0.24-0.038-0.414-0.08-0.537-0.118
	c-0.396-0.08-0.713-0.119-0.951-0.119l-2.555-0.062v-2.023l2.497,0.063l6.005,0.177l3.625-0.061l3.742-0.116h1.782l1.845-0.063
	c2.934,0,5.507,0.578,7.728,1.727c2.218,1.153,3.325,3.095,3.325,5.835c0,1.743-0.315,3.231-0.947,4.46
	c-0.636,1.269-1.684,2.399-3.149,3.393c-1.39,0.914-3.252,1.766-5.589,2.558C51.878,63.882,52.489,63.903,52.887,63.941z
	 M43.972,63.167c3.764,0,6.518-0.632,8.262-1.905c1.743-1.267,2.615-3.332,2.615-6.188c0-4.524-2.914-6.784-8.735-6.784
	l-2.142,0.121c-0.16,0-0.457,0.039-0.892,0.119h-0.177c-0.201,0.039-0.397,0.058-0.594,0.058c-0.199,0.041-0.397,0.08-0.595,0.119
	l-0.18,2.678l-0.119,3.093l-0.058,4.939v3.629L43.972,63.167z M45.934,84.769c2.259,0,4.179-0.418,5.766-1.253
	c1.625-0.789,2.872-1.979,3.744-3.568c0.83-1.548,1.248-3.411,1.248-5.592c0-3.491-1.093-5.852-3.269-7.083
	c-2.184-1.228-5.093-1.846-8.738-1.846c-1.03,0-2.139,0.042-3.328,0.119v10.297l0.058,3.452l0.062,3.45v0.713l-0.119,0.893
	C43.062,84.628,44.585,84.769,45.934,84.769z"/>
<path fill-rule="evenodd" clip-rule="evenodd" fill="#FFFFFF" d="M62.635,89.923c0.596,0.08,1.269,0.199,2.022,0.355
	c0.512,0.125,1.348,0.4,2.498,0.835c0.035,0.042,0.119,0.08,0.235,0.122c1.745,0.751,3.052,1.822,3.923,3.21
	c0.831,1.352,1.249,3.016,1.249,5c0,2.66-0.693,5.039-2.08,7.14c-1.466,2.143-3.469,3.77-6.005,4.879
	c-2.534,1.19-5.446,1.788-8.734,1.788l-2.26-0.062l-2.795-0.118H48.43l-5.467,0.236v-1.308c0.95-0.515,1.604-0.911,1.96-1.191
	c0.238-0.196,0.455-0.535,0.654-1.011c0.08-0.636,0.119-1.431,0.119-2.38V77.787c0-1.071-0.119-1.864-0.355-2.379
	c-0.281-0.557-0.634-0.912-1.074-1.071c-0.037,0-0.137-0.042-0.293-0.122c-0.24-0.034-0.417-0.079-0.538-0.115
	c-0.397-0.08-0.713-0.12-0.951-0.12l-2.555-0.062v-2.023l2.498,0.062l6.001,0.177l3.627-0.062l3.744-0.115h1.783l1.846-0.062
	c2.93,0,5.505,0.578,7.726,1.726c2.221,1.155,3.327,3.096,3.327,5.835c0,1.743-0.315,3.233-0.947,4.461
	c-0.639,1.269-1.69,2.401-3.153,3.393c-1.386,0.913-3.247,1.766-5.589,2.557C61.624,89.865,62.239,89.886,62.635,89.923z
	 M53.72,89.15c3.764,0,6.517-0.631,8.263-1.902c1.741-1.268,2.618-3.332,2.618-6.188c0-4.523-2.914-6.785-8.742-6.785l-2.139,0.122
	c-0.16,0-0.454,0.037-0.889,0.117h-0.18c-0.197,0.039-0.398,0.058-0.595,0.058c-0.199,0.043-0.396,0.08-0.595,0.119l-0.179,2.679
	l-0.116,3.095l-0.063,4.938v3.631L53.72,89.15z M55.686,110.751c2.254,0,4.179-0.415,5.762-1.25
	c1.624-0.792,2.871-1.982,3.748-3.571c0.83-1.548,1.248-3.411,1.248-5.591c0-3.492-1.096-5.853-3.272-7.084
	c-2.181-1.224-5.093-1.842-8.739-1.842c-1.03,0-2.138,0.039-3.328,0.116v10.295l0.063,3.452l0.059,3.451v0.717l-0.122,0.892
	C52.806,110.614,54.335,110.751,55.686,110.751z"/>
<path fill-rule="evenodd" clip-rule="evenodd" fill="#FFFFFF" d="M95.437,3.719v101.84L47.5,132.998L3.715,105.559V3.719H95.437z
	 M97.105,2.051h-1.669H3.715H2.046v1.668v101.84v0.922l0.784,0.489l43.784,27.445l0.848,0.53l0.868-0.497l47.935-27.441l0.842-0.483
	v-0.965V3.719V2.051z"/>
<path fill-rule="evenodd" clip-rule="evenodd" fill="#FFFFFF" d="M98.224,0.93v2.79v101.838v1.616l-1.405,0.808l-47.935,27.44
	l-1.447,0.828l-1.414-0.886l-43.788-27.44l-1.307-0.822v-1.544V3.72V0.93h2.788h91.72H98.224z M99.152,0h-3.716H3.716H0v3.72
	v101.838v2.06l1.743,1.093l43.788,27.441l1.884,1.182l1.931-1.105l47.935-27.44l1.873-1.072v-2.157V3.72V0z"/>
</svg>
