<?xml version="1.0" encoding="utf-8"?>
<!-- Generator: Adobe Illustrator 16.0.0, SVG Export Plug-In . SVG Version: 6.00 Build 0)  -->
<!DOCTYPE svg PUBLIC "-//W3C//DTD SVG 1.1//EN" "http://www.w3.org/Graphics/SVG/1.1/DTD/svg11.dtd">
<svg version="1.1" id="Layer_1" xmlns="http://www.w3.org/2000/svg" xmlns:xlink="http://www.w3.org/1999/xlink" x="0px" y="0px"
	 width="109.468px" height="111.879px" viewBox="0 0 109.468 111.879" enable-background="new 0 0 109.468 111.879"
	 xml:space="preserve">
<g>
	<g>
		<defs>
			<rect id="SVGID_1_" x="-938.266" y="-408.775" width="1440" height="1261"/>
		</defs>
		<clipPath id="SVGID_2_">
			<use xlink:href="#SVGID_1_"  overflow="visible"/>
		</clipPath>
	</g>
</g>
<g>
	<g>
		<defs>
			<rect id="SVGID_3_" x="-938.266" y="-408.775" width="1440" height="1261"/>
		</defs>
		<clipPath id="SVGID_4_">
			<use xlink:href="#SVGID_3_"  overflow="visible"/>
		</clipPath>
	</g>
</g>
<g>
	<g>
		<defs>
			<rect id="SVGID_5_" x="-938.266" y="-408.775" width="1440" height="1261"/>
		</defs>
		<clipPath id="SVGID_6_">
			<use xlink:href="#SVGID_5_"  overflow="visible"/>
		</clipPath>
	</g>
</g>
<g>
	<g>
		<defs>
			<rect id="SVGID_7_" x="-938.266" y="-408.775" width="1440" height="1261"/>
		</defs>
		<clipPath id="SVGID_8_">
			<use xlink:href="#SVGID_7_"  overflow="visible"/>
		</clipPath>
	</g>
</g>
<g>
	<g>
		<defs>
			<rect id="SVGID_9_" x="-938.266" y="-408.775" width="1440" height="1261"/>
		</defs>
		<clipPath id="SVGID_10_">
			<use xlink:href="#SVGID_9_"  overflow="visible"/>
		</clipPath>
	</g>
</g>
<g>
	<g>
		<defs>
			<rect id="SVGID_11_" x="-938.266" y="-408.775" width="1440" height="1261"/>
		</defs>
		<clipPath id="SVGID_12_">
			<use xlink:href="#SVGID_11_"  overflow="visible"/>
		</clipPath>
	</g>
</g>
<path fill-rule="evenodd" clip-rule="evenodd" fill="#FFFFFF" d="M94.213,0H15.245C6.827,0,0,7.149,0,15.958v79.993
	c0,8.799,6.827,15.928,15.245,15.928h78.968c8.418,0,15.255-7.129,15.255-15.928V15.958C109.468,7.149,102.631,0,94.213,0z
	 M76.731,16.231c0,0,0.294-3.067,3.097-3.067h15.205c0,0,2.832,0.273,2.832,2.793v15.616c0,0-0.586,2.373-2.422,2.373H79.564
	c0,0-2.833-0.137-2.833-2.939V16.231z M54.915,34.689c11.915,0,21.602,9.59,21.602,21.417c0,11.818-9.688,21.408-21.602,21.408
	c-11.944,0-21.603-9.59-21.603-21.408C33.312,44.279,42.971,34.689,54.915,34.689z M98.119,95.473c0,0-0.195,3.262-3.281,3.262
	H14.493c0,0-3.135-0.586-3.135-3.105s0.098-48.459,0.098-48.459H22.13c0,0-6.074,20.686,10.909,34.572c0,0,9.043,8.174,22.471,7.949
	c0,0,16.28-0.684,25.109-11.826c0,0,11.338-13.175,7.158-30.939h10.342V95.473z"/>
</svg>
