<svg xmlns="http://www.w3.org/2000/svg" width="109.468" height="111.879" viewBox="0 0 109.468 111.879"><path fill="#FFF" d="M94.212 0H15.245C6.827 0 0 7.149 0 15.958v79.993c0 8.799 6.827 15.928 15.245 15.928h78.967c8.418 0 15.256-7.129 15.256-15.928V15.958C109.468 7.149 102.63 0 94.212 0zM76.731 16.231s.294-3.067 3.097-3.067h15.205s2.832.273 2.832 2.793v15.616s-.586 2.373-2.422 2.373H79.564s-2.833-.137-2.833-2.939V16.231zM54.915 34.689c11.915 0 21.602 9.59 21.602 21.417 0 11.818-9.688 21.408-21.602 21.408-11.944 0-21.603-9.59-21.603-21.408 0-11.827 9.659-21.417 21.603-21.417zm43.204 60.784s-.195 3.262-3.281 3.262H14.493s-3.135-.586-3.135-3.104.098-48.459.098-48.459H22.13s-6.074 20.687 10.909 34.572c0 0 9.043 8.174 22.471 7.948 0 0 16.28-.684 25.108-11.825 0 0 11.338-13.175 7.158-30.939h10.342v48.545z"/></svg>