<svg xmlns="http://www.w3.org/2000/svg" width="50.429" height="31.942" viewBox="0 0 50.429 31.942"><g fill="#888889"><path d="M.72 6.44h3.3v.64H0V0h.72v6.44zM9.14 4.6v.15c0 .054-.003.11-.01.17H5.25c.006.233.053.453.14.66.086.207.207.387.36.54s.333.275.54.365.43.135.67.135c.354 0 .658-.082.915-.245.256-.163.452-.352.585-.564l.51.399c-.28.353-.589.606-.925.76s-.698.23-1.085.23c-.347 0-.668-.062-.965-.186-.297-.122-.552-.294-.765-.514s-.382-.479-.505-.78c-.123-.3-.185-.626-.185-.98s.06-.68.18-.98c.12-.3.286-.56.5-.779A2.29 2.29 0 0 1 6.9 2.28c.367 0 .69.062.97.185.28.124.513.29.7.5s.328.455.425.735c.096.28.145.58.145.9zm-.69-.22c-.02-.44-.162-.805-.425-1.095S7.387 2.85 6.9 2.85c-.227 0-.437.042-.63.125a1.692 1.692 0 0 0-.86.83 1.565 1.565 0 0 0-.15.575h3.19zM13.5 4.051c0-.403-.107-.704-.32-.903-.213-.198-.523-.298-.93-.298-.28 0-.54.051-.78.15-.24.1-.443.233-.61.4l-.38-.45c.193-.193.448-.354.765-.48s.675-.19 1.075-.19c.253 0 .49.035.71.104.22.07.414.176.58.315s.296.318.39.531c.093.213.14.463.14.75v2.05c0 .18.006.366.02.56a4.2 4.2 0 0 0 .06.49h-.61a4.76 4.76 0 0 1-.07-.76h-.02c-.213.313-.455.538-.725.675s-.595.205-.975.205c-.18 0-.365-.025-.555-.075a1.537 1.537 0 0 1-.52-.246 1.377 1.377 0 0 1-.39-.441 1.311 1.311 0 0 1-.155-.663c0-.361.092-.647.275-.857.183-.211.428-.368.735-.472a4.3 4.3 0 0 1 1.055-.201c.397-.03.808-.045 1.235-.045v-.149zm-.2.689c-.28 0-.562.012-.845.035-.284.023-.54.069-.77.14s-.418.172-.565.305a.682.682 0 0 0-.22.53c0 .167.032.307.095.42a.774.774 0 0 0 .255.275c.106.069.225.12.355.149.13.031.262.046.395.046.24 0 .453-.041.64-.125.187-.083.343-.196.47-.34.126-.143.223-.308.29-.495.066-.187.1-.383.1-.59v-.35h-.2zM15.88 2.94c-.007-.2-.017-.38-.03-.54h.65c.014.126.023.267.03.42.006.153.01.279.01.38h.02c.133-.273.333-.495.6-.665s.566-.255.9-.255c.087 0 .165.003.235.01.07.007.142.021.215.04l-.09.65a1.177 1.177 0 0 0-.2-.04 1.885 1.885 0 0 0-.28-.021c-.18 0-.354.033-.52.1a1.124 1.124 0 0 0-.435.314c-.124.144-.224.326-.3.549s-.115.49-.115.803V7.08h-.68V3.43c0-.126-.004-.29-.01-.49zM20.1 2.4c.014.126.023.267.03.42.006.153.01.279.01.38h.02a1.54 1.54 0 0 1 .65-.665c.3-.17.616-.255.95-.255.593 0 1.039.177 1.335.53.297.353.445.819.445 1.399v2.87h-.68V4.49c0-.247-.021-.47-.06-.67a1.442 1.442 0 0 0-.205-.516.99.99 0 0 0-.391-.335 1.392 1.392 0 0 0-.615-.12 1.295 1.295 0 0 0-.98.445c-.133.15-.24.34-.32.57a2.48 2.48 0 0 0-.12.814v2.4h-.68V3.43a14.301 14.301 0 0 0-.04-1.029h.651zM29.085 2.535c.275-.17.584-.255.924-.255.127 0 .259.014.396.04s.271.078.399.154c.131.077.25.179.361.306.109.127.205.29.284.49.16-.32.378-.565.655-.735.276-.17.605-.255.984-.255.594 0 1.039.177 1.336.53.297.353.445.819.445 1.399v2.87h-.679V4.49c0-.493-.092-.891-.274-1.19-.184-.3-.497-.45-.936-.45-.246 0-.455.051-.625.15s-.307.231-.41.396c-.104.163-.178.348-.225.555s-.07.42-.07.64v2.49h-.68V4.35c0-.227-.018-.433-.051-.619s-.092-.346-.174-.476c-.084-.13-.199-.229-.346-.3s-.333-.105-.56-.105c-.16 0-.321.037-.484.11a1.25 1.25 0 0 0-.439.335 1.69 1.69 0 0 0-.315.57 2.48 2.48 0 0 0-.12.814v2.4H27.8V3.43a13.349 13.349 0 0 0-.041-1.029h.65a8.681 8.681 0 0 1 .041.799h.021a1.58 1.58 0 0 1 .614-.665zM41.279 4.74c0 .354-.061.68-.184.979a2.367 2.367 0 0 1-.515.781c-.221.22-.483.392-.79.515a2.675 2.675 0 0 1-1.011.185c-.359 0-.693-.062-1-.186a2.295 2.295 0 0 1-.789-.514 2.33 2.33 0 0 1-.516-.78c-.123-.3-.185-.626-.185-.979s.062-.68.185-.98a2.325 2.325 0 0 1 1.305-1.295 2.667 2.667 0 0 1 1-.185c.367 0 .704.062 1.011.185.307.124.569.295.79.516.22.22.392.479.516.779.122.3.183.626.183.979zm-.719 0c0-.26-.043-.505-.125-.735-.084-.229-.202-.43-.355-.6S39.74 3.1 39.519 3c-.22-.1-.467-.15-.74-.15s-.518.05-.735.15-.402.235-.555.405a1.8 1.8 0 0 0-.355.6c-.083.23-.125.476-.125.735s.042.505.125.734c.084.23.201.431.355.601.152.17.338.304.555.399.217.098.461.146.734.146s.521-.048.74-.146c.221-.096.407-.229.561-.399s.271-.37.355-.601a2.14 2.14 0 0 0 .126-.734zM42.73 2.94c-.008-.2-.018-.38-.031-.54h.65a8.466 8.466 0 0 1 .04.8h.021c.133-.273.333-.495.6-.665s.566-.255.9-.255c.086 0 .164.003.234.01s.143.021.215.04l-.09.65a1.905 1.905 0 0 0-.479-.061c-.181 0-.354.033-.521.1a1.132 1.132 0 0 0-.435.314 1.64 1.64 0 0 0-.3.549c-.077.223-.115.49-.115.803V7.08h-.68V3.43c.001-.126-.003-.29-.009-.49zM50.429 4.6v.15c0 .054-.003.11-.01.17h-3.88c.007.233.054.453.14.66a1.67 1.67 0 0 0 .9.905c.207.09.43.135.67.135.354 0 .658-.082.915-.245s.452-.352.585-.564l.51.399c-.279.354-.588.606-.925.76s-.698.23-1.084.23c-.347 0-.668-.062-.965-.186a2.246 2.246 0 0 1-.766-.514 2.426 2.426 0 0 1-.504-.78c-.124-.3-.186-.626-.186-.979s.061-.68.18-.98c.12-.3.287-.56.5-.779a2.29 2.29 0 0 1 1.68-.701c.367 0 .69.062.971.185.279.124.514.29.699.5.188.21.329.455.426.735.095.279.144.579.144.899zm-.689-.22c-.02-.439-.162-.805-.426-1.095-.263-.29-.638-.436-1.125-.436-.227 0-.436.042-.629.125a1.694 1.694 0 0 0-.861.83 1.57 1.57 0 0 0-.15.575h3.191z"/></g><path fill="#767676" d="M25.214 31.942c-4.783 0-8.673-3.813-8.673-8.5s3.891-8.5 8.673-8.5c4.783 0 8.674 3.813 8.674 8.5s-3.89 8.5-8.674 8.5zm0-16c-4.231 0-7.673 3.364-7.673 7.5s3.442 7.5 7.673 7.5 7.674-3.364 7.674-7.5-3.442-7.5-7.674-7.5z"/><path fill="#767676" d="M25.188 27.653a.5.5 0 0 1-.408-.212l-4.307-6.097a.5.5 0 1 1 .817-.576l3.899 5.519 3.899-5.519a.5.5 0 1 1 .816.576l-4.308 6.097a.5.5 0 0 1-.408.212z"/></svg>