<?xml version="1.0" encoding="utf-8"?>
<!-- Generator: Adobe Illustrator 16.0.0, SVG Export Plug-In . SVG Version: 6.00 Build 0)  -->
<!DOCTYPE svg PUBLIC "-//W3C//DTD SVG 1.1//EN" "http://www.w3.org/Graphics/SVG/1.1/DTD/svg11.dtd">
<svg version="1.1" id="Layer_1" xmlns="http://www.w3.org/2000/svg" xmlns:xlink="http://www.w3.org/1999/xlink" x="0px" y="0px"
	 width="114.804px" height="119.08px" viewBox="0 0 114.804 119.08" enable-background="new 0 0 114.804 119.08"
	 xml:space="preserve">
<g>
	<rect y="35.565" fill-rule="evenodd" clip-rule="evenodd" fill="#FFFFFF" width="26.663" height="81.458"/>
	<path fill-rule="evenodd" clip-rule="evenodd" fill="#FFFFFF" d="M35.881,118.862V37.861h24.203v10.807
		c0,0,6.879-13.418,24.65-13.027c0,0,28.644-2.993,30.069,29.417v54.022H89.566V71.838c0,0-0.414-15.574-14.54-13.8
		c0,0-12.102-0.577-13.517,14.638v46.187H35.881z"/>
	<path fill-rule="evenodd" clip-rule="evenodd" fill="#FFFFFF" d="M29.852,14.768c0,8.184-6.671,14.822-14.931,14.822
		C6.671,29.59,0,22.952,0,14.768C0,6.617,6.671,0,14.921,0C23.181,0,29.852,6.617,29.852,14.768"/>
</g>
</svg>
