<svg xmlns="http://www.w3.org/2000/svg" width="37.655" height="14.269" viewBox="0 0 37.655 14.269"><g fill="#825E48"><path d="M21.42.969c0 .016-.017.032-.048.048a2.44 2.44 0 0 1-.217.084c-.304.096-.609.184-.918.264a30.148 30.148 0 0 1-1.847.42c-.356.072-.72.144-1.092.216-.372.072-.732.144-1.08.216-.348.072-.634.136-.858.192a165.697 165.697 0 0 1-1.884 3.042c-.632.996-1.312 1.944-2.04 2.844s-1.524 1.74-2.388 2.52a15.56 15.56 0 0 1-2.928 2.07 11.751 11.751 0 0 1-2.76 1.032 8.823 8.823 0 0 1-1.53.222 4.49 4.49 0 0 1-1.398-.126 1.006 1.006 0 0 1-.42-.192c-.032-.032 0-.046.096-.042.096.004.208.002.336-.006.32 0 .678-.028 1.074-.084a13.352 13.352 0 0 0 2.376-.564c.38-.128.714-.268 1.002-.42a17.33 17.33 0 0 0 2.976-2.016 24.048 24.048 0 0 0 2.478-2.424 30.242 30.242 0 0 0 2.154-2.742c.672-.964 1.344-1.958 2.016-2.982-.288.056-.656.118-1.104.186l-1.392.21c-.48.072-.948.14-1.404.204-.456.064-.84.12-1.152.168a58.02 58.02 0 0 1-1.656.168c-.552.048-1.104.072-1.656.072l-.174-.006c-.092-.004-.19-.01-.294-.018s-.2-.022-.288-.042c-.088-.02-.136-.046-.144-.078-.025-.04-.006-.074.054-.102.06-.028.102-.046.126-.054.384-.128.79-.234 1.218-.318.428-.084.846-.158 1.254-.222.447-.072.892-.138 1.332-.198l1.344-.186 1.008-.132c.424-.056.86-.116 1.308-.18a161.986 161.986 0 0 1 2.28-.312l.654-.816c.204-.256.442-.52.714-.792a1.58 1.58 0 0 1 .072-.066c.032-.028.06-.034.084-.018.016.008.018.028.006.06a6.976 6.976 0 0 1-.414.822c-.144.244-.296.494-.456.75.176-.024.42-.06.732-.108a1120.598 1120.598 0 0 1 1.956-.3c.312-.048.556-.08.732-.096.023 0 .092-.008.204-.024a35.791 35.791 0 0 1 .918-.114 15 15 0 0 1 .504-.048c.156-.012.284-.016.384-.012s.15.014.15.03zM16.788 8.877c0 .008-.012.028-.036.06-.096.096-.2.188-.312.276l-.336.264c-.368.264-.764.572-1.188.924a2.796 2.796 0 0 0-.366.306 7.285 7.285 0 0 1-.354.33l-.15.114c-.068.052-.11.086-.126.102-.064.064-.148.086-.252.066s-.184-.066-.24-.138a.305.305 0 0 1-.066-.264c.02-.096.05-.188.09-.276.088-.2.182-.388.282-.564.1-.176.21-.355.33-.54-.12.104-.236.208-.348.312-.112.104-.224.2-.336.288-.176.16-.352.312-.528.456s-.36.288-.552.432a2.77 2.77 0 0 1-.174.132 1.045 1.045 0 0 1-.204.114.547.547 0 0 1-.21.042.334.334 0 0 1-.204-.072.324.324 0 0 1-.138-.264.79.79 0 0 1 .042-.3c.08-.28.21-.558.39-.834A7.715 7.715 0 0 1 13.2 8.229c.144-.136.314-.276.51-.42.196-.144.406-.274.63-.39a4.1 4.1 0 0 1 .69-.282c.236-.072.462-.108.678-.108.112 0 .236.016.372.048a.493.493 0 0 1 .336.234c.016.028.012.038-.012.03a1.38 1.38 0 0 0-.624-.024c-.2.04-.396.108-.588.204a3.11 3.11 0 0 0-.552.354c-.176.14-.348.274-.516.402-.144.12-.3.264-.468.432s-.332.354-.492.558c-.16.204-.314.42-.462.648s-.278.462-.39.702c.32-.208.658-.446 1.014-.714s.702-.526 1.038-.774c.16-.136.334-.27.522-.402s.37-.27.546-.414c.048-.04.11-.09.186-.15s.152-.116.228-.168c.076-.052.144-.1.204-.144s.102-.066.126-.066c.064-.016.116-.001.156.042a.15.15 0 0 1 .036.15c0 .016-.016.044-.048.084a8.592 8.592 0 0 1-.222.264.497.497 0 0 0-.066.084c-.128.144-.27.312-.426.504l-.456.558a36.467 36.467 0 0 0-.594.738l.294-.192c.124-.08.222-.148.294-.204.224-.152.452-.298.684-.438s.472-.274.72-.402a.555.555 0 0 1 .12-.072c.063-.032.103-.04.12-.024z"/><path d="M20.892 9.021c.008.016-.008.044-.048.084s-.086.082-.138.126a5.397 5.397 0 0 1-.156.126 21.41 21.41 0 0 1-.643.504c-.256.208-.528.41-.815.606-.288.196-.56.422-.816.678l-.126.102a.67.67 0 0 1-.144.09.37.37 0 0 1-.156.036.254.254 0 0 1-.162-.072c-.096-.064-.142-.168-.138-.312.004-.144.032-.298.084-.462.052-.164.114-.322.186-.474.072-.152.132-.272.18-.36a5.84 5.84 0 0 1 .444-.708 41.6 41.6 0 0 1 .492-.672c-.272.168-.526.322-.762.462a6.26 6.26 0 0 0-.714.498 6.95 6.95 0 0 0-.744.702 8.524 8.524 0 0 0-.828 1.086c-.032.04-.064.082-.096.126s-.072.074-.12.09a.284.284 0 0 1-.27-.018.253.253 0 0 1-.138-.234c-.016-.128.054-.334.21-.618s.366-.6.63-.948.566-.71.906-1.086a10.9 10.9 0 0 1 1.05-1.02l.264-.21a.666.666 0 0 1 .252-.138c.016 0 .01.024-.018.072a2.477 2.477 0 0 1-.114.174l-.15.21a6.07 6.07 0 0 0-.126.18 40.156 40.156 0 0 0-.648.912c-.088.128-.186.266-.294.414s-.254.342-.438.582c.28-.224.578-.466.894-.726.316-.26.63-.514.942-.762s.61-.472.894-.672c.284-.2.538-.352.762-.456a.387.387 0 0 1 .349.024.329.329 0 0 1 .168.222.3.3 0 0 1-.061.27c-.12.184-.286.38-.498.588-.212.208-.401.408-.569.6s-.33.388-.486.588c-.156.2-.302.408-.438.624l-.246.396c-.084.136-.15.28-.198.432.16-.128.324-.25.492-.366.168-.116.336-.23.503-.342l.162-.108.301-.198.366-.24c.128-.084.247-.158.359-.222.112-.064.206-.114.282-.15s.118-.046.126-.03zM37.655 2.133a2.504 2.504 0 0 1-.318.912c-.164.28-.364.54-.6.78a6.01 6.01 0 0 1-.769.66c-.275.2-.546.384-.81.552-.848.528-1.76.964-2.736 1.308a12.668 12.668 0 0 1-1.775.516c-.032.032-.084.092-.156.18s-.152.182-.24.282c-.088.1-.172.198-.252.294l-.18.216-2.088 2.376a264.1 264.1 0 0 1-2.101 2.364 67.835 67.835 0 0 1-1.02 1.092c-.072.08-.146.16-.222.24-.076.08-.158.156-.246.228l-.108.09a.255.255 0 0 1-.066.042c-.02.008-.029.004-.029-.012.016-.048.038-.102.065-.162.028-.06.062-.118.103-.174.191-.312.397-.614.618-.906.22-.292.438-.586.653-.882.624-.848 1.261-1.684 1.908-2.508.648-.824 1.312-1.648 1.992-2.472l-.432.072a8.04 8.04 0 0 1-.433.06c-.4.064-.798.11-1.193.138-.396.028-.799.034-1.206.018-.041-.008-.078-.014-.114-.018s-.066-.014-.09-.03c-.017-.008-.009-.022.023-.042.032-.02.07-.038.114-.054a1.679 1.679 0 0 1 .21-.06c.12-.024.294-.064.522-.12.228-.056.481-.114.762-.174s.565-.124.857-.192.561-.132.805-.192.447-.114.611-.162c.164-.048.254-.08.271-.096.096-.104.178-.196.246-.276l.186-.222c.056-.068.112-.134.168-.198l.192-.216c.336-.392.676-.778 1.02-1.158.345-.38.704-.75 1.08-1.11.12-.12.254-.24.402-.36.147-.12.282-.224.402-.312.023-.016.062-.04.113-.072.053-.032.086-.032.103 0 .023.048.012.128-.036.24a3.525 3.525 0 0 1-.174.348 4.747 4.747 0 0 1-.355.54c-.296.424-.604.834-.924 1.23s-.644.794-.972 1.194a38.932 38.932 0 0 0 2.142-.744 9.63 9.63 0 0 0 2.01-1.044c.2-.136.391-.278.57-.426s.35-.31.51-.486c.088-.096.172-.204.252-.324s.139-.246.175-.378a.998.998 0 0 0 .029-.39.733.733 0 0 0-.168-.372 1.53 1.53 0 0 0-.6-.438c-.24-.1-.477-.178-.708-.234-.504-.12-1.026-.182-1.566-.186s-1.065.014-1.578.054c-1.08.072-2.147.228-3.204.468a23.586 23.586 0 0 0-2.945.882 26.27 26.27 0 0 0-3.12 1.404c-.1.052-.202.102-.306.15-.008.008-.034.02-.078.036s-.062.02-.055.012a.262.262 0 0 1 .091-.108c.044-.032.077-.056.102-.072.185-.136.366-.266.546-.39s.362-.242.546-.354a18.15 18.15 0 0 1 1.608-.888 21.688 21.688 0 0 1 4.032-1.5 16.844 16.844 0 0 1 2.178-.426c.724-.092 1.436-.12 2.136-.084s1.358.154 1.974.354c.192.064.385.144.576.24.192.096.368.214.528.354.16.14.29.302.39.486.102.184.152.388.152.612z"/></g></svg>