<?xml version="1.0" encoding="utf-8"?>
<!-- Generator: Adobe Illustrator 16.0.0, SVG Export Plug-In . SVG Version: 6.00 Build 0)  -->
<!DOCTYPE svg PUBLIC "-//W3C//DTD SVG 1.1//EN" "http://www.w3.org/Graphics/SVG/1.1/DTD/svg11.dtd">
<svg version="1.1" id="Layer_1" xmlns="http://www.w3.org/2000/svg" xmlns:xlink="http://www.w3.org/1999/xlink" x="0px" y="0px"
	 width="143.625px" height="123.017px" viewBox="0 0 143.625 123.017" enable-background="new 0 0 143.625 123.017"
	 xml:space="preserve">
<path fill-rule="evenodd" clip-rule="evenodd" fill="#FFFFFF" d="M7.071,42.247L0,33.333c0,0,27.74-24.127,30.684-26.062
	c0,0,17.025-14.472,28.213,3.87c0,0,3.16,1.678,7.545,33.268c0,0,3.912,27.029,11.446,34.276c0,0,2.676,1.204,6.31-2.439
	c0,0,17.787-20,18.744-34.493c0,0,1.956-16.14-20.195-8.204c0,0,6.341-24.591,24.086-30.859c0,0,25.548-9.418,33.587,6.989
	c0,0,7.812,15.183-0.957,35.934c-8.77,20.74-39.67,61.759-54.039,69.952c0,0-21.163,15.924-33.104,1.215
	c0,0-8.275-9.408-11.178-24.385c0,0-12.65-60.761-23.88-56.653C17.262,35.742,7.792,40.559,7.071,42.247"/>
</svg>
