<svg xmlns="http://www.w3.org/2000/svg" width="143.625" height="123.017" viewBox="0 0 143.625 123.017"><path fill-rule="evenodd" clip-rule="evenodd" fill="#FFF" d="M7.071 42.247L0 33.333S27.74 9.206 30.684 7.271c0 0 17.025-14.472 28.213 3.87 0 0 3.16 1.678 7.545 33.268 0 0 3.912 27.029 11.446 34.276 0 0 2.676 1.204 6.31-2.439 0 0 17.787-20 18.744-34.493 0 0 1.956-16.14-20.195-8.204 0 0 6.341-24.591 24.086-30.859 0 0 25.548-9.418 33.587 6.989 0 0 7.812 15.183-.957 35.934-8.77 20.74-39.67 61.759-54.039 69.952 0 0-21.163 15.924-33.104 1.215 0 0-8.275-9.408-11.178-24.385 0 0-12.65-60.761-23.88-56.653 0 0-9.47 4.817-10.191 6.505"/></svg>