<?xml version="1.0" encoding="utf-8"?>
<!-- Generator: Adobe Illustrator 20.0.0, SVG Export Plug-In . SVG Version: 6.00 Build 0)  -->
<svg version="1.1" id="Ebene_1" xmlns="http://www.w3.org/2000/svg" xmlns:xlink="http://www.w3.org/1999/xlink" x="0px" y="0px"
	 viewBox="0 0 187.3 219.6" style="enable-background:new 0 0 187.3 219.6;" xml:space="preserve">
<style type="text/css">
	.st0{fill-rule:evenodd;clip-rule:evenodd;fill:#010202;}
	.st1{fill:#010202;}
</style>
<g>
	<g>
		<path class="st0" d="M96.8,23.7c0,0.2,0,0.4,0.1,0.6v0.1c-0.2,0-0.5,0-0.7-0.1v-0.4C96.4,23.8,96.6,23.8,96.8,23.7"/>
		<path class="st0" d="M141,23.7c0.7,0.1,1.2,0.5,1.4,1.2c-0.5-0.3-1-0.6-1.5-0.9C140.9,23.9,140.9,23.8,141,23.7"/>
		<path class="st0" d="M92.2,25h0.2c0,0,0,0,0.1,0.1c-0.2,0.5-0.5,0.7-0.9,1c-0.8,0-1.1-0.1-1.5-0.4C91.1,25.4,91.6,25.6,92.2,25"/>
		<path class="st0" d="M93.1,25.2c0.2,0.1,0.5,0.2,0.7,0.3c0,0.1,0,0.2-0.1,0.3c-0.1,0-0.2,0-0.4,0.1c0,0,0,0-0.1-0.1
			C93.2,25.6,93.1,25.4,93.1,25.2"/>
		<path class="st0" d="M92.3,25.8c0.2,0.2,0.4,0.3,0.6,0.5c0,0,0,0-0.1,0.1c-0.2,0.1-0.4,0.3-0.6,0.4c0,0,0,0-0.1-0.1
			c-0.1-0.2-0.2-0.5-0.2-0.7C92.1,26,92.2,25.9,92.3,25.8"/>
		<path class="st0" d="M91.2,26.5c0.2,0.1,0.5,0.2,0.7,0.2c0,0.1,0,0.2-0.1,0.4c-0.2-0.1-0.5-0.2-0.7-0.4
			C91.2,26.7,91.2,26.6,91.2,26.5"/>
		<path class="st0" d="M86.2,26.9c0.2,0.1,0.1,0,0.2,0.3C86.4,27.1,86.3,27,86.2,26.9"/>
		<path class="st0" d="M86.4,27.3c0.2,0.2,0.4,0.4,0.6,0.6c0,0,0,0-0.1,0.1c-0.2-0.1-0.4-0.1-0.6-0.2V27.3z"/>
		<path class="st0" d="M87.9,27.3c0.2,0.1,0.4,0.2,0.6,0.3c0,0.2,0,0.5,0.1,0.7C87.9,28.2,87.7,28,87.9,27.3"/>
		<path class="st0" d="M152,27.4c1.4,0.7,3.2,1.7,3.7,3.2c0,0.1,0,0.1-0.1,0.2c-0.4,0-0.7,0-1.1,0.1c-0.4-1.1-1.7-1.5-2.7-2v-0.2
			c0.1,0,0.2-0.1,0.3-0.1c-0.1-0.1-0.3-0.2-0.4-0.4C151.8,27.8,151.9,27.6,152,27.4"/>
		<path class="st0" d="M84.8,27.7c0.1,0.1,0.2,0.2,0.2,0.3c0,0,0,0-0.1,0.1c-0.1,0-0.2,0-0.4-0.1C84.7,27.9,84.7,27.8,84.8,27.7"/>
		<path class="st0" d="M85.4,28c0.1,0.1,0.2,0.2,0.4,0.4v0.5c-0.1,0-0.2,0.1-0.4,0.1c-0.1-0.2-0.2-0.5-0.4-0.7
			C85.2,28.2,85.3,28.1,85.4,28"/>
		<path class="st0" d="M84.7,29c0.2,0.1,0.5,0.2,0.7,0.2c-0.1,0.6-0.6,0.8-1.3,0.8c-0.1-0.1-0.2-0.2-0.4-0.3c0,0,0-0.1,0.1-0.1
			C84.2,29.4,84.5,29.3,84.7,29"/>
		<path class="st0" d="M82.5,29.8c0.2,0,0.3,0,0.5,0.1c0.3,0.3,0.8,0.8,0.6,1.2v0.2c-0.9,0.5-1.7,0.8-1.8-0.4
			c0.2-0.1,0.4-0.2,0.6-0.4c-0.1-0.1-0.2-0.2-0.3-0.2h0.5V29.8z"/>
		<path class="st0" d="M137.9,30.6c0.9,0.3,1.8,0.7,2.7,1c-0.3,0.6-0.5,1.3-0.8,1.9c-0.4,0.1-0.8,0.1-1.2,0.2
			C138.1,32.7,137,31.9,137.9,30.6"/>
		<path class="st0" d="M79.9,30.8c0.1,0,0.2,0.1,0.4,0.1c0,0.1,0,0.3-0.1,0.4c-0.4,0.3-0.7,0.6-1.1,0.9h-0.1c0-0.1,0-0.3-0.1-0.4
			C79.3,31.5,79.6,31.2,79.9,30.8"/>
		<path class="st0" d="M80.8,32.2c0.2,0,0.3,0,0.5,0.1v1.2c-0.6,0.4-1.1,0.7-1.7,1.1c0-0.1-0.1-0.3-0.1-0.4h-0.1
			c-0.1,0.2-0.2,0.3-0.4,0.5c-0.1,0-0.2-0.1-0.2-0.1c0.2-0.7,0.3-1.5,0.9-1.9v1c0.6-0.2,0.5-0.5,1.2-0.6c-0.1-0.2-0.2-0.4-0.3-0.6
			C80.6,32.4,80.7,32.3,80.8,32.2"/>
		<path class="st0" d="M78.5,32.3c0.1,0.1,0.3,0.1,0.4,0.2c0,0.3,0,0.6-0.1,0.9c-0.2,0.1-0.4,0.1-0.6,0.2h-0.1c0-0.1,0-0.2,0.1-0.3
			c0.1-0.1,0.2-0.1,0.3-0.2C78.4,32.8,78.4,32.7,78.5,32.3"/>
		<path class="st0" d="M77.5,32.9H78c0,0.1-0.1,0.3-0.1,0.4h-0.4V32.9z"/>
		<path class="st0" d="M147.5,33c0.4,0.1,0.4,0,0.3,0.3C147.8,33.2,147.7,33.1,147.5,33"/>
		<path class="st0" d="M78.4,34.4c0,0.2-0.1,0.4-0.1,0.6C78,35,77.7,35,77.4,35c0.2-0.2,0.3-0.5,0.5-0.7H78.4z"/>
		<path class="st0" d="M76.4,35h0.6c0,0.1,0,0.3-0.1,0.4c-0.2,0.1-0.4,0.2-0.7,0.3C76.2,35.3,76.2,35.2,76.4,35"/>
		<path class="st0" d="M148.7,35.1h0.1v0.2C148.8,35.3,148.8,35.2,148.7,35.1"/>
		<path class="st0" d="M75.6,35.4c0.2,0.2,0.1,0,0.1,0.3h-0.1V35.4z"/>
		<path class="st0" d="M75,36c0.1,0.1,0.2,0.1,0.2,0.2c0,0.1,0,0.2-0.1,0.2c-0.1,0-0.2,0-0.3-0.1C74.9,36.3,74.9,36.1,75,36"/>
		<path class="st0" d="M99,46.7h0.3c0,0.1,0,0.1,0.1,0.2c0,0.1-0.1,0.2-0.1,0.2C99.1,47,99,47,98.8,47c0-0.1,0.1-0.1,0.1-0.2V46.7z"
			/>
		<path class="st0" d="M72.6,47.8c0.2,0,0.3,0,0.5,0.1c0,0.1-0.1,0.2-0.1,0.3c-0.1,0-0.2,0.1-0.2,0.1c-0.1,0-0.1,0-0.2-0.1
			C72.6,48,72.6,47.9,72.6,47.8"/>
		<path class="st0" d="M67.8,52.8c0.2,0.1,0.4,0.1,0.6,0.2c0,0.1,0,0.1-0.1,0.2c-0.4,0.1-0.8,0.2-1.2,0.2v-0.1c0-0.1,0-0.1,0.1-0.2
			C67.4,53,67.6,52.9,67.8,52.8"/>
		<path class="st0" d="M60.5,57.9c0.1,0.1,0.2,0.2,0.2,0.3h-0.4C60.4,58.1,60.5,58,60.5,57.9"/>
		<path class="st0" d="M36.8,58.1c0.1,0,0.2,0,0.2,0.1c0,0,0,0.1-0.1,0.1c-0.1,0-0.1,0-0.2,0.1V58.1z"/>
		<path class="st0" d="M36.3,58.4c0.5,0.2,0.6,0.4,0.7,0.9c0,0,0,0-0.1,0.1c-0.1,0-0.2,0-0.2-0.1C36.6,59,36.4,58.7,36.3,58.4"/>
		<path class="st0" d="M47.9,63.7c0.1,0.1,0.1,0.3,0.2,0.4c0,0-0.1,0-0.1-0.1C48,63.9,48,63.8,47.9,63.7"/>
		<path class="st0" d="M91.8,64c0.1,0.1,0.3,0.2,0.4,0.4c-0.1,0.3-0.2,0.6-0.4,0.9c-0.1,0-0.2-0.1-0.4-0.1
			C91.6,64.7,91.7,64.3,91.8,64"/>
		<path class="st0" d="M60.9,64.3c0.3,0.2,0.3,0.1,0.4,0.5c0,0-0.1,0.1-0.1,0.1c-0.2-0.1-0.4-0.2-0.6-0.2c0-0.1,0-0.2,0.1-0.2
			C60.8,64.4,60.8,64.4,60.9,64.3"/>
		<path class="st0" d="M90.9,64.5c0.1,0.1,0.2,0.2,0.2,0.2C91,64.6,90.9,64.5,90.9,64.5"/>
		<path class="st0" d="M47.6,64.5c0.1,0,0.3,0,0.4,0.1c-0.1,0.2-0.2,0.5-0.2,0.7c-0.1,0-0.3-0.1-0.4-0.1
			C47.4,64.9,47.5,64.7,47.6,64.5"/>
		<path class="st0" d="M92.6,65.4h-0.4c0-0.4,0-0.3,0.2-0.5l0.1,0.1C92.6,65.2,92.6,65.3,92.6,65.4"/>
		<path class="st0" d="M60.8,66.6c0.1,0,0.2,0.1,0.3,0.1v0.2c-0.1,0-0.1,0-0.2-0.1C60.9,66.8,60.8,66.7,60.8,66.6"/>
		<path class="st0" d="M89.1,67.9c0.4,0,0.4,0,0.5,0.3l-0.2,0.2h-0.3c-0.1-0.1-0.1-0.2-0.2-0.2C89,68.1,89,68,89.1,67.9"/>
		<path class="st0" d="M98,69.1c0.3,0.2,0.6,0.4,0.9,0.6v0.2c-0.3,0.1-0.6,0.3-0.9,0.4C97.6,69.7,97.7,69.7,98,69.1"/>
		<path class="st0" d="M43.7,69.7h0.2c0,0.1,0,0.2,0.1,0.4h-0.4C43.6,69.9,43.7,69.8,43.7,69.7"/>
		<path class="st0" d="M98.4,70.7c0.3,0.1,0.7,0.3,1,0.4c-0.4,1.3-1.7,1.7-2.6,0.9c0.1-0.2,0.1-0.5,0.2-0.7
			C97.6,71.2,98,71,98.4,70.7"/>
		<path class="st0" d="M38.7,80.4c0,0.3-0.1,0.7-0.1,1h-0.1l-0.2-0.2c0-1.2,0.2-1.7,0.9-2.2c-0.1-0.1-0.2-0.3-0.2-0.4
			c0.1-0.2,0.3-0.4,0.4-0.6c-0.5,0.2-0.9,0.7-1.6,0.6c-0.1-0.2-0.2-0.5-0.4-0.7c0.2,0,0.5,0,0.7-0.1c0.2-1.3,1.2-1.5,0.1-2.5
			c0.2-0.1,0.3-0.1,0.5-0.2c-0.1-0.3-0.2-0.7-0.2-1c0.4-0.1,0.8-0.2,1.2-0.3c-0.2-0.9,0.1-1.8,0.5-2.5c1.3,0.2,2.5,0,3.9-0.1
			c-0.3,1.7-2.9,2.6-2.5,3.7c1.3-0.3,3.1-0.6,4.7-0.4c0.1,0.3,0.2,0.6,0.2,0.9c-1.1,1-1.5,2.6-2.6,3.6c0.2,0.3,0.4,0.5,0.6,0.8
			l-0.1,0.1c-0.7,0.1-1.4,0.3-2.1,0.4c0.1,0.1,0.2,0.1,0.2,0.2c0.7,0.3,1.6,0,2.2-0.2c0.7,0.7,1.5,1.4,2.2,2.1
			c0.1,0.7,0.3,1.3,0.4,2c1.7,0.9,2.6,1.7,3,3.9c-0.2-0.1-0.4-0.1-0.6-0.2v0.2c0.9,0.5,1.2,1.2,0.7,2.3c1,0,1.9,0,2.9,0.1
			c0.3,0.4,0.6,0.8,0.9,1.2c-0.9,1.3-1.3,2.3-2.6,3.2c0.1,0.2,0.1,0.4,0.2,0.6h1.5c-0.1,0.4-0.2,0.7-0.2,1.1c-1,0.1-1.6,0.7-2.4,0.9
			c-1.1-0.1-2.2-0.3-3.3-0.4c-1,0.4-2,0.7-2.9,1.1c-0.7-0.1-1.3-0.1-2-0.2c-0.1,0-0.3,0.1-0.4,0.1c-0.1,0.3-0.2,0.7-0.3,1
			c-1.6-0.2-2.4-0.4-3,0.9c-0.4,0-0.9,0-1.3-0.1c0-0.2,3.5-3.9,3.8-3.9c1.1-0.1,2,0.5,2.8-0.6l-0.1-0.1c-0.5,0.1-1.1,0.3-1.6,0.4
			c-0.4-0.5-1.5-1.3-2.1-1.5c-0.5,0.2-0.9,0.5-1.6,0.4v-0.9c1.1-0.2,1.8-0.8,2.5-1.4c0-0.7,0-1.3-0.2-1.8h-0.1
			c-0.2,0.1-0.4,0.2-0.7,0.4c0.3-0.6,0.7-1.1,1-1.7c0.8-0.1,1.6-0.1,2.5-0.2c0.1-0.9,0.2-1.7,0.2-2.6c-1,0-1.4-0.8-1.6-1.6
			c0.3-0.4,0.7-0.9,1-1.3c-1.2,0.2-3.4,1.5-4.1,0.1c0.4-0.8,0.6-2.2,0.9-3.2l-0.5-0.1c-0.1,0.2-0.2,0.5-0.2,0.7
			c-0.1,0-0.1,0-0.2-0.1c-0.2-0.3-0.3-0.4-0.1-0.7C38.9,80.5,38.8,80.4,38.7,80.4"/>
		<path class="st0" d="M37.2,71.8h0.3c-0.3,1-0.6,2-1.8,2.1v-0.2c0-0.3-0.1-0.7-0.1-1C36.3,72.7,36.8,72.3,37.2,71.8"/>
		<path class="st0" d="M91.1,73.4c0.1,0,0.2,0,0.4,0.1c0,0,0,0-0.1,0.1c0,0-0.1,0.1-0.1,0.1C91.2,73.6,91.2,73.5,91.1,73.4"/>
		<path class="st0" d="M90.7,73.8c0,0.7,0,1.7-0.3,2.1c-0.2,0.2-0.5,0.4-0.9,0.3C89.2,75.9,89,75.7,89,75
			C89.6,74.5,89.7,73.8,90.7,73.8"/>
		<path class="st0" d="M37.5,76.3h-0.6c0-0.2,0-0.5,0.1-0.7c-0.2-0.1-0.4-0.2-0.6-0.4v-0.1c0.4,0,0.8-0.1,1.2-0.1V76.3z"/>
		<path class="st0" d="M35,75.8c0.2,0,0,0.1-0.1,0.2C34.9,75.9,35,75.9,35,75.8"/>
		<path class="st0" d="M86.3,76h0.3c0,0.2,0,0.3-0.1,0.5C86.5,76.3,86.4,76.2,86.3,76"/>
		<path class="st0" d="M37.6,76.3c0.2,0,0.4,0,0.6,0.1v0.2c-0.2,0.1-0.4,0.2-0.6,0.2V76.3z"/>
		<path class="st0" d="M86.3,76.5h0.2c-0.1,0.1-0.2,0.2-0.2,0.2C86.3,76.7,86.3,76.6,86.3,76.5"/>
		<path class="st0" d="M89.8,76.7c0,0.2-0.1,0.4-0.1,0.6c-0.2,0-0.4-0.1-0.6-0.1v-0.1c0-0.1,0-0.1,0.1-0.2c0,0,0.1-0.1,0.1-0.1
			C89.5,76.7,89.7,76.7,89.8,76.7"/>
		<path class="st0" d="M86.2,76.9c0.6,0.6,0.1,2-0.5,2.3V79C85.4,78.2,85.9,77.4,86.2,76.9"/>
		<path class="st0" d="M37.4,79c0.4,0,0.3,0,0.4,0.2c0,0,0,0-0.1,0.1c-0.1,0-0.2-0.1-0.4-0.1V79z"/>
		<path class="st0" d="M76,80.1c0.2,0,0.5,0.1,0.7,0.1c0.2,0.4,0.4,0.8,0.6,1.2c-0.2,0.1-0.5,0.2-0.7,0.4c0.1,0.3,0.2,0.5,0.3,0.8
			c-0.5,0.2-0.5,0.4-0.7,0.8c-0.2,0-0.4,0-0.6-0.1c0-0.2,0-0.4,0.1-0.6c-0.5-0.1-0.9-0.3-1.2-0.6c-0.1-0.3-0.2-0.7-0.2-1
			c0.3-0.1,0.5-0.2,0.8-0.4c0.3,0.4,0.5,0.5,1,0.6c0-0.4-0.2-0.7-0.5-1c0,0,0-0.1,0.1-0.1C75.7,80.2,75.9,80.1,76,80.1"/>
		<path class="st0" d="M37.5,80.6c0.2,0.2,0.1,0,0.1,0.2C37.5,80.8,37.5,80.7,37.5,80.6"/>
		<path class="st0" d="M36.8,81c0.1,0.2,0.2,0.3,0.4,0.5c-0.2-0.1-0.3-0.2-0.5-0.2C36.7,81.1,36.7,81.1,36.8,81"/>
		<path class="st0" d="M71.9,81.7c0.4,0,0.8,0.1,1.2,0.1c0.2,0.4,0.3,0.9,0.5,1.3c-1,0.6-2.3,0.1-2.5-1c0,0,0,0,0.1-0.1
			C71.4,81.9,71.6,81.8,71.9,81.7"/>
		<path class="st0" d="M38.9,82.1c0.1,0,0.1,0.1,0.2,0.1c-0.1,0-0.1,0.1-0.2,0.1l-0.1-0.1C38.9,82.2,38.9,82.1,38.9,82.1"/>
		<path class="st0" d="M38.1,82.3c0.1,0,0.2,0,0.3,0.1c-0.1,0.2-0.2,0.4-0.2,0.6h-0.3C37.9,82.7,38,82.5,38.1,82.3"/>
		<path class="st0" d="M82,82.5c0.6,0.1,0.8,0.3,1,0.7c-0.1,0-0.1,0.1-0.2,0.1c-0.1,0-0.2,0-0.3,0.1c-0.2-0.1-0.3-0.2-0.5-0.4V82.5z
			"/>
		<path class="st0" d="M34.7,82.7c0.2,0.1,0.3,0.2,0.5,0.2c-0.1,0.2-0.2,0.4-0.3,0.7c0.6-0.2,1.1-0.6,2-0.5c0.5,0.7,0.9,1.4,1.4,2
			c-0.1,0.3-0.1,0.6-0.2,0.9c-0.5,0.4-1.1,0.7-1.6,1.1c0.7,1.8,0.4,4.7-0.6,6.1c-2.6-0.5-5.4,3-6.9,2.1c0-0.1,0.1-0.3,0.1-0.4
			c-0.2,0-0.5,0-0.7-0.1c0.1-0.2,0.2-0.3,0.3-0.5c-0.6,0.1-0.7-0.1-1-0.4v-0.1c0.4-0.1,0.7-0.3,0.9-0.7c-0.3,0.1-0.7,0.1-1,0.2
			c0-0.1,0-0.2,0.1-0.4c0.7-0.1,3-1,3.2-1.7h-0.1c-0.5,0.1-1,0.1-1.5,0.2v-0.2c0.5-0.5,1-1,1.5-1.5c-0.7-0.3-1.4-0.6-2.1-0.9
			c0.1-0.9,0.5-1,1-1.4c0,0,0-0.1-0.1-0.1c-0.5-0.3-0.7-0.7-0.9-1.4c0,0,0.1-0.1,0.1-0.1c1.1,0.1,2.2,0.1,3.3,0.2
			c0.3-0.4,0.6-0.7,0.9-1.1l-0.2-0.2c-0.5,0-0.9-0.1-1.2-0.3c1-0.7,1.4-1.6,3-1.2C34.5,83.2,34.6,82.9,34.7,82.7"/>
		<path class="st0" d="M73.4,83.7c0,0,0.1,0.1,0.1,0.1c-0.1,0-0.1,0.1-0.2,0.1v-0.1C73.3,83.8,73.3,83.7,73.4,83.7"/>
		<path class="st0" d="M74.2,83.7c0.4,0.3,0.9,0.5,1.3,0.8c0,0,0,0-0.1,0.1c-0.2,0.1-0.4,0.2-0.6,0.3c-0.2-0.1-0.5-0.3-0.7-0.4
			C74.1,84.2,74.2,83.9,74.2,83.7"/>
		<path class="st0" d="M75.7,83.7c0.1,0.1,0.3,0.1,0.4,0.2c0,0.1,0,0.2-0.1,0.3c-0.1,0-0.2,0-0.2-0.1c-0.1-0.1-0.2-0.1-0.2-0.2
			C75.6,83.8,75.7,83.8,75.7,83.7"/>
		<path class="st0" d="M77.4,85.4"/>
		<path class="st0" d="M68.8,85.5H69c-0.1,0.1-0.2,0.2-0.2,0.2C68.8,85.6,68.8,85.5,68.8,85.5"/>
		<path class="st0" d="M40.3,85.9c0.3,0.2,0.3,0.2,0.4,0.7c-0.1,0-0.2,0-0.2,0.1c-0.2,0.1-0.4,0.1-0.6,0.2v-0.4
			C40,86.2,40.2,86.1,40.3,85.9"/>
		<path class="st0" d="M68,88.4c0.1,0.1,0.2,0.2,0.2,0.4c-0.1,0-0.1,0-0.2-0.1C68,88.6,68,88.5,68,88.4"/>
		<path class="st0" d="M40.4,89c0.2,0.1,0.5,0.2,0.7,0.3v0.2c-0.1,0.1-0.2,0.2-0.2,0.2h-0.4c-0.1-0.1-0.1-0.2-0.2-0.2
			C40.3,89.3,40.3,89.1,40.4,89"/>
		<path class="st0" d="M129.9,112.2h0.1c0,0,0,0.1,0.1,0.1c-0.1,0-0.1,0.1-0.2,0.1c0,0,0,0-0.1-0.1
			C129.8,112.3,129.8,112.2,129.9,112.2"/>
		<path class="st0" d="M83.3,115.9c0.1,0.1,0.2,0.3,0.3,0.4c-0.1,0-0.2,0-0.3,0.1V115.9z"/>
		<path class="st0" d="M89.5,122.1c0.6,0,0.5,0.1,0.7,0.2C89.8,122.4,89.7,122.4,89.5,122.1"/>
		<path class="st0" d="M71.6,122.3c1.2,0.8,0.8,4.5-0.7,4.7c-0.8-0.6-1-3.1-0.4-3.9c0.4,0,0.7,0.1,1.1,0.1V122.3z"/>
		<path class="st0" d="M71.1,127.8c2.3,0.4,1.8,4.3,1.4,6.6c-0.4-0.1-0.8-0.2-1.2-0.3c0,0.3-0.1,0.7-0.1,1c-0.3,0-0.6,0-0.9,0.1
			c-0.5-1.9-1.3-4.3-1-6.5l0.1-0.1c0.3,0.1,0.5,0.2,0.8,0.2C70.4,128.4,70.8,128.1,71.1,127.8"/>
		<path class="st0" d="M108.4,128.9c0.2,0.1,0.4,0.1,0.6,0.2c0,0.1,0,0.2-0.1,0.2c-0.2,0-0.3-0.1-0.5-0.1V128.9z"/>
		<path class="st0" d="M106.5,130.7c0.1,0.1,0.3,0.2,0.4,0.2c0,0.1,0.1,0.2,0.1,0.4v0.1h-0.3h-0.1
			C106.6,131.1,106.6,130.9,106.5,130.7"/>
		<path class="st0" d="M109.8,131.2h0.6c0,0.1,0,0.1-0.1,0.2c-0.1,0.1-0.2,0.3-0.4,0.4c-0.1,0-0.2,0-0.2-0.1l-0.1-0.1
			c0-0.1,0-0.1,0.1-0.2C109.8,131.3,109.8,131.2,109.8,131.2"/>
		<path class="st0" d="M58.9,131.6c0.3,0.1,0.5,0.1,0.8,0.2c0,0.1,0,0.2,0.1,0.4c-0.4,0-0.8-0.1-1.2-0.1v-0.2
			C58.7,131.7,58.8,131.6,58.9,131.6"/>
		<path class="st0" d="M96.8,132.2c0.2,0,0.5,0,0.7,0.1c0.1,0.3,0.2,0.7,0.3,1c-0.1,0-0.2,0-0.3-0.1
			C97.1,132.9,96.7,132.6,96.8,132.2"/>
		<path class="st0" d="M56.7,132.4c0.3,0,0.6,0,0.9,0.1c-0.1,0.4-0.2,0.8-0.4,1.2c-0.3-0.1-0.6-0.2-0.9-0.4v-0.1
			C56.4,133,56.5,132.7,56.7,132.4"/>
		<path class="st0" d="M112.7,133.3h0.4c0.1,0.4,0.2,0.8,0.2,1.2c0,0,0,0-0.1,0.1c-0.2,0-0.4,0-0.6-0.1v-0.6
			c-0.3,0.1-0.6,0.2-0.9,0.4c0-0.1-0.1-0.2-0.1-0.2v-0.1C112,133.7,112.3,133.5,112.7,133.3"/>
		<path class="st0" d="M54,134.5c0.2,0.1,0.3,0.2,0.5,0.2c0,0.1-0.1,0.2-0.1,0.3c-0.1,0.1-0.2,0.2-0.4,0.2c-0.1-0.1-0.2-0.2-0.3-0.2
			C53.7,134.8,53.9,134.7,54,134.5"/>
		<path class="st0" d="M112.2,135.8c0.2,0.1,0.4,0.3,0.6,0.4c-0.1,0.4-0.2,0.6-0.6,0.7v-0.2C112.2,136.4,112.2,136.1,112.2,135.8"/>
		<path class="st0" d="M99.1,136.6c0.4,0.1,0.5,0.4,0.6,0.9c0,0,0,0-0.1,0.1c-0.5-0.1-0.6-0.2-0.7-0.7C99,136.8,99,136.7,99.1,136.6
			"/>
		<path class="st0" d="M86.6,136.8c0.2,0.1,0.3,0.2,0.5,0.3c0.2,1.1-0.8,1.5-0.9,2.4c-0.1,1,0.7,1.2,0.1,2.2
			c-1.7-0.3-6.1-2.4-6.4-3.9c0,0,0,0,0.1-0.1C81.9,137.5,85.4,138,86.6,136.8"/>
		<path class="st0" d="M108.1,137.3c0.6,0,0.7,0.1,0.9,0.5c-0.3,0-0.6-0.1-0.9-0.1V137.3z"/>
		<path class="st0" d="M99.5,138.2c0.2,0.1,0.4,0.2,0.6,0.3v0.1c-0.2,0-0.4,0-0.6-0.1V138.2z"/>
		<path class="st0" d="M109.2,138.2c0.1,0,0.3,0.1,0.4,0.1c0,0.1,0,0.2,0.1,0.3C109.3,138.6,109.3,138.6,109.2,138.2"/>
		<path class="st0" d="M113.7,138.3c0.4,0,0.4,0,0.5,0.3c0,0-0.1,0.1-0.1,0.1c-0.1,0-0.3-0.1-0.4-0.1
			C113.7,138.5,113.7,138.4,113.7,138.3"/>
		<path class="st0" d="M111.2,140.2h0.3c0,0,0,0,0.1,0.1c-0.1,0.2-0.1,0.3-0.2,0.5h-0.1c0,0,0,0-0.1-0.1V140.2z"/>
		<path class="st0" d="M117.5,142.2h0.2v0.7c-0.3,0.2-0.7,0.5-1,0.7h-0.1c0-0.2,0-0.5,0.1-0.7C116.9,142.6,117.2,142.4,117.5,142.2"
			/>
		<path class="st0" d="M105.2,142.5c0.1,0.1,0.2,0.2,0.4,0.3c0,0,0,0.1-0.1,0.1C105.1,142.8,105.1,142.9,105.2,142.5"/>
		<path class="st0" d="M132.4,144h0.2c0,0.1,0,0.2-0.1,0.2c-0.5,0.4-1.1,0.9-0.9,1.8c-1,0.3-1.5,0.7-2.5,1c-0.5-0.1-1.9-0.7-1.7-1.4
			c0.5-0.2,1-0.4,1.5-0.6c0.1-0.2,0.1-0.3,0.2-0.5C130.5,144.6,131.6,144.4,132.4,144"/>
		<path class="st0" d="M115.3,144.2c0.1,0.1,0.2,0.2,0.3,0.2c0,0.1,0,0.3-0.1,0.4h-0.1c0,0-0.1,0-0.1-0.1c0,0-0.1-0.1-0.1-0.1
			C115.3,144.6,115.3,144.4,115.3,144.2"/>
		<path class="st0" d="M112.2,145.1v0.7c0.4-0.1,0.8-0.2,1.2-0.3h0.1c-0.2,1.3-6.3,1.1-6.5-0.5c0,0,0,0,0.1-0.1
			c0.4-0.1,0.7-0.2,1.1-0.2C108.7,145.4,110.9,145.1,112.2,145.1"/>
		<path class="st0" d="M160.4,155.6c-0.2,0-0.4,0.1-0.6,0.1c0.9,0.3,1.8,0.7,2.7,1c0,0,0,0-0.1-0.1
			C161.8,156.2,161.3,155.8,160.4,155.6"/>
		<g>
			<path class="st1" d="M134.2,164.2c0.2-1.1,0.3-2.3,0.5-3.4c-0.1,0-0.1,0-0.2,0.1c-0.5,1.3-0.5,3.2-1.2,4.3c0,0-0.1,0-0.1,0.1
				c-2.2-0.9-2.3-4.3-4.4-5.2h-0.1c0.2,2.6,2.2,3,3.1,4.8c0.4,1.4,0.8,2.9,1.2,4.3c0.9,1.4,1.8,2.9,2.7,4.3c1.4-0.7,2.7-1.5,4-2.2
				C138.4,168.2,136.3,164.6,134.2,164.2z"/>
			<path class="st1" d="M93.6,0C42,0,0,42,0,93.6s42,93.6,93.6,93.6s93.6-42,93.6-93.6S145.3,0,93.6,0z M135.6,173.5
				c-0.9-1.4-1.8-2.9-2.7-4.3c-0.4-1.4-0.8-2.9-1.2-4.3c-0.9-1.8-2.9-2.2-3.1-4.8h0.1c2.1,1,2.2,4.3,4.4,5.2c0,0,0.1,0,0.1-0.1
				c0.7-1.1,0.8-3,1.2-4.3c0.1,0,0.1,0,0.2-0.1c-0.2,1.1-0.3,2.3-0.5,3.4c2.1,0.4,4.3,4,5.5,7C138.3,172,137,172.7,135.6,173.5z
				 M155.2,33.4c-1,0.2-1.3,1-2.1,1.3c-1.1,0-2.1,0-3.2-0.1c0,0.4,0.1,0.7,0.1,1.1c-0.9,0-1.9-0.1-2.8-0.1l-0.1-0.1
				c0.1-0.3,0.2-0.4,0.6-0.5c0-0.4-0.1-0.7-0.1-1.1c-0.4-0.2-0.6-0.3-0.9-0.7c-0.2,0.1-0.4,0.2-0.6,0.3c0.1,0.3,0.2,0.6,0.4,0.9
				l-0.1,0.1c-0.6,0-0.6-0.2-0.8-0.6c-0.2,0.1-0.4,0.2-0.6,0.3v0.2c0.2,0.2,0.5,0.4,0.7,0.6V35c-0.1,0.1-0.1,0.2-0.2,0.3
				c-0.5,0-0.7-0.5-0.9-0.9c-0.6,0.2-0.9,0.4-1.8,0.4c-0.6,1.1-1.1,1.6-2.3,2.1c0.2,0.3,0.4,0.6,0.6,0.9c-0.7,0-1.4-0.1-2-0.1
				c0.1,0.8,0.3,1.6,0.2,2.5c-2.3,1.2-3.4-0.9-4.9-1.7v-0.9c0.7-0.2,1.3-0.4,2-0.6l0.1-0.1c-0.5-2.5-3.8-3.1-6.4-3.4
				c1.7,2.4,2.5,1,2.5,5.8c1.5,0.8,2,2.5,2.1,4.6c-0.5-0.4-0.5-0.9-1.2-1.2c-0.1,0.2-0.2,0.4-0.3,0.6c-3.2-3-3.6,0.3-6,2.1
				c0.2,1.2,1,2,1.7,2.7c0,0.7-0.3,0.6,0.1,1.4c-1.2-0.5-2.5-0.4-3.9-1c-1-0.7-2-1.4-3-2c-0.2,0.4-0.2,1-0.5,1.3
				c0.2,1.1,1.3,1.4,1.9,2.1c0.4-0.1,0.8-0.2,1.2-0.2c0.2,0.6,0.5,1.2,0.7,1.8c-0.5,0-0.7,0.1-0.9,0.4c-1.6-0.3-2.5-0.9-3.4-2
				c-0.4-0.1-0.5,0-0.9,0.1c-1.5-0.9-1.3-3.3-3.2-4v-0.1c0.1-0.1,0.2-0.2,0.3-0.3c0.2,0,0.4,0,0.6-0.1v-1.7c-1-0.6-2.2-1.1-3.4-1.3
				c0.1-0.1,0.3-0.3,0.4-0.4l-0.1-0.5h-1.5c0.2-0.1,0.3-0.2,0.5-0.3c-0.2-0.6-1.1-1.4-1.7-1.8c0.3-0.1,0.7-0.2,1-0.2
				c1.6,1.8,4.2,2.8,7,3.4c1.1-0.7,1.2,0.2,2.6,0.5c3.8,0.8,5.7-1.3,5.5-4.6c-1.5-0.7-3.1-1.9-3.9-3.4c-0.2,0.1-0.1,0-0.2,0.3
				c-0.8-0.3-1.1-0.8-1.9-0.5c-2.3-2.3-5.3-3.4-9-4.2c-0.5,0.3-1,0.7-1.5,1c0-0.2,0.1-0.4,0.1-0.6c-0.8-0.4-1.6-0.9-2.8-0.9
				c0-0.3,0-0.6-0.1-0.9c0.5,0.1,0.9,0.2,1.4,0.4c0.1,0,0.2-0.1,0.3-0.1c-0.3-0.5-1.6-1-2.2-1.2c-0.1,0.7-0.2,0.9-0.6,1.4
				c-0.1,0-0.1,0-0.2,0.1c-0.4-0.5-0.8-0.8-1.5-1c-0.1,0.1-0.1,0.2-0.2,0.4c-0.1-0.2-0.1-0.3-0.2-0.5c-0.4,0.3-0.4,0.5-1.2,0.6
				c-0.3-0.9-0.9-1.3-1.9-1.5c0-0.1,0-0.1-0.1-0.2c2.2,0.4,3-0.1,4.4-0.9v-0.2c-0.6-0.3-1.4-0.5-2.3-0.4v-0.1
				c0.1-0.2,0.2-0.4,0.3-0.6c-0.3,0-0.6-0.1-0.9-0.1c-0.3,0.5-0.3,0.3-1,0.3v-0.7c-0.3,0-0.6-0.1-0.9-0.1c0,0.5,0,0.6-0.4,0.8
				c0.1,0.3,0.2,0.6,0.3,0.9c-0.1,0-0.2,0.1-0.4,0.1c-0.2-0.4-0.5-0.5-1.1-0.4c0.2-0.3,0.3-0.6,0.5-0.9c-0.2,0.1-0.5,0.1-0.7,0.2
				c-0.1-0.2-0.1-0.5-0.2-0.7c0.3,0,0.6,0,0.9,0.1c0.1-0.1,0.1-0.2,0.2-0.2c0-0.1,0.1-0.2,0.1-0.3c-0.5-0.3-1-0.5-1.5-0.8H100v0.9
				c-0.2-0.1-0.5-0.1-0.7-0.2h-0.1c0.1,0.4,0.1,0.4,0.4,0.6c-0.3,0.5-0.5,0.8-0.4,1.6c-0.4,0.1-0.8,0.2-1.2,0.3
				c0.2-0.7,0.4-1.3,0.1-2.1c0,0,0,0-0.1-0.1h-0.1c-0.5,1.1-0.9,2.4-1.5,3.3c-0.1,0-0.2,0-0.4,0.1c0-1.1,0.8-2.4,0.4-3.3
				c-0.8,0.2-0.5,0.1-1.4-0.1c-0.2,0.4-0.2,0.4-0.6,0.6c0.1,0.2,0.2,0.3,0.4,0.5c-0.2,0.3-0.3,0.3-0.4,0.7c-0.4-0.1-0.7-0.1-0.9,0.1
				c-0.5,0.3-0.6,1.2-0.2,1.7v0.3c-0.3-0.1-0.6-0.2-0.9-0.2c0-0.3,0-0.5-0.1-0.8c-0.7-0.1-1.4-0.2-1.8-0.6c-0.4,0.1-0.8,0.3-1.2,0.4
				v0.4c0.4,0.1,0.9,0.2,1.3,0.4c0,0.7,0.2,0.8,0.3,1.3c-1.2-0.7-1.1-0.7-2.4-0.1c0.1,0.3,0.2,0.5,0.4,0.8c-0.4,0.2-0.7,0.5-1.1,0.7
				c-0.1,0-0.1,0-0.2,0.1c0.1-0.7,0.2-1.5,0.2-2.2c-0.1,0-0.2,0-0.3,0.1c-0.2,0.6-0.5,1.1-0.7,1.7c-0.1-0.3-0.2-0.6-0.2-0.9
				c0,0,0-0.1-0.1-0.1H86c-0.2,0.3-0.3,0.6-0.2,1.2c0.2,0.2,0.5,0.4,0.7,0.6c0,0.2-0.1,0.3-0.1,0.5c-0.4-0.6-0.9-0.8-1.3-1.5h-0.2
				c-0.1,0.1-0.2,0.2-0.3,0.2c0.1,0.5,0.3,0.5,0.7,0.6v0.1c-0.1,0.1-0.2,0.2-0.2,0.4h-0.1c-0.2-0.2-0.4-0.5-0.6-0.7
				c-0.5,0.1-0.3,0.5-0.2,0.9c-0.3,0-0.6,0.1-0.9,0.1c0,0-0.1,0.1-0.1,0.1c0.1,0.1,0.2,0.3,0.4,0.4c-0.8,0.6-1.4,1.2-2.3,1.7v0.2h2
				l0.1,0.1c0,0.3-0.1,0.6-0.1,0.9c-0.9-0.5-0.9-0.6-1.8-0.1c0.1,0.5,0.1,1,0.2,1.5c-0.1,0-0.2,0-0.4-0.1c-0.2-0.5-0.3-1-0.5-1.5
				c-0.4,0.1-0.8,0.3-1.2,0.4c0.3,0.1,0.7,0.2,1,0.4c0,0.1,0.1,0.3,0.1,0.4v0.1c-0.5,0-1-0.1-1.5-0.1c0,0.1,0,0.1-0.1,0.2
				c0.2,0.5,0.3,0.4,0.9,0.4c-0.1,0.6-0.1,0.8,0.1,1.3v0.1c-0.6,0-0.6-0.2-1-0.4c-0.2,0.3-0.2,0.4-0.6,0.6v0.4
				c0.4,0.1,0.8,0.1,1.2,0.2c0.1,0.1,0.2,0.2,0.2,0.4v0.2c-1.5-0.1-2.4,0.2-3.3,0.7c0.4,0.7,0.3,1.4-0.4,1.9
				c0.1,0.4,0.3,0.5,0.7,0.7c0,0.1-0.1,0.2-0.1,0.4c-0.6,0.1-1.2,0.1-1.5,0.3c0.3,0.2,0.6,0.4,0.9,0.6l0.1,0.1
				c-0.3,0.1-0.5,0.2-0.8,0.3c0,0.3,0.1,0.6,0.1,0.9c-0.1,0-0.3-0.1-0.4-0.1c0.1,0.1,0.2,0.2,0.3,0.4c-0.2,0.3-0.4,0.7-0.6,1
				c0,0.1,0.1,0.2,0.1,0.2c0.2-0.1,0.5-0.1,0.7-0.2c-0.4,1-1.8,1.8-2.7,2.3c0.1,0.2,0.1,0.4,0.2,0.6c-0.4,0.2-0.6,0.4-0.9,0.1
				c-1.3,0.3-1.9,2.2-2.1,3.5c0,0.1,0.1,0.1,0.1,0.2c1.6-0.1,2.4-2,3.7-2.4c-0.4,0.3-0.8,0.6-1.2,0.9c0,0,0,0-0.1,0.1
				c0.2,0.1,0.3,0.3,0.5,0.4c-0.3,0.6-0.5,0.7-1.2,0.9c0.1,0.2,0.1,0.5,0.2,0.7c0,0.1-0.1,0.2-0.1,0.2c-0.3-0.1-0.7-0.2-1-0.4
				c-0.2,0.2-0.4,0.5-0.6,0.7H70c-0.2-0.5-0.4-0.9-0.6-1.4c-0.2,0.1-0.4,0.2-0.6,0.3c0.1,0.2,0.2,0.4,0.2,0.6
				c-0.5,0.3-0.9,0.2-1.5,0.2c0,0.2,0.1,0.4,0.1,0.6c-0.2,0.1-0.4,0.2-0.6,0.4c0.2,0.2,0.4,0.4,0.6,0.6c0.1,0.2,0.1,0.1-0.1,0.2
				c-0.3-0.2-0.6-0.4-0.9-0.6h-0.2c0,0.1,0,0.2-0.1,0.2c0.1,0.1,0.2,0.2,0.3,0.2c0,0.1,0,0.1,0.1,0.2c-0.8-0.2-1.5-0.8-2.3-0.6h-0.2
				v0.6c0.6,0.1,1.1,0.3,1.7,0.4c-0.4,0.2-0.9,0.5-1.3,0.7c-0.4-0.4-1.1-0.6-1.7-0.4v0.1c0.5,0.4,0.9,0.6,1.5,0.9
				c0,0.2,0,0.4-0.1,0.6c0,0-0.1,0.1-0.1,0.1c0,0,0,0-0.1,0.1c-0.1-0.2-0.3-0.5-0.4-0.7c-0.4,0.1-0.7,0.1-1.1,0.2
				c-0.2,0.2-0.1,0.3-0.1,0.7c-0.5,0.1-0.9-0.1-1.3-0.2c-0.2,0.3-0.2,0.4-0.7,0.5v0.2c1,0.1,2,0.1,3.1,0.2c-0.6,0.8-2.1,0.3-3.2,0.6
				h-0.2v0.1c0.3,0.3,0.3,0.2,0.3,0.7c0.3,0,0.6,0,0.9-0.1c-0.4,0.5-0.9,0.6-1.2,1.3v0.1c2.1,0.5,3.5-0.4,5-1c0,0.3,0.1,0.5,0.1,0.8
				c-0.3,0.4-0.7,0.8-1,1.2c-0.3,0-0.5-0.1-0.8-0.1v-0.1c0.1-0.2,0.1-0.4,0.2-0.6c-1,0.6-1.8,0-3.3,0.4c-0.3,0.1-0.2,0.1-0.2,0.3
				c0,0.1,0,0.2-0.1,0.2c0.2-0.1,0.5-0.1,0.7-0.2h0.1c-0.2,0.3-0.5,0.6-0.7,0.9c0,0.1,0.1,0.2,0.1,0.3c0.4-0.2,0.9-0.5,1.3-0.7
				c0,0,0,0,0.1,0.1c-0.2,0.5-0.3,1.1-0.2,2c0.1,0,0.2,0,0.2,0.1c0.4-1,1-1.1,2.2-1.4c-0.2,0.4-0.4,0.8-0.6,1.2
				c-0.2-0.1-0.4-0.2-0.6-0.3c-0.3,0.5-0.5,0.9-0.8,1.4c0.2,0.1,0.3,0.2,0.5,0.2v0.2c-0.4,0.3-0.8,0.6-1.5,0.6
				c-0.1,0.2-0.2,0.4-0.4,0.6c0.2,0.2,0.3,0.3,0.5,0.5l0.1,0.1c0.3-0.2,0.7-0.5,1-0.7h0.1c0.2,0.5,0.2,1.1,0,1.7
				c0.3,0,0.7,0.1,1,0.1c-0.3,0.2-0.4,0.2-0.4,0.7c-0.6-0.2-1.1-0.3-1.7-0.5l-0.1,0.1c0,0.2-0.1,0.4-0.1,0.6c0.8,1,2,1.5,2.8,2.6
				c0.3-0.2,0.4-0.3,0.9-0.4c0.1,0.3,0.3,0.6,0.4,0.9c0.7-0.1,1.2-0.5,1.5-1c0.1,0.1,0.2,0.3,0.3,0.4c0.8-0.3,1-0.5,1.2-1.4
				c0.2,0.1,0.4,0.1,0.6,0.2c0.3-0.7,0.4-1.3,1.2-1.5c-0.2-0.5-0.3-1.1-0.5-1.6c0.5,0.3,0.7,0.9,0.9,1.4h0.4c0-0.2,0.1-0.4,0.1-0.7
				c0.2,0.1,0.5,0.1,0.7,0.2c0.2-0.2,0.4-0.4,0.6-0.6c-0.1-0.6-0.2-0.7-0.6-1c0.2-0.5,0.3-1.1,0.5-1.6c0.1,0,0.1,0,0.2-0.1
				c0.4,0.3,0.3,1.7,0.3,2.3c0.5,0.1,0.9,0.3,1.4,0.4c0,0.1,0,0.1,0.1,0.2c-0.2,0.2-0.5,0.4-0.7,0.6c0.1,0.6,0.3,1.2,0.4,1.8
				c0,0.1,0,0.2,0.1,0.2c0.5,0,0.5-0.1,0.9-0.2c0.5,0.8,0.3,1.6-0.1,2.6c0.6,1.3,1.6,3.7,3.4,3.7c-0.2,0.6-0.3,1-0.8,1.4
				c0.3,0.9,0.5,1.8,0.8,2.6c0.6,0.3,1.9,0.1,2.6-0.1c0-0.5,0.1-1,0.1-1.5c1-0.7,2.4-0.7,3.7-0.3c1-1.7,0.9-4.6,0.7-6.9h0.7
				c-0.2-0.5-0.4-1-0.6-1.5c0.1,0,0.3-0.1,0.4-0.1c-0.2-0.1-0.3-0.2-0.5-0.4V71c0.2,0,0.5,0,0.7-0.1c0-0.1,0-0.2,0.1-0.2
				c-0.3-0.2-0.7-0.3-1-0.5c0.5,0.1,0.9,0.2,1.4,0.2c0.2-0.4,0.4-0.7,0.6-1.1c0.1,0,0.3,0,0.4-0.1c0.1,0.1,0.2,0.3,0.2,0.4
				c0.9-1,0.3-0.8,0.6-1.8c0.4-0.5,0.8-0.9,1.2-1.4c-0.1-1.7-1.4-2.1-2.1-3.2h-0.7c-0.5,0.5-0.9,0.9-1.4,1.3c-0.1,0-0.1,0-0.2,0.1
				H85v-0.2c0.4-0.4,0.8-0.8,1.2-1.2c-0.2-0.2-0.4-0.4-0.6-0.6c0.1-1.1-0.1-2.2-0.2-3.1c0,0,0-0.1-0.1-0.1c0.2,0,0.4,0,0.6,0.1
				c-0.1-1-0.2-1.9-0.4-2.9c2.5-1.3,3.5-4.3,6.3-5.3c0.3-0.8,0.4-1.5,1-2c-0.2-1-0.6-1.8-0.2-2.8c-0.2-0.1-0.4-0.3-0.7-0.4
				c0.1-0.3,0.7-0.7,1.2-0.9c-0.1-0.2-0.2-0.4-0.3-0.6c0.2,0.1,0.5,0.1,0.7,0.2c0.2-0.2,0.2-0.7,0.4-0.9c0.8-0.6,5.6,1.1,6,1.2
				c0.1,0.7,0.1,1.5,0.2,2.2c0.2,0.1,0.4,0.3,0.6,0.4c-0.5-0.1-0.9-0.2-1.4-0.3c-0.6,1.2-1.5,3.2-2.9,3.5v1.3
				c-1.4-0.3-1,0.7-1.5,1.5h-1c-1.2,2.2,0.2,3.4,0.7,5.5c-0.1,1-0.2,2-0.4,3c0.2,0.1,0.3,0.1,0.5,0.2c-0.1,0.3-0.2,0.7-0.3,1
				c1.2,0.2,2.7,0.8,3.9,0.6c0.1,0.8,0.3,1.3,0.9,1.8c1.2-0.6,2.5-1.3,4.2-1.3c0.1-0.2,0.2-0.4,0.3-0.6c0.1,0.2,0.1,0.5,0.2,0.7h0.1
				c0.1-0.4,0.3-0.7,0.4-1.1c0.8,0,2.3,0.3,3.6,0.3c0.3-0.6,0.4-0.2,1,0c0-0.2,0.1-0.4,0.1-0.6c0.4,0,0.8-0.1,1.2-0.1h0.1v1.1
				c0.6,0.4,1.1,0.7,2.1,0.6c0.3,0.3,0.7,0.7,1,1c-1.7,0.2-2.6-0.2-3.4,1c-0.2-0.1-0.5-0.2-0.7-0.2c0,0.3,0.1,0.7,0.1,1
				c-1.8,1.3-3-1.1-4.9-0.6c-1.4,0.5-2.9,1-4.3,1.5c-0.1,0.7-0.1,1.7,0.7,1.8c-0.1,0.3-0.2,0.5-0.4,0.8c0.3,0.4,0.6,0.8,0.9,1.2
				c0.3-0.2,0.7-0.4,1-0.6c0.3,2,0.4,4.8-1.5,5c-0.6-0.9-1.2-1.8-1.8-2.7c-0.7,0.2-1.4,0.4-2.1,0.6c-0.3,0.4-0.4,1.1-0.6,1.7
				c-0.3,0.6-0.5,1.2-0.8,1.8c0.2,1.3,0.4,2.5,0.7,3.8c0.1,0,0.3-0.1,0.4-0.1c0.1,0.9-0.1,1.4-0.4,2c-0.9-0.2-2.4-0.5-2.6,0.6
				c0,0,0.1,0.1,0.1,0.1c0.3-0.1,0.7-0.2,1-0.2c0.1,0,0.1,0,0.2,0.1v0.1c-0.7,0.5-1.5,1-2.2,1.5c-0.6-0.2-1.2-0.4-1.8-0.6
				c-0.2-0.5-0.2-0.7,0.1-1.2v-0.1c-2.6-0.5-8,2.1-8.7,3.7c-0.5,0-0.9,0.1-1.4,0.1c-0.1,0-0.1,0-0.2-0.1v-1
				c-0.5-0.1-0.9-0.2-1.4-0.4c-0.1-0.2-0.1-0.3-0.2-0.5c0.3-0.1,0.5-0.2,0.8-0.4v-0.1c-0.2-0.3-0.4-0.5-0.9-0.6
				c-0.2,0.3-0.4,0.6-0.6,0.9c-1.1,0.2-3.5,1.5-4.9,1c0.2-0.1,0.4-0.2,0.6-0.4c0-0.3,0-0.5,0.1-0.8h-0.1c-0.5,0.3-0.9,0.6-1.4,0
				c-0.3,0.2-0.5,0.3-0.8,0.5c-0.3-0.2-0.2-0.2-0.1-0.6h-0.6c0.1-0.3,0.3-0.5,0.4-0.8c-1-0.7-0.9-1.5-1.5-2.6c0.6-0.3,0.8-0.9,1.7-1
				c0.1-0.5,0.2-1,0.2-1.5c0.4,0.1,0.9,0.1,1.3,0.2c0,0,0,0,0.1-0.1c0-0.3,0-0.5,0.1-0.8c-0.7-0.2-1.3-0.5-2-0.7
				c0.4-1,0.8-2.1,0.8-3.5h-0.1c-1.8,0.6-3.4,1.8-4.6,2.9v0.1c0.5,0.2,1.7-0.9,3.3-1c0,0.1,0,0.2,0.1,0.2c-0.3,0.3-0.7,0.3-1.2,0.2
				v0.1c0.2,0.5,0.4,0.9,0.6,1.4h-0.1c-0.2,0-0.4,0-0.6-0.1c-0.1-0.4,0-0.5-0.4-0.7c-0.1,0.3-0.2,0.6-0.2,0.9c-0.6,0-1-0.1-1.4-0.4
				h-0.1c-0.2,1.1-0.1,2.8-0.2,3.9c2.4,0.9,1.2,4.1,2.4,5.3c0,0.1,0,0.1,0.1,0.2h-0.9c-0.1,0.6-0.2,1.1-0.4,1.7
				c-0.4-0.1-0.6-0.1-1,0.1c-0.2-0.3-0.3-0.7-0.2-1.2c-0.9-0.1-1.6,0.1-2.2,0.4c0,0,0,0-0.1,0.1c0.3,0.4,0.8,0.8,0.7,1.4
				c-1.3-1.6-4.8-0.7-6,0.9c-0.8,1.1-0.7,2.6-1.7,3.5c0.2,0.3,0.3,0.7,0.5,1c0,0.1,0.1,0.1,0.1,0.2c-0.3-0.1-0.5-0.1-0.8-0.2
				c0.1,0.2,0.3,0.3,0.4,0.5c0,0,0,0.1,0.1,0.1c-0.6,0.2-0.9-0.3-1.5-0.1c-2,0.6-3,2.7-3.6,4.7c-1,0.1-1.9,0.4-2.7,0.8
				c0,0,0,0-0.1,0.1c0.1,0.1,0.2,0.3,0.4,0.4c0,0.1,0,0.2,0.1,0.2c-0.9,0.4-2.3,0.2-3.3,0c-0.1-0.3-0.2-0.5-0.2-0.8
				c-0.4,0.1-0.9,0.1-1.4,0.2c0.3,1,0.7,2,1,3c-0.9,0.1-1.9,0.3-2.8,0.4c-0.2-0.3-0.5-0.6-0.7-0.9c-1.3,0.4-2.6,0.8-3.9,1.2v0.2
				c0.3,0.1,0.6,0.2,0.9,0.3c-0.2,0.1-0.3,0.2-0.5,0.2c0.1,0,0.2,0.1,0.3,0.1c-0.1,0.1-0.2,0.3-0.4,0.4c0.1,0.3,0.2,0.5,0.4,0.8
				c1.4,0.3,2.8,0.6,4.2,0.9c0.6,0.4,0.4,0.8,1.5,0.9c-0.2,0.1-0.4,0.2-0.6,0.3c0.1,0.5,0.1,0.8-0.1,1.4c0.8,0.4,1.6,0.9,2.4,1.4
				c-0.1,0.7-0.2,1.3-0.2,2c1,0.3,1.5,1,1.8,2c-0.7-0.3-0.9-1-1.3-1.5h-0.3c-0.7,1.8-0.2,5-1.3,6.4c-3.1,1.7-8.9-1.7-12.7-0.2
				c-0.2-0.2-0.5-0.5-0.7-0.7c-1.3,0.2-3.1,1.3-3.9,2.1c0,0-0.1,0-0.1,0.1c0.2,0.7,0.6,1.1,1.2,1.4c0,0.3,0.1,0.7,0.1,1
				c-0.2,0.2-0.4,0.4-0.6,0.6c0.6,5-0.8,6.2-1.7,10.1c0,0,0,0,0.1,0.1c0.6,0.1,0.9,0,1.4-0.2h0.1v0.1c-0.2,0.2-0.5,0.4-0.7,0.6
				c0,0.2,0,0.5,0.1,0.7H29c0.3-0.1,0.6-0.2,0.9-0.2c0.4,0.9-0.2,3.1-0.4,4.1c2.3,0.4,2.7,0.1,5-0.1c0.8,1.2,1.4,2.3,2.5,3.2
				c3.1-0.4,2.5-3,7.2-1.7c0.1-0.2,0.3-0.3,0.4-0.5c0.4,0.1,0.7,0.2,1.1,0.2c0.7-1.2,2.4-1.5,3.1-2.5c0.9-1.3,0.2-2.8,2-3.3l0.1-0.1
				c-0.3-0.5-0.7-1.1-1-1.6c-0.7-2.8,3.6-5.5,5.2-6.4c0.6-0.3,1.2-0.7,1.8-1c0.1-1.2,0.2-2.3,0.4-3.5c0.2-1,1-1.9,1.7-2.5
				c0.5,0.2,1.1,0.4,1.6,0.6c0.4-0.1,0.7-0.1,1.1-0.2c0.8,0.2,1.4,1.1,2.4,1.3c0.9,0.1,5.4-3.6,6.1-4.3c3.4,0,3.1,2.2,4.5,4.3
				c0.9,0.7,1.8,1.4,2.8,2.1c1.8,1.4,2.1,3.6,5.3,3.6c0.5,1,1.1,1.7,2.6,1.7c0.1,0.4,0.1,0.9,0.2,1.3c0.7,0.3,1,0.6,1.9,0.6
				c1.7,2.9,1.2,3.4,0.1,6.2c0.1,0.2,0.2,0.4,0.3,0.6c0.3,0,0.6,0,0.9,0.1c0.7-1.3,1.2-2.5,2.3-3.4v-1.2c-1.4-0.9-1.3-2-0.5-3.4
				c0.7,0.1,1.4,0.2,2.1,0.4c0.3,0.5,0.6,0.9,0.9,1.4c0.1,0,0.2,0,0.3-0.1c0.5-3.4-4-3.7-6-4.9c0-0.3,0.3-0.5,0.6-0.7v-0.2
				c-0.8-0.5-2.5-0.3-3.4-0.8l-0.2-0.2c-1.3-0.9-1.5-2.9-2.6-4.1c-1.1-0.8-2.2-1.6-3.3-2.4c0-0.1-0.1-0.1-0.1-0.2
				c-0.1-1-0.2-2-0.4-2.9c0.7-0.6,1.4-1.1,2.1-1.7c0.4,0.2,0.8,0.3,1.2,0.5c0.1,1.1,0.2,1.9,0.7,2.5c0,0,0.1,0,0.1,0.1
				c0.2-0.6,0.5-1.1,0.7-1.7c1.3,0.5,2.9,2.2,3.4,3.4h-0.7c0.1,0.7,1.3,1.8,1.9,2.1c0.6,0.1,1.1,0.2,1.7,0.2
				c0.6,0.6,1.1,1.1,1.7,1.7c0.7,0.1,1.4,0.2,2.1,0.3c1.1,1.1,2.1,2.2,3.2,3.3c0,1.5-0.1,3.1-0.1,4.6c2.1,1.6,3.5,3.5,4.7,5.9
				c1.6-0.3,3.1,0,4.1,0.7v0.2c-1,0.3-2.5-0.4-3.6-0.6c-0.2,0.2-0.4,0.4-0.6,0.6c0.1,0.9,0.9,1.4,1.5,1.7c0,0.8,0.1,1.3,0.3,1.8
				c0.1-0.1,0.2-0.2,0.4-0.3c0.4,0.3,0.7,0.5,1.1,0.8l0.5-0.5c0.3,0.1,0.7,0.3,1,0.4c-0.3-0.8-0.7-1.5-1-2.3v-0.1
				c0.6,0.2,1.1,0.3,1.7,0.5v-0.2c-0.3-0.5-0.7-0.9-1-1.4c0.9-0.1,1.4,0.1,2.1,0.4c0.2-0.9-0.1-1.5-0.5-2c0.4,0.2,0.8,0.4,1.2,0.6
				c0-0.3,0-0.6-0.1-0.9c-0.4-0.9-1.9-1.4-2.9-1.6c0.3,0.4,0.7,0.9,1,1.3c-0.6-0.3-1.3-0.6-1.9-0.9V135c0.2-0.1,0.3-0.2,0.5-0.4
				c-0.1-0.2-0.2-0.5-0.2-0.7c0.3-0.2,0.6-0.2,1,0v-0.1c-0.6-1.6-2-1.8-1.5-4.1c0.2-0.1,0.5-0.2,0.7-0.3c0.2,0.8,0.6,1.2,0.9,1.8
				h0.3c-0.1-0.2-0.1-0.5-0.2-0.7c0.5-0.1,0.9-0.2,1.4-0.3c-0.2-0.2-0.4-0.5-0.6-0.7v-0.1c0.7-0.2,1-0.4,1.4-1c1.1,0.1,1,0,1.7-0.2
				c0.8,0.1,1.5,0.2,2.3,0.3c0.4,0.8,0.7,0.7,1.6,0.9c-0.4,0.3-0.7,0.5-0.9,1c0.1,0,0.2,0.1,0.2,0.1c1.1-1.4,3-2.3,5.4-2.4
				c0.1-0.2,0.2-0.4,0.2-0.6c0-0.1,0.1-0.1,0.1-0.2c-0.7-0.4-1.4-0.8-2.1-1.2c-0.7-1-0.5-2-1.5-2.8c0.3-1.5,0.7-2.5,2-3
				c0.4-1.3,0.4-3.5,0.5-5c0,0,0,0,0.1-0.1c2.1,1.3,1.4,0,1.5-2.2c0.2,0.1,0.3,0.2,0.5,0.3c0.7-0.8,1.6-1.3,1.6-2.7
				c0.8-0.4,2.1-0.6,2.5-0.9c0.1,0.1,0.2,0.2,0.3,0.3c0.1,0.3-0.1,0.4-0.4,0.6c0.5,1.2,2.4,1.6,3.8,1.3c0.2,0.2,0.3,0.5,0.5,0.7
				c0,0.1,0,0.2,0.1,0.3c-0.8,0.2-1.3,0.6-1.8,1c0,0.1,0,0.1-0.1,0.2c0.4,0.3,0.9,0.4,1.6,0.4c0.3,0.5,0.5,1.3,0.2,2
				c0.2,0.2,0.5,0.3,0.7,0.5c1.9,0,2.9-2.1,5.7-2.1c0.1-0.5,0.2-0.9,0.4-1.4h-1.1c-0.1,0.2-0.1,0.3-0.2,0.5c-0.8,0-1.3,0.4-1.9,0.3
				c-1.2-0.8-2.4-1.6-3.6-2.5c0.3-0.2,0.5-0.5,0.8-0.7c0.3,0.1,0.6,0.2,0.9,0.4c0.4-0.4,0.8-0.8,1.2-1.2c0.2,0.1,0.4,0.2,0.6,0.3
				v-0.7c0.1,0.1,0.2,0.2,0.3,0.4c2.8-0.7,4.5-2.4,7.9-2.4v0.1c-0.3,0.9-0.9,1-1.6,1.4c0.1,0.2,0.2,0.4,0.3,0.6
				c-0.5,0.1-1,0.1-1.5,0.2v0.1c0.3,0.7,0.9,0.9,1.5,1.2v0.1c-0.4,0.3-0.5,0.6-1,0.5c-0.3,0.5-0.2,1.6-0.6,2.1
				c-0.4,0.2-0.8-0.1-1.2-0.3c-0.1,0.3-0.2,0.6-0.4,0.9c0.8,0.4,0.9,1.1,1.5,1.5c0.8,0.2,1.6,0.5,2.5,0.7c1.1,1.1,2.2,2.1,3.3,3.2
				c1.1,0.8,2.9,0.8,3.7,1.9c0.4,0.5,1.1,2.8,0.6,3.9c-0.7,1.8-2.9,0.8-5,1.4c-0.6,0.2-1.3,0.4-1.9,0.7c-1.6,0-2.4-1.3-4.4-1.4
				c-0.2-0.4-0.4-0.7-0.7-1.1c-0.6,0-1.1,0.1-1.7,0.1c-0.3-0.4-0.6-0.9-0.9-1.3c-2.2,0.1-4.8,0.5-6.3,1.4c-0.6,0.6-1.3,1.1-1.9,1.7
				c-1.7,0.7-4-1-5.3,0.2c0.4,0.8,0.9,0.8,1.6,1.2c-0.6,0.1-1.1,0.2-1.7,0.3c0,0-0.1,0.1-0.1,0.1c0.2,0.2,0.4,0.3,0.6,0.5v0.2
				c-1,0.3-3.9,0.5-4.3-0.2c-1,0.1-1.5,0.6-2.1,1.1c0,0.6,0,1.2-0.1,1.8c0.6-0.1,1.3-0.1,1.9-0.2c-0.1,0.5-0.2,0.5-0.6,0.7
				c0.1,0.3,0.2,0.6,0.2,0.9c0.2,0.2,0.4,0.2,0.7,0.1c0,0.1,0,0.2,0.1,0.2c-0.4,0.3-0.6,0.6-0.6,1.4c-0.6-0.1-0.6-0.2-0.9-0.4h-0.1
				c0,0.4,0,0.8-0.1,1.2c0.6,0.3,1.2,0.6,1.8,0.9c0.2,1.1,0.2,1.5,0.9,2.1c-0.2,0.1-0.3,0.2-0.5,0.4c0,0.1,0,0.2,0.1,0.3
				c0.7,0,1.4-0.1,2-0.1c0,0.1,0,0.1-0.1,0.2c-0.5,0.2-1.1,0.4-1.6,0.6c1.2,0,2.5,0,3.7,0.1c0.1,0.3,0.2,0.7,0.2,1
				c0.9,0.3,2.5,0.2,3.4,0c0.3-0.3,0.3-1,0.2-1.6c4.3,0.1,6.4,4.5,9.5-0.1c0.7,0.1,1.5,0.3,2.2,0.4c0.4-0.2,0.4-0.6,0.9-0.6
				c0.1,0,0.1,0,0.2-0.1c0,0.2,0,0.5,0.1,0.7c-0.2,0.2-0.5,0.5-0.7,0.7c0.6,1.7,0.9,5.2,0.2,7c-0.4,0.9-1,1.3-1,2.7
				c-0.2,0-0.4,0-0.6,0.1c0.1,4.2-2.1,4.9-6.1,4.6c0.1,0.3,0.2,0.5,0.2,0.8c0,0,0,0-0.1,0.1c-0.5-0.3-1-0.7-0.9-1.4
				c-2.7-0.6-4.8,2.1-6.6,1.8c-0.9-0.3-1.8-0.7-2.7-1c-2-0.6-4.1-0.9-6.6-0.9c-0.1-0.3-0.2-0.7-0.2-1c-1.4-0.2-2.9-0.3-4.3-0.5
				c-0.3-0.3-0.7-0.7-1-1c-1.6-1-4.5-1.1-6,0.1c-2.6,2,1.2,6-2.2,6.8c-2.5,0.6-4-2.2-5.6-2.9c-1-0.4-2.4-0.1-3.4-0.3
				c-0.5-1.1-1-2.3-1.5-3.4c-1.5,0-2.2-0.7-3.4-0.9c-3.3-0.7-5,0.8-6.6-1.8c-0.3,0.1-0.6,0.2-0.9,0.4c-0.6-0.5-1.1-1-1.7-1.5
				c0-0.3,0-0.6,0.1-0.9c1.8-0.9,3.2-3.4,0.9-4.9v-0.8c0.5-0.4,1.3-1.3,1-2.2c-0.5,0.3-0.9,0.7-1.4,1c-0.5-0.2-0.8-0.8-0.8-1.6
				c0,0,0-0.1-0.1-0.1c-1.8,0.1-2.9,0.8-4.5,1c-0.8-0.1-1.6-0.2-2.3-0.3c-0.4,0.2-0.5,0.5-1.3,0.5c-1-1.6-1.9,0.9-3.7,0.6
				c-0.9-0.3-1.7-0.6-2.6-0.9c-0.7,0.2-1.3,0.4-2,0.6c-1.4,0.2-2.7,0.3-4.1,0.5c-0.9,0.3-1.4,0.9-2.6,1.1c-0.2,0.4-0.3,0.7-0.5,1.1
				c-2.1,0.1-5.6,3.5-7,1c-2.3,0.5-5.2,1.3-5.8-1.3c-0.4,0.1-0.8,0.1-1.2,0.2c-1.5,5.3-4,6-7.8,8.7c0.1,0.5,0.2,1.1,0.2,1.6
				c-0.5,0.4-0.7,0.8-0.8,1.1c-15.3-16.2-24.7-38-24.7-62c0-14,3.2-27.2,8.9-39.1c1.5,0.6,3.4-0.1,4.3-1.4c0.2,0.1,0.3,0.2,0.5,0.3
				c0.6-0.3,0.8-0.7,1.5-0.4c0.9-0.6,1.3-1.6,2.7-1.8c0.2-0.2,0.2-0.3,0.2-0.7h0.1c0.1,0.1,0.3,0.3,0.4,0.4c0.8-0.3,1-0.8,1.2-1.7
				c0.3,0.2,0.2,0.2,0.7,0.1c0.2-0.3,0.3-0.6,0.1-1v-0.1c0.2,0.1,0.4,0.1,0.6,0.2c0.1-0.2,0.1-0.3,0.2-0.5c-0.2-0.1-0.4-0.2-0.6-0.3
				v-0.2c0.2-0.2,0.5-0.4,0.7-0.6c-0.1-0.6-0.5-0.6-1.2-0.6v-0.6c-0.2,0-0.4,0-0.7,0.1c0.2-0.3,0.4-0.6,0.6-0.9
				c-0.3-0.2-0.7-0.4-1-0.6c0.2-0.3,0.4-0.7,0.6-1v-0.1c-0.5,0.1-0.8,0.6-1.1,1c-0.1,0-0.2,0-0.3,0.1c-0.3-0.7-0.3-1.4-1.3-1
				c-0.3,0.4-0.5,1.8-1.4,0.9l-0.9,0.9c0,0-0.1,0-0.1,0.1c-0.1-0.2-0.2-0.3-0.3-0.5c16.1-24.9,44-41.3,75.8-41.3
				c16.8,0,32.4,4.6,45.9,12.6c-0.5,0.3-1,0.1-1.2,1c0.2,0.1,0.4,0.2,0.6,0.4c0,0,0,0,0.1,0.1c-0.3,0.1-0.6,0.1-0.9,0.2
				c0,0.3,0,0.6,0.1,0.9c0,0,0,0.1,0.1,0.1c0.2-0.1,0.5-0.1,0.7-0.2c0,0.1-0.1,0.2-0.1,0.4c0.2,0,0.5,0,0.7,0.1
				c-0.2,0.6-0.3,1.1,0,1.7c-0.4-0.1-0.8-0.1-1.2-0.2c-0.7,1.5,0.7,2.7,1.8,2.9h0.5c0-0.2,0.1-0.5,0.1-0.7c0.1,0.2,0.2,0.5,0.4,0.7
				h0.5v-0.6c0,0,0,0,0.1-0.1h0.1c0.4,1.3,0.6,1.3,1.9,1.6c-0.2,0.2-0.4,0.4-0.6,0.6c0.2,0.4,0.3,0.5,0.1,0.9c0.7,0.2,1.2,0.4,2,0.2
				c0.3,0.4,0.5,0.8,1,1c0,0,0.1,0.1,0.1,0.1c0.1-0.5,0-0.7-0.4-0.9c0.6-0.1,1.5,0.5,1.8,0.9c0.1,0,0.2,0.1,0.4,0.1
				c0-0.2-0.1-0.4-0.1-0.6c0.6,0.1,0.7,0.4,1,0.9h0.3c0-0.1,0.1-0.2,0.1-0.4c-0.2-0.1-0.3-0.2-0.5-0.3c0,0,0-0.1-0.1-0.1
				c0.2-0.1,0.4-0.2,0.6-0.4v-0.2c-2.7-1.6-6.6-3.7-6.5-7.9c-0.3-0.1-0.6-0.1-0.9-0.2v-0.1V18h0.6c5.5,3.6,10.6,7.8,15.2,12.4
				c-0.6-0.1-1.2-0.1-1.8-0.1c-0.6,2.2,1.6,2.8,2.6,4.1c-1.4-0.1-2.1,0.3-1.4,1.4c-0.4,0-0.8-0.1-1.2-0.1
				C155.8,34.9,155.5,34.1,155.2,33.4z M167.6,139.4c-0.8-0.5-1.1-1.2-1.8-1.7c-0.7-0.4-1.9-0.1-2.5-0.6c-0.2-1.5-0.4-3.1-0.6-4.6
				c0.2,0,0.3,0.1,0.5,0.1c0.4-1,0.3-2.5,0.7-3.4c0.3-0.1,0.7-0.2,1-0.2h0.2v-0.3c-0.4-0.2-0.8-0.4-1.4-0.2
				c-1.3-3.4-5.4-5.1-5.7-9.3c0.4,0,0.3,0.1,0.4-0.4c-0.6-0.3-0.8-0.4-0.9-1.3c-0.4-0.2-0.9-0.3-1.3-0.5c-0.1-1.8,0.7-2.7,0.8-4.3
				c0.5,0,1.1,0,1.6-0.1c0-0.2-0.1-0.5-0.1-0.7c0.3,0,0.5,0,0.8-0.1v-0.1c-0.2-0.1-0.3-0.2-0.5-0.3c0,0,0-0.1-0.1-0.1
				c0.4-0.2,0.7-0.1,1,0.1c0,0,0,0,0.1-0.1c0.2-0.5,0.1-0.9-0.1-1.4c2.5,0.1,2.2-0.6,4.1-1.5c0.8,0,1.1,0.4,1.5,0.8
				c0.5-0.2,1-0.4,1.5-0.6c0.6,0.1,0.5,0.3,1,0.4c0,1.3,0,2.6-0.1,3.9c0.3,0.1,0.5,0.2,0.8,0.4v0.1c-0.1,0.1-0.3,0.2-0.4,0.4
				c-1.5-0.4-2.9-1-3.4,1c0.3,0.4,0.7,0.7,1,1.1c0,0,0,0,0.1,0.1c-0.8,0.1-1.7,0.2-2.5,0.2c0,0.2,0,0.4-0.1,0.6
				c1.7,0.5,2.1,1.7,2.6,3.4c0.3,0.3,2.2,1.3,3,1.2c0,3.3,0.8,5.4,1.4,8.5c0.6,0.2,1,0,1.7-0.1c-0.1,0.7,0.2,0.9,0.5,1.4
				C171.9,131.5,169.5,136.8,167.6,139.4z"/>
			<path class="st1" d="M163.3,133.4h-0.1c-0.1,0-0.1,0-0.2-0.1v-0.3c0,0,0.1-0.1,0.1-0.1c0.1,0,0.2,0.1,0.2,0.1
				C163.3,133.2,163.3,133.3,163.3,133.4z"/>
			<path class="st1" d="M163,133.1v0.3c0.1,0,0.1,0,0.2,0.1h0.1c0-0.1,0-0.2,0.1-0.4c-0.1,0-0.2-0.1-0.2-0.1
				C163,133,163,133,163,133.1z"/>
		</g>
		<path d="M33.4,207l7.2-0.6c0.1,0,0.2,0,0.3,0c0.5,0,0.8,0.2,0.8,0.6c0,0.2-0.2,0.4-0.5,0.6l-6.3,4l2.9,7.2
			c0.1,0.1,0.1,0.3,0.1,0.3c0,0.1-0.1,0.2-0.2,0.3c-0.1,0.1-0.2,0.2-0.3,0.2c-0.2,0-0.4-0.1-0.6-0.3l-5.7-4.9l-5.7,4.9
			c-0.2,0.2-0.4,0.3-0.6,0.3c-0.1,0-0.3-0.1-0.4-0.2c-0.1-0.1-0.2-0.2-0.2-0.4c0-0.1,0-0.2,0.1-0.3l2.8-7.2l-6.3-4
			c-0.3-0.2-0.5-0.4-0.5-0.6c0-0.4,0.3-0.6,0.8-0.6c0.1,0,0.2,0,0.3,0l7.3,0.6l1.7-7.1c0.1-0.4,0.2-0.6,0.3-0.7
			c0.1-0.1,0.2-0.2,0.4-0.2c0.2,0,0.3,0.1,0.4,0.2c0.1,0.1,0.2,0.3,0.3,0.7L33.4,207z"/>
		<path d="M64.7,207l7.2-0.6c0.1,0,0.2,0,0.3,0c0.5,0,0.8,0.2,0.8,0.6c0,0.2-0.2,0.4-0.5,0.6l-6.3,4l2.9,7.2
			c0.1,0.1,0.1,0.3,0.1,0.3c0,0.1-0.1,0.2-0.2,0.3c-0.1,0.1-0.2,0.2-0.4,0.2c-0.2,0-0.4-0.1-0.6-0.3l-5.7-4.9l-5.7,4.9
			c-0.2,0.2-0.4,0.3-0.6,0.3c-0.1,0-0.3-0.1-0.4-0.2c-0.1-0.1-0.2-0.2-0.2-0.4c0-0.1,0-0.2,0.1-0.3l2.8-7.2l-6.3-4
			c-0.3-0.2-0.5-0.4-0.5-0.6c0-0.4,0.3-0.6,0.8-0.6c0.1,0,0.2,0,0.3,0l7.3,0.6l1.6-7.1c0.1-0.4,0.2-0.6,0.3-0.7
			c0.1-0.1,0.2-0.2,0.4-0.2c0.2,0,0.3,0.1,0.4,0.2c0.1,0.1,0.2,0.3,0.3,0.7L64.7,207z"/>
		<path d="M96,207l7.2-0.6c0.1,0,0.2,0,0.3,0c0.5,0,0.8,0.2,0.8,0.6c0,0.2-0.2,0.4-0.5,0.6l-6.3,4l2.9,7.2c0.1,0.1,0.1,0.3,0.1,0.3
			c0,0.1-0.1,0.2-0.2,0.3c-0.1,0.1-0.2,0.2-0.4,0.2c-0.2,0-0.4-0.1-0.6-0.3l-5.7-4.9l-5.7,4.9c-0.2,0.2-0.4,0.3-0.6,0.3
			c-0.1,0-0.3-0.1-0.4-0.2c-0.1-0.1-0.2-0.2-0.2-0.4c0-0.1,0-0.2,0.1-0.3l2.8-7.2l-6.3-4c-0.3-0.2-0.5-0.4-0.5-0.6
			c0-0.4,0.3-0.6,0.8-0.6c0.1,0,0.2,0,0.3,0l7.3,0.6l1.6-7.1c0.1-0.4,0.2-0.6,0.3-0.7c0.1-0.1,0.2-0.2,0.4-0.2
			c0.2,0,0.3,0.1,0.4,0.2c0.1,0.1,0.2,0.3,0.3,0.7L96,207z"/>
		<path d="M127.2,207l7.2-0.6c0.1,0,0.2,0,0.3,0c0.5,0,0.8,0.2,0.8,0.6c0,0.2-0.2,0.4-0.5,0.6l-6.3,4l2.9,7.2
			c0.1,0.1,0.1,0.3,0.1,0.3c0,0.1-0.1,0.2-0.2,0.3c-0.1,0.1-0.2,0.2-0.3,0.2c-0.2,0-0.4-0.1-0.6-0.3l-5.7-4.9l-5.7,4.9
			c-0.2,0.2-0.4,0.3-0.6,0.3c-0.1,0-0.3-0.1-0.4-0.2c-0.1-0.1-0.2-0.2-0.2-0.4c0-0.1,0-0.2,0.1-0.3l2.8-7.2l-6.3-4
			c-0.3-0.2-0.5-0.4-0.5-0.6c0-0.4,0.3-0.6,0.8-0.6c0.1,0,0.2,0,0.3,0l7.3,0.6l1.6-7.1c0.1-0.4,0.2-0.6,0.3-0.7
			c0.1-0.1,0.2-0.2,0.4-0.2c0.2,0,0.3,0.1,0.4,0.2c0.1,0.1,0.2,0.3,0.3,0.7L127.2,207z"/>
		<path d="M158.5,207l7.2-0.6c0.1,0,0.2,0,0.3,0c0.5,0,0.8,0.2,0.8,0.6c0,0.2-0.2,0.4-0.5,0.6l-6.3,4l2.9,7.2
			c0.1,0.1,0.1,0.3,0.1,0.3c0,0.1-0.1,0.2-0.2,0.3c-0.1,0.1-0.2,0.2-0.3,0.2c-0.2,0-0.4-0.1-0.6-0.3l-5.7-4.9l-5.7,4.9
			c-0.2,0.2-0.4,0.3-0.6,0.3c-0.1,0-0.3-0.1-0.4-0.2c-0.1-0.1-0.2-0.2-0.2-0.4c0-0.1,0-0.2,0.1-0.3l2.8-7.2l-6.3-4
			c-0.3-0.2-0.5-0.4-0.5-0.6c0-0.4,0.3-0.6,0.8-0.6c0.1,0,0.2,0,0.3,0l7.3,0.6l1.6-7.1c0.1-0.4,0.2-0.6,0.3-0.7
			c0.1-0.1,0.2-0.2,0.4-0.2c0.2,0,0.3,0.1,0.4,0.2c0.1,0.1,0.2,0.3,0.3,0.7L158.5,207z"/>
	</g>
</g>
</svg>
