<?xml version="1.0" encoding="utf-8"?>
<!-- Generator: Adobe Illustrator 16.0.0, SVG Export Plug-In . SVG Version: 6.00 Build 0)  -->
<!DOCTYPE svg PUBLIC "-//W3C//DTD SVG 1.1//EN" "http://www.w3.org/Graphics/SVG/1.1/DTD/svg11.dtd">
<svg version="1.1" id="Layer_1" xmlns="http://www.w3.org/2000/svg" xmlns:xlink="http://www.w3.org/1999/xlink" x="0px" y="0px"
	 width="158.268px" height="109.199px" viewBox="0 0 158.268 109.199" enable-background="new 0 0 158.268 109.199"
	 xml:space="preserve">
<path fill-rule="evenodd" clip-rule="evenodd" fill="#FFFFFF" d="M155.815,20.309C153.914,5.516,140.199,2.71,140.199,2.71
	c-70.685-6.098-122.495,0-122.495,0C5.416,5.771,2.343,19.602,2.343,19.602c-4.023,9.587-1.646,59.751-1.646,59.751
	c0.719,27.418,19.616,27.65,19.616,27.65c49.202,4.938,116.582,0,116.582,0c17.02-1.878,18.688-16.648,18.688-16.648
	C161.484,61.778,155.815,20.309,155.815,20.309z M57.527,83.515V25.688l43.22,28.914L57.527,83.515z"/>
</svg>
