<svg xmlns="http://www.w3.org/2000/svg" width="298.488" height="34.697" viewBox="0 0 298.488 34.697"><g fill-rule="evenodd" clip-rule="evenodd" fill="#757676"><path d="M28.189 29.767s0-24.87.002-24.887c.018-.014 1.227-.697 1.227-.697V0H14.893v4.188l1.219.693v18.141c0 2.602 0 2.602-2.934 2.602H10.03V18.78L0 19.88v10.678c0 4.139 3.621 4.139 9.617 4.139h20.236v-3.379l-1.623-1.199c0-.002-.041-.077-.041-.352zm-.248-26.359l-.441.255c-.672.383-.789.573-.789 1.273v24.831c0 .742.172.945.756 1.25l.475.244v2.062H9.617c-6.6 0-8.141-.256-8.141-2.766V21.11l7.072-.77v4.666c0 2.139 0 2.139 3.643 2.139h.986c4.41 0 4.41 0 4.41-5.154V4.937c0-.707-.117-.896-.777-1.271l-.449-.256V1.382h11.58v2.026zM54.697 9.46c-.498-2.034-.643-2.034-1.123-2.034h-1.75c-.668 0-.668 0-1.16 2.067l-2.158 9.167h8.42l-2.229-9.2zm-2.338-.66h.598c.34 1.345 1.463 5.783 2.123 8.482h-4.734L52.359 8.8z"/><path d="M72.648 29.863l-.242-.174c-.459-.326-.766-.541-1.012-1.363-.062-.199-5.988-19.958-6.127-20.44-.385-1.408-1.051-4.313-1.24-5.888L63.783 0h-22.67v4.238l2.07.764-6.334 23.38c-.215.766-.498.963-1.115 1.396l-2.08 1.537v3.381h15.424v-2.98l-1.723-1.611.895-3.85h9.027l.92 3.834-1.996 1.627v2.98h18.402v-3.381l-1.955-1.452zm-.345 3.461H58.807v-2.061l.471-.246c.459-.24.57-.33.404-1.043l-1.217-5.096h-11.4l-1.189 5.096c-.166.711-.053.803.406 1.043l.471.244v2.062H35.951V31.27l.463-.248c.945-.516 1.496-1.014 1.857-2.307l6.34-23.404c.193-.745.098-1.18-.955-1.598l-.551-.22V1.382H62.46l.098.774c.205 1.659.893 4.655 1.289 6.091l6.127 20.454c.4 1.318.941 1.818 1.871 2.322l.457.25v2.051zM134.922 18.908v-3.13c.01-4.138.018-6.418-.883-7.349-.607-.628-1.83-.873-4.359-.873h-1.771c-2.537 0-3.76.243-4.365.871-.889.92-.881 3.296-.871 7.232v3.276c-.01 3.936-.018 6.312.918 7.283.637.656 1.889.928 4.318.928h1.771c2.434 0 3.686-.271 4.322-.93.939-.972.934-3.359.92-7.308m-2.027 6.394c-.145.137-.744.461-3.215.461h-1.771c-2.377 0-3.037-.291-3.215-.461-.576-.555-.562-3.512-.551-6.375l.006-1.603-.006-1.655c-.012-2.731-.025-5.826.492-6.326.131-.126.711-.416 3.273-.416h1.771c2.547 0 3.119.288 3.254.42.525.492.518 3.316.51 6.423v3.16c.014 2.995.024 5.825-.548 6.372"/><path d="M137.34 0h-19.119c-7.256 0-7.256 10.426-7.256 17.324 0 3.425.107 7.777.936 11.087 1.035 4.109 3.221 6.285 6.32 6.285h19.119c2.16 0 5.012-1.092 6.316-6.287.818-3.268.924-7.641.924-11.085 0-6.898 0-17.324-7.24-17.324m0 33.324h-19.119c-5.074 0-5.773-7.689-5.773-16 0-7.711.449-15.942 5.773-15.942h19.119c5.32 0 5.766 8.231 5.766 15.942-.001 8.31-.698 16-5.766 16M296.574 4.716a115.69 115.69 0 0 0 1.691-1.191l.223-.159V.002h-13.791v3.363l.225.159s1.422 1.016 1.682 1.186c.156.106.156.106.156.231l.025 2.35v8.988s-8.893-13.592-9.193-14.048V.002h-15.748v3.363l.225.159s1.414 1.008 1.676 1.188c.152.103.152.103.152.225v24.706c0 .186-.021.201-.188.328-.219.168-1.641 1.182-1.641 1.182l-.225.158v3.387h13.77V31.31l-1.879-1.338c-.166-.131-.186-.145-.186-.33V19.339l-.016-.97c2.256 3.46 8.879 13.652 9.166 14.093v2.234h15.789v-3.385l-.221-.16s-1.43-1.027-1.652-1.18c-.16-.127-.182-.141-.182-.33V4.937c.002-.125.002-.125.142-.221zm-.429-1.306l-.441.253c-.66.375-.775.566-.775 1.273v24.829c0 .758.158.947.742 1.25l.475.244v2.064h-11.98V32.08l-12.119-18.667v16.352c0 .76.16.949.748 1.248l.482.242v2.068h-9.133v-2.064l.475-.244c.596-.309.758-.498.758-1.25V4.937c0-.702-.119-.891-.787-1.273l-.445-.253V1.382h11.975v1.232l12.145 18.563V4.937c0-.7-.117-.889-.789-1.275l-.443-.251V1.382h9.115V3.41zM257.191 24.302l-.094.037c-3.223 1.326-5.15 1.422-7.943 1.422h-4.963c-.695 0-2.217 0-2.789-.1-.146-.664-.146-2.662-.146-3.672V20.29c2.006.088 5.439.25 5.439.25l.729-1.092c.627-.941 1.715-2.895 1.99-5.391l.273-2.499h-8.432V8.927h3.381c2.859 0 4.859.207 7.863 1.345l.086.031h2.088l-1.143-6.559c-.676-3.742-4.625-3.742-6.314-3.742h-20.5v3.365l.223.158s1.424 1.011 1.686 1.187c.152.103.152.103.152.225v24.706c0 .189-.021.203-.189.322-.227.168-1.871 1.346-1.871 1.346v3.387h24.996c1.684 0 5.637 0 6.318-3.74l1.113-6.654h-1.953zm-.617 6.416c-.434 2.404-2.643 2.605-4.861 2.605H229.01v-2.066l.479-.244c.6-.305.762-.496.762-1.248V4.937c0-.702-.119-.893-.791-1.271l-.449-.253v-2.03h18.207c2.221 0 4.422.199 4.855 2.584l.879 4.967s-1.252-.361-2.209-.595c-.893-.219-3.102-.784-6.105-.784h-4.857v5.38h8.279l-.111.987c-.252 2.327-1.326 4.132-1.777 4.799l-.271.402-6.119-.285v3.152c0 2.537.025 4.119.484 4.645.424.484 1.771.51 3.928.51h4.963c3.057 0 4.863-.453 6.088-.785l2.189-.598-.86 4.956zM214.143 12.353h-9.479c-.92 0-1.424-.033-1.693-.066-.035-.289-.059-.804-.059-1.711 0-.41 0-1.092.031-1.524.85-.124 2.816-.124 3.725-.124h2.311c3.275 0 5.93.41 7.889 1.221l.094.039h2.037l-1.127-6.435C217.211 0 213.252 0 211.562 0h-13.764c-1.748 0-4.672 0-6.139 2.562-.943 1.654-1.109 4.044-1.109 8.454 0 4.381.443 6.684 1.578 8.22 1.568 2.09 4.035 2.09 5.67 2.09 0 0 10.582.002 10.754.008.064.676.064 1.76.064 2.221 0 1.309-.08 1.818-.123 2-.432.137-1.789.209-4.045.209h-5.17c-2.836 0-5.123-.379-8.168-1.348l-.074-.023-1.848-.01 1.203 6.568c.635 3.746 4.609 3.746 6.307 3.746h17.443c2.266 0 4.791-.205 6.154-2.65.928-1.674 1.092-4.072 1.092-8.492.002-7.959-.655-11.202-7.244-11.202m0 20.971H196.7c-2.229 0-4.438-.201-4.855-2.605l-.871-4.955s.982.225 2.195.596c1.221.371 3.037.787 6.111.787h5.17c5.639 0 5.639-.07 5.639-3.592 0-3.609 0-3.609-2.152-3.609H197.8c-4.332 0-5.771-1.291-5.771-8.929 0-7.809.531-9.634 5.771-9.634h13.764c2.223 0 4.428.199 4.861 2.586l.865 4.963s-.996-.255-2.197-.595c-1.203-.338-3.055-.78-6.113-.78h-2.311c-2.627 0-4.266.027-4.838.399-.365.236-.398.943-.398 2.62 0 3.154 0 3.154 3.232 3.154h9.479c5.197 0 5.764 1.987 5.764 9.825-.002 7.917-.533 9.769-5.765 9.769M171.541 9.999c0-2.238 0-2.526-5.225-2.526h-2.199v5.812h2.199c2.605 0 4.441-.104 4.934-.614.299-.308.297-1.14.293-2.291l-.002-.381zm-1.471.667c0 .535-.012.855-.025 1.047-.41.087-1.389.193-3.729.193h-.716V8.842h.717c2.475 0 3.391.138 3.715.217.02.154.039.438.039.94v.667zM175.475 23.103l.004-.906c.012-1.246.021-2.146-.266-2.445-.486-.508-2.541-.549-4.975-.549h-6.121v2.789c0 5.289 0 5.289 3.182 5.289h2.939c2.314 0 4.43-.045 4.945-.578.316-.332.309-1.305.295-2.65l-.003-.95zm-1.465 1.645c0 .498-.018.803-.037.984-.439.086-1.457.166-3.734.166H167.3c-.859 0-1.309-.027-1.541-.055-.158-.766-.158-2.965-.158-3.852v-1.416h4.639c1.916 0 3.172.053 3.748.156.012.166.023.42.023.803l-.018 1.574.017 1.64z"/><path d="M180.064 12.122a9.216 9.216 0 0 0 .527-3.06c0-6.943-1.848-9.062-7.908-9.062h-21.832v3.365l.225.16s1.426 1.011 1.682 1.183c.15.104.15.104.15.229V29.64c0 .195-.02.209-.17.322-.23.168-1.887 1.348-1.887 1.348v3.387h26.877c6.893 0 7.229-4.189 7.229-11.594 0-6.156-.248-10.065-4.893-10.981m-2.335 21.202H153.15V31.26l.477-.244c.594-.307.768-.508.768-1.248V4.937c0-.696-.119-.887-.797-1.273l-.448-.254V1.382h19.533c4.83 0 6.436 1.11 6.436 7.681 0 1.395-.369 3.006-1.287 4.223 5.188.033 5.654 2.593 5.654 9.818 0 7.571-.47 10.22-5.757 10.22M105.896 24.328l-.078.027c-2.646.924-4.217 1.408-8.332 1.408H93.51c-2.549 0-3.01 0-3.01-4.396v-8.139c0-4.301.344-4.301 3.01-4.301h1.105c3.543 0 8.266 1.343 8.314 1.356l.068.02h1.643l-1.135-6.551c-.666-3.75-4.623-3.75-6.312-3.75H84.658c-7.246 0-7.246 10.424-7.246 17.322 0 3.441.105 7.81.92 11.085 1.027 4.111 3.213 6.287 6.326 6.287h15.398c1.686 0 5.635 0 6.311-3.746l1.111-6.623h-1.582zm-.988 6.394c-.436 2.4-2.633 2.602-4.852 2.602H84.658c-5.072 0-5.771-7.689-5.771-16 0-7.711.447-15.942 5.771-15.942h12.535c2.219 0 4.424.199 4.855 2.584l.875 4.965s-.748-.233-2.197-.591-3.031-.784-6.111-.784H93.51c-2.758 0-3.502.085-3.891.867-.576 1.161-.576 3.935-.576 8.973 0 4.907.031 7.739.611 8.889.393.775 1.115.861 3.795.861h4.037c3.107 0 5.131-.49 6.096-.787.844-.26 2.205-.596 2.205-.596l-.879 4.959z"/><path d="M17.225 2.887c.865.49 1.227.935 1.227 2.05V21.99c0 5.818-.129 6.043-5.271 6.043h-.988c-4.42 0-4.506-.359-4.506-3.023v-3.682l-5.35.58v8.65c0 1.43.213 1.877 7.281 1.877H27.08v-.627c-.854-.443-1.229-.932-1.229-2.041V4.937c0-1.115.375-1.56 1.229-2.05v-.616h-9.855v.616zM69.15 28.962L63.018 8.49c-.404-1.468-1.098-4.489-1.312-6.22h-17.74v.616c1.234.49 1.842 1.242 1.477 2.666L39.1 28.962c-.447 1.596-1.215 2.266-2.285 2.846v.627h9.08v-.627c-.857-.443-1.107-.977-.857-2.041l1.348-5.775H59.14l1.379 5.775c.25 1.064 0 1.598-.852 2.041v.627h11.777v-.627c-1.065-.58-1.805-1.25-2.294-2.846zm-21.738-9.416l2.402-10.215c.582-2.44.656-2.794 2.01-2.794h1.75c.982 0 1.346.217 1.959 2.707l2.492 10.302H47.412zm50.074 8.487h-3.973c-5.197 0-5.33.021-5.33-10.635 0-10.705.014-10.73 5.33-10.73h1.102c3.033 0 5.76.488 6.504.883h.697l-.613-3.421c-.25-1.374-1.232-1.858-4.01-1.858H84.66c-4.381 0-4.914 7.104-4.914 15.054 0 8 .658 15.111 4.914 15.111h15.396c2.783 0 3.756-.49 4.008-1.877l.615-3.416h-.693c-.742.404-3.48.889-6.5.889zM137.34 2.271h-19.119c-4.379 0-4.912 7.104-4.912 15.054 0 8 .658 15.111 4.912 15.111h19.119c4.252 0 4.906-7.111 4.906-15.111 0-7.95-.535-15.054-4.906-15.054zm-7.66 25.762h-1.771c-6.547 0-6.092-1.906-6.092-10.708 0-9.108-.455-10.657 6.092-10.657h1.771c6.516 0 6.098 1.549 6.098 10.657-.001 8.801.447 10.708-6.098 10.708zm48.049-13.859h-2.824c2.492-.535 3.355-3.065 3.355-5.111 0-6.219-1.32-6.792-5.574-6.792h-18.674v.616c.861.49 1.242.935 1.242 2.05v24.831c0 1.109-.381 1.598-1.242 2.041v.627h23.717c4.242 0 4.896-1.336 4.896-9.332 0-7.46-.535-8.93-4.896-8.93zm-14.471-7.588h3.059c5.557 0 6.088.477 6.088 3.413 0 3.545.242 4.175-6.088 4.175h-3.059V6.586zm6.98 21.583h-2.939c-3.832 0-4.041-.361-4.041-6.18v-3.676h6.98c6.627 0 6.098.428 6.098 4.79 0 4.57.529 5.066-6.098 5.066zm43.905-13.553h-9.479c-3.805 0-4.094-.395-4.094-4.039 0-3.781.1-3.91 6.098-3.91h2.311c2.996 0 5.781.488 6.51.883h.693l-.605-3.421c-.25-1.374-1.232-1.858-4.016-1.858h-13.762c-4.367 0-4.912.8-4.912 8.745 0 7.646 1.389 8.042 4.912 8.042h10.137c2.766 0 3.014.268 3.014 4.496 0 4.213-.578 4.479-6.5 4.479h-5.17c-2.996 0-5.777-.484-6.514-.891h-.688l.611 3.416c.242 1.387 1.209 1.877 4.01 1.877h17.443c4.379 0 4.904-.936 4.904-8.881.001-7.958-.655-8.938-4.903-8.938zm35.011 13.417h-4.963c-5.148 0-5.271-.129-5.271-6.043v-4.08l6.543.305c.654-.972 1.432-2.571 1.631-4.393h-8.174V6.667h5.719c2.945 0 5.766.488 6.5.883h.705l-.617-3.421c-.25-1.374-1.229-1.858-4.01-1.858h-17.346v.616c.871.49 1.238.935 1.238 2.05v24.831c0 1.109-.367 1.598-1.238 2.041v.627h21.842c2.787 0 3.766-.49 4.014-1.877l.6-3.416h-.68c-.743.405-3.489.89-6.493.89zm46.131-25.146v-.616h-7.395v.616c.855.49 1.234.935 1.234 2.05v19.141L275.258 2.887v-.616h-10.252v.616c.857.49 1.23.935 1.23 2.05v24.831c0 1.109-.373 1.598-1.23 2.041v.627h7.408v-.627c-.877-.443-1.23-.932-1.23-2.041V10.492l13.842 21.316v.627h10.26v-.627c-.859-.443-1.219-.932-1.219-2.041V4.937c-.001-1.116.359-1.56 1.218-2.05z"/></g></svg>