<?xml version="1.0" encoding="utf-8"?>
<!-- Generator: Adobe Illustrator 16.0.0, SVG Export Plug-In . SVG Version: 6.00 Build 0)  -->
<!DOCTYPE svg PUBLIC "-//W3C//DTD SVG 1.1//EN" "http://www.w3.org/Graphics/SVG/1.1/DTD/svg11.dtd">
<svg version="1.1" id="Layer_1" xmlns="http://www.w3.org/2000/svg" xmlns:xlink="http://www.w3.org/1999/xlink" x="0px" y="0px"
	 width="298.488px" height="34.697px" viewBox="0 0 298.488 34.697" enable-background="new 0 0 298.488 34.697"
	 xml:space="preserve">
<g>
	<path fill-rule="evenodd" clip-rule="evenodd" fill="#757676" d="M28.189,29.767c0,0,0-24.87,0.002-24.887
		c0.018-0.014,1.227-0.697,1.227-0.697V0H14.893v4.188c0,0,1.199,0.682,1.219,0.693v18.141c0,2.602,0,2.602-2.934,2.602h-3.148
		v-6.844L0,19.88v10.678c0,4.139,3.621,4.139,9.617,4.139h20.236v-3.379l-1.623-1.199C28.23,30.117,28.189,30.042,28.189,29.767z
		 M27.941,3.408L27.5,3.663c-0.672,0.383-0.789,0.573-0.789,1.273v24.831c0,0.742,0.172,0.945,0.756,1.25l0.475,0.244v2.062H9.617
		c-6.6,0-8.141-0.256-8.141-2.766v-9.447l7.072-0.77v4.666c0,2.139,0,2.139,3.643,2.139h0.986c4.41,0,4.41,0,4.41-5.154V4.937
		c0-0.707-0.117-0.896-0.777-1.271L16.361,3.41V1.382h11.58V3.408z"/>
	<path fill-rule="evenodd" clip-rule="evenodd" fill="#757676" d="M54.697,9.46c-0.498-2.034-0.643-2.034-1.123-2.034h-1.75
		c-0.668,0-0.668,0-1.16,2.067l-2.158,9.167h8.42L54.697,9.46z M52.359,8.8h0.598c0.34,1.345,1.463,5.783,2.123,8.482h-4.734
		L52.359,8.8z"/>
	<path fill-rule="evenodd" clip-rule="evenodd" fill="#757676" d="M72.648,29.863l-0.242-0.174
		c-0.459-0.326-0.766-0.541-1.012-1.363c-0.062-0.199-5.988-19.958-6.127-20.44c-0.385-1.408-1.051-4.313-1.24-5.888L63.783,0
		h-22.67v4.238l2.07,0.764l-6.334,23.38c-0.215,0.766-0.498,0.963-1.115,1.396l-2.08,1.537v3.381h15.424v-2.98l-1.723-1.611
		l0.895-3.85h9.027l0.92,3.834l-1.996,1.627v2.98h18.402v-3.381L72.648,29.863z M72.303,33.324H58.807v-2.061l0.471-0.246
		c0.459-0.24,0.57-0.33,0.404-1.043l-1.217-5.096h-11.4l-1.189,5.096c-0.166,0.711-0.053,0.803,0.406,1.043l0.471,0.244v2.062
		H35.951v-2.053l0.463-0.248c0.945-0.516,1.496-1.014,1.857-2.307l6.34-23.404c0.193-0.745,0.098-1.18-0.955-1.598l-0.551-0.22
		V1.382h19.355l0.098,0.774c0.205,1.659,0.893,4.655,1.289,6.091l6.127,20.454c0.4,1.318,0.941,1.818,1.871,2.322l0.457,0.25V33.324
		z"/>
	<path fill-rule="evenodd" clip-rule="evenodd" fill="#757676" d="M134.922,18.908v-3.13c0.01-4.138,0.018-6.418-0.883-7.349
		c-0.607-0.628-1.83-0.873-4.359-0.873h-1.771c-2.537,0-3.76,0.243-4.365,0.871c-0.889,0.92-0.881,3.296-0.871,7.232v3.276
		c-0.01,3.936-0.018,6.312,0.918,7.283c0.637,0.656,1.889,0.928,4.318,0.928h1.771c2.434,0,3.686-0.271,4.322-0.93
		C134.941,25.244,134.936,22.857,134.922,18.908 M132.895,25.302c-0.145,0.137-0.744,0.461-3.215,0.461h-1.771
		c-2.377,0-3.037-0.291-3.215-0.461c-0.576-0.555-0.562-3.512-0.551-6.375l0.006-1.603l-0.006-1.655
		c-0.012-2.731-0.025-5.826,0.492-6.326c0.131-0.126,0.711-0.416,3.273-0.416h1.771c2.547,0,3.119,0.288,3.254,0.42
		c0.525,0.492,0.518,3.316,0.51,6.423v3.16C133.457,21.925,133.467,24.755,132.895,25.302"/>
	<path fill-rule="evenodd" clip-rule="evenodd" fill="#757676" d="M137.34,0h-19.119c-7.256,0-7.256,10.426-7.256,17.324
		c0,3.425,0.107,7.777,0.936,11.087c1.035,4.109,3.221,6.285,6.32,6.285h19.119c2.16,0,5.012-1.092,6.316-6.287
		c0.818-3.268,0.924-7.641,0.924-11.085C144.58,10.426,144.58,0,137.34,0 M137.34,33.324h-19.119c-5.074,0-5.773-7.689-5.773-16
		c0-7.711,0.449-15.942,5.773-15.942h19.119c5.32,0,5.766,8.231,5.766,15.942C143.105,25.634,142.408,33.324,137.34,33.324"/>
	<path fill-rule="evenodd" clip-rule="evenodd" fill="#757676" d="M296.574,4.716c0.271-0.176,1.691-1.191,1.691-1.191l0.223-0.159
		V0.002h-13.791v3.363l0.225,0.159c0,0,1.422,1.016,1.682,1.186c0.156,0.106,0.156,0.106,0.156,0.231l0.025,2.35v8.988
		c0,0-8.893-13.592-9.193-14.048V0.002h-15.748v3.363l0.225,0.159c0,0,1.414,1.008,1.676,1.188c0.152,0.103,0.152,0.103,0.152,0.225
		v24.706c0,0.186-0.021,0.201-0.188,0.328c-0.219,0.168-1.641,1.182-1.641,1.182l-0.225,0.158v3.387h13.77V31.31l-1.879-1.338
		c-0.166-0.131-0.186-0.145-0.186-0.33V19.339l-0.016-0.97c2.256,3.46,8.879,13.652,9.166,14.093v2.234h15.789v-3.385l-0.221-0.16
		c0,0-1.43-1.027-1.652-1.18c-0.16-0.127-0.182-0.141-0.182-0.33V4.937C296.434,4.812,296.434,4.812,296.574,4.716z M296.145,3.41
		l-0.441,0.253c-0.66,0.375-0.775,0.566-0.775,1.273v24.829c0,0.758,0.158,0.947,0.742,1.25l0.475,0.244v2.064h-11.98V32.08
		l-12.119-18.667v16.352c0,0.76,0.16,0.949,0.748,1.248l0.482,0.242v2.068h-9.133v-2.064l0.475-0.244
		c0.596-0.309,0.758-0.498,0.758-1.25V4.937c0-0.702-0.119-0.891-0.787-1.273l-0.445-0.253V1.382h11.975v1.232l12.145,18.563V4.937
		c0-0.7-0.117-0.889-0.789-1.275l-0.443-0.251V1.382h9.115V3.41z"/>
	<path fill-rule="evenodd" clip-rule="evenodd" fill="#757676" d="M257.191,24.302l-0.094,0.037
		c-3.223,1.326-5.15,1.422-7.943,1.422h-4.963c-0.695,0-2.217,0-2.789-0.1c-0.146-0.664-0.146-2.662-0.146-3.672v-1.699
		c2.006,0.088,5.439,0.25,5.439,0.25l0.729-1.092c0.627-0.941,1.715-2.895,1.99-5.391l0.273-2.499h-8.432V8.927h3.381
		c2.859,0,4.859,0.207,7.863,1.345l0.086,0.031h2.088l-1.143-6.559c-0.676-3.742-4.625-3.742-6.314-3.742h-20.5v3.365l0.223,0.158
		c0,0,1.424,1.011,1.686,1.187c0.152,0.103,0.152,0.103,0.152,0.225v24.706c0,0.189-0.021,0.203-0.189,0.322
		c-0.227,0.168-1.871,1.346-1.871,1.346v3.387h24.996c1.684,0,5.637,0,6.318-3.74l1.113-6.654H257.191z M256.574,30.718
		c-0.434,2.404-2.643,2.605-4.861,2.605H229.01v-2.066l0.479-0.244c0.6-0.305,0.762-0.496,0.762-1.248V4.937
		c0-0.702-0.119-0.893-0.791-1.271l-0.449-0.253v-2.03h18.207c2.221,0,4.422,0.199,4.855,2.584l0.879,4.967
		c0,0-1.252-0.361-2.209-0.595c-0.893-0.219-3.102-0.784-6.105-0.784h-4.857v5.38h8.279l-0.111,0.987
		c-0.252,2.327-1.326,4.132-1.777,4.799l-0.271,0.402l-6.119-0.285v3.152c0,2.537,0.025,4.119,0.484,4.645
		c0.424,0.484,1.771,0.51,3.928,0.51h4.963c3.057,0,4.863-0.453,6.088-0.785c1.223-0.334,2.189-0.598,2.189-0.598L256.574,30.718z"
		/>
	<path fill-rule="evenodd" clip-rule="evenodd" fill="#757676" d="M214.143,12.353h-9.479c-0.92,0-1.424-0.033-1.693-0.066
		c-0.035-0.289-0.059-0.804-0.059-1.711c0-0.41,0-1.092,0.031-1.524c0.85-0.124,2.816-0.124,3.725-0.124h2.311
		c3.275,0,5.93,0.41,7.889,1.221l0.094,0.039h2.037l-1.127-6.435C217.211,0,213.252,0,211.562,0h-13.764
		c-1.748,0-4.672,0-6.139,2.562c-0.943,1.654-1.109,4.044-1.109,8.454c0,4.381,0.443,6.684,1.578,8.22
		c1.568,2.09,4.035,2.09,5.67,2.09c0,0,10.582,0.002,10.754,0.008c0.064,0.676,0.064,1.76,0.064,2.221c0,1.309-0.08,1.818-0.123,2
		c-0.432,0.137-1.789,0.209-4.045,0.209h-5.17c-2.836,0-5.123-0.379-8.168-1.348l-0.074-0.023l-1.848-0.01l1.203,6.568
		c0.635,3.746,4.609,3.746,6.307,3.746h17.443c2.266,0,4.791-0.205,6.154-2.65c0.928-1.674,1.092-4.072,1.092-8.492
		C221.389,15.596,220.732,12.353,214.143,12.353 M214.143,33.324h-17.443c-2.229,0-4.438-0.201-4.855-2.605l-0.871-4.955
		c0,0,0.982,0.225,2.195,0.596c1.221,0.371,3.037,0.787,6.111,0.787h5.17c5.639,0,5.639-0.07,5.639-3.592
		c0-3.609,0-3.609-2.152-3.609h-10.137c-4.332,0-5.771-1.291-5.771-8.929c0-7.809,0.531-9.634,5.771-9.634h13.764
		c2.223,0,4.428,0.199,4.861,2.586l0.865,4.963c0,0-0.996-0.255-2.197-0.595c-1.203-0.338-3.055-0.78-6.113-0.78h-2.311
		c-2.627,0-4.266,0.027-4.838,0.399c-0.365,0.236-0.398,0.943-0.398,2.62c0,3.154,0,3.154,3.232,3.154h9.479
		c5.197,0,5.764,1.987,5.764,9.825C219.906,31.472,219.375,33.324,214.143,33.324"/>
	<path fill-rule="evenodd" clip-rule="evenodd" fill="#757676" d="M171.541,9.999c0-2.238,0-2.526-5.225-2.526h-2.199v5.812h2.199
		c2.605,0,4.441-0.104,4.934-0.614c0.299-0.308,0.297-1.14,0.293-2.291L171.541,9.999z M170.07,10.666
		c0,0.535-0.012,0.855-0.025,1.047c-0.41,0.087-1.389,0.193-3.729,0.193H165.6V8.842h0.717c2.475,0,3.391,0.138,3.715,0.217
		c0.02,0.154,0.039,0.438,0.039,0.94V10.666z"/>
	<path fill-rule="evenodd" clip-rule="evenodd" fill="#757676" d="M175.475,23.103l0.004-0.906c0.012-1.246,0.021-2.146-0.266-2.445
		c-0.486-0.508-2.541-0.549-4.975-0.549h-6.121v2.789c0,5.289,0,5.289,3.182,5.289h2.939c2.314,0,4.43-0.045,4.945-0.578
		c0.316-0.332,0.309-1.305,0.295-2.65L175.475,23.103z M174.01,24.748c0,0.498-0.018,0.803-0.037,0.984
		c-0.439,0.086-1.457,0.166-3.734,0.166h-2.939c-0.859,0-1.309-0.027-1.541-0.055c-0.158-0.766-0.158-2.965-0.158-3.852v-1.416
		h4.639c1.916,0,3.172,0.053,3.748,0.156c0.012,0.166,0.023,0.42,0.023,0.803l-0.018,1.574L174.01,24.748z"/>
	<path fill-rule="evenodd" clip-rule="evenodd" fill="#757676" d="M180.064,12.122c0.344-0.964,0.527-2.024,0.527-3.06
		c0-6.943-1.848-9.062-7.908-9.062h-21.832v3.365l0.225,0.16c0,0,1.426,1.011,1.682,1.183c0.15,0.104,0.15,0.104,0.15,0.229V29.64
		c0,0.195-0.02,0.209-0.17,0.322c-0.23,0.168-1.887,1.348-1.887,1.348v3.387h26.877c6.893,0,7.229-4.189,7.229-11.594
		C184.957,16.947,184.709,13.038,180.064,12.122 M177.729,33.324H153.15v-2.064l0.477-0.244c0.594-0.307,0.768-0.508,0.768-1.248
		V4.937c0-0.696-0.119-0.887-0.797-1.273L153.15,3.41V1.382h19.533c4.83,0,6.436,1.11,6.436,7.681c0,1.395-0.369,3.006-1.287,4.223
		c5.188,0.033,5.654,2.593,5.654,9.818C183.486,30.675,183.016,33.324,177.729,33.324"/>
	<path fill-rule="evenodd" clip-rule="evenodd" fill="#757676" d="M105.896,24.328l-0.078,0.027
		c-2.646,0.924-4.217,1.408-8.332,1.408H93.51c-2.549,0-3.01,0-3.01-4.396v-8.139c0-4.301,0.344-4.301,3.01-4.301h1.105
		c3.543,0,8.266,1.343,8.314,1.356l0.068,0.02h1.643l-1.135-6.551c-0.666-3.75-4.623-3.75-6.312-3.75H84.658
		c-7.246,0-7.246,10.424-7.246,17.322c0,3.441,0.105,7.81,0.92,11.085c1.027,4.111,3.213,6.287,6.326,6.287h15.398
		c1.686,0,5.635,0,6.311-3.746l1.111-6.623H105.896z M104.908,30.722c-0.436,2.4-2.633,2.602-4.852,2.602H84.658
		c-5.072,0-5.771-7.689-5.771-16c0-7.711,0.447-15.942,5.771-15.942h12.535c2.219,0,4.424,0.199,4.855,2.584l0.875,4.965
		c0,0-0.748-0.233-2.197-0.591s-3.031-0.784-6.111-0.784H93.51c-2.758,0-3.502,0.085-3.891,0.867
		c-0.576,1.161-0.576,3.935-0.576,8.973c0,4.907,0.031,7.739,0.611,8.889c0.393,0.775,1.115,0.861,3.795,0.861h4.037
		c3.107,0,5.131-0.49,6.096-0.787c0.844-0.26,2.205-0.596,2.205-0.596L104.908,30.722z"/>
	<path fill-rule="evenodd" clip-rule="evenodd" fill="#757676" d="M17.225,2.887c0.865,0.49,1.227,0.935,1.227,2.05V21.99
		c0,5.818-0.129,6.043-5.271,6.043h-0.988c-4.42,0-4.506-0.359-4.506-3.023v-3.682l-5.35,0.58v8.65c0,1.43,0.213,1.877,7.281,1.877
		H27.08v-0.627c-0.854-0.443-1.229-0.932-1.229-2.041V4.937c0-1.115,0.375-1.56,1.229-2.05V2.271h-9.855V2.887z M69.15,28.962
		L63.018,8.49c-0.404-1.468-1.098-4.489-1.312-6.22h-17.74v0.616c1.234,0.49,1.842,1.242,1.477,2.666L39.1,28.962
		c-0.447,1.596-1.215,2.266-2.285,2.846v0.627h9.08v-0.627c-0.857-0.443-1.107-0.977-0.857-2.041l1.348-5.775h12.754l1.379,5.775
		c0.25,1.064,0,1.598-0.852,2.041v0.627h11.777v-0.627C70.379,31.228,69.639,30.558,69.15,28.962z M47.412,19.546l2.402-10.215
		c0.582-2.44,0.656-2.794,2.01-2.794h1.75c0.982,0,1.346,0.217,1.959,2.707l2.492,10.302H47.412z M97.486,28.033h-3.973
		c-5.197,0-5.33,0.021-5.33-10.635c0-10.705,0.014-10.73,5.33-10.73h1.102c3.033,0,5.76,0.488,6.504,0.883h0.697l-0.613-3.421
		c-0.25-1.374-1.232-1.858-4.01-1.858H84.66c-4.381,0-4.914,7.104-4.914,15.054c0,8,0.658,15.111,4.914,15.111h15.396
		c2.783,0,3.756-0.49,4.008-1.877l0.615-3.416h-0.693C103.244,27.548,100.506,28.033,97.486,28.033z M137.34,2.271h-19.119
		c-4.379,0-4.912,7.104-4.912,15.054c0,8,0.658,15.111,4.912,15.111h19.119c4.252,0,4.906-7.111,4.906-15.111
		C142.246,9.375,141.711,2.271,137.34,2.271z M129.68,28.033h-1.771c-6.547,0-6.092-1.906-6.092-10.708
		c0-9.108-0.455-10.657,6.092-10.657h1.771c6.516,0,6.098,1.549,6.098,10.657C135.777,26.126,136.225,28.033,129.68,28.033z
		 M177.729,14.174h-2.824c2.492-0.535,3.355-3.065,3.355-5.111c0-6.219-1.32-6.792-5.574-6.792h-18.674v0.616
		c0.861,0.49,1.242,0.935,1.242,2.05v24.831c0,1.109-0.381,1.598-1.242,2.041v0.627h23.717c4.242,0,4.896-1.336,4.896-9.332
		C182.625,15.644,182.09,14.174,177.729,14.174z M163.258,6.586h3.059c5.557,0,6.088,0.477,6.088,3.413
		c0,3.545,0.242,4.175-6.088,4.175h-3.059V6.586z M170.238,28.169h-2.939c-3.832,0-4.041-0.361-4.041-6.18v-3.676h6.98
		c6.627,0,6.098,0.428,6.098,4.79C176.336,27.673,176.865,28.169,170.238,28.169z M214.143,14.616h-9.479
		c-3.805,0-4.094-0.395-4.094-4.039c0-3.781,0.1-3.91,6.098-3.91h2.311c2.996,0,5.781,0.488,6.51,0.883h0.693l-0.605-3.421
		c-0.25-1.374-1.232-1.858-4.016-1.858h-13.762c-4.367,0-4.912,0.8-4.912,8.745c0,7.646,1.389,8.042,4.912,8.042h10.137
		c2.766,0,3.014,0.268,3.014,4.496c0,4.213-0.578,4.479-6.5,4.479h-5.17c-2.996,0-5.777-0.484-6.514-0.891h-0.688l0.611,3.416
		c0.242,1.387,1.209,1.877,4.01,1.877h17.443c4.379,0,4.904-0.936,4.904-8.881C219.047,15.596,218.391,14.616,214.143,14.616z
		 M249.154,28.033h-4.963c-5.148,0-5.271-0.129-5.271-6.043v-4.08l6.543,0.305c0.654-0.972,1.432-2.571,1.631-4.393h-8.174V6.667
		h5.719c2.945,0,5.766,0.488,6.5,0.883h0.705l-0.617-3.421c-0.25-1.374-1.229-1.858-4.01-1.858h-17.346v0.616
		c0.871,0.49,1.238,0.935,1.238,2.05v24.831c0,1.109-0.367,1.598-1.238,2.041v0.627h21.842c2.787,0,3.766-0.49,4.014-1.877
		l0.6-3.416h-0.68C254.904,27.548,252.158,28.033,249.154,28.033z M295.285,2.887V2.271h-7.395v0.616
		c0.855,0.49,1.234,0.935,1.234,2.05v19.141L275.258,2.887V2.271h-10.252v0.616c0.857,0.49,1.23,0.935,1.23,2.05v24.831
		c0,1.109-0.373,1.598-1.23,2.041v0.627h7.408v-0.627c-0.877-0.443-1.23-0.932-1.23-2.041V10.492l13.842,21.316v0.627h10.26v-0.627
		c-0.859-0.443-1.219-0.932-1.219-2.041V4.937C294.066,3.821,294.426,3.377,295.285,2.887z"/>
</g>
</svg>
