<?xml version="1.0" encoding="utf-8"?>
<!-- Generator: Adobe Illustrator 19.2.1, SVG Export Plug-In . SVG Version: 6.00 Build 0)  -->
<svg version="1.1" id="Ebene_1" xmlns="http://www.w3.org/2000/svg" xmlns:xlink="http://www.w3.org/1999/xlink" x="0px" y="0px"
	 viewBox="0 0 125.2 122" style="enable-background:new 0 0 125.2 122;" xml:space="preserve">
<style type="text/css">
	.st0{fill:#5C5B5B;}
</style>
<g>
	<g>
		<path class="st0" d="M38.6,101.9c0,4.8-0.5,9.3-3.6,13.1c-3.4,4.3-9,6.9-14.3,6.9c-11.4,0-20.1-8.8-20.1-20.5
			c0-10.6,9.3-19.4,20.4-19.4c6.7,0,11.9,3.4,16,8.4l-3.2,2.9c-3.1-4.2-7.5-7.2-12.8-7.2c-8.7,0-16,7.1-16,15.4
			c0,9.2,6.8,16.4,15.7,16.4c4.6,0,9.5-2.7,11.9-6.5c1-1.8,1.4-2.8,1.6-5.4H22.5v-4H38.6z"/>
		<path class="st0" d="M47.2,106.4c0,4.1,0.3,5.7,1.3,7.4c1.5,2.4,4.9,4.2,8.2,4.2c3.3,0,6.6-1.7,8.1-4.2c1-1.7,1.3-3.3,1.3-7.4
			V82.7h4.3v24.8c0,4.2-0.7,6.8-2.5,9.1C65.3,120,61,122,56.6,122c-4.5,0-8.8-2.1-11.3-5.3c-1.8-2.4-2.5-4.9-2.5-9.1V82.7h4.3V106.4
			z"/>
		<path class="st0" d="M81.5,110.4l-4.6,10.9h-4.7l17.8-40.4l17.3,40.4h-4.7l-4.6-10.9H81.5z M89.8,90.9l-6.6,15.4h13L89.8,90.9z"/>
		<path class="st0" d="M114.6,117.3h10.6v4h-14.9V82.7h4.3V117.3z"/>
	</g>
	<path class="st0" d="M23,36.1c-2.3-3.7-4.3-5-7.6-5c-4.5,0-7.9,2.9-7.9,6.8c0,9.6,21.2,7.5,21.2,21.7c0,8-6.3,14.2-14.4,14.2
		C6.9,73.8,1.7,69.5,0,62l5-1.4c1.2,5.5,4.4,8.4,9.2,8.4c5.4,0,9.4-3.9,9.4-9.3c0-10.4-21.2-8.3-21.2-21.6c0-6.9,5.5-11.8,13.3-11.8
		c4.8,0,8.7,2.5,11.4,7.2L23,36.1z"/>
	<path class="st0" d="M55.8,26.3c13,0,23.8,10.7,23.8,23.8c0,13-10.8,23.8-23.8,23.8c-13.2,0-24-10.6-24-23.7
		C31.9,37,42.7,26.3,55.8,26.3z M55.8,69c10.3,0,18.7-8.5,18.7-18.9c0-10.5-8.3-19-18.7-19c-10.4,0-18.7,8.5-18.7,19
		C37,60.5,45.5,69,55.8,69z"/>
	<path class="st0" d="M84.2,25.1l35.7,37.5V27h5.2v48L89.3,37.6V73h-5.2V25.1z"/>
	<path class="st0" d="M69.5,50c0,7.6-6.1,13.7-13.7,13.7c-7.6,0-13.7-6.1-13.7-13.7c0-7.6,6.1-13.7,13.7-13.7
		C63.3,36.4,69.5,42.5,69.5,50z"/>
	<g>
		<path class="st0" d="M18.1,8.7c0,2.1-0.2,4.1-1.6,5.8c-1.5,1.9-4,3.1-6.4,3.1c-5.1,0-9-3.9-9-9C1.2,3.9,5.3,0,10.3,0
			c3,0,5.3,1.5,7.1,3.7L16,5c-1.4-1.8-3.3-3.2-5.7-3.2c-3.9,0-7.1,3.1-7.1,6.8c0,4.1,3,7.2,7,7.2c2.1,0,4.3-1.2,5.3-2.9
			c0.5-0.8,0.6-1.2,0.7-2.4H11V8.7H18.1z"/>
		<path class="st0" d="M50.8,0c4.9,0,8.9,4,8.9,8.8c0,4.8-4,8.8-8.9,8.8c-4.9,0-9-3.9-9-8.8C41.8,4,45.9,0,50.8,0z M50.8,15.8
			c3.9,0,7-3.1,7-7c0-3.9-3.1-7-7-7c-3.9,0-7,3.1-7,7C43.7,12.7,46.9,15.8,50.8,15.8z"/>
		<path class="st0" d="M87.9,15.5h4.7v1.8H86v-17h1.9V15.5z"/>
		<path class="st0" d="M119.1,2.1v5h5.7v1.8h-5.7v8.4h-1.9v-17h7.8v1.8H119.1z"/>
	</g>
</g>
</svg>
