<svg id="Ebene_1" xmlns="http://www.w3.org/2000/svg" viewBox="0 0 125.2 122"><style>.st0{fill:#5c5b5b}</style><path class="st0" d="M38.6 101.9c0 4.8-.5 9.3-3.6 13.1-3.4 4.3-9 6.9-14.3 6.9-11.4 0-20.1-8.8-20.1-20.5C.6 90.8 9.9 82 21 82c6.7 0 11.9 3.4 16 8.4l-3.2 2.9c-3.1-4.2-7.5-7.2-12.8-7.2-8.7 0-16 7.1-16 15.4 0 9.2 6.8 16.4 15.7 16.4 4.6 0 9.5-2.7 11.9-6.5 1-1.8 1.4-2.8 1.6-5.4H22.5v-4h16.1zM47.2 106.4c0 4.1.3 5.7 1.3 7.4 1.5 2.4 4.9 4.2 8.2 4.2 3.3 0 6.6-1.7 8.1-4.2 1-1.7 1.3-3.3 1.3-7.4V82.7h4.3v24.8c0 4.2-.7 6.8-2.5 9.1-2.6 3.4-6.9 5.4-11.3 5.4-4.5 0-8.8-2.1-11.3-5.3-1.8-2.4-2.5-4.9-2.5-9.1V82.7h4.3v23.7zM81.5 110.4l-4.6 10.9h-4.7L90 80.9l17.3 40.4h-4.7L98 110.4H81.5zm8.3-19.5l-6.6 15.4h13l-6.4-15.4zM114.6 117.3h10.6v4h-14.9V82.7h4.3v34.6zM23 36.1c-2.3-3.7-4.3-5-7.6-5-4.5 0-7.9 2.9-7.9 6.8 0 9.6 21.2 7.5 21.2 21.7 0 8-6.3 14.2-14.4 14.2C6.9 73.8 1.7 69.5 0 62l5-1.4c1.2 5.5 4.4 8.4 9.2 8.4 5.4 0 9.4-3.9 9.4-9.3 0-10.4-21.2-8.3-21.2-21.6 0-6.9 5.5-11.8 13.3-11.8 4.8 0 8.7 2.5 11.4 7.2L23 36.1zM55.8 26.3c13 0 23.8 10.7 23.8 23.8 0 13-10.8 23.8-23.8 23.8-13.2 0-24-10.6-24-23.7.1-13.2 10.9-23.9 24-23.9zm0 42.7c10.3 0 18.7-8.5 18.7-18.9 0-10.5-8.3-19-18.7-19-10.4 0-18.7 8.5-18.7 19C37 60.5 45.5 69 55.8 69zM84.2 25.1l35.7 37.5V27h5.2v48L89.3 37.6V73h-5.2V25.1z"/><path class="st0" d="M69.5 50c0 7.6-6.1 13.7-13.7 13.7S42.1 57.6 42.1 50s6.1-13.7 13.7-13.7c7.5.1 13.7 6.2 13.7 13.7z"/><g><path class="st0" d="M18.1 8.7c0 2.1-.2 4.1-1.6 5.8-1.5 1.9-4 3.1-6.4 3.1-5.1 0-9-3.9-9-9C1.2 3.9 5.3 0 10.3 0c3 0 5.3 1.5 7.1 3.7L16 5c-1.4-1.8-3.3-3.2-5.7-3.2-3.9 0-7.1 3.1-7.1 6.8 0 4.1 3 7.2 7 7.2 2.1 0 4.3-1.2 5.3-2.9.5-.8.6-1.2.7-2.4H11V8.7h7.1zM50.8 0c4.9 0 8.9 4 8.9 8.8 0 4.8-4 8.8-8.9 8.8s-9-3.9-9-8.8c0-4.8 4.1-8.8 9-8.8zm0 15.8c3.9 0 7-3.1 7-7s-3.1-7-7-7-7 3.1-7 7c-.1 3.9 3.1 7 7 7zM87.9 15.5h4.7v1.8H86V.3h1.9v15.2zM119.1 2.1v5h5.7v1.8h-5.7v8.4h-1.9V.3h7.8v1.8h-5.9z"/></g></svg>