<?xml version="1.0" encoding="utf-8"?>
<!-- Generator: Adobe Illustrator 16.0.0, SVG Export Plug-In . SVG Version: 6.00 Build 0)  -->
<!DOCTYPE svg PUBLIC "-//W3C//DTD SVG 1.1//EN" "http://www.w3.org/Graphics/SVG/1.1/DTD/svg11.dtd">
<svg version="1.1" id="Layer_1" xmlns="http://www.w3.org/2000/svg" xmlns:xlink="http://www.w3.org/1999/xlink" x="0px" y="0px"
	 width="162.305px" height="72.21px" viewBox="0 0 162.305 72.21" enable-background="new 0 0 162.305 72.21" xml:space="preserve">
<g>
	<path fill-rule="evenodd" clip-rule="evenodd" fill="#757676" d="M12.269,11.656h0.14l-0.452,3.811H0v-0.102l2.391-0.37
		c0.228-1.067,0.396-5.183,0.396-6.382V5.979c0-1.674-0.108-4.199-0.294-5.353L0.021,0.258V0.156h7.607v0.102L5.132,0.626
		C4.967,1.909,4.823,4.396,4.823,6.368v4.499c0,1.045,0.084,2.503,0.165,3.378c1.174,0.393,2.289,0.539,3.547,0.539
		c1.343,0,2.351-0.17,2.682-0.283L12.269,11.656z M3.072,15.063h0.7V0.537h-0.7V15.063z"/>
	<path fill-rule="evenodd" clip-rule="evenodd" fill="#757676" d="M20.332,0l4.328,10.799c0.576,1.436,1.218,2.785,1.98,4.199
		l1.672,0.365v0.104h-7.114v-0.104l2.743-0.365c-0.207-1.392-0.805-3.144-1.465-4.369h-6.308c-0.454,1.202-1.237,3.188-1.423,4.369
		l2.638,0.365v0.104h-5.626v-0.104l1.853-0.365c0.433-0.766,0.887-1.752,1.238-2.673L19.504,0H20.332z M16.435,9.925
		c0.927,0.124,1.919,0.146,2.887,0.146c0.947,0,1.916-0.022,2.885-0.146c-0.533-1.629-1.814-4.78-2.969-6.988
		C18.311,4.801,16.87,8.79,16.435,9.925z M19.402,2.062l5.216,13H25.3L19.732,1.188L19.402,2.062z"/>
	<path fill-rule="evenodd" clip-rule="evenodd" fill="#757676" d="M18.314,48.89h8.285c6.478,0,8.271,4.373,8.271,7.627
		c0,4.479-3.034,7.691-7.342,7.691h-9.275v-0.107l2.456-0.363c0.244-1.354,0.366-5.012,0.366-6.189v-2.725
		c0-1.691-0.102-3.961-0.267-5.441l-2.494-0.381V48.89z M21.366,63.798h0.699V49.294h-0.699V63.798z M25.402,49.533
		c-1.252,0-1.646,0.154-2.039,0.256c-0.084,0.648-0.244,2.914-0.244,4.35v6.104c0,0.793,0.058,1.951,0.142,2.746
		c0.845,0.426,2.103,0.596,3.067,0.596c2.889,0,6.15-2.225,6.15-7.045C32.479,51.548,29.055,49.533,25.402,49.533z M25.015,49.148
		v0.109c3.134,0,4.887,0.9,5.938,1.988c1.109,1.156,1.935,3.018,1.935,5.316c0,5.291-3.895,7.277-6.268,7.277h-0.764v0.113h0.764
		c4.599,0,7.053-3.498,7.053-7.367c0-2.492-1.013-4.332-2.065-5.406c-0.655-0.703-2.303-2.031-5.996-2.031H25.015z"/>
	<path fill-rule="evenodd" clip-rule="evenodd" fill="#757676" d="M36.004,48.892h10.719l0.246,3.252h-0.144l-0.742-2.547
		c-0.577-0.045-1.277-0.068-1.919-0.068c-1.316,0-2.391,0.113-3.151,0.281c-0.084,0.684-0.207,2.166-0.207,3.879
		c0,0.705,0.021,1.562,0.081,2.209c0.726,0.039,1.402,0.061,2.041,0.061c0.785,0,1.609-0.021,2.352-0.104l0.452-1.803h0.165v4.473
		h-0.165l-0.47-1.9c-0.705-0.086-1.281-0.107-1.921-0.107c-0.801,0-1.527,0.021-2.433,0.125c-0.063,0.625-0.102,1.436-0.102,1.994
		c0,1.266,0.062,3.488,0.186,4.521c0.927,0.301,2.145,0.381,3.216,0.381c0.555,0,1.155,0,1.937-0.08l0.803-2.531h0.144l-0.203,3.281
		H36.025v-0.107l2.391-0.363c0.186-1.072,0.351-5.035,0.351-6.402v-2.635c0-0.932-0.083-3.453-0.293-5.338l-2.469-0.361V48.892z
		 M39.054,63.798h0.701V49.296h-0.701V63.798z"/>
	<path fill-rule="evenodd" clip-rule="evenodd" fill="#757676" d="M16.735,20.731c1.56,0,3.145-0.124,4.705-0.252l0.305,4.979
		h-0.186l-1.096-3.646c-0.827-0.162-1.835-0.257-2.812-0.257c-1.526,0-2.811,0.163-4.52,0.604c-0.242,2.31-0.366,5.33-0.366,6.814
		v5.153c0,2.696,0.18,6.54,0.458,8.571l3.726,0.566v0.16H5.677v-0.16l3.635-0.566c0.248-1.877,0.458-5.652,0.458-8.28v-5.628
		C9.77,26.57,9.65,24,9.44,22.16c-1.898-0.509-3.943-0.569-4.375-0.569c-1.034,0-2.349,0.155-2.99,0.283l-1.101,3.68H0.796
		l0.303-5.074c0.885,0.06,1.8,0.252,2.683,0.252H16.735z M10.201,42.824h1.01V21.305h-1.01V42.824z"/>
	<path fill-rule="evenodd" clip-rule="evenodd" fill="#757676" d="M47.008,32.026c0,5.438-4.182,11.555-11.912,11.555
		c-8.674,0-12.214-6.852-12.214-11.493c0-6.025,4.671-11.673,11.941-11.673C43.678,20.416,47.008,27.46,47.008,32.026z
		 M34.213,20.857c-5.742,0.095-10.723,5.206-10.723,11.169c0,5.499,4.522,10.893,10.753,11.084v-0.162
		c-6.108-0.566-9.648-5.809-9.648-10.83c0-5.714,3.754-10.527,9.619-11.1V20.857z M26.364,31.965c0,7.371,4.582,10.572,8.578,10.572
		c4.521,0,8.584-3.682,8.584-10.16c0-9.451-5.987-10.916-8.613-10.916C30.336,21.461,26.364,25.294,26.364,31.965z M35.71,43.111
		c5.009-0.191,9.527-4.131,9.527-11.084c0-7.555-4.978-11.037-9.562-11.169v0.162c3.484,0.287,8.464,2.627,8.464,11.1
		c0,4.927-2.198,10.263-8.429,10.83V43.111z"/>
	<path fill-rule="evenodd" clip-rule="evenodd" fill="#757676" d="M51.961,28.219c0-2.283-0.186-4.861-0.372-6.817l-3.113-0.509
		v-0.163h10.874v0.163l-3.912,0.509c-0.275,1.93-0.456,7.105-0.456,8.59v6.393c0,4.821,3.173,6.188,6.412,6.188
		c3.635,0,6.387-1.713,6.387-6.697v-6.641c0-1.775-0.154-5.934-0.429-7.833l-3.882-0.509v-0.163h10.814v0.163l-3.053,0.509
		c-0.244,1.33-0.428,5.006-0.428,7.296v7.495c0,2.377-0.554,3.967-1.647,5.108c-1.499,1.553-3.425,2.346-7.884,2.346
		c-5.314,0-9.311-1.678-9.311-6.783V28.219z M52.389,36.863c0,3.611,2.256,6.15,8.059,6.373v-0.191
		c-4.094-0.219-7.025-2.318-7.025-6.759V21.307h-1.034V36.863z M68.208,35.999c0,3.938-1.56,6.536-5.808,7.045v0.191
		c4.704-0.285,6.846-2.57,6.846-7.207V21.307h-1.038V35.999z"/>
	<path fill-rule="evenodd" clip-rule="evenodd" fill="#757676" d="M78.928,29.396c0-2.386-0.186-6.095-0.428-7.965l-3.512-0.54
		v-0.161h9.801c6.139,0,7.361,4.794,7.361,6.347c0,3.076-2.289,5.013-4.426,5.301c0.824,0.347,1.31,0.757,1.68,1.149
		c1.523,1.621,4.395,6.788,5.985,8.442c0.853,0.887,1.647,1.299,2.476,1.299v0.16h-2.598c-1.225,0-2.412-0.256-3.449-1.359
		c-1.318-1.344-4.277-6.451-5.592-7.844c-0.794-0.821-1.283-1.116-2.717-1.116c-0.214,0-0.946,0-1.469,0.095
		c-0.06,0.573-0.091,1.176-0.091,1.877v2.858c0,1.59,0.186,3.236,0.396,4.789l3.695,0.541v0.16H74.988v-0.16l3.449-0.541
		c0.305-2.316,0.491-7.332,0.491-8.538V29.396z M80.394,21.336h-1.041v21.488h1.041V21.336z M81.95,29.647
		c0,0.852,0.058,2.126,0.091,2.51c0.551,0.088,1.164,0.088,1.65,0.088c4,0,5.256-2.437,5.256-4.852c0-3.528-2.906-5.802-5.314-5.802
		c-0.275,0-0.859,0-1.316,0.156c-0.181,1.142-0.367,3.994-0.367,5.36V29.647z M86.959,32.022c1.988-0.505,3.541-2.375,3.541-4.852
		c0-3.938-3.327-6.087-6.352-6.087h-0.733v0.154c4.431,0.098,6.047,3.738,6.047,6.25c0,2.091-0.946,3.614-2.597,4.479L86.959,32.022
		z M85.707,33.039c0.672,0.458,1.158,1.09,1.617,1.753l3.209,4.889c1.341,2.062,2.413,3.174,4.243,3.209v-0.164
		c-0.946-0.285-1.865-1.398-3.054-3.143l-2.598-3.872c-1.037-1.553-1.801-2.479-3.354-2.797L85.707,33.039z"/>
	<path fill-rule="evenodd" clip-rule="evenodd" fill="#757676" d="M56.458,49.619c0.642,2.348,1.77,5.33,2.622,7.391l2.082,5.014
		c0.61,1.496,1.4,3.078,2.044,4.408c0.827-1.521,1.863-3.898,2.562-5.645l2.328-5.74c0.699-1.783,1.402-3.623,1.889-5.428
		l-4.52-0.574v-0.16h8.888v0.131l-2.747,0.604c-0.61,0.979-1.865,3.836-2.564,5.582l-5.072,12.506
		c-0.614,1.49-1.194,3.012-1.618,4.504h-0.217c-0.516-1.553-1.159-3.268-1.832-4.859l-4.73-11.482
		c-0.885-2.158-1.93-4.352-2.995-6.287l-2.627-0.537v-0.16h10.415v0.16L56.458,49.619z M53.403,49.486l8.522,20.762l0.548-1.273
		l-8.033-19.488H53.403z"/>
	<path fill-rule="evenodd" clip-rule="evenodd" fill="#757676" d="M75.025,48.884H90.91l0.362,4.828h-0.21l-1.1-3.777
		c-0.858-0.066-1.896-0.098-2.839-0.098c-1.956,0-3.544,0.156-4.673,0.416c-0.128,1.012-0.309,3.199-0.309,5.74
		c0,1.047,0.028,2.318,0.123,3.268c1.068,0.066,2.075,0.098,3.021,0.098c1.16,0,2.384-0.031,3.482-0.162l0.672-2.664h0.245v6.635
		h-0.245l-0.701-2.82c-1.038-0.135-1.896-0.162-2.84-0.162c-1.189,0-2.261,0.027-3.604,0.188c-0.093,0.924-0.154,2.129-0.154,2.955
		c0,1.871,0.092,5.168,0.275,6.689c1.376,0.449,3.178,0.574,4.762,0.574c0.828,0,1.715,0,2.871-0.125l1.191-3.746h0.215
		l-0.304,4.859H75.055v-0.162l3.544-0.539c0.275-1.588,0.522-7.455,0.522-9.488v-3.9c0-1.373-0.123-5.111-0.431-7.908l-3.665-0.535
		V48.884z M79.549,70.974h1.038V49.486h-1.038V70.974z"/>
	<path fill-rule="evenodd" clip-rule="evenodd" fill="#757676" d="M92.895,49.046v-0.162h7.545c0.977,1.398,2.655,3.523,4.029,5.076
		l6.689,7.746c1.28,1.459,2.471,2.857,3.969,4.314c0.095-1.111,0.186-2.732,0.186-3.742v-6.695c0-2.002-0.124-4.219-0.366-5.965
		l-3.635-0.572v-0.162h8.888v0.162l-3.635,0.572c-0.186,1.516-0.273,3.838-0.273,5.578v16.977h-0.15
		c-1.499-1.994-2.968-3.803-4.521-5.615l-9.135-10.564c-1.102-1.236-2.324-2.537-3.421-3.586c-0.151,1.211-0.245,2.635-0.245,3.932
		v9.807c0,1.592,0.15,3.332,0.305,4.697l3.785,0.574v0.16H93.84v-0.16l3.664-0.537c0.245-1.557,0.338-5.619,0.338-6.855v-7.588
		c0-1.744-0.062-3.682-0.214-5.303l-1.987-1.516L92.895,49.046z M97.353,49.457l18.021,20.816V68.82L98.607,49.457H97.353z"/>
	<path fill-rule="evenodd" clip-rule="evenodd" fill="#757676" d="M141,71.638c-0.369-0.029-1.375-0.123-2.078-0.123
		c-1.557,0-2.717,0.256-4.215,0.256c-8.432,0-12.094-5.971-12.094-11.301c0-7.111,4.914-11.869,11.389-11.869
		c0.98,0,1.771,0.061,2.631,0.09c0.885,0.064,1.832,0.133,3.08,0.133c1.316,0,2.387,0,3.119-0.133l0.183,5.176h-0.183l-1.012-3.424
		c-1.189-0.285-3.754-0.764-6.048-0.764c-6.322,0-9.649,4.158-9.649,10.312c0,6.604,4.734,10.6,10.082,10.6
		c2.26,0,4.824-0.537,6.838-3.27l0.152,0.068L141,71.638z M136.447,71.128c-8.397,0.193-12.094-5.49-12.094-10.85
		c0-5.082,3.086-11.107,11.058-11.107h1.036v-0.223h-1.74c-7.18,0-11.486,5.174-11.486,11.484c0,5.752,4.459,11.521,13.227,10.889
		V71.128z"/>
	<path fill-rule="evenodd" clip-rule="evenodd" fill="#757676" d="M145.877,48.837h15.881l0.367,4.83h-0.215l-1.101-3.777
		c-0.852-0.066-1.89-0.098-2.839-0.098c-1.953,0-3.545,0.154-4.673,0.414c-0.119,1.014-0.306,3.201-0.306,5.74
		c0,1.049,0.033,2.318,0.121,3.27c1.069,0.066,2.079,0.098,3.025,0.098c1.16,0,2.379-0.031,3.482-0.162l0.676-2.664h0.241v6.633
		h-0.241l-0.709-2.82c-1.037-0.135-1.889-0.16-2.838-0.16c-1.191,0-2.259,0.025-3.605,0.188c-0.094,0.924-0.152,2.129-0.152,2.955
		c0,1.869,0.092,5.166,0.273,6.689c1.375,0.449,3.178,0.574,4.766,0.574c0.824,0,1.709,0,2.869-0.125l1.194-3.746h0.21L162,71.535
		h-16.092v-0.164l3.541-0.537c0.271-1.588,0.521-7.457,0.521-9.488v-3.9c0-1.373-0.123-5.111-0.428-7.908l-3.666-0.535V48.837z
		 M150.395,70.929h1.038V49.441h-1.038V70.929z"/>
</g>
</svg>
