<svg xmlns="http://www.w3.org/2000/svg" width="162.305" height="72.21" viewBox="0 0 162.305 72.21"><g fill-rule="evenodd" clip-rule="evenodd" fill="#757676"><path d="M12.269 11.656h.14l-.452 3.811H0v-.102l2.391-.37c.228-1.067.396-5.183.396-6.382V5.979c0-1.674-.108-4.199-.294-5.353L.021.258V.156h7.607v.102L5.132.626c-.165 1.283-.309 3.77-.309 5.742v4.499c0 1.045.084 2.503.165 3.378 1.174.393 2.289.539 3.547.539 1.343 0 2.351-.17 2.682-.283l1.052-2.845zm-9.197 3.407h.7V.537h-.7v14.526z"/><path d="M20.332 0l4.328 10.799a40.476 40.476 0 0 0 1.98 4.199l1.672.365v.104h-7.114v-.104l2.743-.365c-.207-1.392-.805-3.144-1.465-4.369h-6.308c-.454 1.202-1.237 3.188-1.423 4.369l2.638.365v.104h-5.626v-.104l1.853-.365c.433-.766.887-1.752 1.238-2.673L19.504 0h.828zm-3.897 9.925c.927.124 1.919.146 2.887.146.947 0 1.916-.022 2.885-.146-.533-1.629-1.814-4.78-2.969-6.988-.927 1.864-2.368 5.853-2.803 6.988zm2.967-7.863l5.216 13h.682L19.732 1.188l-.33.874zM18.314 48.89h8.285c6.478 0 8.271 4.373 8.271 7.627 0 4.479-3.034 7.691-7.342 7.691h-9.275v-.107l2.456-.363c.244-1.354.366-5.012.366-6.189v-2.725c0-1.691-.102-3.961-.267-5.441l-2.494-.381v-.112zm3.052 14.908h.699V49.294h-.699v14.504zm4.036-14.265c-1.252 0-1.646.154-2.039.256-.084.648-.244 2.914-.244 4.35v6.104c0 .793.058 1.951.142 2.746.845.426 2.103.596 3.067.596 2.889 0 6.15-2.225 6.15-7.045.001-4.992-3.423-7.007-7.076-7.007zm-.387-.385v.109c3.134 0 4.887.9 5.938 1.988 1.109 1.156 1.935 3.018 1.935 5.316 0 5.291-3.895 7.277-6.268 7.277h-.764v.113h.764c4.599 0 7.053-3.498 7.053-7.367 0-2.492-1.013-4.332-2.065-5.406-.655-.703-2.303-2.031-5.996-2.031h-.597zM36.004 48.892h10.719l.246 3.252h-.144l-.742-2.547a25.992 25.992 0 0 0-1.919-.068c-1.316 0-2.391.113-3.151.281a34.874 34.874 0 0 0-.207 3.879c0 .705.021 1.562.081 2.209.726.039 1.402.061 2.041.061.785 0 1.609-.021 2.352-.104l.452-1.803h.165v4.473h-.165l-.47-1.9a15.006 15.006 0 0 0-1.921-.107c-.801 0-1.527.021-2.433.125a22.33 22.33 0 0 0-.102 1.994c0 1.266.062 3.488.186 4.521.927.301 2.145.381 3.216.381.555 0 1.155 0 1.937-.08l.803-2.531h.144l-.203 3.281H36.025v-.107l2.391-.363c.186-1.072.351-5.035.351-6.402v-2.635c0-.932-.083-3.453-.293-5.338l-2.469-.361v-.111zm3.05 14.906h.701V49.296h-.701v14.502zM16.735 20.731c1.56 0 3.145-.124 4.705-.252l.305 4.979h-.186l-1.096-3.646a15.203 15.203 0 0 0-2.812-.257c-1.526 0-2.811.163-4.52.604a78.021 78.021 0 0 0-.366 6.814v5.153c0 2.696.18 6.54.458 8.571l3.726.566v.16H5.677v-.16l3.635-.566c.248-1.877.458-5.652.458-8.28v-5.628c0-2.219-.12-4.789-.33-6.629-1.898-.509-3.943-.569-4.375-.569a18.15 18.15 0 0 0-2.99.283l-1.101 3.68H.796l.303-5.074c.885.06 1.8.252 2.683.252h12.953zm-6.534 22.093h1.01V21.305h-1.01v21.519zM47.008 32.026c0 5.438-4.182 11.555-11.912 11.555-8.674 0-12.214-6.852-12.214-11.493 0-6.025 4.671-11.673 11.941-11.673 8.855.001 12.185 7.045 12.185 11.611zM34.213 20.857c-5.742.095-10.723 5.206-10.723 11.169 0 5.499 4.522 10.893 10.753 11.084v-.162c-6.108-.566-9.648-5.809-9.648-10.83 0-5.714 3.754-10.527 9.619-11.1v-.161zm-7.849 11.108c0 7.371 4.582 10.572 8.578 10.572 4.521 0 8.584-3.682 8.584-10.16 0-9.451-5.987-10.916-8.613-10.916-4.577 0-8.549 3.833-8.549 10.504zm9.346 11.146c5.009-.191 9.527-4.131 9.527-11.084 0-7.555-4.978-11.037-9.562-11.169v.162c3.484.287 8.464 2.627 8.464 11.1 0 4.927-2.198 10.263-8.429 10.83v.161zM51.961 28.219c0-2.283-.186-4.861-.372-6.817l-3.113-.509v-.163H59.35v.163l-3.912.509c-.275 1.93-.456 7.105-.456 8.59v6.393c0 4.821 3.173 6.188 6.412 6.188 3.635 0 6.387-1.713 6.387-6.697v-6.641c0-1.775-.154-5.934-.429-7.833l-3.882-.509v-.163h10.814v.163l-3.053.509c-.244 1.33-.428 5.006-.428 7.296v7.495c0 2.377-.554 3.967-1.647 5.108-1.499 1.553-3.425 2.346-7.884 2.346-5.314 0-9.311-1.678-9.311-6.783v-8.645zm.428 8.644c0 3.611 2.256 6.15 8.059 6.373v-.191c-4.094-.219-7.025-2.318-7.025-6.759V21.307h-1.034v15.556zm15.819-.864c0 3.938-1.56 6.536-5.808 7.045v.191c4.704-.285 6.846-2.57 6.846-7.207V21.307h-1.038v14.692zM78.928 29.396c0-2.386-.186-6.095-.428-7.965l-3.512-.54v-.161h9.801c6.139 0 7.361 4.794 7.361 6.347 0 3.076-2.289 5.013-4.426 5.301.824.347 1.31.757 1.68 1.149 1.523 1.621 4.395 6.788 5.985 8.442.853.887 1.647 1.299 2.476 1.299v.16h-2.598c-1.225 0-2.412-.256-3.449-1.359-1.318-1.344-4.277-6.451-5.592-7.844-.794-.821-1.283-1.116-2.717-1.116-.214 0-.946 0-1.469.095a17.77 17.77 0 0 0-.091 1.877v2.858c0 1.59.186 3.236.396 4.789l3.695.541v.16H74.988v-.16l3.449-.541c.305-2.316.491-7.332.491-8.538v-4.794zm1.466-8.06h-1.041v21.488h1.041V21.336zm1.556 8.311c0 .852.058 2.126.091 2.51.551.088 1.164.088 1.65.088 4 0 5.256-2.437 5.256-4.852 0-3.528-2.906-5.802-5.314-5.802-.275 0-.859 0-1.316.156-.181 1.142-.367 3.994-.367 5.36v2.54zm5.009 2.375c1.988-.505 3.541-2.375 3.541-4.852 0-3.938-3.327-6.087-6.352-6.087h-.733v.154c4.431.098 6.047 3.738 6.047 6.25 0 2.091-.946 3.614-2.597 4.479l.094.056zm-1.252 1.017c.672.458 1.158 1.09 1.617 1.753l3.209 4.889c1.341 2.062 2.413 3.174 4.243 3.209v-.164c-.946-.285-1.865-1.398-3.054-3.143l-2.598-3.872c-1.037-1.553-1.801-2.479-3.354-2.797l-.063.125zM56.458 49.619c.642 2.348 1.77 5.33 2.622 7.391l2.082 5.014c.61 1.496 1.4 3.078 2.044 4.408.827-1.521 1.863-3.898 2.562-5.645l2.328-5.74c.699-1.783 1.402-3.623 1.889-5.428l-4.52-.574v-.16h8.888v.131l-2.747.604c-.61.979-1.865 3.836-2.564 5.582L63.97 67.708c-.614 1.49-1.194 3.012-1.618 4.504h-.217a67.345 67.345 0 0 0-1.832-4.859l-4.73-11.482a62.595 62.595 0 0 0-2.995-6.287l-2.627-.537v-.16h10.415v.16l-3.908.572zm-3.055-.133l8.522 20.762.548-1.273-8.033-19.488h-1.037zM75.025 48.884H90.91l.362 4.828h-.21l-1.1-3.777a39.038 39.038 0 0 0-2.839-.098c-1.956 0-3.544.156-4.673.416-.128 1.012-.309 3.199-.309 5.74 0 1.047.028 2.318.123 3.268 1.068.066 2.075.098 3.021.098 1.16 0 2.384-.031 3.482-.162l.672-2.664h.245v6.635h-.245l-.701-2.82c-1.038-.135-1.896-.162-2.84-.162-1.189 0-2.261.027-3.604.188a33.245 33.245 0 0 0-.154 2.955c0 1.871.092 5.168.275 6.689 1.376.449 3.178.574 4.762.574.828 0 1.715 0 2.871-.125l1.191-3.746h.215l-.304 4.859H75.055v-.162l3.544-.539c.275-1.588.522-7.455.522-9.488v-3.9c0-1.373-.123-5.111-.431-7.908l-3.665-.535v-.164zm4.524 22.09h1.038V49.486h-1.038v21.488zM92.895 49.046v-.162h7.545c.977 1.398 2.655 3.523 4.029 5.076l6.689 7.746c1.28 1.459 2.471 2.857 3.969 4.314.095-1.111.186-2.732.186-3.742v-6.695c0-2.002-.124-4.219-.366-5.965l-3.635-.572v-.162h8.888v.162l-3.635.572c-.186 1.516-.273 3.838-.273 5.578v16.977h-.15a110.914 110.914 0 0 0-4.521-5.615l-9.135-10.564c-1.102-1.236-2.324-2.537-3.421-3.586a33.174 33.174 0 0 0-.245 3.932v9.807c0 1.592.15 3.332.305 4.697l3.785.574v.16h-9.07v-.16l3.664-.537c.245-1.557.338-5.619.338-6.855v-7.588c0-1.744-.062-3.682-.214-5.303l-1.987-1.516-2.746-.573zm4.458.411l18.021 20.816V68.82L98.607 49.457h-1.254zM141 71.638c-.369-.029-1.375-.123-2.078-.123-1.557 0-2.717.256-4.215.256-8.432 0-12.094-5.971-12.094-11.301 0-7.111 4.914-11.869 11.389-11.869.98 0 1.771.061 2.631.09.885.064 1.832.133 3.08.133 1.316 0 2.387 0 3.119-.133l.183 5.176h-.183l-1.012-3.424c-1.189-.285-3.754-.764-6.048-.764-6.322 0-9.649 4.158-9.649 10.312 0 6.604 4.734 10.6 10.082 10.6 2.26 0 4.824-.537 6.838-3.27l.152.068L141 71.638zm-4.553-.51c-8.397.193-12.094-5.49-12.094-10.85 0-5.082 3.086-11.107 11.058-11.107h1.036v-.223h-1.74c-7.18 0-11.486 5.174-11.486 11.484 0 5.752 4.459 11.521 13.227 10.889v-.193zM145.877 48.837h15.881l.367 4.83h-.215l-1.101-3.777a38.8 38.8 0 0 0-2.839-.098c-1.953 0-3.545.154-4.673.414a52.95 52.95 0 0 0-.306 5.74c0 1.049.033 2.318.121 3.27 1.069.066 2.079.098 3.025.098 1.16 0 2.379-.031 3.482-.162l.676-2.664h.241v6.633h-.241l-.709-2.82c-1.037-.135-1.889-.16-2.838-.16-1.191 0-2.259.025-3.605.188a32.844 32.844 0 0 0-.152 2.955c0 1.869.092 5.166.273 6.689 1.375.449 3.178.574 4.766.574.824 0 1.709 0 2.869-.125l1.194-3.746h.21L162 71.535h-16.092v-.164l3.541-.537c.271-1.588.521-7.457.521-9.488v-3.9c0-1.373-.123-5.111-.428-7.908l-3.666-.535v-.166zm4.518 22.092h1.038V49.441h-1.038v21.488z"/></g></svg>