<?xml version="1.0" encoding="utf-8"?>
<!-- Generator: Adobe Illustrator 16.0.0, SVG Export Plug-In . SVG Version: 6.00 Build 0)  -->
<!DOCTYPE svg PUBLIC "-//W3C//DTD SVG 1.1//EN" "http://www.w3.org/Graphics/SVG/1.1/DTD/svg11.dtd">
<svg version="1.1" id="Layer_1" xmlns="http://www.w3.org/2000/svg" xmlns:xlink="http://www.w3.org/1999/xlink" x="0px" y="0px"
	 width="558.781px" height="649.593px" viewBox="0 0 558.781 649.593" enable-background="new 0 0 558.781 649.593"
	 xml:space="preserve">
<g>
	<g>
		<path fill="#757777" d="M486.971,92.402C383.697-22.255,207.034-31.464,92.406,71.811
			C-22.25,175.086-31.46,351.718,71.786,466.376c49.609,55.055,119.028,88.156,193.024,92.037
			c73.996,3.852,146.514-21.836,201.569-71.418C581.036,383.72,590.246,207.059,486.971,92.402z M454.651,473.964
			c-107.475,96.787-273.044,88.127-369.833-19.316C-11.969,347.201-3.339,181.631,104.136,84.814
			c107.445-96.788,273.016-88.128,369.803,19.317C570.756,211.577,562.096,377.175,454.651,473.964z"/>
	</g>
	<path fill="#757777" d="M308.456,473.298l-27.978-154.538l-27.976,154.538c-2.114,11.699-13.322,19.49-25.051,17.348
		c-5.619-1.014-10.601-4.229-13.844-8.92c-3.271-4.691-4.518-10.484-3.504-16.104l36.462-201.336l-11.699-59.747l-25.746,88.563
		c-1.941,6.574-8.833,10.368-15.408,8.457c-6.574-1.94-10.368-8.804-8.457-15.407l35.999-123.75
		c2.433-8.37,10.106-14.104,18.796-14.104h80.831c8.717,0,16.362,5.734,18.795,14.104l36.027,123.75
		c1.912,6.603-1.882,13.496-8.456,15.407c-6.604,1.911-13.496-1.883-15.407-8.457l-25.775-88.563l-11.671,59.747l36.462,201.336
		c2.114,11.701-5.677,22.908-17.377,25.021C321.778,492.789,310.57,484.998,308.456,473.298z"/>
	<path fill="#757777" d="M314.393,100.135c0,13.728-8.283,26.094-20.938,31.336c-12.686,5.242-27.252,2.346-36.954-7.356
		c-9.702-9.702-12.599-24.298-7.356-36.954c5.242-12.685,17.608-20.939,31.335-20.939
		C299.217,66.221,314.393,81.397,314.393,100.135z"/>
	<path fill="#757777" d="M521.122,17.843c11.363,0,19.822,8.761,19.822,19.822c0,11.06-8.459,19.821-19.822,19.821
		c-11.361,0-19.82-8.761-19.82-19.821C501.301,26.604,509.76,17.843,521.122,17.843 M521.122,14.181
		c-13.256,0-23.481,10.288-23.481,23.479c0,13.19,10.227,23.489,23.481,23.489c13.258,0,23.483-10.298,23.483-23.489
		C544.606,24.469,534.379,14.181,521.122,14.181z M515.947,39.174h5.618l7.638,12.057h3.915l-8.081-12.057
		c3.662-0.631,6.817-2.777,6.817-7.575c0-4.861-2.714-7.512-8.837-7.512h-10.416v27.144h3.346V39.174z M515.947,36.334v-9.406h6.123
		c3.282,0,6.438,0.883,6.438,4.671c0,4.608-4.04,4.734-8.144,4.734L515.947,36.334L515.947,36.334z"/>
	<path fill="#757777" d="M465.118,648.142l0.005-52.797h13.689v7.146h0.195c3.569-5.42,9.647-8.65,16.138-8.576
		c1.68-0.012,3.351,0.162,4.993,0.52c4.618,0.873,8.514,3.957,10.426,8.254c3.496-5.418,9.483-8.715,15.927-8.771
		c2.523-0.033,5.038,0.281,7.476,0.943c4.053,1.006,7.499,3.652,9.516,7.309c1.646,3.301,2.444,6.959,2.315,10.643v35.332h-14.51
		l-0.004-29.92c0.009-1.223-0.024-2.439-0.1-3.658c-0.062-1.602-0.374-3.182-0.915-4.689c-0.586-1.658-1.833-3-3.442-3.715
		c-1.399-0.574-2.904-0.846-4.419-0.795c-0.314-0.004-0.632,0.008-0.946,0.027c-1.764,0.062-3.469,0.658-4.886,1.709
		c-1.393,1.141-2.406,2.674-2.918,4.398c-0.689,2.346-1.011,4.785-0.943,7.234l-0.004,29.406h-14.505l-0.005-29.611
		c0.018-1.305,0.005-2.605-0.037-3.906c-0.021-1.588-0.286-3.164-0.785-4.67c-0.573-1.713-1.851-3.102-3.514-3.812
		c-1.409-0.561-2.923-0.826-4.438-0.775c-3.438,0.045-6.581,1.949-8.22,4.973c-1.117,2.219-1.662,4.686-1.575,7.17l-0.004,30.635
		h-14.51V648.142z"/>
	<g>
		<path fill="#757777" d="M456.035,602.742c-4.73-5.344-11.448-8.512-18.583-8.746c-0.813-0.055-1.634-0.084-2.451-0.08
			c-6.951-0.24-13.732,2.184-18.962,6.768c-5.063,4.902-8.012,11.586-8.228,18.629c-0.054,0.828-0.079,1.654-0.079,2.486
			c-0.245,7.018,2.104,13.877,6.598,19.273c4.822,5.258,11.582,8.309,18.717,8.451c0.647,0.037,1.301,0.055,1.953,0.055
			c6.98,0.24,13.785-2.174,19.053-6.76c5.062-4.867,8.022-11.529,8.238-18.555c0.056-0.818,0.085-1.643,0.085-2.465
			C462.612,614.888,460.363,608.128,456.035,602.742z M446.104,631.558c-1.102,2.748-3.243,4.955-5.957,6.145
			c-1.634,0.654-3.384,0.979-5.146,0.949c-2.596,0.086-5.147-0.684-7.264-2.191c-2.069-1.643-3.584-3.887-4.328-6.424
			c-0.823-2.668-1.218-5.449-1.177-8.238c-0.083-3.367,0.516-6.715,1.759-9.844c1.035-2.6,2.989-4.725,5.492-5.977
			c1.729-0.787,3.616-1.176,5.518-1.139c2.617-0.092,5.195,0.678,7.333,2.191c2.027,1.592,3.521,3.762,4.28,6.229
			c0.887,2.756,1.311,5.641,1.261,8.537C447.953,625.134,447.352,628.457,446.104,631.558z"/>
		<path fill="#757777" d="M381.089,593.996c-0.818-0.055-1.634-0.084-2.452-0.08c-6.951-0.24-13.732,2.184-18.961,6.768
			c-5.063,4.902-8.015,11.586-8.231,18.629c-0.054,0.828-0.078,1.654-0.078,2.486c-0.241,7.018,2.106,13.877,6.597,19.273
			c4.822,5.258,11.586,8.309,18.716,8.451c0.652,0.037,1.306,0.055,1.958,0.055c6.976,0.24,13.785-2.174,19.048-6.76
			c5.062-4.867,8.022-11.529,8.244-18.555c0.054-0.818,0.079-1.643,0.079-2.465c0.239-6.91-2.01-13.67-6.34-19.057
			C394.942,597.398,388.219,594.23,381.089,593.996z M389.741,631.558c-1.103,2.748-3.242,4.955-5.962,6.145
			c-1.634,0.654-3.384,0.979-5.143,0.949c-2.595,0.086-5.146-0.684-7.263-2.191c-2.074-1.643-3.588-3.887-4.328-6.424
			c-0.822-2.668-1.221-5.449-1.18-8.238c-0.078-3.367,0.521-6.715,1.763-9.844c1.031-2.6,2.984-4.725,5.488-5.977
			c1.732-0.787,3.615-1.176,5.521-1.139c2.619-0.092,5.192,0.678,7.333,2.191c2.024,1.592,3.521,3.762,4.277,6.229
			c0.886,2.756,1.31,5.641,1.26,8.537C391.587,625.134,390.988,628.457,389.741,631.558z"/>
	</g>
	<path fill="#757777" d="M203.204,590.96l0.004-15.73h14.504l0.004,15.627c0.449,8.65-5.903,16.164-14.509,17.156v-6.742
		c0.541-0.18,1.072-0.396,1.588-0.645c1.938-0.854,3.467-2.424,4.277-4.379c0.633-1.688,0.928-3.482,0.869-5.283L203.204,590.96z"/>
	<path fill="#757777" d="M217.712,630.982h13.785c0.004,0.189,0.013,0.377,0.028,0.564c0.101,2.83,1.7,5.396,4.199,6.73
		c2.128,1.102,4.502,1.645,6.901,1.588c0.603,0,1.206-0.039,1.804-0.105c1.75-0.152,3.442-0.707,4.943-1.617
		c1.746-1.061,2.79-2.973,2.744-5.014c0.004-0.578-0.116-1.156-0.35-1.684c-0.407-0.822-1.026-1.521-1.792-2.025
		c-1.127-0.734-2.341-1.32-3.617-1.736c-3.505-1.113-7.07-2.021-10.68-2.719c-1.338-0.287-2.665-0.615-3.982-0.99
		c-2.743-0.697-5.35-1.842-7.72-3.389c-3.263-2.137-5.175-5.818-5.046-9.719c-0.083-2.906,0.606-5.783,1.996-8.336
		c1.833-3.037,4.66-5.346,7.998-6.535c4.166-1.486,8.568-2.193,12.987-2.082c3.233-0.041,6.46,0.328,9.599,1.105
		c3.667,0.822,7.005,2.729,9.587,5.463c2.461,2.881,3.903,6.498,4.099,10.289h-13.789c-0.062-1.135-0.354-2.244-0.864-3.26
		c-0.79-1.455-2.101-2.557-3.667-3.084c-1.729-0.582-3.546-0.854-5.371-0.803h-0.3c-1.514-0.018-3.019,0.203-4.465,0.652
		c-0.915,0.281-1.733,0.807-2.374,1.518c-0.629,0.764-0.956,1.732-0.924,2.723c-0.013,0.721,0.17,1.432,0.524,2.059
		c0.49,0.799,1.172,1.455,1.987,1.916c1.305,0.736,2.703,1.293,4.152,1.664l9.77,2.219c2.59,0.549,5.126,1.318,7.583,2.295
		c2.485,0.943,4.706,2.475,6.473,4.457c1.841,2.273,2.797,5.139,2.694,8.061c0.028,2.143-0.305,4.271-0.985,6.295
		c-1.509,4.211-4.71,7.6-8.826,9.354c-4.511,1.926-9.387,2.861-14.292,2.74c-3.247,0.027-6.484-0.342-9.641-1.1
		c-4.136-0.889-7.911-2.996-10.842-6.043c-2.756-3.186-4.29-7.246-4.332-11.453h0.004V630.982z"/>
	<path fill="#757777" d="M149.393,648.142l0.004-52.797h13.79l0.004,7.352h0.295c3.492-5.529,9.6-8.855,16.139-8.779
		c1.021-0.004,2.049,0.037,3.071,0.125c3.061,0.166,6.036,1.039,8.701,2.557c2.939,1.836,5.105,4.689,6.086,8.012
		c1.064,3.586,1.552,7.318,1.447,11.061l-0.004,32.473h-14.504l-0.004-29.82c0-0.664-0.018-1.33-0.05-1.994
		c-0.047-2.107-0.457-4.191-1.215-6.158c-0.618-1.617-1.796-2.963-3.312-3.795c-1.463-0.723-3.08-1.068-4.71-1.01
		c-0.814-0.008-1.625,0.051-2.432,0.158c-1.806,0.199-3.514,0.918-4.914,2.068c-1.381,1.256-2.379,2.877-2.876,4.674
		c-0.74,2.668-1.077,5.434-1.003,8.201l-0.004,27.676h-14.51V648.142z"/>
	<g>
		<path fill="#757777" d="M351.326,644.193c-0.694-3.037-1.085-6.137-1.17-9.248l-0.206-4.062c-0.143-3.357-0.883-6.664-2.185-9.766
			c-1.351-3.234-4.003-5.754-7.3-6.943c-0.374-0.133-0.752-0.248-1.135-0.35v-0.189c4.136-1.518,7.545-4.549,9.523-8.49
			c1.409-3.066,2.101-6.418,2.013-9.795c0.149-10.021-7.264-18.553-17.212-19.799c-1.366-0.217-2.746-0.324-4.132-0.324
			l-39.317,0.004l-0.004,72.912h16.045l0.004-28.484h16.021c1.976-0.055,3.941,0.24,5.809,0.873
			c2.166,0.791,3.906,2.436,4.816,4.549c0.778,1.783,1.289,3.67,1.522,5.604l1.03,10.824c0.199,2.17,0.678,4.307,1.408,6.357
			l0.117,0.281l16.034-0.004C352.223,646.933,351.654,645.593,351.326,644.193z M333.806,603.294
			c-0.928,2.01-2.665,3.531-4.777,4.18c-1.69,0.535-3.453,0.789-5.225,0.748H306.24v-20.537h17.564
			c1.99-0.059,3.974,0.273,5.841,0.973c2.419,0.939,4.206,3.018,4.776,5.551c0.291,1.176,0.433,2.381,0.415,3.592
			C334.898,599.687,334.546,601.562,333.806,603.294z"/>
		<path fill="#757777" d="M121.653,593.919l-0.541-0.004c-13.752-0.361-25.425,10.006-26.7,23.703
			c-0.176,1.385-0.263,2.783-0.263,4.178c-0.245,7.213,2.24,14.26,6.963,19.723c4.835,5.066,11.517,7.965,18.521,8.027
			c0.495,0.021,0.99,0.029,1.479,0.029c5.106,0.17,10.148-1.119,14.547-3.709c4.336-2.848,7.633-7.021,9.387-11.896
			c0.282-0.717,0.544-1.439,0.781-2.172h-12.768c-0.366,1.141-1.006,2.176-1.867,3.01c-2.56,2.486-5.998,3.863-9.568,3.83
			c-2.407,0.078-4.797-0.432-6.963-1.484c-2.351-1.26-4.116-3.385-4.936-5.918c-0.647-1.926-1.006-3.936-1.06-5.963h38.08
			c0.693-7.699-1.318-15.398-5.691-21.771C136.515,597.357,129.29,593.787,121.653,593.919z M108.649,616.078
			c0.097-6.164,5.08-11.137,11.245-11.221c0.271-0.014,0.541-0.018,0.812-0.018c2.004-0.064,3.99,0.363,5.787,1.252
			c1.812,1.006,3.245,2.578,4.09,4.473c0.802,1.756,1.363,3.609,1.667,5.518L108.649,616.078z"/>
	</g>
	<polygon fill="#757777" points="12.971,648.142 12.975,575.23 35.549,575.23 52.602,625.367 52.797,625.367 68.931,575.23 
		91.504,575.23 91.504,648.142 76.489,648.142 76.485,596.482 76.294,596.482 58.422,648.148 46.058,648.148 28.19,596.988 
		27.995,596.988 27.991,648.142 12.971,648.142 	"/>
</g>
</svg>
