<?xml version="1.0" encoding="utf-8"?>
<!-- Generator: Adobe Illustrator 16.0.0, SVG Export Plug-In . SVG Version: 6.00 Build 0)  -->
<!DOCTYPE svg PUBLIC "-//W3C//DTD SVG 1.1//EN" "http://www.w3.org/Graphics/SVG/1.1/DTD/svg11.dtd">
<svg version="1.1" id="Layer_1" xmlns="http://www.w3.org/2000/svg" xmlns:xlink="http://www.w3.org/1999/xlink" x="0px" y="0px"
	 width="268.658px" height="54.707px" viewBox="0 0 268.658 54.707" enable-background="new 0 0 268.658 54.707"
	 xml:space="preserve">
<g>
	<path fill-rule="evenodd" clip-rule="evenodd" fill="#757676" d="M89.354,42.583c0,0.326,0.07,1.783,0.278,2.84
		c-0.093,0.219-0.719,0.291-0.881,0.127c-0.624-1.691-2.107-2.604-4.354-2.604c-2.573,0-5.33,1.73-5.33,5.354
		c0,3.621,2.666,5.57,5.443,5.57c2.805,0,4.102-1.584,4.728-2.822c0.186-0.146,0.741-0.09,0.881,0.127
		c-0.163,1.348-0.557,2.439-0.881,2.857c-1.25,0.275-2.896,0.674-4.702,0.674c-2.271,0-4.588-0.418-6.234-1.383
		c-1.667-1-2.939-2.514-2.939-4.77c0-2.221,1.203-3.785,2.803-4.826c1.644-1.072,4.007-1.617,6.417-1.617
		C86.945,42.111,88.66,42.546,89.354,42.583"/>
	<path fill-rule="evenodd" clip-rule="evenodd" fill="#757676" d="M112.359,48.353c0,3.969-3.383,6.354-8.362,6.354
		c-4.658,0-8.04-2.402-8.04-6.207c0-3.604,3.429-6.389,8.271-6.389C109.048,42.111,112.359,44.658,112.359,48.353 M104.043,42.947
		c-2.85,0-4.379,2.094-4.379,5.135c0,2.221,0.996,5.787,4.771,5.787c3.036,0,4.219-2.33,4.219-5.277
		C108.654,45.478,106.915,42.947,104.043,42.947"/>
	<path fill-rule="evenodd" clip-rule="evenodd" fill="#757676" d="M133.28,52.359c0,0.764,0.046,1.129,0.486,1.201
		c0.093,0.072,0.07,0.383-0.069,0.436c-0.394,0.057-0.997,0.111-1.62,0.275c-0.812,0.199-2.806,0.436-4.102,0.436
		c-1.576,0-2.919-0.127-4.564-0.637c-2.711-0.855-4.565-2.877-4.565-5.498c0-2.275,1.299-4.277,4.078-5.498
		c1.576-0.674,3.452-0.963,5.423-0.963c2.571,0,3.846,0.436,4.586,0.436c0.069,0.547,0.093,1.82,0.324,2.932
		c-0.093,0.199-0.719,0.217-0.881,0.035c-0.74-1.711-2.2-2.566-4.354-2.566c-3.685,0-5.468,2.402-5.468,5.279
		c0,2.604,1.134,4.15,2.642,4.951c1.11,0.584,2.315,0.693,3.174,0.693c1.319,0,1.598-0.201,1.598-1.385v-1.148
		c0-0.98-0.14-1.09-1.25-1.219l-1.021-0.107c-0.255-0.109-0.255-0.529,0-0.639c1.644,0.037,2.78,0.055,3.916,0.055
		c1.11,0,2.246-0.018,3.034-0.055c0.186,0.109,0.186,0.529,0,0.639l-0.533,0.07c-0.695,0.111-0.834,0.275-0.834,1.256V52.359z"/>
	<path fill-rule="evenodd" clip-rule="evenodd" fill="#757676" d="M154.665,51.32c0,1.186,0,2.332,0.046,2.934
		c-0.162,0.217-0.812,0.418-1.367,0.418c-0.023,0-0.788-0.93-1.876-1.984l-5.353-5.207c-1.319-1.311-2.108-2.057-2.525-2.33
		c-0.116,0.182-0.116,0.492-0.116,1.166v3.531c0,1.473,0.094,2.84,0.349,3.33c0.208,0.383,0.741,0.492,1.344,0.584l0.647,0.072
		c0.186,0.145,0.139,0.527,0,0.637c-1.25-0.035-2.177-0.055-3.104-0.055c-0.857,0-1.713,0.02-2.595,0.055
		c-0.139-0.109-0.185-0.492,0-0.637l0.395-0.053c0.626-0.111,1.066-0.221,1.275-0.604c0.231-0.49,0.322-1.857,0.322-3.33v-4.625
		c0-1,0-1.293-0.16-1.547c-0.162-0.309-0.51-0.49-1.321-0.619l-0.649-0.072c-0.162-0.146-0.139-0.584,0.093-0.639
		c1.09,0.037,2.249,0.055,3.197,0.055c0.788,0,1.46-0.018,1.945-0.055c0.231,0.82,1.738,2.203,3.825,4.152l1.945,1.803
		c1.043,0.945,1.691,1.584,2.223,2c0.093-0.182,0.093-0.49,0.093-0.818V46.97c0-1.475-0.093-2.84-0.348-3.332
		c-0.206-0.381-0.717-0.49-1.343-0.582l-0.625-0.072c-0.186-0.146-0.14-0.527,0-0.639c1.249,0.037,2.153,0.055,3.104,0.055
		c0.858,0,1.69-0.018,2.595-0.055c0.139,0.111,0.186,0.492,0,0.639l-0.417,0.053c-0.602,0.111-1.041,0.221-1.25,0.602
		c-0.257,0.492-0.348,1.857-0.348,3.332V51.32z"/>
	<path fill-rule="evenodd" clip-rule="evenodd" fill="#757676" d="M166.433,50.302c-0.554,0-0.623,0.018-0.765,0.363l-0.855,2.111
		c-0.142,0.365-0.162,0.51-0.162,0.656c0,0.109,0.184,0.217,0.832,0.309l0.695,0.092c0.14,0.129,0.186,0.545-0.046,0.637
		c-0.812-0.035-1.736-0.035-2.71-0.055c-0.788,0-1.319,0.055-2.386,0.055c-0.256-0.109-0.232-0.492-0.07-0.637l0.626-0.055
		c0.555-0.055,1.042-0.201,1.412-0.91c0.418-0.729,0.812-1.602,1.438-2.914l2.085-4.441c0.556-1.146,0.973-1.783,0.903-2.312
		c1.113-0.199,1.969-1.09,2.015-1.09c0.302,0,0.44,0.09,0.533,0.363c0.186,0.527,0.464,1.201,1.044,2.492l3.15,7.139
		c0.486,1.092,0.695,1.492,1.553,1.619l0.879,0.109c0.14,0.092,0.186,0.527-0.022,0.637c-1.111-0.035-2.363-0.055-3.568-0.055
		c-1.157,0-2.062,0.02-3.128,0.055c-0.253-0.109-0.301-0.492-0.046-0.637l0.742-0.092c0.533-0.072,0.625-0.199,0.625-0.309
		c0-0.129-0.162-0.564-0.439-1.238l-0.627-1.566c-0.115-0.291-0.301-0.326-1.112-0.326H166.433z M168.913,49.337
		c0.531,0,0.671-0.055,0.462-0.527l-0.601-1.475c-0.324-0.785-0.626-1.529-0.834-1.912c-0.232,0.4-0.604,1.164-0.951,2.004
		l-0.579,1.363c-0.232,0.492-0.093,0.547,0.486,0.547H168.913z"/>
	<path fill-rule="evenodd" clip-rule="evenodd" fill="#757676" d="M195.531,42.583c0,0.326,0.071,1.783,0.278,2.84
		c-0.091,0.219-0.719,0.291-0.879,0.127c-0.626-1.691-2.107-2.604-4.356-2.604c-2.571,0-5.329,1.73-5.329,5.354
		c0,3.621,2.665,5.57,5.445,5.57c2.803,0,4.101-1.584,4.725-2.822c0.188-0.146,0.742-0.09,0.883,0.127
		c-0.164,1.348-0.558,2.439-0.883,2.857c-1.25,0.275-2.896,0.674-4.701,0.674c-2.271,0-4.588-0.418-6.232-1.383
		c-1.669-1-2.941-2.514-2.941-4.77c0-2.221,1.205-3.785,2.803-4.826c1.644-1.072,4.008-1.617,6.417-1.617
		C193.122,42.111,194.836,42.546,195.531,42.583"/>
	<path fill-rule="evenodd" clip-rule="evenodd" fill="#757676" d="M0,0v32.271h14.235c8.7,0,11.606-0.125,14.102-0.945
		c4.65-1.59,6.736-5.348,6.736-8.371c0-1.787-0.771-6.116-7.9-7.728l-0.499-0.108l0.483-0.166c3.608-1.225,5.853-3.877,5.853-6.913
		c0-2.488-1.624-4.812-4.464-6.379C25.973,0.235,22.816,0,16.712,0H0z M8.198,12.816V5.208h5.093c6.194,0,7.147,0,8.399,0.281
		c2.434,0.505,3.297,2.253,3.297,3.594c0,3.877-5.372,3.877-7.393,3.877H8.198V12.816z M8.198,26.909v-8.735h7.04
		c6.083,0,11.341,0,11.341,4.602c0,1.335-0.62,3.091-3.583,3.911c-1.317,0.367-4.854,0.367-6.758,0.367h-8.04V26.909z M43.915,7.263
		v25.008h6.303V21.707h1.473c4.483,0,4.989,0.571,8.888,5.042c0.057,0.058,4.816,5.575,4.816,5.575s6.962-0.049,7.515-0.053
		c-0.341-0.422-3.797-4.709-3.797-4.709c-3.233-3.988-4.523-4.943-7.271-6.145l-0.521-0.228l0.571-0.12
		c1.187-0.095,2.409-0.355,3.626-0.765c3.016-0.97,4.888-3.3,4.888-6.083c0-2.224-1.371-5.21-5.249-6.325
		c-0.958-0.243-2.571-0.634-7.47-0.634H43.915z M50.218,17.822v-6.57h5.318c4.486,0,5.293,0,6.561,0.572
		c1.147,0.525,1.777,1.489,1.777,2.712c0,0.906-0.34,2.51-2.629,3.106c-1.157,0.322-3.949,0.322-5.983,0.322h-5.044V17.822z
		 M88.826,7.261c-0.071,0.151-12.417,24.602-12.624,25.01h6.81v-0.008c0-0.176,2.577-5.632,2.577-5.632L98.81,26.55
		c0.126,0.077,2.966,5.799,2.966,5.799s6.433-0.072,6.873-0.074c-0.213-0.408-13.032-25.093-13.032-25.093S89,7.261,88.826,7.261z
		 M87.605,22.357l4.565-9.672l4.762,9.877h-9.426L87.605,22.357z M122.238,7.551c-0.077,0.15-12.423,24.595-12.626,25.007h6.813
		v-0.004c0-0.18,2.571-5.631,2.571-5.631l13.221-0.087c0.131,0.083,2.971,5.798,2.971,5.798s6.43-0.068,6.862-0.076
		c-0.207-0.404-13.026-25.086-13.026-25.086S122.41,7.551,122.238,7.551z M121.012,22.644l4.568-9.67l4.758,9.873h-9.425
		L121.012,22.644z M159.318,6.838c4.461,0,11.944,0.978,12.371,7.388c-0.831,0.024-6.317,0.206-6.324,0.311
		c-0.278-1.319-0.8-3.78-6.14-3.78c-2.619,0-5.682,0.697-5.682,2.654c0,1.777,2.295,2.492,7.467,3.429
		c4.904,0.904,11.625,2.135,11.625,8.228c0,3.21-2.728,5.623-5.26,6.505c-2.065,0.744-4.646,1.123-7.69,1.123
		c-2.964,0-11.925-0.018-13.321-8.382c0.869-0.062,6.079-0.446,6.089-0.548c0.334,1.355,1.215,4.944,7.276,4.944
		c4.556,0,6.6-1.831,6.6-3.642c0-2.271-2.473-2.731-8.51-3.86c-3.344-0.658-10.31-2.017-10.31-7.444
		C147.51,12.608,148.081,6.838,159.318,6.838z M201.912,7.263v3.989h-9.705v21.019h-6.304V11.252H176.2V7.263H201.912z
		 M214.971,7.261c-0.081,0.151-12.423,24.602-12.628,25.01h6.812c0,0-0.004-0.004-0.004-0.008c0-0.176,2.577-5.632,2.577-5.632
		l13.221-0.081c0.129,0.077,2.969,5.799,2.969,5.799s6.426-0.072,6.871-0.074c-0.216-0.408-13.031-25.093-13.031-25.093
		S215.137,7.261,214.971,7.261z M213.742,22.357l4.572-9.672l4.758,9.877h-9.429L213.742,22.357z M241.482,7.263v25.008h12.259
		c2.054,0,7.505,0,10.801-2.793c4.116-3.452,4.116-7.978,4.116-9.461c0-5.214-1.903-7.542-2.71-8.532
		c-3.485-4.222-8.925-4.222-12.525-4.222H241.482z M247.783,28.142v-16.89h3.12c6.521,0,11.216,0,11.216,8.548
		c0,8.485-4.487,8.485-9.247,8.485h-5.089V28.142z"/>
</g>
</svg>
