<svg xmlns="http://www.w3.org/2000/svg" width="268.658" height="54.707" viewBox="0 0 268.658 54.707"><g fill-rule="evenodd" clip-rule="evenodd" fill="#757676"><path d="M89.354 42.583c0 .326.07 1.783.278 2.84-.093.219-.719.291-.881.127-.624-1.691-2.107-2.604-4.354-2.604-2.573 0-5.33 1.73-5.33 5.354 0 3.621 2.666 5.57 5.443 5.57 2.805 0 4.102-1.584 4.728-2.822.186-.146.741-.09.881.127-.163 1.348-.557 2.439-.881 2.857-1.25.275-2.896.674-4.702.674-2.271 0-4.588-.418-6.234-1.383-1.667-1-2.939-2.514-2.939-4.77 0-2.221 1.203-3.785 2.803-4.826 1.644-1.072 4.007-1.617 6.417-1.617 2.362.001 4.077.436 4.771.473M112.359 48.353c0 3.969-3.383 6.354-8.362 6.354-4.658 0-8.04-2.402-8.04-6.207 0-3.604 3.429-6.389 8.271-6.389 4.82 0 8.131 2.547 8.131 6.242m-8.316-5.406c-2.85 0-4.379 2.094-4.379 5.135 0 2.221.996 5.787 4.771 5.787 3.036 0 4.219-2.33 4.219-5.277 0-3.114-1.739-5.645-4.611-5.645M133.28 52.359c0 .764.046 1.129.486 1.201.093.072.07.383-.069.436-.394.057-.997.111-1.62.275-.812.199-2.806.436-4.102.436-1.576 0-2.919-.127-4.564-.637-2.711-.855-4.565-2.877-4.565-5.498 0-2.275 1.299-4.277 4.078-5.498 1.576-.674 3.452-.963 5.423-.963 2.571 0 3.846.436 4.586.436.069.547.093 1.82.324 2.932-.093.199-.719.217-.881.035-.74-1.711-2.2-2.566-4.354-2.566-3.685 0-5.468 2.402-5.468 5.279 0 2.604 1.134 4.15 2.642 4.951 1.11.584 2.315.693 3.174.693 1.319 0 1.598-.201 1.598-1.385v-1.148c0-.98-.14-1.09-1.25-1.219l-1.021-.107c-.255-.109-.255-.529 0-.639 1.644.037 2.78.055 3.916.055 1.11 0 2.246-.018 3.034-.055.186.109.186.529 0 .639l-.533.07c-.695.111-.834.275-.834 1.256v1.021zM154.665 51.32c0 1.186 0 2.332.046 2.934-.162.217-.812.418-1.367.418-.023 0-.788-.93-1.876-1.984l-5.353-5.207c-1.319-1.311-2.108-2.057-2.525-2.33-.116.182-.116.492-.116 1.166v3.531c0 1.473.094 2.84.349 3.33.208.383.741.492 1.344.584l.647.072c.186.145.139.527 0 .637-1.25-.035-2.177-.055-3.104-.055-.857 0-1.713.02-2.595.055-.139-.109-.185-.492 0-.637l.395-.053c.626-.111 1.066-.221 1.275-.604.231-.49.322-1.857.322-3.33v-4.625c0-1 0-1.293-.16-1.547-.162-.309-.51-.49-1.321-.619l-.649-.072c-.162-.146-.139-.584.093-.639 1.09.037 2.249.055 3.197.055.788 0 1.46-.018 1.945-.055.231.82 1.738 2.203 3.825 4.152l1.945 1.803c1.043.945 1.691 1.584 2.223 2 .093-.182.093-.49.093-.818V46.97c0-1.475-.093-2.84-.348-3.332-.206-.381-.717-.49-1.343-.582l-.625-.072c-.186-.146-.14-.527 0-.639 1.249.037 2.153.055 3.104.055.858 0 1.69-.018 2.595-.055.139.111.186.492 0 .639l-.417.053c-.602.111-1.041.221-1.25.602-.257.492-.348 1.857-.348 3.332v4.349zM166.433 50.302c-.554 0-.623.018-.765.363l-.855 2.111c-.142.365-.162.51-.162.656 0 .109.184.217.832.309l.695.092c.14.129.186.545-.046.637-.812-.035-1.736-.035-2.71-.055-.788 0-1.319.055-2.386.055-.256-.109-.232-.492-.07-.637l.626-.055c.555-.055 1.042-.201 1.412-.91.418-.729.812-1.602 1.438-2.914l2.085-4.441c.556-1.146.973-1.783.903-2.312 1.113-.199 1.969-1.09 2.015-1.09.302 0 .44.09.533.363.186.527.464 1.201 1.044 2.492l3.15 7.139c.486 1.092.695 1.492 1.553 1.619l.879.109c.14.092.186.527-.022.637a116.428 116.428 0 0 0-3.568-.055c-1.157 0-2.062.02-3.128.055-.253-.109-.301-.492-.046-.637l.742-.092c.533-.072.625-.199.625-.309 0-.129-.162-.564-.439-1.238l-.627-1.566c-.115-.291-.301-.326-1.112-.326h-2.596zm2.48-.965c.531 0 .671-.055.462-.527l-.601-1.475c-.324-.785-.626-1.529-.834-1.912-.232.4-.604 1.164-.951 2.004l-.579 1.363c-.232.492-.093.547.486.547h2.017zM195.531 42.583c0 .326.071 1.783.278 2.84-.091.219-.719.291-.879.127-.626-1.691-2.107-2.604-4.356-2.604-2.571 0-5.329 1.73-5.329 5.354 0 3.621 2.665 5.57 5.445 5.57 2.803 0 4.101-1.584 4.725-2.822.188-.146.742-.09.883.127-.164 1.348-.558 2.439-.883 2.857-1.25.275-2.896.674-4.701.674-2.271 0-4.588-.418-6.232-1.383-1.669-1-2.941-2.514-2.941-4.77 0-2.221 1.205-3.785 2.803-4.826 1.644-1.072 4.008-1.617 6.417-1.617 2.361.001 4.075.436 4.77.473M0 0v32.271h14.235c8.7 0 11.606-.125 14.102-.945 4.65-1.59 6.736-5.348 6.736-8.371 0-1.787-.771-6.116-7.9-7.728l-.499-.108.483-.166c3.608-1.225 5.853-3.877 5.853-6.913 0-2.488-1.624-4.812-4.464-6.379C25.973.235 22.816 0 16.712 0H0zm8.198 12.816V5.208h5.093c6.194 0 7.147 0 8.399.281 2.434.505 3.297 2.253 3.297 3.594 0 3.877-5.372 3.877-7.393 3.877H8.198v-.144zm0 14.093v-8.735h7.04c6.083 0 11.341 0 11.341 4.602 0 1.335-.62 3.091-3.583 3.911-1.317.367-4.854.367-6.758.367h-8.04v-.145zM43.915 7.263v25.008h6.303V21.707h1.473c4.483 0 4.989.571 8.888 5.042.057.058 4.816 5.575 4.816 5.575l7.515-.053-3.797-4.709c-3.233-3.988-4.523-4.943-7.271-6.145l-.521-.228.571-.12a15.208 15.208 0 0 0 3.626-.765c3.016-.97 4.888-3.3 4.888-6.083 0-2.224-1.371-5.21-5.249-6.325-.958-.243-2.571-.634-7.47-.634H43.915zm6.303 10.559v-6.57h5.318c4.486 0 5.293 0 6.561.572 1.147.525 1.777 1.489 1.777 2.712 0 .906-.34 2.51-2.629 3.106-1.157.322-3.949.322-5.983.322h-5.044v-.142zM88.826 7.261c-.071.151-12.417 24.602-12.624 25.01h6.81v-.008c0-.176 2.577-5.632 2.577-5.632l13.221-.081c.126.077 2.966 5.799 2.966 5.799s6.433-.072 6.873-.074L95.617 7.182s-6.617.079-6.791.079zm-1.221 15.096l4.565-9.672 4.762 9.877h-9.426l.099-.205zm34.633-14.806c-.077.15-12.423 24.595-12.626 25.007h6.813v-.004c0-.18 2.571-5.631 2.571-5.631l13.221-.087c.131.083 2.971 5.798 2.971 5.798s6.43-.068 6.862-.076c-.207-.404-13.026-25.086-13.026-25.086s-6.614.079-6.786.079zm-1.226 15.093l4.568-9.67 4.758 9.873h-9.425l.099-.203zm38.306-15.806c4.461 0 11.944.978 12.371 7.388-.831.024-6.317.206-6.324.311-.278-1.319-.8-3.78-6.14-3.78-2.619 0-5.682.697-5.682 2.654 0 1.777 2.295 2.492 7.467 3.429 4.904.904 11.625 2.135 11.625 8.228 0 3.21-2.728 5.623-5.26 6.505-2.065.744-4.646 1.123-7.69 1.123-2.964 0-11.925-.018-13.321-8.382.869-.062 6.079-.446 6.089-.548.334 1.355 1.215 4.944 7.276 4.944 4.556 0 6.6-1.831 6.6-3.642 0-2.271-2.473-2.731-8.51-3.86-3.344-.658-10.31-2.017-10.31-7.444.001-1.156.572-6.926 11.809-6.926zm42.594.425v3.989h-9.705v21.019h-6.304V11.252H176.2V7.263h25.712zm13.059-.002c-.081.151-12.423 24.602-12.628 25.01h6.812s-.004-.004-.004-.008c0-.176 2.577-5.632 2.577-5.632l13.221-.081c.129.077 2.969 5.799 2.969 5.799s6.426-.072 6.871-.074c-.216-.408-13.031-25.093-13.031-25.093s-6.621.079-6.787.079zm-1.229 15.096l4.572-9.672 4.758 9.877h-9.429l.099-.205zm27.74-15.094v25.008h12.259c2.054 0 7.505 0 10.801-2.793 4.116-3.452 4.116-7.978 4.116-9.461 0-5.214-1.903-7.542-2.71-8.532-3.485-4.222-8.925-4.222-12.525-4.222h-11.941zm6.301 20.879v-16.89h3.12c6.521 0 11.216 0 11.216 8.548 0 8.485-4.487 8.485-9.247 8.485h-5.089v-.143z"/></g></svg>