<?xml version="1.0" encoding="utf-8"?>
<!-- Generator: Adobe Illustrator 16.0.0, SVG Export Plug-In . SVG Version: 6.00 Build 0)  -->
<!DOCTYPE svg PUBLIC "-//W3C//DTD SVG 1.1//EN" "http://www.w3.org/Graphics/SVG/1.1/DTD/svg11.dtd">
<svg version="1.1" id="Layer_1" xmlns="http://www.w3.org/2000/svg" xmlns:xlink="http://www.w3.org/1999/xlink" x="0px" y="0px"
	 width="476.44px" height="150.774px" viewBox="0 0 476.44 150.774" enable-background="new 0 0 476.44 150.774"
	 xml:space="preserve">
<g display="none">
	<path display="inline" fill="#FFFFFF" d="M70.935,1.413c-1.041,1.229-1.242,2.963-0.511,4.399
		c8.837,17.351,1.9,40.654-6.963,49.722C45.908,73.496,5.225,65.17,4.816,65.084c-1.523-0.321-3.095,0.27-4.028,1.516
		c-0.933,1.246-1.06,2.92-0.323,4.291c11.604,21.591,28.688,35.188,49.408,39.321c19.008,3.791,34.173-1.513,35.839-2.131
		c6.336-2.348,37.672-16.236,32.246-59.251C113.386,12.593,76.746,0.67,75.189,0.181C73.652-0.302,71.976,0.184,70.935,1.413z
		 M69.183,61.126c7.836-8.019,13.275-22.5,13.275-37.024c0-4.289-0.537-8.562-1.564-12.694c10.124,5.349,26.44,17.133,29.126,38.422
		c0.388,3.07,0.567,5.966,0.567,8.696c0,29.352-20.788,39.51-27.655,42.054c-0.455,0.169-43.465,15.414-71.106-26.331
		C25.957,75.907,53.859,76.805,69.183,61.126z"/>
</g>
<g display="none">
	<path display="inline" fill="#FFFFFF" d="M258.417,10.229c3.42,0,5.219,1.62,6.119,3.421c0.721,1.979,0.361,3.96-1.439,6.84
		c-6.66,11.34-21.779,28.62-30.78,38.341c-9,9.9-19.44,21.06-21.6,24.12c-3.06,4.14-1.44,6.84-1.44,8.64
		c0,3.42-6.12,7.561-9.72,7.561c-2.16,0-5.76-2.521-5.76-7.021c0-2.88,1.8-5.22,4.14-7.02c2.16-1.62,3.06-2.521,3.78-3.24
		c0.9-1.26,2.34-3.24,5.58-6.84c17.1-18.541,33.839-39.781,36.9-44.102c3.061-4.14,5.939-8.46,5.939-10.439
		c0-1.261-1.439-1.8-4.5-1.98c-5.398-0.359-14.219-0.18-17.819-0.18c-4.14,0-6.3,1.08-7.2,2.52c-0.9,1.261-2.16,1.98-4.14,1.98
		c-4.86,0-12.42-3.78-12.42-7.021c0-2.52,4.5-6.3,8.28-6.3c1.8,0,4.32,0.181,6.48,0.72c1.8,0.36,2.52,0.36,7.56,0.54
		c4.14,0.181,27.541-0.54,31.861-0.54H258.417z"/>
	<path display="inline" fill="#FFFFFF" d="M218.635,83.401c1.8,0,3.69,2.25,3.69,3.689c0,1.98-2.97,4.23-5.4,4.23
		c-1.35,0-2.79-1.62-2.79-3.061c0-1.89,2.34-4.859,4.41-4.859H218.635z"/>
	<path display="inline" fill="#FFFFFF" d="M297.025,50.26c-0.004-0.016-0.006-0.041-0.011-0.059
		c-0.004-0.02-0.014-0.035-0.019-0.056L297.025,50.26z M176.637,58.001c0.001,0.001,0.001,0.003,0.003,0.004
		c0.026,0.034,0.062,0.071,0.087,0.104L176.637,58.001z M300.096,54.213c1.521,0.818,2.521,0.549,3.093,0.177
		c0.419-0.272,1.106-0.938,1-2.335c-0.078-1.568,0.072-4.115,0.59-6.182c0.297-1.067,0.116-2.135-0.517-2.967
		c-0.729-0.957-1.989-1.506-3.46-1.506h-0.09c-3.411,0-3.978,2.754-4.106,4.826v0.055c0,1.736,0.137,2.986,0.408,3.92
		C297.41,51.957,298.471,53.346,300.096,54.213z M299.252,58.309c0.023,0.023,0.034,0.063,0.057,0.088
		c0.025,0.031,0.061,0.042,0.085,0.075L299.252,58.309z M189.56,70.417c-0.489-0.079-1.445-0.029-2.362,1.192
		c-6.805,8.808-13.386,14.971-15.99,14.971c-0.598,0-0.876-0.267-1.034-0.468c-0.233-0.296-0.609-1.019-0.609-2.588
		c0-0.99,0.15-2.318,0.581-4.09c0.847-3.473,2.508-8.173,4.134-11.695c0.503-1.173,1.135-2.13,1.746-3.057l0.956-1.514l0.012-0.048
		c0.236-0.54,0.652-1.49,0.652-2.562c0-0.823-0.246-1.718-1.004-2.554c-0.576-0.745-1.479-1.666-2.913-1.666
		c-1.448,0-2.364,1.221-2.91,1.952l-0.061,0.081l-0.05,0.089c-0.253,0.455-0.614,0.809-0.989,0.97
		c-0.976,0.434-1.751,0.922-4.456,2.974c-1.952,1.48-6.699,5.932-10.261,9.893c0.882-2.912,1.938-5.89,2.678-7.266
		c0.21-0.374,0.893-1.587,1.314-1.671c1.818-0.363,2.015-1.778,2.015-2.37c0-1.782-1.671-5.192-4.29-5.192h-0.09
		c-2.06,0-3.496,1.268-5.122,4.521c-1.114,2.166-2.878,7.082-4.766,13.918c-5.698,5.694-14.198,11.173-19.361,11.173
		c-2.479,0-3-2.121-3-3.9c0-0.862,0.127-1.71,0.303-2.487c0.668,0.279,1.396,0.478,2.157,0.478c4.068,0,7.835-1.893,11.195-5.626
		c2.037-2.251,3.355-5.649,3.355-8.654c0-3.225-1.938-5.464-4.818-5.746c-0.002-0.01-0.006-0.019-0.008-0.028h0.002l-0.002-0.001
		c-0.34-1.266-1.418-2.476-3.333-2.476c-4.847,0-11.182,9.583-11.245,9.679c-3.538,5.354-5.826,11.578-5.826,15.853v0.09
		c0,7.41,4.727,10.05,9.15,10.05c6.093,0,13.223-3.625,18.909-8.307c-0.041,0.181-0.083,0.356-0.124,0.539
		c-0.415,1.764-0.718,4.121,0.221,5.248c0.281,0.378,1.281,1.71,2.863,1.71c1.749,0,2.933-1.777,3.906-3.444
		c1.256-2.318,5.81-10.026,13.958-17.585c-0.714,2.135-1.529,4.885-2.144,7.889c-0.423,1.954-0.632,3.782-0.632,5.447
		c0,3.068,0.711,5.585,2.108,7.316c1.227,1.521,2.95,2.357,4.854,2.357c4.341,0,11.474-3.088,20.797-17.798
		c0.83-1.205,1.252-2.292,1.252-3.229c0-0.398-0.099-0.762-0.252-1.104C190.764,71.006,190.235,70.528,189.56,70.417z
		 M136.436,59.427c0.005,0.004,0.011,0.015,0.016,0.02c-0.068-0.006-0.119-0.042-0.188-0.045
		C136.264,59.402,136.352,59.415,136.436,59.427z M132.786,65.01c0.317,0,0.923,0.536,0.923,1.83
		c-0.067,2.642-3.33,5.338-6.61,5.566C128.64,68.976,131.685,65.107,132.786,65.01z M475.128,69.065
		c-0.64-0.236-1.605-0.162-2.396,0.758c-6.028,7.049-15.619,14.57-18.15,14.843c-0.04-0.13-0.084-0.34-0.084-0.779
		c0-0.758,0.148-2.08,0.752-4.326c2.028-7.611,7.077-21.497,14.634-35.591c0.703-1.257,1.373-2.645,1.373-4.119
		c0-1.098-0.371-2.243-1.377-3.416c-0.567-0.764-1.621-1.064-2.398-1.064c-0.932,0-1.877,0.491-2.593,1.348
		c-0.704,0.882-3.518,5.12-11.038,23.711c-2.299,5.584-3.896,10.294-4.998,14.09c-5.693,5.592-14.002,10.893-19.08,10.893
		c-2.479,0-3-2.121-3-3.9c0-0.863,0.127-1.711,0.303-2.487c0.669,0.279,1.396,0.478,2.156,0.478c4.069,0,7.836-1.893,11.195-5.627
		c2.037-2.25,3.355-5.648,3.355-8.653c0-3.225-1.938-5.464-4.818-5.746c-0.002-0.01-0.006-0.019-0.008-0.028h0.002l-0.003-0.001
		c-0.339-1.266-1.417-2.476-3.333-2.476c-4.844,0-10.985,9.284-11.244,9.679c-1.633,2.471-2.981,5.122-3.98,7.687
		c-6.06,7.425-10.517,11.166-13.305,11.166c-0.641,0-0.803-0.19-0.863-0.262c-0.225-0.262-0.428-0.841-0.428-2.081
		c0-0.847,0.095-2.002,0.343-3.573c0.821-5.009,2.41-9.619,3.538-11.78c0.437-0.81,0.866-1.23,1.32-1.676
		c0,0,0.124-0.122,0.174-0.171c0.963-0.779,1.764-1.562,1.908-3.019l0.008-0.074v-0.074c0-2.438-1.991-4.83-4.02-4.83
		c-1.07,0-2.306,0.692-3.672,2.06c-1.107,1.107-9.822,10.739-15.9,17.462c1.391-3.94,4.086-11.447,4.764-13.146
		c0.36-0.941,0.539-1.867,0.539-2.733c0-1.094-0.285-2.094-0.848-2.911c-0.674-0.979-1.659-1.541-2.703-1.541h-0.09
		c-1,0-2.147,0.65-3.721,2.109c-0.001,0.001-5.01,4.919-5.01,4.919c-3.878,3.878-7.782,8.606-11.583,13.266
		c1.053-3.733,2.883-10.06,4.27-12.696c0.496-0.991,0.744-1.933,0.744-2.834c0-1.359-0.564-2.628-1.693-3.838
		c-0.527-0.616-1.354-1.377-2.718-1.377c-2.759,0-3.647,3.446-4.234,5.725l-0.182,0.691c-0.412,1.479-0.615,2.608-0.652,3.442
		c-0.062,0.255-0.204,0.852-0.204,0.852l-0.142,0.688c-0.59,1.89-1.208,3.917-1.793,5.896c-6.201,7.649-10.752,11.508-13.582,11.508
		c-0.641,0-0.803-0.19-0.863-0.262c-0.225-0.262-0.428-0.841-0.428-2.081c0-0.847,0.095-2.002,0.343-3.573
		c0.821-5.009,2.41-9.619,3.538-11.78c0.437-0.81,0.866-1.23,1.32-1.676c0,0,0.124-0.122,0.174-0.171
		c0.963-0.779,1.764-1.562,1.908-3.019l0.008-0.074v-0.074c0-2.438-1.991-4.83-4.02-4.83c-1.07,0-2.306,0.692-3.672,2.06
		c-1.107,1.107-9.822,10.739-15.9,17.462c1.391-3.94,4.086-11.447,4.764-13.146c0.36-0.941,0.539-1.867,0.539-2.733
		c0-1.094-0.285-2.094-0.848-2.911c-0.674-0.979-1.659-1.541-2.703-1.541h-0.09c-1,0-2.147,0.65-3.721,2.109
		c-0.001,0.001-5.01,4.919-5.01,4.919c-3.878,3.878-7.782,8.606-11.583,13.266c1.053-3.733,2.883-10.06,4.27-12.696
		c0.496-0.991,0.744-1.933,0.744-2.834c0-1.359-0.564-2.628-1.693-3.838c-0.527-0.616-1.354-1.377-2.718-1.377
		c-2.759,0-3.647,3.446-4.234,5.725l-0.182,0.691c-0.412,1.479-0.615,2.608-0.652,3.442c-0.062,0.255-0.204,0.852-0.204,0.852
		l-0.142,0.688c-0.471,1.509-0.96,3.105-1.437,4.695c-7.608,7.578-13.876,12.168-16.729,12.168c0,0-0.184-0.021-0.194-0.022
		c0,0,0.001-0.001,0.001-0.003c0-0.026-0.043-0.162-0.043-0.476c0-0.376,0.062-1.01,0.335-2.018
		c1.609-5.339,4.891-13.503,8.025-18.697c0.537-0.879,0.766-1.783,0.766-2.619c0-1.107-0.413-2.078-1.023-2.729
		c-0.586-0.733-1.355-1.156-2.196-1.156c-3.632,0-8.333,9.408-8.378,9.503c-0.502,1.198-0.741,2.074-0.854,3.082
		c0.012-0.081-0.471,1.761-0.471,1.761c-0.09,0.245-0.192,0.532-0.299,0.837c-4.42,4.971-12.443,12.16-15.558,12.419
		c-0.041-0.137-0.085-0.355-0.085-0.805c0-0.683,0.115-1.806,0.553-3.614c1.627-6.424,4.594-14.314,6.108-17.534
		c0.379-0.834,0.52-1.536,0.52-2.118c0-0.722-0.216-1.26-0.46-1.639c-0.561-0.871-1.544-1.352-2.767-1.352h-0.09
		c-3.001,0-4.917,1.415-7.344,3.206l-0.563,0.414c-2.702,2.215-8.085,7.172-11.526,10.543c4.043-14.046,8.386-24.477,12.918-30.877
		c0.664-0.845,0.895-1.637,0.895-2.336c0-1.191-0.668-2.112-0.995-2.562c-1.189-1.785-2.514-2.059-3.194-2.059
		c-1.553,0-2.985,1.351-4.646,4.378c-2.208,3.449-6.196,12.847-8.84,20.863c-2.923,9.032-7.044,23.565-7.352,25.926
		c-0.221,1.404-0.595,4.938,0.813,6.582c0.48,0.562,1.136,0.872,1.844,0.872c2.416,0,4.36-1.865,4.727-4.536l-0.024,0.133
		c0.234-1.018,0.622-2.309,1.718-4.163c1.355-2.281,6.398-8.618,13.663-14.499c-0.839,2.69-1.944,6.666-2.654,10.297
		c-0.435,2.432-0.651,4.517-0.651,6.271c0,2.653,0.497,4.548,1.494,5.738c0.762,0.909,1.788,1.39,2.969,1.39
		c3.361,0,9.544-3.846,14.874-8.61c-0.065,1.428,0.226,2.866,0.884,4.181c1.429,2.654,3.084,3.979,4.941,3.979h0.09
		c1.355,0,2.977-0.502,5.42-1.679c2.683-1.197,6.622-3.963,10.365-7.235c-0.028,0.154-0.056,0.306-0.076,0.437
		c-0.071,0.646-0.105,1.261-0.105,1.842c0,2.188,0.493,3.898,1.434,4.947c0.612,0.683,1.402,1.059,2.225,1.059
		c1.334,0,2.557-1.091,4.098-2.852c0.032-0.039,1.994-2.469,1.994-2.469c2.78-3.455,9.464-11.761,12.347-14.826
		c-0.121,0.388-0.225,0.722-0.225,0.722c-0.929,2.967-2.332,7.449-2.753,9.205c-0.479,1.71-0.834,3.695-0.834,5.443
		c0,1.462,0.248,2.759,0.88,3.592c0.491,0.647,1.185,1.004,1.952,1.004c1.516,0,2.759-0.966,4.66-2.869
		c2.163-2.236,8.271-9.11,12.169-13.531c-0.337,1.517-0.636,3.139-0.856,4.905c-0.129,1.001-0.186,1.918-0.186,2.76
		c0,3.81,1.179,6.044,2.284,7.301c1.224,1.39,2.892,2.155,4.698,2.155c3.018,0,7.579-1.965,12.563-6.91
		c-0.002,0.118-0.021,0.249-0.021,0.364c0,2.188,0.493,3.898,1.434,4.947c0.612,0.683,1.402,1.059,2.225,1.059
		c1.334,0,2.557-1.091,4.098-2.852c0.032-0.039,1.994-2.469,1.994-2.469c2.78-3.455,9.464-11.761,12.347-14.826
		c-0.121,0.388-0.225,0.722-0.225,0.722c-0.929,2.967-2.332,7.449-2.753,9.205c-0.479,1.71-0.834,3.695-0.834,5.443
		c0,1.462,0.248,2.759,0.88,3.592c0.491,0.647,1.185,1.004,1.952,1.004c1.516,0,2.759-0.966,4.66-2.869
		c2.163-2.236,8.271-9.11,12.169-13.531c-0.337,1.517-0.636,3.139-0.856,4.905c-0.129,1.001-0.186,1.918-0.186,2.76
		c0,3.81,1.179,6.044,2.284,7.301c1.224,1.39,2.892,2.155,4.698,2.155c3.196,0,8.123-2.197,13.453-7.816
		c0.919,5.575,5.054,7.636,8.957,7.636c6.125,0,13.298-3.662,18.998-8.38c-0.048,0.448-0.068,0.792-0.068,1.03v0.09
		c0,4.274,1.911,7.26,4.648,7.26c7.354,0,20.327-12.364,23.835-17.583c0.866-1.347,1.335-2.722,1.335-3.896
		C476.451,70.17,475.944,69.368,475.128,69.065z M438.83,59.427c0.005,0.004,0.012,0.015,0.017,0.02
		c-0.067-0.006-0.119-0.042-0.188-0.045C438.659,59.402,438.746,59.415,438.83,59.427z M435.181,65.01
		c0.316,0,0.922,0.536,0.922,1.83c-0.066,2.642-3.329,5.337-6.609,5.566C431.034,68.976,434.079,65.107,435.181,65.01z M191,71.571
		c0.017,0.033,0.01,0.075,0.024,0.108c0.013,0.034,0.044,0.052,0.056,0.087L191,71.571z"/>
</g>
<g>
	<g>
		<g>
			<g>
				<g>
					<g>
						<path fill="#757777" d="M70.942,1.416c-1.039,1.23-1.24,2.963-0.51,4.4c8.838,17.348,1.9,40.648-6.963,49.721
							C45.917,73.497,5.237,65.17,4.827,65.083c-1.523-0.318-3.096,0.271-4.029,1.518c-0.93,1.246-1.059,2.92-0.32,4.293
							c11.602,21.59,28.684,35.186,49.404,39.316c19.008,3.791,34.174-1.51,35.84-2.131c6.334-2.346,37.668-16.234,32.242-59.25
							C113.391,12.594,76.752,0.672,75.198,0.186C73.659-0.299,71.983,0.186,70.942,1.416 M69.192,61.127
							c7.836-8.02,13.275-22.499,13.275-37.024c0-4.287-0.539-8.559-1.564-12.695c10.123,5.354,26.439,17.135,29.123,38.42
							c0.387,3.074,0.566,5.969,0.566,8.702c0,29.346-20.785,39.504-27.652,42.049c-0.455,0.168-43.463,15.412-71.105-26.33
							C25.967,75.909,53.868,76.807,69.192,61.127"/>
						<path fill="#757777" d="M258.417,10.23c3.42,0,5.219,1.621,6.121,3.424c0.717,1.979,0.359,3.959-1.439,6.838
							c-6.662,11.338-21.779,28.619-30.779,38.338c-8.998,9.9-19.441,21.059-21.6,24.121c-3.061,4.139-1.439,6.838-1.439,8.637
							c0,3.422-6.121,7.562-9.719,7.562c-2.162,0-5.76-2.52-5.76-7.021c0-2.881,1.799-5.219,4.139-7.02
							c2.16-1.617,3.061-2.52,3.777-3.24c0.902-1.258,2.344-3.24,5.58-6.838c17.102-18.542,33.842-39.784,36.898-44.1
							c3.062-4.143,5.941-8.459,5.941-10.439c0-1.26-1.439-1.799-4.502-1.98c-5.398-0.359-14.215-0.178-17.818-0.178
							c-4.139,0-6.299,1.08-7.197,2.516c-0.9,1.264-2.162,1.982-4.143,1.982c-4.857,0-12.416-3.781-12.416-7.021
							c0-2.518,4.498-6.297,8.277-6.297c1.799,0,4.32,0.18,6.48,0.717c1.801,0.363,2.52,0.363,7.559,0.541
							c4.139,0.184,27.537-0.541,31.859-0.541H258.417z"/>
						<path fill="#757777" d="M218.635,83.401c1.799,0,3.689,2.25,3.689,3.689c0,1.982-2.969,4.23-5.398,4.23
							c-1.352,0-2.793-1.619-2.793-3.061c0-1.891,2.34-4.859,4.414-4.859H218.635z"/>
						<path fill="#757777" d="M297.022,50.26c-0.002-0.016-0.006-0.039-0.01-0.059c-0.006-0.018-0.014-0.035-0.02-0.057
							L297.022,50.26z M176.641,58.002c0,0.002,0,0.002,0.002,0.004c0.027,0.033,0.061,0.068,0.09,0.105L176.641,58.002z
							 M300.094,54.215c1.52,0.818,2.52,0.549,3.092,0.174c0.422-0.27,1.107-0.936,1-2.332c-0.078-1.57,0.07-4.119,0.59-6.182
							c0.299-1.068,0.115-2.135-0.516-2.969c-0.729-0.955-1.988-1.504-3.461-1.504h-0.088c-3.412,0-3.98,2.756-4.107,4.826v0.055
							c0,1.732,0.135,2.984,0.408,3.918C297.409,51.959,298.469,53.346,300.094,54.215 M299.249,58.311
							c0.027,0.023,0.037,0.062,0.059,0.086c0.025,0.033,0.059,0.043,0.086,0.074L299.249,58.311z M189.563,70.418
							c-0.49-0.078-1.445-0.029-2.363,1.193c-6.805,8.805-13.387,14.967-15.99,14.967c-0.596,0-0.875-0.264-1.031-0.465
							c-0.234-0.299-0.611-1.02-0.611-2.588c0-0.99,0.152-2.318,0.582-4.092c0.844-3.473,2.508-8.17,4.135-11.695
							c0.5-1.17,1.135-2.127,1.744-3.055l0.955-1.514l0.014-0.049c0.234-0.539,0.652-1.49,0.652-2.561
							c0-0.826-0.246-1.721-1.006-2.555c-0.574-0.746-1.479-1.665-2.91-1.665c-1.449,0-2.363,1.221-2.912,1.95l-0.061,0.082
							l-0.049,0.088c-0.256,0.455-0.617,0.811-0.99,0.971c-0.977,0.434-1.752,0.922-4.455,2.973
							c-1.953,1.482-6.699,5.932-10.262,9.893c0.883-2.91,1.938-5.891,2.68-7.264c0.209-0.373,0.891-1.588,1.311-1.672
							c1.82-0.361,2.018-1.779,2.018-2.369c0-1.781-1.67-5.192-4.291-5.192h-0.09c-2.057,0-3.496,1.266-5.123,4.522
							c-1.115,2.166-2.877,7.08-4.762,13.918c-5.701,5.691-14.199,11.17-19.361,11.17c-2.48,0-3.002-2.119-3.002-3.9
							c0-0.861,0.127-1.711,0.307-2.488c0.666,0.279,1.391,0.48,2.154,0.48c4.068,0,7.834-1.893,11.193-5.631
							c2.039-2.248,3.354-5.645,3.354-8.65c0-3.225-1.936-5.461-4.816-5.746c-0.002-0.012-0.008-0.02-0.008-0.027l0,0v-0.002
							c-0.342-1.266-1.42-2.475-3.334-2.475c-4.846,0-11.18,9.583-11.242,9.676c-3.537,5.354-5.826,11.578-5.826,15.854v0.09
							c0,7.408,4.727,10.051,9.148,10.051c6.092,0,13.223-3.627,18.908-8.309c-0.039,0.184-0.084,0.355-0.123,0.541
							c-0.414,1.762-0.719,4.119,0.223,5.246c0.279,0.381,1.279,1.709,2.859,1.709c1.752,0,2.934-1.777,3.906-3.441
							c1.258-2.318,5.812-10.025,13.959-17.586c-0.717,2.137-1.531,4.887-2.145,7.891c-0.424,1.951-0.631,3.779-0.631,5.445
							c0,3.068,0.709,5.584,2.105,7.316c1.229,1.521,2.951,2.357,4.855,2.357c4.34,0,11.473-3.086,20.795-17.801
							c0.83-1.201,1.252-2.289,1.252-3.225c0-0.398-0.098-0.762-0.252-1.104C190.766,71.008,190.237,70.528,189.563,70.418
							 M136.44,59.43c0.006,0.002,0.014,0.014,0.016,0.018c-0.064-0.004-0.117-0.043-0.188-0.047
							C136.268,59.401,136.356,59.417,136.44,59.43 M132.79,65.01c0.318,0,0.928,0.537,0.928,1.83
							c-0.068,2.643-3.332,5.338-6.611,5.566C128.645,68.977,131.688,65.11,132.79,65.01 M475.12,69.065
							c-0.643-0.236-1.607-0.162-2.395,0.758c-6.031,7.047-15.623,14.57-18.15,14.842c-0.041-0.129-0.086-0.34-0.086-0.779
							c0-0.76,0.148-2.08,0.754-4.326c2.027-7.607,7.074-21.496,14.631-35.586c0.701-1.26,1.373-2.648,1.373-4.121
							c0-1.1-0.371-2.242-1.375-3.418c-0.568-0.762-1.623-1.064-2.4-1.064c-0.93,0-1.875,0.492-2.594,1.35
							c-0.701,0.879-3.514,5.119-11.037,23.711c-2.297,5.582-3.895,10.293-4.998,14.088c-5.691,5.592-14,10.893-19.076,10.893
							c-2.48,0-3-2.119-3-3.9c0-0.865,0.125-1.713,0.303-2.488c0.668,0.279,1.395,0.48,2.154,0.48c4.07,0,7.836-1.893,11.197-5.631
							c2.035-2.248,3.355-5.645,3.355-8.65c0-3.225-1.941-5.461-4.82-5.746c-0.004-0.012-0.006-0.02-0.008-0.027h0.002l-0.006-0.002
							c-0.336-1.266-1.412-2.475-3.332-2.475c-4.844,0-10.982,9.282-11.242,9.676c-1.633,2.473-2.98,5.123-3.98,7.688
							c-6.061,7.424-10.518,11.166-13.303,11.166c-0.641,0-0.805-0.191-0.861-0.262c-0.225-0.262-0.43-0.842-0.43-2.078
							c0-0.85,0.094-2.004,0.344-3.574c0.818-5.01,2.406-9.621,3.537-11.781c0.434-0.811,0.865-1.23,1.318-1.674
							c0,0,0.125-0.123,0.176-0.174c0.963-0.779,1.764-1.562,1.908-3.018l0.008-0.076v-0.072c0-2.438-1.992-4.832-4.021-4.832
							c-1.068,0-2.305,0.695-3.672,2.061c-1.105,1.107-9.82,10.74-15.9,17.463c1.395-3.941,4.088-11.447,4.766-13.146
							c0.359-0.939,0.539-1.867,0.539-2.734c0-1.094-0.287-2.094-0.848-2.908c-0.674-0.982-1.658-1.543-2.703-1.543h-0.092
							c-1,0-2.146,0.65-3.717,2.109c-0.004,0-5.012,4.92-5.012,4.92c-3.877,3.877-7.781,8.605-11.582,13.264
							c1.051-3.73,2.885-10.057,4.268-12.695c0.496-0.992,0.744-1.932,0.744-2.832c0-1.361-0.562-2.629-1.691-3.842
							c-0.527-0.613-1.352-1.375-2.721-1.375c-2.754,0-3.643,3.446-4.232,5.725l-0.18,0.693c-0.412,1.477-0.617,2.607-0.652,3.441
							c-0.064,0.256-0.205,0.852-0.205,0.852l-0.141,0.686c-0.59,1.891-1.209,3.92-1.793,5.896
							c-6.203,7.65-10.754,11.508-13.582,11.508c-0.641,0-0.803-0.191-0.863-0.262c-0.225-0.262-0.428-0.842-0.428-2.078
							c0-0.85,0.094-2.004,0.342-3.574c0.822-5.01,2.412-9.621,3.537-11.781c0.439-0.811,0.867-1.23,1.322-1.674
							c0,0,0.123-0.123,0.174-0.174c0.961-0.779,1.764-1.562,1.91-3.018l0.008-0.076v-0.072c0-2.438-1.992-4.832-4.02-4.832
							c-1.072,0-2.309,0.695-3.674,2.061c-1.107,1.107-9.82,10.74-15.898,17.463c1.389-3.941,4.086-11.447,4.762-13.146
							c0.361-0.939,0.541-1.867,0.541-2.734c0-1.094-0.287-2.094-0.85-2.908c-0.672-0.982-1.66-1.543-2.701-1.543h-0.09
							c-1,0-2.148,0.65-3.723,2.109L326,64.18c-3.879,3.877-7.781,8.605-11.584,13.264c1.053-3.73,2.883-10.057,4.27-12.695
							c0.496-0.992,0.746-1.932,0.746-2.832c0-1.361-0.568-2.629-1.697-3.842c-0.523-0.613-1.352-1.375-2.715-1.375
							c-2.76,0-3.648,3.446-4.234,5.725l-0.184,0.693c-0.41,1.477-0.613,2.607-0.652,3.441c-0.061,0.256-0.201,0.852-0.201,0.852
							l-0.145,0.686c-0.469,1.51-0.957,3.105-1.436,4.697c-7.605,7.578-13.875,12.166-16.729,12.166c0,0-0.182-0.018-0.191-0.021
							c0,0,0,0,0-0.002c0-0.029-0.045-0.162-0.045-0.479c0-0.375,0.062-1.008,0.334-2.016c1.611-5.34,4.891-13.502,8.027-18.697
							c0.537-0.879,0.766-1.783,0.766-2.617c0-1.107-0.416-2.08-1.023-2.73c-0.586-0.732-1.355-1.154-2.197-1.154
							c-3.629,0-8.334,9.404-8.379,9.502c-0.498,1.197-0.74,2.076-0.854,3.084c0.014-0.084-0.471,1.76-0.471,1.76
							c-0.088,0.242-0.193,0.531-0.299,0.834c-4.416,4.973-12.439,12.158-15.555,12.42c-0.043-0.139-0.084-0.354-0.084-0.807
							c0-0.682,0.115-1.805,0.551-3.611c1.629-6.426,4.594-14.314,6.109-17.535c0.377-0.834,0.518-1.535,0.518-2.117
							c0-0.723-0.215-1.26-0.459-1.639c-0.562-0.873-1.541-1.352-2.766-1.352h-0.088c-3.004,0-4.918,1.416-7.346,3.207l-0.562,0.412
							c-2.705,2.215-8.086,7.174-11.527,10.545c4.045-14.045,8.387-24.477,12.918-30.877c0.662-0.846,0.893-1.637,0.893-2.338
							c0-1.189-0.666-2.111-0.994-2.561c-1.189-1.783-2.514-2.061-3.191-2.061c-1.555,0-2.988,1.354-4.648,4.381
							c-2.207,3.451-6.195,12.846-8.838,20.862c-2.926,9.031-7.045,23.562-7.352,25.926c-0.221,1.402-0.594,4.936,0.812,6.582
							c0.48,0.562,1.137,0.873,1.844,0.873c2.416,0,4.361-1.867,4.727-4.539l-0.023,0.135c0.234-1.02,0.621-2.312,1.717-4.162
							c1.355-2.283,6.4-8.621,13.664-14.504c-0.84,2.695-1.947,6.666-2.654,10.299c-0.436,2.434-0.652,4.518-0.652,6.271
							c0,2.654,0.498,4.547,1.492,5.738c0.764,0.908,1.791,1.389,2.969,1.389c3.361,0,9.547-3.844,14.877-8.609
							c-0.066,1.428,0.225,2.867,0.883,4.18c1.428,2.654,3.082,3.98,4.939,3.98h0.092c1.355,0,2.973-0.502,5.418-1.68
							c2.682-1.197,6.621-3.961,10.363-7.234c-0.025,0.156-0.053,0.305-0.072,0.436c-0.074,0.646-0.105,1.262-0.105,1.844
							c0,2.188,0.49,3.898,1.432,4.945c0.613,0.684,1.402,1.057,2.227,1.057c1.334,0,2.557-1.088,4.094-2.848
							c0.035-0.039,1.996-2.471,1.996-2.471c2.779-3.455,9.463-11.76,12.346-14.824c-0.121,0.387-0.225,0.721-0.225,0.721
							c-0.928,2.967-2.332,7.451-2.754,9.205c-0.48,1.711-0.832,3.695-0.832,5.443c0,1.463,0.248,2.758,0.881,3.592
							c0.49,0.646,1.182,1.004,1.949,1.004c1.518,0,2.76-0.969,4.662-2.869c2.164-2.238,8.27-9.113,12.168-13.531
							c-0.338,1.516-0.635,3.139-0.855,4.906c-0.129,1-0.188,1.918-0.188,2.758c0,3.811,1.18,6.045,2.285,7.301
							c1.225,1.389,2.891,2.154,4.697,2.154c3.018,0,7.58-1.963,12.562-6.908c-0.004,0.117-0.021,0.25-0.021,0.365
							c0,2.188,0.496,3.898,1.434,4.945c0.613,0.684,1.404,1.057,2.225,1.057c1.334,0,2.557-1.088,4.1-2.848
							c0.031-0.039,1.992-2.471,1.992-2.471c2.781-3.455,9.465-11.76,12.348-14.824c-0.119,0.387-0.225,0.721-0.225,0.721
							c-0.93,2.967-2.332,7.451-2.752,9.205c-0.48,1.711-0.836,3.695-0.836,5.443c0,1.463,0.248,2.758,0.879,3.592
							c0.492,0.646,1.188,1.004,1.955,1.004c1.512,0,2.758-0.969,4.66-2.869c2.162-2.238,8.27-9.113,12.168-13.531
							c-0.336,1.516-0.637,3.139-0.859,4.906c-0.127,1-0.182,1.918-0.182,2.758c0,3.811,1.174,6.045,2.281,7.301
							c1.225,1.389,2.891,2.154,4.697,2.154c3.197,0,8.123-2.195,13.453-7.814c0.92,5.574,5.053,7.637,8.957,7.637
							c6.125,0,13.297-3.664,18.998-8.379c-0.051,0.447-0.068,0.791-0.068,1.029v0.092c0,4.271,1.908,7.258,4.648,7.258
							c7.352,0,20.324-12.363,23.834-17.584c0.867-1.346,1.334-2.723,1.334-3.898C476.44,70.17,475.93,69.368,475.12,69.065
							 M438.819,59.43c0.006,0.002,0.014,0.014,0.018,0.018c-0.066-0.004-0.119-0.043-0.188-0.047
							C438.649,59.401,438.735,59.417,438.819,59.43 M435.17,65.01c0.316,0,0.926,0.537,0.926,1.83
							c-0.068,2.643-3.33,5.338-6.611,5.566C431.024,68.977,434.073,65.11,435.17,65.01 M191.002,71.573
							c0.016,0.033,0.01,0.072,0.023,0.109c0.012,0.031,0.045,0.049,0.055,0.084L191.002,71.573z"/>
					</g>
				</g>
			</g>
		</g>
	</g>
</g>
<g>
	<path fill="#757777" d="M79.297,150.506v-19.305h10.775v2.139h-8.006v6.203h7.585v2.14h-7.585v8.823H79.297z"/>
	<path fill="#757777" d="M102.413,148.554h-0.06c-0.752,1.551-1.926,2.22-3.823,2.22c-3.22,0-4.153-1.845-4.153-4.438
		c0-4.091,4.515-4.278,7.976-4.198c0.06-1.791,0.09-3.743-2.559-3.743c-1.655,0-2.528,0.989-2.378,2.406h-2.679
		c0.121-3.021,1.926-4.064,5.147-4.064c3.913,0,4.936,1.792,4.936,4.064v6.497c0,1.07,0.121,2.166,0.301,3.209h-2.709V148.554z
		 M96.844,146.496c0,1.311,0.723,2.486,2.378,2.486c1.505,0,3.371-0.828,3.13-5.187C100.005,143.822,96.844,143.634,96.844,146.496z
		 M96.905,132.565c0-1.497,1.354-2.7,3.04-2.7c1.716,0,3.04,1.229,3.04,2.7c0,1.497-1.354,2.7-3.04,2.7
		C98.289,135.265,96.905,134.089,96.905,132.565z M99.944,130.96c-0.993,0-1.806,0.723-1.806,1.604c0,0.855,0.812,1.604,1.806,1.604
		c0.963,0,1.806-0.749,1.806-1.604C101.75,131.683,100.908,130.96,99.944,130.96z"/>
	<path fill="#757777" d="M126.763,131.202h2.468v19.305h-2.468v-1.604h-0.061c-0.843,1.257-1.896,1.872-3.491,1.872
		c-2.438,0-4.906-0.855-4.906-6.792c0-3.369,0.121-7.246,5.026-7.246c1.445,0,2.499,0.562,3.341,1.632h0.09V131.202z
		 M123.903,138.528c-2.649,0-3.01,1.871-3.01,5.481c0,2.032,0,4.973,3.1,4.973c2.77,0,2.77-3.048,2.77-5.775
		C126.763,141.416,126.642,138.528,123.903,138.528z"/>
	<path fill="#757777" d="M137.447,144.463c0,3.771,1.144,4.519,3.07,4.519c1.686,0,2.559-1.203,2.648-2.566h2.709
		c-0.03,2.994-2.107,4.358-5.297,4.358c-3.22,0-5.779-0.855-5.779-6.818c0-3.957,0.512-7.22,5.779-7.22
		c4.334,0,5.418,2.112,5.418,6.578v1.149H137.447z M143.377,142.806c0-3.931-1.234-4.412-3.04-4.412
		c-1.565,0-2.859,0.668-2.89,4.412H143.377z"/>
	<path fill="#757777" d="M152.286,137.003v-2.594l2.468-0.989v3.583h3.311v1.658h-3.311v8.262c0,0.855,0,1.952,2.257,1.952
		c0.181,0,0.572-0.054,1.113-0.107v1.685c-0.812,0.054-1.625,0.214-2.438,0.214c-2.348,0-3.401-0.855-3.401-2.406v-9.599h-2.498
		v-1.658H152.286z"/>
	<path fill="#757777" d="M172.15,150.506h-2.468v-19.305h2.468v7.166h0.09c0.843-1.07,1.896-1.632,3.341-1.632
		c4.906,0,5.027,3.877,5.027,7.246c0,5.937-2.468,6.792-4.906,6.792c-1.595,0-2.648-0.615-3.491-1.872h-0.061V150.506z
		 M174.919,148.982c3.1,0,3.1-2.94,3.1-4.973c0-3.61-0.361-5.481-3.01-5.481c-2.739,0-2.859,2.888-2.859,4.679
		C172.15,145.266,171.88,148.982,174.919,148.982z"/>
	<path fill="#757777" d="M188.344,144.463c0,3.771,1.144,4.519,3.07,4.519c1.686,0,2.558-1.203,2.648-2.566h2.709
		c-0.03,2.994-2.107,4.358-5.297,4.358c-3.22,0-5.779-0.855-5.779-6.818c0-3.957,0.512-7.22,5.779-7.22
		c4.334,0,5.418,2.112,5.418,6.578v1.149H188.344z M194.273,142.806c0-3.931-1.234-4.412-3.04-4.412
		c-1.565,0-2.859,0.668-2.889,4.412H194.273z"/>
	<path fill="#757777" d="M210.437,131.202h2.468v19.305h-2.468v-1.604h-0.061c-0.843,1.257-1.896,1.872-3.491,1.872
		c-2.438,0-4.906-0.855-4.906-6.792c0-3.369,0.121-7.246,5.026-7.246c1.445,0,2.499,0.562,3.341,1.632h0.09V131.202z
		 M207.577,138.528c-2.649,0-3.01,1.871-3.01,5.481c0,2.032,0,4.973,3.1,4.973c2.77,0,2.77-3.048,2.77-5.775
		C210.437,141.416,210.316,138.528,207.577,138.528z"/>
	<path fill="#757777" d="M223.288,150.774c-3.281,0-5.328-1.283-5.237-4.386h2.799c0,0.776,0.03,2.594,2.528,2.594
		c1.475,0,2.619-0.668,2.619-2.059c0-2.406-7.585-2.46-7.585-6.497c0-1.417,0.963-3.69,5.237-3.69c2.709,0,5.027,1.15,4.816,3.824
		h-2.739c0.03-1.417-0.813-2.166-2.378-2.166c-1.324,0-2.348,0.642-2.348,1.818c0,2.38,7.585,2.326,7.585,6.443
		C228.585,149.624,226.298,150.774,223.288,150.774z"/>
	<path fill="#757777" d="M234.815,137.003v-2.594l2.468-0.989v3.583h3.311v1.658h-3.311v8.262c0,0.855,0,1.952,2.257,1.952
		c0.182,0,0.572-0.054,1.113-0.107v1.685c-0.812,0.054-1.625,0.214-2.438,0.214c-2.348,0-3.401-0.855-3.401-2.406v-9.599h-2.498
		v-1.658H234.815z"/>
	<path fill="#757777" d="M247.126,144.463c0,3.771,1.143,4.519,3.069,4.519c1.686,0,2.558-1.203,2.648-2.566h2.709
		c-0.03,2.994-2.106,4.358-5.298,4.358c-3.22,0-5.778-0.855-5.778-6.818c0-3.957,0.512-7.22,5.778-7.22
		c4.335,0,5.418,2.112,5.418,6.578v1.149H247.126z M253.055,142.806c0-3.931-1.233-4.412-3.04-4.412
		c-1.564,0-2.859,0.668-2.889,4.412H253.055z"/>
	<path fill="#757777" d="M276.983,137.003h2.468v10.695c0,0.936,0.061,1.872,0.15,2.808h-2.618v-1.631h-0.091
		c-0.812,1.229-2.257,1.898-3.852,1.898c-2.648,0-4.094-1.177-4.094-3.477v-10.294h2.469v9.358c0,1.631,0.842,2.728,2.588,2.728
		c1.324,0,2.979-0.883,2.979-3.129V137.003z"/>
	<path fill="#757777" d="M293.386,131.202h2.469v19.305h-2.469v-1.604h-0.06c-0.843,1.257-1.896,1.872-3.491,1.872
		c-2.438,0-4.906-0.855-4.906-6.792c0-3.369,0.121-7.246,5.026-7.246c1.444,0,2.499,0.562,3.341,1.632h0.09V131.202z
		 M290.528,138.528c-2.649,0-3.011,1.871-3.011,5.481c0,2.032,0,4.973,3.101,4.973c2.769,0,2.769-3.048,2.769-5.775
		C293.386,141.416,293.267,138.528,290.528,138.528z"/>
	<path fill="#757777" d="M317.285,148.554h-0.06c-0.753,1.551-1.927,2.22-3.823,2.22c-3.22,0-4.152-1.845-4.152-4.438
		c0-4.091,4.514-4.278,7.976-4.198c0.06-1.791,0.091-3.743-2.559-3.743c-1.655,0-2.528,0.989-2.378,2.406h-2.679
		c0.12-3.021,1.927-4.064,5.147-4.064c3.912,0,4.936,1.792,4.936,4.064v6.497c0,1.07,0.121,2.166,0.301,3.209h-2.709V148.554z
		 M311.716,146.496c0,1.311,0.723,2.486,2.379,2.486c1.504,0,3.371-0.828,3.13-5.187
		C314.877,143.822,311.716,143.634,311.716,146.496z"/>
	<path fill="#757777" d="M326.556,137.003v-2.62c0-2.728,2.166-3.262,4.363-3.262c0.512,0,0.812,0.026,1.174,0.08v1.577
		c-2.618-0.16-3.07,0.829-3.07,1.925v2.3h3.07v1.658h-3.07v11.845h-2.467v-11.845h-2.348v-1.658H326.556z"/>
	<path fill="#757777" d="M351.808,150.506v-9.358c0-1.443-0.572-2.62-2.68-2.62c-2.709,0-3.1,2.139-3.1,3.983v7.995h-2.469v-10.695
		c0-0.936-0.06-1.872-0.15-2.808h2.619v1.738h0.12c0.964-1.524,2.106-2.006,4.063-2.006c3.25,0,4.063,1.738,4.063,4.412v9.358
		H351.808z"/>
	<path fill="#757777" d="M367.669,148.554h-0.061c-0.752,1.551-1.926,2.22-3.822,2.22c-3.221,0-4.153-1.845-4.153-4.438
		c0-4.091,4.515-4.278,7.976-4.198c0.061-1.791,0.091-3.743-2.559-3.743c-1.654,0-2.527,0.989-2.377,2.406h-2.68
		c0.121-3.021,1.927-4.064,5.147-4.064c3.913,0,4.937,1.792,4.937,4.064v6.497c0,1.07,0.12,2.166,0.301,3.209h-2.709V148.554z
		 M362.101,146.496c0,1.311,0.723,2.486,2.378,2.486c1.505,0,3.371-0.828,3.13-5.187
		C365.261,143.822,362.101,143.634,362.101,146.496z"/>
	<path fill="#757777" d="M376.97,137.003v-2.594l2.469-0.989v3.583h3.311v1.658h-3.311v8.262c0,0.855,0,1.952,2.257,1.952
		c0.181,0,0.571-0.054,1.113-0.107v1.685c-0.812,0.054-1.625,0.214-2.438,0.214c-2.348,0-3.4-0.855-3.4-2.406v-9.599h-2.498v-1.658
		H376.97z"/>
	<path fill="#757777" d="M388.468,137.003v-2.594l2.468-0.989v3.583h3.311v1.658h-3.311v8.262c0,0.855,0,1.952,2.257,1.952
		c0.182,0,0.572-0.054,1.113-0.107v1.685c-0.812,0.054-1.625,0.214-2.438,0.214c-2.348,0-3.4-0.855-3.4-2.406v-9.599h-2.498v-1.658
		H388.468z"/>
	<path fill="#757777" d="M400.808,144.463c0,3.771,1.144,4.519,3.07,4.519c1.686,0,2.559-1.203,2.648-2.566h2.709
		c-0.031,2.994-2.107,4.358-5.298,4.358c-3.22,0-5.778-0.855-5.778-6.818c0-3.957,0.512-7.22,5.778-7.22
		c4.335,0,5.418,2.112,5.418,6.578v1.149H400.808z M406.738,142.806c0-3.931-1.234-4.412-3.041-4.412
		c-1.564,0-2.859,0.668-2.889,4.412H406.738z"/>
	<path fill="#757777" d="M423.081,150.506v-9.358c0-1.443-0.571-2.62-2.679-2.62c-2.709,0-3.1,2.139-3.1,3.983v7.995h-2.469v-10.695
		c0-0.936-0.061-1.872-0.15-2.808h2.619v1.738h0.119c0.964-1.524,2.107-2.006,4.064-2.006c3.25,0,4.062,1.738,4.062,4.412v9.358
		H423.081z"/>
</g>
</svg>
