<svg xmlns="http://www.w3.org/2000/svg" width="239.327" height="36.964" viewBox="0 0 239.327 36.964"><g fill-rule="evenodd" clip-rule="evenodd" fill="#757676"><path d="M215.077 28.376c0 .172-.139.352-.314.352h-10.799a.348.348 0 0 1-.352-.352V8.698a.31.31 0 0 1 .313-.317h10.837c.176 0 .314.142.314.317v19.678M215.077 5.721a.31.31 0 0 1-.314.31h-10.837a.307.307 0 0 1-.313-.31V.325c0-.172.134-.312.313-.312h10.837c.176 0 .314.141.314.312v5.396M141.78 14.872c.01.228.159.361.28.361h8.354c.255-.006.336-.203.336-.385v-1.564c-.065-.584-.114-1.102-.705-1.534-1.23-.776-6.614-.829-7.738.17-.345.298-.479.85-.526 1.387v1.565zm0 6.274c0 1.146.264 1.924.858 2.256 1.466.857 4.955.766 6.421.285.889-.318 1.124-.895 1.124-1.775 0-.107.149-.275.389-.275h10.485c.282 0 .342.305.326.506-.266 2.266-.212 7.074-16.128 7.074-12.719 0-14.824-4.295-14.824-7.5v-7.911c.035-3.158 2.065-7.572 14.824-7.572 9.406 0 13.382 1.545 15.193 3.929 1.017 1.347 1.11 2.728 1.11 2.728v6.2c0 .18-.125.418-.366.418h-19.021c-.253 0-.393.102-.393.352v1.285zM221.668 22.552c0 4.107 2.627 6.176 6.695 6.176h10.598c.255 0 .367-.182.363-.418v-5.123c.014-.244-.055-.342-.276-.35h-4.478c-.991 0-1.816-.582-1.816-1.742v-6.409c0-.302.246-.495.246-.495l5.803-2.87c.437-.209.488-.344.498-.429V7.458c-.031-.101-.062-.317-.352-.317h-5.94c-.229-.03-.285-.22-.277-.405V2.211s-.039-.29-.341-.29h-10.383s-.304.074-.34.298v20.333M185.45 14.375c0-1.647-1.627-2.463-3.17-2.463h-1.173c-1.562 0-3.172.815-3.172 2.463 0 0-.122 3.031-.122 3.363 0 .336.122 3.57.122 3.57 0 1.646 1.609 2.369 3.172 2.369h1.173c1.559 0 3.17-.723 3.17-2.369v-6.933M196.233.311v28.076c0 .252-.304.342-.304.342l-9.826.002c-1.766.004-7.117.965-12.159-.201-2.696-.656-4.924-1.252-6.601-3.807-.399-.76-.883-2.166-.883-4.197V15.19c0-1.675.274-4.553 2.156-6.023 4.598-3.585 11.936-3.108 16.768-2.562V.392c0-.302.396-.379.396-.379h10.225c.21-.016.228.298.228.298M0 28.455L.042.36c0-.324.316-.348.299-.348h13.917c.303-.008.344.312.354.307l9.417 17.57a.444.444 0 0 0 .494.162c.182-.074.259-.361.259-.361L24.387.38c-.004-.217.04-.328.253-.367h9.506c.375 0 .408.302.398.29v28.052s-.043.379-.429.375l-13.403.008c-.303 0-.556-.004-.842-.477l-9.334-17.624c-.339-.45-.825-.116-.825.39l.537 17.32c.037.252-.172.398-.377.383l-9.545.008c-.177.004-.335-.135-.326-.283M55.061 18.777l4.836-11.325c.115-.172.361-.29.551-.312h10.251c0-.008.345.01.223.327L56.978 33.294c-1.479 2.717-4.477 3.621-6.626 3.67H41.5s-.354.004-.354-.338v-6.189c.043-.232.186-.365.415-.365l5.968-.004c1.719 0 2.102-1.113 1.438-2.395L37.801 7.654c-.298-.624.431-.5.873-.5l9.682-.004c.205.051.284.249.35.365l5.79 11.273c.286.608.565-.011.565-.011M92.375 7.148h11.044c.767.002.193.572.193.572l-7.331 7.76c-.156.148-.156.261-.023.384l10.112 12.418c.353.316.095.463-.032.459l-12.792-.014c-.416 0-.52-.332-.614-.453l-6.099-8.922c-.31-.432-.677-.662-1.511-.584-.312.035-.321.484-.321.484v9.088s-.005.4-.394.4l-10.526-.008c-.224-.006-.344-.205-.344-.383V.289c0-.195.023-.284.324-.284h10.65c-.004-.018.316 0 .289.296v14.467c0 .346.217.624.598.297l5.996-7.588c.308-.315.781-.329.781-.329M121.022 28.419s-.035.309-.306.309h-10.499c-.227 0-.316-.312-.316-.312V7.484s.081-.334.311-.33h17.33c-.035.02.226.087.218.284v3.771s.008.274-.239.4l-6.205 3.034c-.214.073-.263.213-.318.259V28.41"/></g></svg>