<?xml version="1.0" encoding="utf-8"?>
<!-- Generator: Adobe Illustrator 16.0.0, SVG Export Plug-In . SVG Version: 6.00 Build 0)  -->
<!DOCTYPE svg PUBLIC "-//W3C//DTD SVG 1.1//EN" "http://www.w3.org/Graphics/SVG/1.1/DTD/svg11.dtd">
<svg version="1.1" id="Layer_1" xmlns="http://www.w3.org/2000/svg" xmlns:xlink="http://www.w3.org/1999/xlink" x="0px" y="0px"
	 width="239.327px" height="36.964px" viewBox="0 0 239.327 36.964" enable-background="new 0 0 239.327 36.964"
	 xml:space="preserve">
<g>
	<path fill-rule="evenodd" clip-rule="evenodd" fill="#757676" d="M215.077,28.376c0,0.172-0.139,0.352-0.314,0.352h-10.799
		c-0.172,0-0.352-0.129-0.352-0.352V8.698c0-0.176,0.134-0.317,0.313-0.317h10.837c0.176,0,0.314,0.142,0.314,0.317V28.376"/>
	<path fill-rule="evenodd" clip-rule="evenodd" fill="#757676" d="M215.077,5.721c0,0.172-0.139,0.31-0.314,0.31h-10.837
		c-0.18,0-0.313-0.138-0.313-0.31V0.325c0-0.172,0.134-0.312,0.313-0.312h10.837c0.176,0,0.314,0.141,0.314,0.312V5.721"/>
	<path fill-rule="evenodd" clip-rule="evenodd" fill="#757676" d="M141.78,14.872c0.01,0.228,0.159,0.361,0.28,0.361h8.354
		c0.255-0.006,0.336-0.203,0.336-0.385v-1.564c-0.065-0.584-0.114-1.102-0.705-1.534c-1.23-0.776-6.614-0.829-7.738,0.17
		c-0.345,0.298-0.479,0.85-0.526,1.387V14.872z M141.78,21.146c0,1.146,0.264,1.924,0.858,2.256
		c1.466,0.857,4.955,0.766,6.421,0.285c0.889-0.318,1.124-0.895,1.124-1.775c0-0.107,0.149-0.275,0.389-0.275h10.485
		c0.282,0,0.342,0.305,0.326,0.506c-0.266,2.266-0.212,7.074-16.128,7.074c-12.719,0-14.824-4.295-14.824-7.5v-7.911
		c0.035-3.158,2.065-7.572,14.824-7.572c9.406,0,13.382,1.545,15.193,3.929c1.017,1.347,1.11,2.728,1.11,2.728v6.2
		c0,0.18-0.125,0.418-0.366,0.418h-19.021c-0.253,0-0.393,0.102-0.393,0.352V21.146z"/>
	<path fill-rule="evenodd" clip-rule="evenodd" fill="#757676" d="M221.668,22.552c0,4.107,2.627,6.176,6.695,6.176h10.598
		c0.255,0,0.367-0.182,0.363-0.418v-5.123c0.014-0.244-0.055-0.342-0.276-0.35h-4.478c-0.991,0-1.816-0.582-1.816-1.742v-6.409
		c0-0.302,0.246-0.495,0.246-0.495l5.803-2.87c0.437-0.209,0.488-0.344,0.498-0.429V7.458c-0.031-0.101-0.062-0.317-0.352-0.317
		h-5.94c-0.229-0.03-0.285-0.22-0.277-0.405V2.211c0,0-0.039-0.29-0.341-0.29h-10.383c0,0-0.304,0.074-0.34,0.298V22.552"/>
	<path fill-rule="evenodd" clip-rule="evenodd" fill="#757676" d="M185.45,14.375c0-1.647-1.627-2.463-3.17-2.463h-1.173
		c-1.562,0-3.172,0.815-3.172,2.463c0,0-0.122,3.031-0.122,3.363c0,0.336,0.122,3.57,0.122,3.57c0,1.646,1.609,2.369,3.172,2.369
		h1.173c1.559,0,3.17-0.723,3.17-2.369V14.375 M196.233,0.311v28.076c0,0.252-0.304,0.342-0.304,0.342l-9.826,0.002
		c-1.766,0.004-7.117,0.965-12.159-0.201c-2.696-0.656-4.924-1.252-6.601-3.807c-0.399-0.76-0.883-2.166-0.883-4.197V15.19
		c0-1.675,0.274-4.553,2.156-6.023c4.598-3.585,11.936-3.108,16.768-2.562V0.392c0-0.302,0.396-0.379,0.396-0.379h10.225
		C196.215-0.003,196.233,0.311,196.233,0.311"/>
	<path fill-rule="evenodd" clip-rule="evenodd" fill="#757676" d="M0,28.455L0.042,0.36c0-0.324,0.316-0.348,0.299-0.348h13.917
		c0.303-0.008,0.344,0.312,0.354,0.307l9.417,17.57c0.103,0.146,0.318,0.228,0.494,0.162c0.182-0.074,0.259-0.361,0.259-0.361
		L24.387,0.38c-0.004-0.217,0.04-0.328,0.253-0.367h9.506c0.375,0,0.408,0.302,0.398,0.29v28.052c0,0-0.043,0.379-0.429,0.375
		l-13.403,0.008c-0.303,0-0.556-0.004-0.842-0.477l-9.334-17.624c-0.339-0.45-0.825-0.116-0.825,0.39l0.537,17.32
		c0.037,0.252-0.172,0.398-0.377,0.383l-9.545,0.008C0.149,28.742-0.009,28.603,0,28.455"/>
	<path fill-rule="evenodd" clip-rule="evenodd" fill="#757676" d="M55.061,18.777l4.836-11.325c0.115-0.172,0.361-0.29,0.551-0.312
		h10.251c0-0.008,0.345,0.01,0.223,0.327L56.978,33.294c-1.479,2.717-4.477,3.621-6.626,3.67H41.5c0,0-0.354,0.004-0.354-0.338
		v-6.189c0.043-0.232,0.186-0.365,0.415-0.365l5.968-0.004c1.719,0,2.102-1.113,1.438-2.395L37.801,7.654
		c-0.298-0.624,0.431-0.5,0.873-0.5l9.682-0.004c0.205,0.051,0.284,0.249,0.35,0.365l5.79,11.273
		C54.782,19.396,55.061,18.777,55.061,18.777"/>
	<path fill-rule="evenodd" clip-rule="evenodd" fill="#757676" d="M92.375,7.148h11.044c0.767,0.002,0.193,0.572,0.193,0.572
		l-7.331,7.76c-0.156,0.148-0.156,0.261-0.023,0.384l10.112,12.418c0.353,0.316,0.095,0.463-0.032,0.459l-12.792-0.014
		c-0.416,0-0.52-0.332-0.614-0.453l-6.099-8.922c-0.31-0.432-0.677-0.662-1.511-0.584c-0.312,0.035-0.321,0.484-0.321,0.484v9.088
		c0,0-0.005,0.4-0.394,0.4l-10.526-0.008c-0.224-0.006-0.344-0.205-0.344-0.383V0.289c0-0.195,0.023-0.284,0.324-0.284h10.65
		c-0.004-0.018,0.316,0,0.289,0.296v14.467c0,0.346,0.217,0.624,0.598,0.297l5.996-7.588C91.902,7.162,92.375,7.148,92.375,7.148"/>
	<path fill-rule="evenodd" clip-rule="evenodd" fill="#757676" d="M121.022,28.419c0,0-0.035,0.309-0.306,0.309h-10.499
		c-0.227,0-0.316-0.312-0.316-0.312V7.484c0,0,0.081-0.334,0.311-0.33h17.33c-0.035,0.02,0.226,0.087,0.218,0.284v3.771
		c0,0,0.008,0.274-0.239,0.4l-6.205,3.034c-0.214,0.073-0.263,0.213-0.318,0.259V28.41"/>
</g>
</svg>
