<svg xmlns="http://www.w3.org/2000/svg" width="207.48" height="31.394" viewBox="0 0 207.48 31.394"><g fill-rule="evenodd" clip-rule="evenodd" fill="#757676"><path d="M19.888.865c3.684 1.377 7.897 4.668 8.908 8.85h-8.114c-2.23-2.312-5.837-3.061-8.761-1.752-2.883 1.158-4.902 4.255-4.938 7.472-.105 3.25 1.84 6.202 4.62 7.618 2.591 1.424 6.344.936 8.574-1.004.972-.9 1.621-1.984 2.16-3.064l-9.01-.072v-6.126h16.581c.396 4.63-.318 8.851-2.918 12.251-3.605 4.746-8.866 6.912-14.674 5.906C6.951 30.155 1.724 25.073.465 19.616-.514 15.542.066 10.913 2.086 7.55 4.754 3.103 9.108.337 13.946.003c2.124-.034 4.107.184 5.942.862M70.316.378c4.361 1.041 9.191 4.631 10.497 9.379h-8.119c-2.157-2.279-5.507-3.064-8.434-1.939-2.733.932-5.043 3.881-5.224 6.869-.327 3.105.976 5.791 3.389 7.664 2.415 1.934 6.488 1.977 9.01.219 1.337-.816 2.238-2.238 2.883-3.586l-8.974-.072v-6.126h15.247C81.454 7.14 86.363 1.572 91.802.419c3.531-.822 7.497-.303 10.529 1.342 2.918 1.607 6.127 4.596 6.885 7.998H101.1c-2.159-2.279-5.509-3.064-8.434-1.939-2.735.932-5.044 3.881-5.226 6.869-.325 3.105.976 5.791 3.391 7.664 2.31 1.824 6.159 2.018 8.611.484 1.478-.787 2.635-2.395 3.285-3.852l-8.979-.072v-6.126h16.542c.369 4.257-.174 8.332-2.448 11.583-3.676 5.449-9.768 7.918-16.04 6.385-4.646-.971-9.16-5.416-10.596-10.09-1.447 4.824-6.135 9.195-10.891 10.164-6.451 1.416-12.579-1.346-16.11-7.061-2.992-4.516-2.955-11.804-.037-16.364C57.669 1.65 63.865-1.045 70.316.378M129.256 8.071h-10.365v4.484l9.46.075v6.238h-9.46v4.412l10.365.037v7.364H111.34V.901h17.916zM188.232 17.827c.143 2.311 1.545 4.705 3.746 5.49 1.871.893 4.219.377 5.801-.822 3.068-2.43 2.131-6.76 2.309-10.421V.9h7.246l.146 15.767c-.115 5.234-2.055 10.314-6.707 12.926a12.592 12.592 0 0 1-5.334 1.76c-1.373.076-2.852.076-4.111-.264-4.217-.859-8.719-4.559-9.695-9.08-.43-2.09-.645-4.256-.689-6.501L180.908.9h7.281l.043 16.927zM40.907.338l-15.679 30.34h8.866l2.051-4.598h9.519c.726 1.455 1.402 3.027 2.055 4.562h8.829L40.907.338zm-2.599 20.85l2.777-5.98 2.526 5.98h-5.303zM169.02.338l-12.839 24.846v-.039L156.146.902h-7.676l-.037 14.157-17.882-13.895v29.515h7.502l.035-13.488.068.078 17.195 13.41 6.885-.035 2.016-4.562h9.592l2.02 4.598h8.791v-.076L169.02.338zm-2.598 20.85l2.809-5.98 2.523 5.939-5.332.041z"/></g></svg>