<?xml version="1.0" encoding="utf-8"?>
<!-- Generator: Adobe Illustrator 16.0.0, SVG Export Plug-In . SVG Version: 6.00 Build 0)  -->
<!DOCTYPE svg PUBLIC "-//W3C//DTD SVG 1.1//EN" "http://www.w3.org/Graphics/SVG/1.1/DTD/svg11.dtd">
<svg version="1.1" id="Layer_1" xmlns="http://www.w3.org/2000/svg" xmlns:xlink="http://www.w3.org/1999/xlink" x="0px" y="0px"
	 width="207.48px" height="31.394px" viewBox="0 0 207.48 31.394" enable-background="new 0 0 207.48 31.394" xml:space="preserve">
<g>
	<path fill-rule="evenodd" clip-rule="evenodd" fill="#757676" d="M19.888,0.865c3.684,1.377,7.897,4.668,8.908,8.85h-8.114
		c-2.23-2.312-5.837-3.061-8.761-1.752c-2.883,1.158-4.902,4.255-4.938,7.472c-0.105,3.25,1.84,6.202,4.62,7.618
		c2.591,1.424,6.344,0.936,8.574-1.004c0.972-0.9,1.621-1.984,2.16-3.064l-9.01-0.072v-6.126h16.581
		c0.396,4.63-0.318,8.851-2.918,12.251c-3.605,4.746-8.866,6.912-14.674,5.906C6.951,30.155,1.724,25.073,0.465,19.616
		c-0.979-4.074-0.399-8.703,1.621-12.066c2.668-4.447,7.022-7.213,11.86-7.547C16.07-0.031,18.053,0.187,19.888,0.865"/>
	<path fill-rule="evenodd" clip-rule="evenodd" fill="#757676" d="M70.316,0.378c4.361,1.041,9.191,4.631,10.497,9.379h-8.119
		c-2.157-2.279-5.507-3.064-8.434-1.939c-2.733,0.932-5.043,3.881-5.224,6.869c-0.327,3.105,0.976,5.791,3.389,7.664
		c2.415,1.934,6.488,1.977,9.01,0.219c1.337-0.816,2.238-2.238,2.883-3.586l-8.974-0.072v-6.126h15.247
		c0.863-5.646,5.772-11.214,11.211-12.367c3.531-0.822,7.497-0.303,10.529,1.342c2.918,1.607,6.127,4.596,6.885,7.998H101.1
		c-2.159-2.279-5.509-3.064-8.434-1.939c-2.735,0.932-5.044,3.881-5.226,6.869c-0.325,3.105,0.976,5.791,3.391,7.664
		c2.31,1.824,6.159,2.018,8.611,0.484c1.478-0.787,2.635-2.395,3.285-3.852l-8.979-0.072v-6.126h16.542
		c0.369,4.257-0.174,8.332-2.448,11.583c-3.676,5.449-9.768,7.918-16.04,6.385c-4.646-0.971-9.16-5.416-10.596-10.09
		c-1.447,4.824-6.135,9.195-10.891,10.164c-6.451,1.416-12.579-1.346-16.11-7.061c-2.992-4.516-2.955-11.804-0.037-16.364
		C57.669,1.65,63.865-1.045,70.316,0.378"/>
	<polygon fill-rule="evenodd" clip-rule="evenodd" fill="#757676" points="129.256,8.071 118.891,8.071 118.891,12.555 
		128.351,12.63 128.351,18.868 118.891,18.868 118.891,23.28 129.256,23.317 129.256,30.681 111.34,30.681 111.34,0.901 
		129.256,0.901 	"/>
	<path fill-rule="evenodd" clip-rule="evenodd" fill="#757676" d="M188.232,17.827c0.143,2.311,1.545,4.705,3.746,5.49
		c1.871,0.893,4.219,0.377,5.801-0.822c3.068-2.43,2.131-6.76,2.309-10.421V0.9h7.246l0.146,15.767
		c-0.115,5.234-2.055,10.314-6.707,12.926c-1.627,0.975-3.393,1.572-5.334,1.76c-1.373,0.076-2.852,0.076-4.111-0.264
		c-4.217-0.859-8.719-4.559-9.695-9.08c-0.43-2.09-0.645-4.256-0.689-6.501L180.908,0.9h7.281L188.232,17.827z"/>
	<path fill-rule="evenodd" clip-rule="evenodd" fill="#757676" d="M40.907,0.338l-15.679,30.34h8.866l2.051-4.598h9.519
		c0.726,1.455,1.402,3.027,2.055,4.562h8.829L40.907,0.338z M38.308,21.188l2.777-5.98l2.526,5.98H38.308z"/>
	<path fill-rule="evenodd" clip-rule="evenodd" fill="#757676" d="M169.02,0.338l-12.839,24.846v-0.039l-0.035-24.243h-7.676
		l-0.037,14.157L130.551,1.164v29.515h7.502l0.035-13.488l0.068,0.078l17.195,13.41l6.885-0.035l2.016-4.562h9.592l2.02,4.598h8.791
		v-0.076L169.02,0.338z M166.422,21.188l2.809-5.98l2.523,5.939L166.422,21.188z"/>
</g>
</svg>
