<svg id="Capa_1" xmlns="http://www.w3.org/2000/svg" viewBox="0 0 841.9 595.3"><style>.st0,.st1{fill:#575756}.st1{fill-rule:evenodd;clip-rule:evenodd}</style><path class="st0" d="M359.6 351.7v3l-2.6-1.6-.8 1.4 2.6 1.5-2.6 1.5.8 1.4 2.6-1.6v3.1h1.6v-3.1l2.5 1.6.8-1.4-2.6-1.5 2.6-1.5-.8-1.4-2.5 1.6v-3zM371.5 351.7v3l-2.6-1.6-.8 1.4 2.6 1.5-2.6 1.5.8 1.4 2.6-1.6v3.1h1.6v-3.1l2.5 1.6.8-1.4-2.6-1.5 2.6-1.5-.8-1.4-2.5 1.6v-3zM383.4 351.7v3l-2.6-1.6-.8 1.4 2.6 1.5-2.6 1.5.8 1.4 2.6-1.6v3.1h1.6v-3.1l2.5 1.6.8-1.4-2.6-1.5 2.6-1.5-.8-1.4-2.5 1.6v-3zM395.3 351.7v3l-2.5-1.6-.9 1.4 2.7 1.5-2.7 1.5.9 1.4 2.5-1.6v3.1h1.6v-3.1l2.5 1.6.8-1.4-2.6-1.5 2.6-1.5-.8-1.4-2.5 1.6v-3zM346.8 369.4h-4.2l2.1-13.4h.1l1.3 9.6.7 3.8zm-3.4-18.6l-5.8 26.5h3.4l1-5.2h5.3l1 5.2h3.5l-5.7-26.5h-2.7zm-14.4 3c2.7 0 3.4 2 3.4 4.4 0 2.9-.8 4.6-3.9 4.4v-8.8h.5zm-.5 23.5v-11.7c5.5.2 7.6-2.3 7.6-7.6 0-6.8-3.9-7.1-6.9-7.1H325v26.5h3.5zm-9.8-26c-1.1-.7-2.4-.9-3.7-.9-4 0-5.9 3-5.9 6.8 0 7 7.4 8 7.4 13.3 0 2-.9 3.7-3.1 3.7-1.4 0-2.4-.6-3.5-1.4v3.5c1.1.9 2.5 1.3 3.9 1.3 3.9 0 6.2-3.2 6.2-6.9 0-3.6-1.4-5.3-3.7-7.8l-2.7-2.9c-.7-.9-1-1.7-1-2.9 0-1.8 1.2-3.4 3.1-3.4 1.2 0 2.1.5 3 1.1v-3.5zm-17.2 26h3.9l-2.8-4.4 2.8-3.9-2.2-1.8-2.2 3.1-3.5-5.8c1.9-1.9 3.9-4.1 3.9-7 0-3.1-2.1-4.8-5-4.8-3 0-5.1 2.1-5.1 5 0 2.1 1 4.5 2.1 6.2-1.9 1.9-3.7 4.2-3.7 7.1 0 3.4 2.5 6.6 5.9 6.6 1.8 0 3.5-.9 4.6-2.4l1.3 2.1zm-2.7-4.5c-.6 1-1.5 1.8-2.7 1.8-1.8 0-3-1.9-3-3.7 0-1.8.8-2.9 2-4.2l3.7 6.1zm-2.7-11c-.6-1.3-1.5-2.6-1.5-4.1 0-1.1.9-2.3 2.1-2.3 1.3 0 1.9.9 1.9 2.1 0 1.8-1.4 3.1-2.5 4.3M289.8 342.1v-26h4v9.9h4.9v-9.9h4.3v26h-4.3v-11.5h-4.9v11.5h-4zM309.7 320.9c.8-2.7 2.5-4.9 5.9-4.9 6.6 0 6.7 8.4 6.7 13s-.1 13-6.7 13c-6.6 0-6.7-8.4-6.7-13-.1-2.2-.1-5.4.8-8.1zm8.9 8.1c0-5.5-.9-9.6-3-9.6-2.2 0-2.9 4.1-2.9 9.6s.7 9.8 2.9 9.8c2.1-.1 3-4.3 3-9.8zM326.8 319.7v-3.6h11.7v3.6h-3.7v22.2h-4.1v-22.2h-3.9zM344.2 341.9v-25.8h9.6v3.6h-5.6v7.2h5v3.6h-5v7.8h5.6v3.6h-9.6zM360.1 341.9v-25.8h4v22.2h5.6v3.6h-9.6zM380.3 331.5V328h6.8v.7c0 4.7.7 13.5-6.3 13.5-6.3 0-7-6.2-7-13.1 0-6.9.5-13.3 6.7-13.3 4 0 5.6 2.1 6.5 5.7l-3.8 1.6c-.3-1.5-.5-3.4-2.6-3.4-2.3 0-2.6 3.1-2.6 9.4 0 8.8 1.5 9.4 2.6 9.4.7 0 1.2 0 1.7-.7s.9-2.1.9-5.1v-1h-2.9v-.2zM393.3 320.8c.8-2.7 2.6-5 6-5 6.8 0 6.9 8.5 6.9 13.2 0 4.7-.1 13.2-6.9 13.2-6.7 0-6.9-8.5-6.9-13.2 0-2.3 0-5.5.9-8.2zm8.6 8.2c0-5.6-.5-9.4-2.6-9.4-2.2 0-2.6 3.8-2.6 9.4 0 5.6.5 9.4 2.6 9.4s2.6-3.8 2.6-9.4zM412.2 341.9v-25.8h4v22.2h5.6v3.6h-9.6zM426.5 341.9v-25.8h9.7v3.6h-5.7v7.2h5.1v3.6h-5.1v11.4h-4zM341.5 281.2c.8-.2 1.8-1.6 2.3-2.2l.8-1c.7-.9 1.6-1.8 2.6-2.2.6-.6 2-1.6 3.1-2.3l2.3-1.5c6.9-4.6 12.4-12.3 17.4-18.9l1.4-1.6 1-1.1c1-1 2.8-3 4.9-5l2.8-2.6 2.6-2.2c1.8-1.6 3.5-3.7 5.7-4.9 5.4-3.2 9.9-7.4 14.5-11.5 1.1-1 2.5-2 3.2-2.3.5-.3.7-1.3.7-1.8.3-.8 1.3-1.4 2.1-1.6 1.4-.8 4.2.7 4 2.5-1.1 1.8-2.4 3-3.8 4.6-1.4 1.6-3.4 3.9-5.5 5.6-1.8 1.5-12.2 11.1-21.8 18.7-2.7 2.2-6.9 7.1-8.7 10-.8 1.1-.3.4-1.5 2-.9 1.2-2.1 2.7-3.4 4.3l-7.5 8.9c-3.6 4.3-8.5 7.4-12.8 11-1.8 1.6-4.2 3.9-3.7 6.5-2 3.9-3.9 7.7-9 7.9-2.2 0-4.1-3.3-4.1-5 0-1 .2-4.9 1.4-8 .5-1.6.8-3.8 1-6.7.3-3 .3-6.4.6-8.3.5-3.2 1.7-7.1 2.4-12 .6-4.1.8-7.6 1.2-11.7.1-.8.3-2.5.4-3-.1-2.7.3-5 .3-5.6 0-2.8 1.9-4.7 2.4-7.3l-.4-.3c-.4-.4-.6-.4-1.2-.4l-1.2.1s-1.4.2-4.2.5c-1.1 0-3.4 1.7-4.5 1.5-1.9.9-2.8-1.4-3.9-2.4-1.3-1.2-4.7-4.7-3.9-6.6.5-1.3 1.9-1.8 2.8-2 1.9-.2 3.5 1.3 5.1 2.1.5.2 1.1.4 1.5.6l.5.2c.2 0 10.6-.6 14.3-2 3.6-1.4 6.1-2.3 6.6-2.3 2.1 0 4.2 1.1 5.8 2.2 0 1.6-.4 3.2-1.1 4.4-.4.7-1.4 1.5-2.4 2l-2.4 1.1c-1.1.9-1.7 2.1-2.5 3.3-.9 1.5-1.6 3.1-2.2 4.7-2.2 6.2-3.6 8.6-3.6 15.4 0 1-.1 2.9-.1 4.4-.1 2.6-.9 4.6-1 7 0 1-.3 1.9-.5 2.9 0 .3-.3 3.8-.7 5.4l-.5 2.4c.1 1.9.1 2.6.4 4.1zM467.4 251.9c-.7 2.5-1.1 4.5-2.8 6.5-1 1.1-2.1 1.1-3.5.7-1.9-.8-2.3-3.4-1.9-5.3l.2-1c.3-1.3.9-1.9 2.1-2.4.3-.1.5-.1.8-.2l.7-.1c.5 0 1-.1 1.4-.3 1.4-.4 3.5.4 3 2.1zM499.2 261.4c5.8-.4 10.8-.2 16.6-.5 1.7-.1 4.5-.2 6.2-.7 3.2.6 2.5 5.7-.7 5.7-7.1 0-14.7.2-21.7 1-1.2.1-2.6.3-3.8.7l-.9 1c-5.5 7.2-7.6 19.8-9.6 28.6-.9 1.7-2.2 2.4-4 2.2-1.1-.1-8.8.7-6.9-3 5.7-11.3 10.4-23 11.9-26.9-3.7.7-5 1.3-8.5 2.6-2.7 1-3.2-1.3-4.1-3l-.4-1.1c-.8-2.4.1-2.9 2.1-3.9 4.5-1.7 9.6-1.6 14.3-2.3l.6-.1.3-.1c.1-.1.2-.2.3-.4 4.5-6.6 12.4-23.8 15.2-30.3 1.4-3.3 7 0 8.1 1.9.3.5.4 1.1.2 1.7-1 1.8-2.9 4.2-4 6-1.8 2.8-3.9 6.2-5.4 9.5-1.7 3.7-5 9.1-5.9 11.4h.1z"/><path class="st0" d="M545.3 256.3c1.7-.7 4.1.5 5.1 2.2 1.1 1.9 1.5 6-1.6 6.3-13.6 1.1-25.8 30-30.9 40.7-3.9 9.5-13.9 31.7-22.1 39.3-6 5.6-14.4 7.7-19.4 7.8-7.3.1-14.9-3.8-17.6-6.8-7.2-7.9-9.1-12.6-8.8-31.8 0-1.3.9-2.3 1.4-2.8 2.2-2.3 3.6-5.3 5.1-8.1.4-.7.8-1.4 1.1-1.9.8-1 4.3-1.4 3.9 1.3-8.2 13.5-12.2 44.6 16.2 44.6 5.6 0 12.9-4.6 17.9-10.9 11.6-14.8 22.6-43.9 23-45.2.1-.5.4-1.4.5-2.2-5.3 4.9-11.2 9.9-18.5 12.4-3.5 1.2-8-.1-7.9-4.7.3-9 11.9-22 15.1-23.9 1-.5 1.6-.3 2.5 0 1.8-.2 4.4.2 3.6 2.7-4 4.2-13.3 12.6-12 18.6-.2.1-.3 0-.5-.2 3.7-1.3 11.7-7.4 14.4-9.5l1.7-1.4c.6-.7 11-11.5 17.2-19.1 3.2-4.1 6.9-5.9 10.6-7.4z"/><path class="st1" d="M389.5 270.1c-3.3-1.3-10.2 5.2-12.5 8-1 1.2-2 2.6-3 4-1.2 1.2-4.6 5.5-4.3 7.6.1.4.4.4.7.5l.2.3c1 .6 2.4-.7 2.8-1.1 1.7-1.1 4.7-3.6 6.2-5.1l2.4-2.4 1.5-1.5c.3-.4 2.2-3 3.2-4.2.7-.9 1.8-2.9 2.2-4.2.3-.6.6-1.3.6-1.9zm50.6 25.1c-1.7-1.3-2.1-3.6-1.5-5.8 3.1-11.6 9.8-20.2 17.5-25.5 3.2-2.2 7.1 4.3 3.1 7.2-4.8 3.4-12 13.8-13 19.5.8 1.9 10.8-2.7 11.8-3.7 0 0 1.7-.5 4.3-1.8 2.7-1.3 6.5-3.5 11.3-7 .8-.7 2.1-1.6 3.2-.9 1.3.7 1.1 2.1.5 3-2.9 3.3-10.4 7.9-14 10.1-4.7 2.2-10.3 5.8-15.5 6.4-5.3 4.2-10.9 7.1-16.8 6.1-3-.5-5.3-1.5-7.1-4.3-3.3-5.1-2.8-10.8-1.3-16.2-2.6 2.7-13.1 13.8-18.2 14.5l-1.3-1.6c-2.7 1.3-6.3 3.5-9.4 3.5-2.4-.2-4.7-1.5-6.4-3.1-1.6-2.4-2.2-4.8-2.6-7.6-1.4 1.3-2.7 2.8-4 4.2-1 1-1.8 1.6-2.5 2.2l-1 .7c-4.6 3.7-6.4 5.2-11.9 4-1.7-.7-3.6-2.5-3.5-4.6.2-4.3 2.2-9.4 5.4-14.3 2.9-4.4 5.6-8.1 11.2-11.3 4.1-3.3 7.9-5.4 13.1-6.5 4.5-1 7.4 2.7 7.1 6.7-.4 5.7-3.3 6.6-4 10.2l-.5.8-.7 1.4-1.6 3.3c-.2.4-.7 2.6-.4 4.7.9 6.3 7.6 2.9 10.5.6l2.3-4.5c1.7-4.2 7.5-16.8 8-20.6.3-2.4 3.2-1.9 4.4-.9.3.2.9.8 1.2.8 2 0 2.5 2 1.6 3.2-1.7 2.5-6.5 11.1-7.2 14.5 2.9-1 10.7-9.7 12.6-12l5.8-5.9 7.7 2.5-3.5 6.6c-2.8 6-8.2 13.2-5.1 20.2 2.9 2.7 7 2.5 10.4 1.2z"/></svg>