<?xml version="1.0" encoding="utf-8"?>
<!-- Generator: Adobe Illustrator 16.0.0, SVG Export Plug-In . SVG Version: 6.00 Build 0)  -->
<!DOCTYPE svg PUBLIC "-//W3C//DTD SVG 1.1//EN" "http://www.w3.org/Graphics/SVG/1.1/DTD/svg11.dtd">
<svg version="1.1" id="Layer_1" xmlns="http://www.w3.org/2000/svg" xmlns:xlink="http://www.w3.org/1999/xlink" x="0px" y="0px"
	 width="147.372px" height="37.193px" viewBox="0 0 147.372 37.193" enable-background="new 0 0 147.372 37.193"
	 xml:space="preserve">
<g>
	<path fill-rule="evenodd" clip-rule="evenodd" fill="#757676" d="M74.223,1.076c1.561,0,3.121,0.014,4.68-0.01
		c0.395-0.006,0.526,0.117,0.615,0.504C81.009,8.049,82.52,14.525,84.027,21c0.031,0.135,0.082,0.268,0.103,0.334
		c1.702-6.705,3.42-13.46,5.139-20.228c0.213-0.012,0.367-0.027,0.521-0.029c2.243,0,4.487,0.01,6.732-0.01
		c0.361-0.002,0.518,0.102,0.612,0.457c1.722,6.51,3.456,13.016,5.188,19.521c0.041,0.15,0.093,0.299,0.255,0.461
		c0.112-0.547,0.221-1.096,0.341-1.639c1.051-4.726,2.102-9.453,3.156-14.177c0.312-1.402,0.65-2.803,0.952-4.209
		c0.063-0.293,0.156-0.412,0.472-0.41c2.718,0.012,5.434,0.006,8.151,0.008c0.053,0,0.103,0.018,0.213,0.037
		c-0.282,1.121-0.557,2.236-0.842,3.35c-2.656,10.271-5.32,20.541-7.955,30.818c-0.153,0.598-0.385,0.752-0.979,0.742
		c-2.367-0.039-4.733-0.033-7.1-0.002c-0.488,0.006-0.651-0.17-0.765-0.607c-1.623-6.227-3.261-12.451-4.897-18.675
		c-0.032-0.129-0.079-0.252-0.233-0.393c-0.186,0.678-0.375,1.354-0.557,2.031c-1.524,5.71-3.052,11.419-4.566,17.132
		c-0.095,0.357-0.219,0.514-0.626,0.51c-2.401-0.023-4.803-0.021-7.205-0.004c-0.359,0.004-0.522-0.1-0.62-0.451
		c-3.195-11.305-6.4-22.609-9.604-33.912c-0.046-0.166-0.085-0.332-0.148-0.578H74.223z"/>
	<polygon fill-rule="evenodd" clip-rule="evenodd" fill="#757676" points="58.475,8.855 58.475,14.061 69.027,14.061 69.027,22.269 
		58.554,22.269 58.554,28.015 69.149,28.015 69.149,35.972 49.341,35.972 49.341,1.105 69.035,1.105 69.035,8.855 	"/>
	<polygon fill-rule="evenodd" clip-rule="evenodd" fill="#757676" points="116.657,35.978 116.657,1.117 136.361,1.117 
		136.361,8.838 125.839,8.838 125.839,14.059 136.379,14.059 136.379,22.298 125.896,22.298 125.896,28.023 136.466,28.023 
		136.466,35.978 	"/>
	<polygon fill-rule="evenodd" clip-rule="evenodd" fill="#757676" points="9.229,27.482 18.23,27.482 18.23,35.91 0,35.91 0,1.139 
		9.229,1.139 	"/>
	<rect x="140.012" y="28.019" fill-rule="evenodd" clip-rule="evenodd" fill="#757676" width="7.36" height="7.998"/>
	<path fill-rule="evenodd" clip-rule="evenodd" fill="#757676" d="M47.709,15.133c-0.294-3.014-1.132-5.869-2.802-8.461
		c-1.859-2.881-4.294-4.988-7.592-5.986C36.317,0.383,35.276,0.225,34.256,0h-2.524c-0.602,0.105-1.202,0.209-1.801,0.32
		c-3.131,0.588-5.787,2-7.882,4.459c-2.658,3.117-3.771,6.805-3.981,10.816c-0.083,1.594-0.073,3.201,0.004,4.796
		c0.101,2.016,0.28,4.027,0.823,5.994c2.05,7.426,9.413,11.73,16.19,10.639c5.712-0.918,10.582-5.201,11.992-10.936
		C47.964,22.488,48.068,18.809,47.709,15.133 M38.769,22.593c-0.229,1.826-0.944,3.459-2.453,4.625
		c-2.235,1.725-7.102,1.588-8.711-2.568c-0.575-1.479-0.622-3.014-0.699-4.557c-0.024-0.51-0.004-1.021-0.004-1.531
		c0.055-1.98-0.056-3.977,0.632-5.893c1.69-4.717,7.262-4.549,9.414-2.195c1.045,1.139,1.622,2.508,1.821,4.014
		C39.124,17.186,39.106,19.898,38.769,22.593"/>
</g>
</svg>
