<svg xmlns="http://www.w3.org/2000/svg" width="147.372" height="37.193" viewBox="0 0 147.372 37.193"><g fill-rule="evenodd" clip-rule="evenodd" fill="#757676"><path d="M74.223 1.076c1.561 0 3.121.014 4.68-.01.395-.006.526.117.615.504C81.009 8.049 82.52 14.525 84.027 21c.031.135.082.268.103.334 1.702-6.705 3.42-13.46 5.139-20.228.213-.012.367-.027.521-.029 2.243 0 4.487.01 6.732-.01.361-.002.518.102.612.457 1.722 6.51 3.456 13.016 5.188 19.521.041.15.093.299.255.461.112-.547.221-1.096.341-1.639 1.051-4.726 2.102-9.453 3.156-14.177.312-1.402.65-2.803.952-4.209.063-.293.156-.412.472-.41 2.718.012 5.434.006 8.151.008.053 0 .103.018.213.037-.282 1.121-.557 2.236-.842 3.35-2.656 10.271-5.32 20.541-7.955 30.818-.153.598-.385.752-.979.742a240.06 240.06 0 0 0-7.1-.002c-.488.006-.651-.17-.765-.607-1.623-6.227-3.261-12.451-4.897-18.675a.713.713 0 0 0-.233-.393c-.186.678-.375 1.354-.557 2.031-1.524 5.71-3.052 11.419-4.566 17.132-.095.357-.219.514-.626.51a432.602 432.602 0 0 0-7.205-.004c-.359.004-.522-.1-.62-.451-3.195-11.305-6.4-22.609-9.604-33.912-.046-.166-.085-.332-.148-.578h4.458zM58.475 8.855v5.206h10.552v8.208H58.554v5.746h10.595v7.957H49.341V1.105h19.694v7.75zM116.657 35.978V1.117h19.704v7.721h-10.522v5.221h10.54v8.239h-10.483v5.725h10.57v7.955zM9.229 27.482h9.001v8.428H0V1.139h9.229zM140.012 28.019h7.36v7.998h-7.36zM47.709 15.133c-.294-3.014-1.132-5.869-2.802-8.461-1.859-2.881-4.294-4.988-7.592-5.986C36.317.383 35.276.225 34.256 0h-2.524c-.602.105-1.202.209-1.801.32-3.131.588-5.787 2-7.882 4.459-2.658 3.117-3.771 6.805-3.981 10.816a47.95 47.95 0 0 0 .004 4.796c.101 2.016.28 4.027.823 5.994 2.05 7.426 9.413 11.73 16.19 10.639 5.712-.918 10.582-5.201 11.992-10.936.887-3.6.991-7.279.632-10.955m-8.94 7.46c-.229 1.826-.944 3.459-2.453 4.625-2.235 1.725-7.102 1.588-8.711-2.568-.575-1.479-.622-3.014-.699-4.557-.024-.51-.004-1.021-.004-1.531.055-1.98-.056-3.977.632-5.893 1.69-4.717 7.262-4.549 9.414-2.195 1.045 1.139 1.622 2.508 1.821 4.014.355 2.698.337 5.41 0 8.105"/></g></svg>