<?xml version="1.0" encoding="utf-8"?>
<!-- Generator: Adobe Illustrator 16.0.0, SVG Export Plug-In . SVG Version: 6.00 Build 0)  -->
<!DOCTYPE svg PUBLIC "-//W3C//DTD SVG 1.1//EN" "http://www.w3.org/Graphics/SVG/1.1/DTD/svg11.dtd">
<svg version="1.1" id="Layer_1" xmlns="http://www.w3.org/2000/svg" xmlns:xlink="http://www.w3.org/1999/xlink" x="0px" y="0px"
	 width="3109.635px" height="1110.407px" viewBox="0 0 3109.635 1110.407" enable-background="new 0 0 3109.635 1110.407"
	 xml:space="preserve">
<g>
	<polygon fill="#747071" points="354.437,173.53 386.545,173.53 386.545,267.531 494.087,267.531 494.087,173.53 526.199,173.53 
		526.199,398.093 494.087,398.093 494.087,295.858 386.545,295.858 386.545,398.093 354.437,398.093 	"/>
	<g>
		<g>
			<path fill="#747071" d="M737.802,285.81c0-16.731,2.417-32.176,7.24-46.325c4.828-14.158,11.908-26.388,21.242-36.68
				c9.319-10.3,20.634-18.395,33.934-24.294c13.295-5.898,28.526-8.849,45.694-8.849c16.939,0,32.121,2.95,45.52,8.849
				c13.414,5.899,24.778,13.994,34.112,24.294c9.334,10.292,16.405,22.522,21.228,36.68c4.838,14.148,7.239,29.594,7.239,46.325
				c0,17.167-2.401,32.814-7.239,46.973c-4.823,14.159-11.845,26.383-21.074,36.683c-9.22,10.3-20.535,18.279-33.944,23.965
				c-13.404,5.677-28.685,8.53-45.842,8.53c-17.168,0-32.448-2.853-45.853-8.53c-13.409-5.686-24.723-13.665-33.943-23.965
				c-9.225-10.3-16.246-22.523-21.074-36.683C740.219,318.624,737.802,302.978,737.802,285.81 M771.845,285.81
				c0,11.151,1.451,21.983,4.352,32.495c2.887,10.513,7.349,19.894,13.355,28.153c6.011,8.259,13.686,14.85,23.035,19.783
				c9.329,4.932,20.44,7.398,33.325,7.398c12.879,0,23.985-2.466,33.334-7.398c9.329-4.933,17.004-11.524,23.015-19.783
				c6.007-8.259,10.468-17.64,13.37-28.153c2.887-10.512,4.337-21.344,4.337-32.495c0-11.363-1.554-22.36-4.664-32.969
				c-3.105-10.619-7.725-20-13.84-28.153c-6.115-8.152-13.805-14.637-23.03-19.465c-9.24-4.827-20.079-7.237-32.522-7.237
				c-12.454,0-23.293,2.41-32.528,7.237c-9.235,4.828-16.9,11.313-23.02,19.465c-6.115,8.153-10.735,17.534-13.855,28.153
				C773.405,263.45,771.845,274.447,771.845,285.81"/>
			<path fill="#747071" d="M1338.625,305.124c0,31.75-7.556,55.813-22.669,72.224c-15.112,16.422-36.607,24.613-64.47,24.613
				c-27.868,0-49.358-8.191-64.47-24.613c-15.113-16.411-22.664-40.474-22.664-72.224V173.53h32.105v127.396
				c0,10.726,0.906,20.542,2.734,29.439c1.822,8.907,4.882,16.576,9.17,22.998c4.298,6.431,9.977,11.441,17.063,14.971
				c7.066,3.53,15.761,5.304,26.061,5.304c10.299,0,18.979-1.774,26.065-5.304s12.766-8.54,17.054-14.971
				c4.298-6.422,7.353-14.091,9.18-22.998c1.812-8.897,2.733-18.714,2.733-29.439V173.53h32.107V305.124z"/>
			<path fill="#747071" d="M1662.448,207.307c-4.09-1.499-7.784-2.833-11.122-4.018c-3.317-1.175-6.605-2.191-9.819-3.045
				c-3.218-0.861-6.556-1.451-9.986-1.773c-3.432-0.321-7.205-0.483-11.271-0.483c-4.516,0-9.086,0.483-13.701,1.443
				c-4.625,0.967-8.849,2.577-12.716,4.831c-3.872,2.253-6.997,5.307-9.334,9.168c-2.372,3.861-3.561,8.678-3.561,14.471
				c0,7.296,2.373,13.249,7.091,17.854c4.71,4.623,10.686,8.849,17.86,12.708c7.186,3.868,14.975,7.669,23.338,11.421
				c8.363,3.758,16.152,8.424,23.326,14.004c7.186,5.57,13.152,12.437,17.871,20.59c4.709,8.153,7.081,18.337,7.081,30.562
				c0,12.011-2.148,22.258-6.432,30.734c-4.304,8.462-10.201,15.387-17.697,20.744c-7.517,5.368-16.247,9.285-26.21,11.751
				c-9.982,2.466-20.549,3.694-31.689,3.694c-7.934,0-15.718-0.967-23.308-2.901c-7.626-1.92-15.197-4.062-22.689-6.431
				l3.219-29.918c2.771,1.078,6.006,2.258,9.64,3.544c3.655,1.277,7.527,2.467,11.587,3.531c4.09,1.063,8.319,1.982,12.716,2.727
				c4.402,0.754,8.642,1.126,12.722,1.126c4.496,0,9.378-0.691,14.651-2.093c5.249-1.403,10.037-3.53,14.311-6.432
				c4.303-2.901,7.883-6.644,10.785-11.267c2.9-4.603,4.352-10.232,4.352-16.876c0-8.365-2.372-15.174-7.081-20.435
				c-4.718-5.252-10.685-9.865-17.87-13.83c-7.175-3.965-14.964-7.775-23.327-11.42c-8.363-3.646-16.152-7.989-23.337-13.038
				c-7.185-5.039-13.142-11.316-17.871-18.82c-4.709-7.505-7.071-17.051-7.071-28.632c0-9.869,1.877-18.61,5.62-26.227
				c3.764-7.61,8.859-13.989,15.292-19.139c6.446-5.15,14.067-9.067,22.871-11.75c8.77-2.677,18.228-4.019,28.309-4.019
				c7.521,0,15.454,0.648,23.818,1.929c8.367,1.292,16.414,3.33,24.148,6.118L1662.448,207.307z"/>
			<rect x="1885.564" y="173.53" fill="#747071" width="32.106" height="224.562"/>
			<polygon fill="#747071" points="2138.8,173.53 2182.484,173.53 2281.666,354.33 2282.325,354.33 2282.325,173.53 2314.43,173.53 
				2314.43,398.093 2273.297,398.093 2171.536,213.424 2170.912,213.424 2170.912,398.093 2138.8,398.093 			"/>
			<path fill="#747071" d="M2706.324,213.419c-7.948-5.14-16.583-9.001-25.917-11.571c-9.334-2.573-21.297-3.861-35.881-3.861
				c-12.883,0-24.633,2.2-35.25,6.593c-10.611,4.4-19.732,10.564-27.342,18.494c-7.621,7.949-13.47,17.272-17.555,27.998
				c-4.09,10.721-6.12,22.302-6.12,34.739c0,13.298,2.203,25.31,6.606,36.035c4.4,10.726,10.462,19.942,18.201,27.669
				c7.734,7.718,16.762,13.666,27.061,17.854c10.3,4.178,21.248,6.271,32.835,6.271c5.58,0,10.2-0.11,13.844-0.324
				c3.66-0.222,6.819-0.532,9.509-0.967c2.679-0.416,5-0.851,6.937-1.286c1.911-0.421,3.848-0.842,5.784-1.277v-68.114h-47.323
				V275.27h79.429V392c-6.219,2.142-14.796,4.333-25.724,6.576c-10.958,2.254-25.223,3.385-42.797,3.385
				c-17.796,0-33.993-2.727-48.576-8.191c-14.606-5.479-27.03-13.298-37.33-23.5c-10.299-10.185-18.28-22.516-23.956-37.003
				c-5.688-14.469-8.542-30.614-8.542-48.413c0-17.38,2.951-33.153,8.849-47.303c5.902-14.159,14.173-26.274,24.789-36.356
				c10.61-10.083,23.162-17.853,37.642-23.332c14.459-5.464,30.299-8.201,47.437-8.201c8.151,0,15.355,0.271,21.564,0.802
				c6.22,0.54,11.8,1.345,16.732,2.418c4.932,1.072,9.605,2.306,14.002,3.699c4.373,1.393,8.948,2.844,13.657,4.343
				L2706.324,213.419z"/>
			<path fill="#747071" d="M350.956,722.574h66.271c16.732,0,32.336,2.53,46.809,7.561c14.482,5.046,27.135,12.281,37.969,21.708
				c10.829,9.453,19.356,20.991,25.58,34.598c6.215,13.617,9.324,29.11,9.324,46.495c0,18.861-2.783,35.449-8.368,49.7
				c-5.576,14.266-13.513,26.175-23.803,35.716c-10.284,9.527-22.835,16.732-37.646,21.55c-14.797,4.833-31.417,7.244-49.865,7.244
				h-66.271V722.574z M383.064,918.817h33.81c27.699,0,48.961-6.868,63.772-20.589c14.823-13.726,22.221-35.068,22.221-64.015
				c0-13.073-2.095-24.768-6.279-35.058c-4.189-10.299-9.985-19.024-17.392-26.228c-7.399-7.185-16.103-12.647-26.088-16.39
				c-9.986-3.754-20.769-5.64-32.365-5.64h-37.679V918.817z"/>
			<polygon fill="#747071" points="725.205,722.574 851.051,722.574 851.051,750.897 757.317,750.897 757.317,816.586 
				842.688,816.586 842.688,844.9 757.317,844.9 757.317,918.818 851.051,918.818 851.051,947.146 725.205,947.146 			"/>
			<polygon fill="#747071" points="1040.63,722.574 1084.323,722.574 1183.51,903.393 1184.153,903.393 1184.153,722.574 
				1216.26,722.574 1216.26,947.146 1175.132,947.146 1073.38,762.475 1072.741,762.475 1072.741,947.146 1040.63,947.146 			"/>
			<polygon fill="#747071" points="1412.176,722.574 1465.272,722.574 1535.734,909.167 1604.924,722.574 1658.015,722.574 
				1658.015,947.146 1625.91,947.146 1625.91,752.814 1625.26,752.814 1550.863,947.146 1519.334,947.146 1444.921,752.814 
				1444.283,752.814 1444.283,947.146 1412.176,947.146 			"/>
			<path fill="#747071" d="M1925.186,722.574h33.846l94.951,224.572h-35.008l-22.871-56.676h-110.135l-22.847,56.676h-33.85
				L1925.186,722.574z M1940.998,752.813l-44.729,111.263h89.507L1940.998,752.813z"/>
			<path fill="#747071" d="M2222.865,722.573h55.009c11.141,0,21.924,0.644,32.318,1.922c10.398,1.307,19.684,4.09,27.838,8.363
				c8.141,4.308,14.697,10.428,19.629,18.356c4.932,7.932,7.402,18.667,7.402,32.176c0,6.867-1.193,13.186-3.561,18.984
				c-2.342,5.774-5.63,10.884-9.818,15.281c-4.174,4.402-9.111,8.046-14.796,10.928c-5.675,2.902-11.75,4.888-18.183,5.962v0.634
				c4.933,1.936,8.898,4.451,11.924,7.576c3,3.105,6.338,8.096,9.982,14.95l42.535,89.441h-36.682l-34.498-77.845
				c-2.596-5.368-5.176-9.557-7.74-12.553c-2.59-3-5.367-5.194-8.393-6.595c-2.996-1.392-6.26-2.204-9.814-2.417
				c-3.531-0.203-7.447-0.322-11.725-0.322h-19.322v99.732h-32.106V722.573z M2254.971,819.097h27.397
				c15.444,0,27.417-3.11,35.899-9.319c8.492-6.229,12.751-14.801,12.751-25.758c0-10.27-3.823-18.371-11.444-24.273
				c-7.64-5.898-18.861-8.849-33.676-8.849h-30.928V819.097z"/>
			<polygon fill="#747071" points="2561.384,722.574 2593.49,722.574 2593.49,821.354 2689.478,722.574 2732.295,722.574 
				2626.567,828.752 2740.658,947.146 2693.687,947.146 2593.49,837.116 2593.49,947.146 2561.384,947.146 			"/>
			<polygon fill="#747071" points="2781.469,130.706 2754.612,130.706 2754.612,119.812 2820.717,119.812 2820.717,130.706 
				2793.848,130.706 2793.848,206.175 2781.469,206.175 			"/>
			<polygon fill="#747071" points="2833.195,119.812 2853.6,119.812 2880.675,191.579 2907.27,119.812 2927.682,119.812 
				2927.682,206.176 2915.302,206.176 2915.302,131.441 2915.031,131.441 2886.479,206.176 2874.393,206.176 2845.811,131.441 
				2845.574,131.441 2845.574,206.176 2833.195,206.176 			"/>
		</g>
		<g>
			<g>
				<path fill="#747071" d="M3109.635,1110.407H0V0h3109.635V1110.407z M14.855,1095.552H3094.78V544.543H14.855V1095.552z
					 M14.855,529.688H3094.78V14.855H14.855V529.688z"/>
			</g>
		</g>
	</g>
</g>
</svg>
