<svg xmlns="http://www.w3.org/2000/svg" width="3109.635" height="1110.407" viewBox="0 0 3109.635 1110.407"><path fill="#747071" d="M354.437 173.53h32.108v94.001h107.542V173.53h32.112v224.563h-32.112V295.858H386.545v102.235h-32.108z"/><g fill="#747071"><path d="M737.802 285.81c0-16.731 2.417-32.176 7.24-46.325 4.828-14.158 11.908-26.388 21.242-36.68 9.319-10.3 20.634-18.395 33.934-24.294 13.295-5.898 28.526-8.849 45.694-8.849 16.939 0 32.121 2.95 45.52 8.849 13.414 5.899 24.778 13.994 34.112 24.294 9.334 10.292 16.405 22.522 21.228 36.68 4.838 14.148 7.239 29.594 7.239 46.325 0 17.167-2.401 32.814-7.239 46.973-4.823 14.159-11.845 26.383-21.074 36.683-9.22 10.3-20.535 18.279-33.944 23.965-13.404 5.677-28.685 8.53-45.842 8.53-17.168 0-32.448-2.853-45.853-8.53-13.409-5.686-24.723-13.665-33.943-23.965-9.225-10.3-16.246-22.523-21.074-36.683-4.823-14.159-7.24-29.805-7.24-46.973m34.043 0c0 11.151 1.451 21.983 4.352 32.495 2.887 10.513 7.349 19.894 13.355 28.153 6.011 8.259 13.686 14.85 23.035 19.783 9.329 4.932 20.44 7.398 33.325 7.398 12.879 0 23.985-2.466 33.334-7.398 9.329-4.933 17.004-11.524 23.015-19.783 6.007-8.259 10.468-17.64 13.37-28.153 2.887-10.512 4.337-21.344 4.337-32.495 0-11.363-1.554-22.36-4.664-32.969-3.105-10.619-7.725-20-13.84-28.153-6.115-8.152-13.805-14.637-23.03-19.465-9.24-4.827-20.079-7.237-32.522-7.237-12.454 0-23.293 2.41-32.528 7.237-9.235 4.828-16.9 11.313-23.02 19.465-6.115 8.153-10.735 17.534-13.855 28.153-3.104 10.609-4.664 21.606-4.664 32.969M1338.625 305.124c0 31.75-7.556 55.813-22.669 72.224-15.112 16.422-36.607 24.613-64.47 24.613-27.868 0-49.358-8.191-64.47-24.613-15.113-16.411-22.664-40.474-22.664-72.224V173.53h32.105v127.396c0 10.726.906 20.542 2.734 29.439 1.822 8.907 4.882 16.576 9.17 22.998 4.298 6.431 9.977 11.441 17.063 14.971 7.066 3.53 15.761 5.304 26.061 5.304 10.299 0 18.979-1.774 26.065-5.304s12.766-8.54 17.054-14.971c4.298-6.422 7.353-14.091 9.18-22.998 1.812-8.897 2.733-18.714 2.733-29.439V173.53h32.107v131.594zM1662.448 207.307c-4.09-1.499-7.784-2.833-11.122-4.018a127.625 127.625 0 0 0-9.819-3.045 60.494 60.494 0 0 0-9.986-1.773c-3.432-.321-7.205-.483-11.271-.483-4.516 0-9.086.483-13.701 1.443-4.625.967-8.849 2.577-12.716 4.831-3.872 2.253-6.997 5.307-9.334 9.168-2.372 3.861-3.561 8.678-3.561 14.471 0 7.296 2.373 13.249 7.091 17.854 4.71 4.623 10.686 8.849 17.86 12.708 7.186 3.868 14.975 7.669 23.338 11.421 8.363 3.758 16.152 8.424 23.326 14.004 7.186 5.57 13.152 12.437 17.871 20.59 4.709 8.153 7.081 18.337 7.081 30.562 0 12.011-2.148 22.258-6.432 30.734-4.304 8.462-10.201 15.387-17.697 20.744-7.517 5.368-16.247 9.285-26.21 11.751-9.982 2.466-20.549 3.694-31.689 3.694a94.11 94.11 0 0 1-23.308-2.901 395.762 395.762 0 0 1-22.689-6.431l3.219-29.918c2.771 1.078 6.006 2.258 9.64 3.544a151.98 151.98 0 0 0 11.587 3.531 150.262 150.262 0 0 0 12.716 2.727c4.402.754 8.642 1.126 12.722 1.126 4.496 0 9.378-.691 14.651-2.093 5.249-1.403 10.037-3.53 14.311-6.432 4.303-2.901 7.883-6.644 10.785-11.267 2.9-4.603 4.352-10.232 4.352-16.876 0-8.365-2.372-15.174-7.081-20.435-4.718-5.252-10.685-9.865-17.87-13.83-7.175-3.965-14.964-7.775-23.327-11.42-8.363-3.646-16.152-7.989-23.337-13.038-7.185-5.039-13.142-11.316-17.871-18.82-4.709-7.505-7.071-17.051-7.071-28.632 0-9.869 1.877-18.61 5.62-26.227 3.764-7.61 8.859-13.989 15.292-19.139 6.446-5.15 14.067-9.067 22.871-11.75 8.77-2.677 18.228-4.019 28.309-4.019 7.521 0 15.454.648 23.818 1.929 8.367 1.292 16.414 3.33 24.148 6.118l-4.516 29.597zM1885.564 173.53h32.106v224.562h-32.106zM2138.8 173.53h43.684l99.182 180.8h.659v-180.8h32.105v224.563h-41.133l-101.761-184.669h-.624v184.669H2138.8zM2706.324 213.419c-7.948-5.14-16.583-9.001-25.917-11.571-9.334-2.573-21.297-3.861-35.881-3.861-12.883 0-24.633 2.2-35.25 6.593-10.611 4.4-19.732 10.564-27.342 18.494-7.621 7.949-13.47 17.272-17.555 27.998-4.09 10.721-6.12 22.302-6.12 34.739 0 13.298 2.203 25.31 6.606 36.035 4.4 10.726 10.462 19.942 18.201 27.669 7.734 7.718 16.762 13.666 27.061 17.854 10.3 4.178 21.248 6.271 32.835 6.271 5.58 0 10.2-.11 13.844-.324 3.66-.222 6.819-.532 9.509-.967 2.679-.416 5-.851 6.937-1.286 1.911-.421 3.848-.842 5.784-1.277v-68.114h-47.323V275.27h79.429V392c-6.219 2.142-14.796 4.333-25.724 6.576-10.958 2.254-25.223 3.385-42.797 3.385-17.796 0-33.993-2.727-48.576-8.191-14.606-5.479-27.03-13.298-37.33-23.5-10.299-10.185-18.28-22.516-23.956-37.003-5.688-14.469-8.542-30.614-8.542-48.413 0-17.38 2.951-33.153 8.849-47.303 5.902-14.159 14.173-26.274 24.789-36.356 10.61-10.083 23.162-17.853 37.642-23.332 14.459-5.464 30.299-8.201 47.437-8.201 8.151 0 15.355.271 21.564.802 6.22.54 11.8 1.345 16.732 2.418 4.932 1.072 9.605 2.306 14.002 3.699 4.373 1.393 8.948 2.844 13.657 4.343l-2.565 32.495zM350.956 722.574h66.271c16.732 0 32.336 2.53 46.809 7.561 14.482 5.046 27.135 12.281 37.969 21.708 10.829 9.453 19.356 20.991 25.58 34.598 6.215 13.617 9.324 29.11 9.324 46.495 0 18.861-2.783 35.449-8.368 49.7-5.576 14.266-13.513 26.175-23.803 35.716-10.284 9.527-22.835 16.732-37.646 21.55-14.797 4.833-31.417 7.244-49.865 7.244h-66.271V722.574zm32.108 196.243h33.81c27.699 0 48.961-6.868 63.772-20.589 14.823-13.726 22.221-35.068 22.221-64.015 0-13.073-2.095-24.768-6.279-35.058-4.189-10.299-9.985-19.024-17.392-26.228-7.399-7.185-16.103-12.647-26.088-16.39-9.986-3.754-20.769-5.64-32.365-5.64h-37.679v167.92zM725.205 722.574h125.846v28.323h-93.734v65.689h85.371V844.9h-85.371v73.918h93.734v28.328H725.205zM1040.63 722.574h43.693l99.187 180.819h.643V722.574h32.107v224.572h-41.128L1073.38 762.475h-.639v184.671h-32.111zM1412.176 722.574h53.096l70.462 186.593 69.19-186.593h53.091v224.572h-32.105V752.814h-.65l-74.397 194.332h-31.529l-74.413-194.332h-.638v194.332h-32.107zM1925.186 722.574h33.846l94.951 224.572h-35.008l-22.871-56.676h-110.135l-22.847 56.676h-33.85l95.914-224.572zm15.812 30.239l-44.729 111.263h89.507l-44.778-111.263zM2222.865 722.573h55.009c11.141 0 21.924.644 32.318 1.922 10.398 1.307 19.684 4.09 27.838 8.363 8.141 4.308 14.697 10.428 19.629 18.356 4.932 7.932 7.402 18.667 7.402 32.176 0 6.867-1.193 13.186-3.561 18.984-2.342 5.774-5.63 10.884-9.818 15.281-4.174 4.402-9.111 8.046-14.796 10.928-5.675 2.902-11.75 4.888-18.183 5.962v.634c4.933 1.936 8.898 4.451 11.924 7.576 3 3.105 6.338 8.096 9.982 14.95l42.535 89.441h-36.682l-34.498-77.845c-2.596-5.368-5.176-9.557-7.74-12.553-2.59-3-5.367-5.194-8.393-6.595-2.996-1.392-6.26-2.204-9.814-2.417a204.834 204.834 0 0 0-11.725-.322h-19.322v99.732h-32.106V722.573zm32.106 96.524h27.397c15.444 0 27.417-3.11 35.899-9.319 8.492-6.229 12.751-14.801 12.751-25.758 0-10.27-3.823-18.371-11.444-24.273-7.64-5.898-18.861-8.849-33.676-8.849h-30.928v68.199zM2561.384 722.574h32.106v98.78l95.988-98.78h42.817l-105.728 106.178 114.091 118.394h-46.971l-100.197-110.03v110.03h-32.106zM2781.469 130.706h-26.857v-10.894h66.105v10.894h-26.869v75.469h-12.379zM2833.195 119.812h20.405l27.075 71.767 26.595-71.767h20.412v86.364h-12.38v-74.735h-.271l-28.552 74.735h-12.086l-28.582-74.735h-.237v74.735h-12.379z"/></g><path fill="#747071" d="M3109.635 1110.407H0V0h3109.635v1110.407zm-3094.78-14.855H3094.78V544.543H14.855v551.009zm0-565.864H3094.78V14.855H14.855v514.833z"/></svg>