<svg xmlns="http://www.w3.org/2000/svg" width="239.258" height="49.438" viewBox="0 0 239.258 49.438"><path fill="#757676" d="M28.063 3.336L25.002.227a.768.768 0 0 0-1.091 0L20.85 3.336a2.185 2.185 0 0 1-1.618.681h-8.995a.574.574 0 0 0-.419.174L6.787 7.274a.763.763 0 0 0 0 1.076l1.744 1.773c1.41 1.434.608 2.898-1.271 3.609C1.42 15.944-1.647 22.149.908 29.48c.734 2.105 1.872 4.029 3.363 5.834.748.908.81 2.148-.02 2.979l-1.764 1.762a.77.77 0 0 0 0 1.086l2.891 2.896a.762.762 0 0 0 1.081.002l2.206-2.207c.682-.683 1.733-.883 2.518-.322 3.711 2.643 8.188 5.182 13.197 7.896l.075.032.078-.032c5.009-2.716 9.486-5.255 13.197-7.896.784-.561 1.835-.359 2.518.322l2.204 2.207a.764.764 0 0 0 1.083-.002l2.891-2.896a.771.771 0 0 0-.002-1.086l-1.762-1.762c-.831-.83-.768-2.07-.02-2.979 1.491-1.805 2.629-3.729 3.363-5.834 2.556-7.331-.514-13.536-6.352-15.748-1.88-.711-2.682-2.177-1.271-3.609l1.744-1.773a.767.767 0 0 0 0-1.076l-3.032-3.083a.576.576 0 0 0-.422-.174H29.68a2.182 2.182 0 0 1-1.617-.681zm-3.609 14.756l-2.837 2.836-9.995 9.997a.636.636 0 0 0 .028.922l3.284 2.881a.628.628 0 0 0 .862-.024l13.562-13.562c.79-.699 2.334-2.507 5.961-2.826 2.826-.247 5.867.185 7.392 2.889 1.01 2.095 1.089 4.26.237 6.422-1.598 4.164-5.036 7.26-8.646 9.707a122.59 122.59 0 0 1-9.855 6.006 109.426 109.426 0 0 1-11.027-6.865 27.946 27.946 0 0 1-4.856-4.42c-2.37-2.713-4.638-7.865-2.138-11.202 2.402-3.212 7.389-3.606 10.029-1.873l2.115 1.367a.618.618 0 0 0 .788-.083l3.182-3.186a.636.636 0 0 0-.002-.896l-4.961-4.947c-.731-.729-.214-1.979.817-1.979H30.52c.962 0 1.476 1.09.948 1.827l-7.014 7.009zm9.588 16.702l3.296-2.871a.635.635 0 0 0 .03-.924l-7.144-7.144a.633.633 0 0 0-.895 0l-3.079 3.086a.634.634 0 0 0 .002.894l6.93 6.93c.236.238.609.25.86.029zm148.619 2.6c-.199.082-.44.738-.59.972-.189.297-.557.584-.857.778-.851.558-1.827.203-1.827 1.449 0 .211.036.217.073.469l3.592.158h7.484c.284 0 .438-.066.625-.158.228-.418.155-.469.155-.936 0-.744-2.729-.299-2.729-2.105l1.639-5.074 10.828.005 1.727 4.989v.47c0 1.393-2.339.696-2.339 2.028v.078c0 .383.313.703.701.703l6.55.018 6.314-.1c.289-.428.271-.838.156-1.324l-.39-.155c-1.499 0-2.034-1.541-2.535-2.613L200.361 9.7c-.507-1.005-1.08-1.482-1.948-1.482h-2.965c-1.43 0-1.926 1.804-2.328 2.896l-10.459 26.28zm12.866-19.112h.156c1.358 3.84 2.741 7.537 4.078 11.381l-8.289.008 4.055-11.154v-.235zm-29.025-6.442a1.243 1.243 0 0 1-.062-.425v-.154c0-1.53 2.418-1.159 2.418-1.951 0-.562-.18-1.015-.856-1.015h-11.854c-1.367 0-1.11 1.242-.608 1.467.687.309 1.277.518 1.649 1.159.613 1.051 1.151 2.755 1.644 3.976l9.062 23.461c.609 1.228 1.329 2.861 2.523 2.861h2.062c1.479.006 1.565-.936 2.162-2.67 3.108-9.025 6.86-17.39 10.43-26.307.017.006.749-1.638 1.126-1.89.407-.274 1.844-.631 1.844-1.044v-.466c0-.218-.33-.547-.547-.547H177.28c-.109.31-.312.219-.312.779v.08c0 1.066 2.418.727 2.418 1.87v.235l-6.395 17.472-.156.002-6.333-16.893zm58.187-4.481c-2.384.201-5.181 1.708-6.489 3.023-1.457 1.466-2.867 3.693-2.867 6.573v.78c0 1.967 1.006 4.173 1.932 5.246.607.705 1.072 1.198 1.826 1.763.39.29 1.715 1.26 2.246 1.26.19.283 5.514 2.561 6.315 2.963 1.248.625 1.894.842 2.867 1.816.703.702 1.422 1.817 1.422 3.18v.311c0 2.591-2.185 4.525-4.756 4.525h-.856c-2.57 0-5.173-1.789-6.373-3.219-.838-.996-1.229-1.814-1.91-2.929-.457-.745-1.047-2.67-2.09-2.67-1.881 0-.957 2.521-.797 3.453.356 2.107.383 6.146 2.979 7.002 3.332 1.095 4.448 1.529 7.797 1.736 2.867-.039 5.424-.461 8.044-1.728 1.787-.862 3.537-2.719 4.325-4.567 1.153-2.709 1.308-5.726.204-8.488-2.598-6.514-10.506-5.594-14.739-10.064-.654-.691-1.106-1.623-1.106-2.945 0-1.184.357-1.893.857-2.575.934-1.273 2.514-1.403 3.82-1.403 6.063 0 7.255 7.725 8.812 7.725h.312c.509 0 .733-.401.938-.703 0-1.776-.188-4.261-.383-5.938-.152-1.302-.27-1.458-1.002-2.194-2.368-2.389-8.416-2.133-11.328-1.933zm-84.914 2.575c.802 0 1.638.545 1.901 1.138.416.932.436 1.396.436 2.686v22.467c0 1.019-.18 2.133-.732 2.623-.381.336-.572.402-1.068.568-.35.112-1.04.422-1.238.475v.857c0 .256.34.473.623.473h12.711c.775 0 1.014-.359 1.014-1.018 0-.8-3.119-.336-3.119-3.199V12.12c0-.568.506-1.447.949-1.781.559-.422 1.625-.487 1.625-1.183 0-.651-.342-.86-1.015-.86L139.62 8.14c-1.18.446-.774 1.646.155 1.794zm-27.682 26.602V26.005h12.555l-.077 10.377-.156 1.559c-.049.404-.511.992-1.203 1.369-.409.226-1.76.26-1.76.894v.469c0 .217.137.481.666.535h12.988c.773.014.852-.029.85-.224-.137-1.637-.57-1.133-1.897-1.688-.677-.285-1.3-1.49-1.3-2.367V12.743c0-3.179 3.041-2.578 3.041-3.355 0-.691-.114-1.092-.937-1.092h-12.397c-.418 0-1.014.25-1.014.625v.547c.356.129.168.252 1.016.465.377.097.75.217 1.046.438.479.358 1.059 1.21 1.059 1.982v10.453h-12.398v-10.22c0-3.075 3.118-2.295 3.118-3.432 0-.83-.456-.783-1.169-.859l-12.544-.004c-.389.106-.636.373-.636.551v.232c0 1.012 1.046.813 1.837 1.204.602.302 1.204 1.048 1.204 1.916l.077 23.483c0 1.242.114 2.074-.564 2.943-.589.756-1.549.819-2.396 1.268-.422.838-.527 1.33 1.091 1.33h12.242c.614 0 1.01-.344.857-.939-.058-.698-1.404-.709-1.965-1.075-.719-.469-1.234-1.805-1.234-2.668zm-44.99-12.951v2.654c.336 3.336 1.61 6.77 2.047 7.469.893 1.434 1.424 2.446 2.61 3.629.782.774 2.526 2.215 3.581 2.658 1.833 1.166 5.407 2.278 8.291 2.393h4.289c2.061.057 5.428-1.006 6.296-1.346 1.916-.752 3.04-1.181 3.372-3.959.34-1.978.715-3.336.858-4.838 0-.705-.395-1.091-1.092-1.091h-.079c-1.07 0-1.53 1.88-2.091 2.666-.729 1.023-1.162 1.796-2.059 2.695-1.621 1.631-3.695 2.596-6.922 2.596h-.547c-2.062 0-4.201-1.149-5.393-2.094-1.951-1.543-2.944-3.883-3.663-6.166-.529-1.68-.689-3.897-.689-5.628v-1.248c0-2.769.504-6.166 1.856-8.674.516-.956 1.037-1.766 1.762-2.528 1.333-1.407 3.367-2.528 6.05-2.528h.468c2.538 0 5.192 1.645 6.49 2.947a12.695 12.695 0 0 1 2.062 2.696c.44.756 1.078 2.705 1.977 2.705.642 0 1.049-.383 1.091-1.014.116-1.699-.301-3.912-.595-5.57-.314-1.773.089-1.936-1.369-2.762-2.482-1.41-6.112-1.738-8.875-2.201-5.07 0-9.146.694-13.366 3.791-.552.405-.956.824-1.429 1.3-.823.821-1.809 2.036-2.37 3.091-.707 1.329-1.123 2.202-1.656 3.805-.239.718-.788 2.714-.905 4.552z"/></svg>