<?xml version="1.0" encoding="utf-8"?>
<!-- Generator: Adobe Illustrator 16.0.0, SVG Export Plug-In . SVG Version: 6.00 Build 0)  -->
<!DOCTYPE svg PUBLIC "-//W3C//DTD SVG 1.1//EN" "http://www.w3.org/Graphics/SVG/1.1/DTD/svg11.dtd">
<svg version="1.1" id="Layer_1" xmlns="http://www.w3.org/2000/svg" xmlns:xlink="http://www.w3.org/1999/xlink" x="0px" y="0px"
	 width="239.258px" height="49.438px" viewBox="0 0 239.258 49.438" enable-background="new 0 0 239.258 49.438"
	 xml:space="preserve">
<g>
	<path fill="#757676" d="M28.063,3.336l-3.061-3.109c-0.299-0.303-0.792-0.303-1.091,0L20.85,3.336
		c-0.444,0.453-0.985,0.681-1.618,0.681h-8.995c-0.164,0-0.303,0.059-0.419,0.174L6.787,7.274c-0.296,0.3-0.296,0.777,0,1.076
		l1.744,1.773c1.41,1.434,0.608,2.898-1.271,3.609c-5.84,2.212-8.907,8.417-6.352,15.748c0.734,2.105,1.872,4.029,3.363,5.834
		c0.748,0.908,0.81,2.148-0.02,2.979l-1.764,1.762c-0.299,0.301-0.299,0.785,0,1.086l2.891,2.896
		c0.297,0.301,0.784,0.301,1.081,0.002l2.206-2.207c0.682-0.683,1.733-0.883,2.518-0.322c3.711,2.643,8.188,5.182,13.197,7.896
		l0.075,0.032l0.078-0.032c5.009-2.716,9.486-5.255,13.197-7.896c0.784-0.561,1.835-0.359,2.518,0.322l2.204,2.207
		c0.299,0.299,0.784,0.299,1.083-0.002l2.891-2.896c0.297-0.301,0.297-0.785-0.002-1.086l-1.762-1.762
		c-0.831-0.83-0.768-2.07-0.02-2.979c1.491-1.805,2.629-3.729,3.363-5.834c2.556-7.331-0.514-13.536-6.352-15.748
		c-1.88-0.711-2.682-2.177-1.271-3.609l1.744-1.773c0.294-0.299,0.294-0.776,0-1.076l-3.032-3.083
		c-0.116-0.115-0.255-0.174-0.422-0.174H29.68C29.048,4.017,28.508,3.79,28.063,3.336z M24.454,18.092l-2.837,2.836l-9.995,9.997
		c-0.257,0.256-0.243,0.682,0.028,0.922l3.284,2.881c0.249,0.224,0.626,0.209,0.862-0.024c0.299-0.3,11.781-11.781,13.562-13.562
		c0.79-0.699,2.334-2.507,5.961-2.826c2.826-0.247,5.867,0.185,7.392,2.889c1.01,2.095,1.089,4.26,0.237,6.422
		c-1.598,4.164-5.036,7.26-8.646,9.707c-3.369,2.266-6.3,4.051-9.855,6.006c-4.009-2.193-7.291-4.236-11.027-6.865
		c-1.873-1.356-3.33-2.682-4.856-4.42c-2.37-2.713-4.638-7.865-2.138-11.202c2.402-3.212,7.389-3.606,10.029-1.873l2.115,1.367
		c0.253,0.166,0.576,0.132,0.788-0.083l3.182-3.186c0.245-0.247,0.245-0.649-0.002-0.896l-4.961-4.947
		c-0.731-0.729-0.214-1.979,0.817-1.979H30.52c0.962,0,1.476,1.09,0.948,1.827L24.454,18.092z M34.042,34.794l3.296-2.871
		c0.273-0.238,0.289-0.664,0.03-0.924l-7.144-7.144c-0.247-0.247-0.647-0.247-0.895,0l-3.079,3.086
		c-0.245,0.246-0.245,0.646,0.002,0.894l6.93,6.93C33.418,35.003,33.791,35.015,34.042,34.794z M182.661,37.394
		c-0.199,0.082-0.44,0.738-0.59,0.972c-0.189,0.297-0.557,0.584-0.857,0.778c-0.851,0.558-1.827,0.203-1.827,1.449
		c0,0.211,0.036,0.217,0.073,0.469l3.592,0.158h7.484c0.284,0,0.438-0.066,0.625-0.158c0.228-0.418,0.155-0.469,0.155-0.936
		c0-0.744-2.729-0.299-2.729-2.105l1.639-5.074l10.828,0.005l1.727,4.989v0.47c0,1.393-2.339,0.696-2.339,2.028v0.078
		c0,0.383,0.313,0.703,0.701,0.703l6.55,0.018l6.314-0.1c0.289-0.428,0.271-0.838,0.156-1.324l-0.39-0.155
		c-1.499,0-2.034-1.541-2.535-2.613L200.361,9.7c-0.507-1.005-1.08-1.482-1.948-1.482h-2.965c-1.43,0-1.926,1.804-2.328,2.896
		L182.661,37.394z M195.527,18.282h0.156c1.358,3.84,2.741,7.537,4.078,11.381l-8.289,0.008l4.055-11.154V18.282z M166.502,11.84
		c-0.045-0.123-0.062-0.266-0.062-0.425v-0.154c0-1.53,2.418-1.159,2.418-1.951c0-0.562-0.18-1.015-0.856-1.015h-11.854
		c-1.367,0-1.11,1.242-0.608,1.467c0.687,0.309,1.277,0.518,1.649,1.159c0.613,1.051,1.151,2.755,1.644,3.976l9.062,23.461
		c0.609,1.228,1.329,2.861,2.523,2.861h2.062c1.479,0.006,1.565-0.936,2.162-2.67c3.108-9.025,6.86-17.39,10.43-26.307
		c0.017,0.006,0.749-1.638,1.126-1.89c0.407-0.274,1.844-0.631,1.844-1.044V8.842c0-0.218-0.33-0.547-0.547-0.547H177.28
		c-0.109,0.31-0.312,0.219-0.312,0.779v0.08c0,1.066,2.418,0.727,2.418,1.87v0.235l-6.395,17.472l-0.156,0.002L166.502,11.84z
		 M224.689,7.359c-2.384,0.201-5.181,1.708-6.489,3.023c-1.457,1.466-2.867,3.693-2.867,6.573v0.78c0,1.967,1.006,4.173,1.932,5.246
		c0.607,0.705,1.072,1.198,1.826,1.763c0.39,0.29,1.715,1.26,2.246,1.26c0.19,0.283,5.514,2.561,6.315,2.963
		c1.248,0.625,1.894,0.842,2.867,1.816c0.703,0.702,1.422,1.817,1.422,3.18v0.311c0,2.591-2.185,4.525-4.756,4.525h-0.856
		c-2.57,0-5.173-1.789-6.373-3.219c-0.838-0.996-1.229-1.814-1.91-2.929c-0.457-0.745-1.047-2.67-2.09-2.67
		c-1.881,0-0.957,2.521-0.797,3.453c0.356,2.107,0.383,6.146,2.979,7.002c3.332,1.095,4.448,1.529,7.797,1.736
		c2.867-0.039,5.424-0.461,8.044-1.728c1.787-0.862,3.537-2.719,4.325-4.567c1.153-2.709,1.308-5.726,0.204-8.488
		c-2.598-6.514-10.506-5.594-14.739-10.064c-0.654-0.691-1.106-1.623-1.106-2.945c0-1.184,0.357-1.893,0.857-2.575
		c0.934-1.273,2.514-1.403,3.82-1.403c6.063,0,7.255,7.725,8.812,7.725h0.312c0.509,0,0.733-0.401,0.938-0.703
		c0-1.776-0.188-4.261-0.383-5.938c-0.152-1.302-0.27-1.458-1.002-2.194C233.649,6.903,227.601,7.159,224.689,7.359z M139.775,9.934
		c0.802,0,1.638,0.545,1.901,1.138c0.416,0.932,0.436,1.396,0.436,2.686v22.467c0,1.019-0.18,2.133-0.732,2.623
		c-0.381,0.336-0.572,0.402-1.068,0.568c-0.35,0.112-1.04,0.422-1.238,0.475v0.857c0,0.256,0.34,0.473,0.623,0.473h12.711
		c0.775,0,1.014-0.359,1.014-1.018c0-0.8-3.119-0.336-3.119-3.199V12.12c0-0.568,0.506-1.447,0.949-1.781
		c0.559-0.422,1.625-0.487,1.625-1.183c0-0.651-0.342-0.86-1.015-0.86L139.62,8.14C138.44,8.586,138.846,9.786,139.775,9.934z
		 M112.093,36.536V26.005h12.555l-0.077,10.377l-0.156,1.559c-0.049,0.404-0.511,0.992-1.203,1.369
		c-0.409,0.226-1.76,0.26-1.76,0.894v0.469c0,0.217,0.137,0.481,0.666,0.535h12.988c0.773,0.014,0.852-0.029,0.85-0.224
		c-0.137-1.637-0.57-1.133-1.897-1.688c-0.677-0.285-1.3-1.49-1.3-2.367V12.743c0-3.179,3.041-2.578,3.041-3.355
		c0-0.691-0.114-1.092-0.937-1.092h-12.397c-0.418,0-1.014,0.25-1.014,0.625v0.547c0.356,0.129,0.168,0.252,1.016,0.465
		c0.377,0.097,0.75,0.217,1.046,0.438c0.479,0.358,1.059,1.21,1.059,1.982v10.453h-12.398v-10.22c0-3.075,3.118-2.295,3.118-3.432
		c0-0.83-0.456-0.783-1.169-0.859L101.58,8.291c-0.389,0.106-0.636,0.373-0.636,0.551v0.232c0,1.012,1.046,0.813,1.837,1.204
		c0.602,0.302,1.204,1.048,1.204,1.916l0.077,23.483c0,1.242,0.114,2.074-0.564,2.943c-0.589,0.756-1.549,0.819-2.396,1.268
		c-0.422,0.838-0.527,1.33,1.091,1.33h12.242c0.614,0,1.01-0.344,0.857-0.939c-0.058-0.698-1.404-0.709-1.965-1.075
		C112.608,38.735,112.093,37.399,112.093,36.536z M67.103,23.585v2.654c0.336,3.336,1.61,6.77,2.047,7.469
		c0.893,1.434,1.424,2.446,2.61,3.629c0.782,0.774,2.526,2.215,3.581,2.658c1.833,1.166,5.407,2.278,8.291,2.393h4.289
		c2.061,0.057,5.428-1.006,6.296-1.346c1.916-0.752,3.04-1.181,3.372-3.959c0.34-1.978,0.715-3.336,0.858-4.838
		c0-0.705-0.395-1.091-1.092-1.091h-0.079c-1.07,0-1.53,1.88-2.091,2.666c-0.729,1.023-1.162,1.796-2.059,2.695
		c-1.621,1.631-3.695,2.596-6.922,2.596h-0.547c-2.062,0-4.201-1.149-5.393-2.094c-1.951-1.543-2.944-3.883-3.663-6.166
		c-0.529-1.68-0.689-3.897-0.689-5.628v-1.248c0-2.769,0.504-6.166,1.856-8.674c0.516-0.956,1.037-1.766,1.762-2.528
		c1.333-1.407,3.367-2.528,6.05-2.528h0.468c2.538,0,5.192,1.645,6.49,2.947c0.812,0.812,1.465,1.665,2.062,2.696
		c0.44,0.756,1.078,2.705,1.977,2.705c0.642,0,1.049-0.383,1.091-1.014c0.116-1.699-0.301-3.912-0.595-5.57
		c-0.314-1.773,0.089-1.936-1.369-2.762c-2.482-1.41-6.112-1.738-8.875-2.201c-5.07,0-9.146,0.694-13.366,3.791
		c-0.552,0.405-0.956,0.824-1.429,1.3c-0.823,0.821-1.809,2.036-2.37,3.091c-0.707,1.329-1.123,2.202-1.656,3.805
		C67.769,19.751,67.22,21.747,67.103,23.585z"/>
</g>
</svg>
