<svg xmlns="http://www.w3.org/2000/svg" width="158.992" height="40.125" viewBox="0 0 158.992 40.125"><g fill-rule="evenodd" clip-rule="evenodd" fill="#757676"><path d="M18.945 29.875h-5.301v-3.08h-.078c-1.266 2.344-3.48 3.658-6.406 3.658-4.154 0-7.16-2.467-7.16-8.057V8.012h5.537v13.563c0 3.371 1.896 4.029 3.598 4.029 1.822 0 4.271-1.07 4.271-4.977V8.012h5.539v21.863zM40.643 29.875h-5.538V16.603c0-1.602-.077-4.313-3.599-4.313-2.449 0-4.348 1.723-4.348 5.052v12.535h-5.539V8.012h5.298v3.206h.081c.75-1.314 2.334-3.78 6.328-3.78 4.113 0 7.316 2.506 7.316 7.317v15.12zM53.4 30.454c-5.654 0-10.757-3.619-10.757-11.506 0-7.891 5.103-11.51 10.757-11.51 5.658 0 10.758 3.619 10.758 11.51 0 7.886-5.099 11.506-10.758 11.506m0-18.169c-4.27 0-5.061 3.865-5.061 6.662 0 2.793.791 6.657 5.061 6.657 4.271 0 5.064-3.863 5.064-6.657.001-2.797-.792-6.662-5.064-6.662M79.895 29.875h-5.539V12.122h-3.045v-4.11h3.045V6.245C74.355 1.725 76.729 0 80.527 0c1.621 0 2.371.037 2.847.083v4.642h-1.543c-1.898 0-1.937.619-1.937 2.426v.861h3.598v4.11h-3.598v17.753zM93.882 30.454c-5.654 0-10.757-3.619-10.757-11.506 0-7.891 5.103-11.51 10.757-11.51 5.655 0 10.758 3.619 10.758 11.51 0 7.886-5.103 11.506-10.758 11.506m0-18.169c-4.271 0-5.063 3.865-5.063 6.662 0 2.793.793 6.657 5.063 6.657 4.273 0 5.064-3.863 5.064-6.657 0-2.797-.791-6.662-5.064-6.662M105.901 8.012h5.302v3.781h.08c1.143-2.219 2.412-4.357 5.773-4.357.356 0 .713.044 1.066.083v5.839c-.473-.083-1.066-.083-1.58-.083-4.315 0-5.104 2.793-5.104 5.218v11.385h-5.537V8.012zM149.908 29.875h-5.535V16.603c0-3.247-1.385-4.313-3.006-4.313-2.771 0-3.758 1.891-3.758 4.477v13.11h-5.539v-13.15c0-1.849 0-4.438-3.321-4.438-2.612 0-3.44 1.891-3.44 4.271v13.316h-5.539V8.012h5.303v3.206h.076c.713-1.438 2.254-3.78 5.974-3.78 3.046 0 4.428 1.151 5.853 3.496.713-1.07 2.254-3.496 5.615-3.496 4.118 0 7.318 2.506 7.318 7.317v15.12zM152.441 10.694c0-1.93 1.507-3.347 3.287-3.347 1.76 0 3.264 1.417 3.264 3.347 0 1.944-1.504 3.368-3.264 3.368-1.78 0-3.287-1.423-3.287-3.368zm3.288 2.806c1.459 0 2.613-1.192 2.613-2.806 0-1.593-1.154-2.791-2.613-2.791-1.481 0-2.633 1.198-2.633 2.791 0 1.614 1.151 2.806 2.633 2.806zm-.684-.861h-.568V8.765h1.421c.88 0 1.316.337 1.316 1.104 0 .692-.42.995-.965 1.065l1.06 1.705h-.633l-.984-1.677h-.646v1.677zm.674-2.177c.478 0 .906-.035.906-.633 0-.474-.42-.565-.812-.565h-.768v1.198h.674zM74.246 34.284h.835v.809h.015c.102-.443.636-.924 1.176-.924.211 0 .246.016.334.027v.889a2.334 2.334 0 0 0-.382-.039c-.601 0-1.093.5-1.093 1.432v1.992h-.885v-4.186zM80.357 37.538c0 .23.05.314.213.314h.094c.04 0 .077-.008.125-.014v.635a2.074 2.074 0 0 1-.562.109c-.366 0-.615-.133-.686-.512-.349.355-.918.512-1.395.512-.725 0-1.376-.406-1.376-1.223 0-1.045.8-1.215 1.546-1.303.649-.133 1.209-.045 1.209-.59 0-.488-.484-.568-.832-.568-.498 0-.85.211-.886.664h-.892c.063-1.078.936-1.393 1.832-1.393.785 0 1.609.332 1.609 1.213v2.156zm-.883-1.166c-.274.186-.696.18-1.093.252-.379.064-.727.209-.727.695 0 .422.506.533.819.533.388 0 1-.207 1-.795v-.685zM85.111 38.469h-.841v-.566h-.015c-.243.482-.741.68-1.246.68-1.27 0-1.886-.98-1.886-2.234 0-1.523.862-2.18 1.745-2.18.499 0 1.067.195 1.339.656h.014V32.69h.891v5.779zm-1.988-.617c.787 0 1.132-.75 1.132-1.48 0-.932-.429-1.473-1.112-1.473-.834 0-1.133.777-1.133 1.521 0 .721.344 1.432 1.113 1.432zM86.101 32.69h.888v.877h-.888v-.877zm0 1.594h.888v4.188h-.888v-4.188zM90.672 35.684c-.068-.52-.42-.785-.919-.785-.46 0-1.105.26-1.105 1.521 0 .695.296 1.432 1.065 1.432.521 0 .873-.346.959-.955h.887c-.162 1.094-.809 1.684-1.846 1.684-1.259 0-1.955-.932-1.955-2.16 0-1.262.663-2.252 1.988-2.252.934 0 1.729.49 1.812 1.516h-.886zM95.657 37.538c0 .23.048.314.211.314h.093c.039 0 .076-.008.125-.014v.635a2.06 2.06 0 0 1-.561.109c-.367 0-.613-.133-.686-.512-.35.355-.919.512-1.396.512-.726 0-1.378-.406-1.378-1.223 0-1.045.803-1.215 1.549-1.303.648-.133 1.207-.045 1.207-.59 0-.488-.481-.568-.831-.568-.499 0-.851.211-.888.664h-.891c.064-1.078.938-1.393 1.832-1.393.785 0 1.612.332 1.612 1.213v2.156zm-.887-1.166c-.272.186-.694.18-1.088.252-.383.064-.727.209-.727.695 0 .422.505.533.818.533.39 0 .996-.207.996-.795v-.685zM96.641 32.69h.883v5.781h-.883zM104.449 38.469h-.84v-.566h-.014c-.242.482-.74.68-1.246.68-1.268 0-1.885-.98-1.885-2.234 0-1.523.861-2.18 1.744-2.18.498 0 1.064.195 1.338.656h.018V32.69h.885v5.779zm-1.984-.617c.787 0 1.131-.75 1.131-1.48 0-.932-.432-1.473-1.113-1.473-.834 0-1.132.777-1.132 1.521 0 .721.342 1.432 1.114 1.432zM108.786 37.538c0 .23.05.314.214.314h.092c.043 0 .078-.008.127-.014v.635a2.09 2.09 0 0 1-.561.109c-.367 0-.615-.133-.688-.512-.35.355-.92.512-1.395.512-.724 0-1.378-.406-1.378-1.223 0-1.045.804-1.215 1.547-1.303.65-.133 1.208-.045 1.208-.59 0-.488-.482-.568-.832-.568-.497 0-.849.211-.884.664h-.894c.065-1.078.938-1.393 1.834-1.393.785 0 1.608.332 1.608 1.213v2.156zm-.884-1.166c-.275.186-.693.18-1.09.252-.382.064-.727.209-.727.695 0 .422.508.533.817.533.391 0 .999-.207.999-.795v-.685zM109.75 34.284h.84v.615l.018.018c.269-.463.723-.748 1.25-.748.88 0 1.429.48 1.429 1.426v2.875h-.892v-2.633c-.022-.654-.256-.938-.783-.938-.595 0-.979.484-.979 1.102v2.469h-.883v-4.186zM114.24 32.69h.888v.877h-.888v-.877zm0 1.594h.888v4.188h-.888v-4.188zM116.765 37.124c.053.545.436.729.912.729.343 0 .921-.07.896-.549-.024-.486-.671-.545-1.316-.697-.654-.145-1.294-.389-1.294-1.238 0-.914.949-1.199 1.682-1.199.825 0 1.582.352 1.683 1.289h-.928c-.084-.447-.42-.561-.816-.561-.259 0-.735.066-.735.43 0 .455.655.525 1.31.674.646.152 1.299.396 1.299 1.221 0 .996-.965 1.361-1.798 1.361-1.018 0-1.758-.471-1.782-1.459h.887zM120.138 32.69h.888v2.145h.014c.219-.379.678-.664 1.208-.664.879 0 1.425.477 1.425 1.426v2.875h-.885v-2.635c-.023-.652-.259-.938-.788-.938-.595 0-.974.484-.974 1.1v2.473h-.888V32.69zM130.564 38.469h-.838v-.566h-.018c-.243.482-.74.68-1.246.68-1.268 0-1.883-.98-1.883-2.234 0-1.523.863-2.18 1.745-2.18.499 0 1.065.195 1.334.656h.02V32.69h.886v5.779zm-1.982-.617c.785 0 1.127-.75 1.127-1.48 0-.932-.428-1.473-1.113-1.473-.833 0-1.13.777-1.13 1.521 0 .721.345 1.432 1.116 1.432zM132.226 36.614c0 .656.341 1.238 1.081 1.238.523 0 .83-.232.98-.697h.842c-.184.914-.95 1.426-1.822 1.426-1.271 0-1.971-.906-1.971-2.201 0-1.188.749-2.209 1.946-2.209 1.271 0 2.052 1.191 1.903 2.443h-2.959zm2.071-.606c-.039-.582-.402-1.109-1.015-1.109-.614 0-1.036.486-1.057 1.109h2.072zM136.532 37.124c.055.545.437.729.912.729.341 0 .917-.07.896-.549-.025-.486-.668-.545-1.317-.697-.651-.145-1.292-.389-1.292-1.238 0-.914.953-1.199 1.682-1.199.826 0 1.581.352 1.685 1.289h-.929c-.084-.447-.422-.561-.818-.561-.257 0-.731.066-.731.43 0 .455.655.525 1.308.674.646.152 1.303.396 1.303 1.221 0 .996-.965 1.361-1.802 1.361-1.021 0-1.758-.471-1.78-1.459h.883zM139.93 32.69h.885v.877h-.885v-.877zm0 1.594h.885v4.188h-.885v-4.188zM145.504 38.247c0 1.264-.697 1.879-1.977 1.879-.81 0-1.713-.324-1.797-1.301h.884c.11.525.517.613.965.613.719 0 1.037-.377 1.037-1.068v-.639h-.015a1.37 1.37 0 0 1-1.207.738c-1.277 0-1.809-1.004-1.809-2.205 0-1.123.677-2.096 1.822-2.096.508 0 .965.213 1.193.691h.015v-.576h.888v3.964zm-.888-1.965c0-.719-.313-1.385-1.081-1.385-.787 0-1.061.764-1.061 1.457 0 .682.318 1.385 1.061 1.385.787 0 1.081-.737 1.081-1.457zM146.4 34.284h.842v.615l.018.018c.271-.463.723-.748 1.254-.748.877 0 1.424.48 1.424 1.426v2.875h-.891v-2.633c-.021-.654-.256-.938-.783-.938-.594 0-.976.484-.976 1.102v2.469h-.888v-4.186z"/></g></svg>