<?xml version="1.0" encoding="utf-8"?>
<!-- Generator: Adobe Illustrator 16.0.0, SVG Export Plug-In . SVG Version: 6.00 Build 0)  -->
<!DOCTYPE svg PUBLIC "-//W3C//DTD SVG 1.1//EN" "http://www.w3.org/Graphics/SVG/1.1/DTD/svg11.dtd">
<svg version="1.1" id="Layer_1" xmlns="http://www.w3.org/2000/svg" xmlns:xlink="http://www.w3.org/1999/xlink" x="0px" y="0px"
	 width="158.992px" height="40.125px" viewBox="0 0 158.992 40.125" enable-background="new 0 0 158.992 40.125"
	 xml:space="preserve">
<g>
	<path fill-rule="evenodd" clip-rule="evenodd" fill="#757676" d="M18.945,29.875h-5.301v-3.08h-0.078
		c-1.266,2.344-3.48,3.658-6.406,3.658c-4.154,0-7.16-2.467-7.16-8.057V8.012h5.537v13.563c0,3.371,1.896,4.029,3.598,4.029
		c1.822,0,4.271-1.07,4.271-4.977V8.012h5.539V29.875z"/>
	<path fill-rule="evenodd" clip-rule="evenodd" fill="#757676" d="M40.643,29.875h-5.538V16.603c0-1.602-0.077-4.313-3.599-4.313
		c-2.449,0-4.348,1.723-4.348,5.052v12.535h-5.539V8.012h5.298v3.206h0.081c0.75-1.314,2.334-3.78,6.328-3.78
		c4.113,0,7.316,2.506,7.316,7.317V29.875z"/>
	<path fill-rule="evenodd" clip-rule="evenodd" fill="#757676" d="M53.4,30.454c-5.654,0-10.757-3.619-10.757-11.506
		c0-7.891,5.103-11.51,10.757-11.51c5.658,0,10.758,3.619,10.758,11.51C64.158,26.834,59.059,30.454,53.4,30.454 M53.4,12.285
		c-4.27,0-5.061,3.865-5.061,6.662c0,2.793,0.791,6.657,5.061,6.657c4.271,0,5.064-3.863,5.064-6.657
		C58.465,16.15,57.672,12.285,53.4,12.285"/>
	<path fill-rule="evenodd" clip-rule="evenodd" fill="#757676" d="M79.895,29.875h-5.539V12.122h-3.045v-4.11h3.045V6.245
		C74.355,1.725,76.729,0,80.527,0c1.621,0,2.371,0.037,2.847,0.083v4.642h-1.543c-1.898,0-1.937,0.619-1.937,2.426v0.861h3.598v4.11
		h-3.598V29.875z"/>
	<path fill-rule="evenodd" clip-rule="evenodd" fill="#757676" d="M93.882,30.454c-5.654,0-10.757-3.619-10.757-11.506
		c0-7.891,5.103-11.51,10.757-11.51c5.655,0,10.758,3.619,10.758,11.51C104.64,26.834,99.537,30.454,93.882,30.454 M93.882,12.285
		c-4.271,0-5.063,3.865-5.063,6.662c0,2.793,0.793,6.657,5.063,6.657c4.273,0,5.064-3.863,5.064-6.657
		C98.946,16.15,98.155,12.285,93.882,12.285"/>
	<path fill-rule="evenodd" clip-rule="evenodd" fill="#757676" d="M105.901,8.012h5.302v3.781h0.08
		c1.143-2.219,2.412-4.357,5.773-4.357c0.356,0,0.713,0.044,1.066,0.083v5.839c-0.473-0.083-1.066-0.083-1.58-0.083
		c-4.315,0-5.104,2.793-5.104,5.218v11.385h-5.537V8.012z"/>
	<path fill-rule="evenodd" clip-rule="evenodd" fill="#757676" d="M149.908,29.875h-5.535V16.603c0-3.247-1.385-4.313-3.006-4.313
		c-2.771,0-3.758,1.891-3.758,4.477v13.11h-5.539V16.727c0-1.849,0-4.438-3.321-4.438c-2.612,0-3.44,1.891-3.44,4.271v13.316h-5.539
		V8.012h5.303v3.206h0.076c0.713-1.438,2.254-3.78,5.974-3.78c3.046,0,4.428,1.151,5.853,3.496c0.713-1.07,2.254-3.496,5.615-3.496
		c4.118,0,7.318,2.506,7.318,7.317V29.875z"/>
	<path fill-rule="evenodd" clip-rule="evenodd" fill="#757676" d="M152.441,10.694c0-1.93,1.507-3.347,3.287-3.347
		c1.76,0,3.264,1.417,3.264,3.347c0,1.944-1.504,3.368-3.264,3.368C153.948,14.062,152.441,12.639,152.441,10.694z M155.729,13.5
		c1.459,0,2.613-1.192,2.613-2.806c0-1.593-1.154-2.791-2.613-2.791c-1.481,0-2.633,1.198-2.633,2.791
		C153.096,12.308,154.247,13.5,155.729,13.5z M155.045,12.639h-0.568V8.765h1.421c0.88,0,1.316,0.337,1.316,1.104
		c0,0.692-0.42,0.995-0.965,1.065l1.06,1.705h-0.633l-0.984-1.677h-0.646V12.639z M155.719,10.462c0.478,0,0.906-0.035,0.906-0.633
		c0-0.474-0.42-0.565-0.812-0.565h-0.768v1.198H155.719z"/>
	<path fill-rule="evenodd" clip-rule="evenodd" fill="#757676" d="M74.246,34.284h0.835v0.809h0.015
		c0.102-0.443,0.636-0.924,1.176-0.924c0.211,0,0.246,0.016,0.334,0.027v0.889c-0.123-0.021-0.257-0.039-0.382-0.039
		c-0.601,0-1.093,0.5-1.093,1.432v1.992h-0.885V34.284z"/>
	<path fill-rule="evenodd" clip-rule="evenodd" fill="#757676" d="M80.357,37.538c0,0.23,0.05,0.314,0.213,0.314h0.094
		c0.04,0,0.077-0.008,0.125-0.014v0.635c-0.133,0.051-0.414,0.109-0.562,0.109c-0.366,0-0.615-0.133-0.686-0.512
		c-0.349,0.355-0.918,0.512-1.395,0.512c-0.725,0-1.376-0.406-1.376-1.223c0-1.045,0.8-1.215,1.546-1.303
		c0.649-0.133,1.209-0.045,1.209-0.59c0-0.488-0.484-0.568-0.832-0.568c-0.498,0-0.85,0.211-0.886,0.664h-0.892
		c0.063-1.078,0.936-1.393,1.832-1.393c0.785,0,1.609,0.332,1.609,1.213V37.538z M79.474,36.372
		c-0.274,0.186-0.696,0.18-1.093,0.252c-0.379,0.064-0.727,0.209-0.727,0.695c0,0.422,0.506,0.533,0.819,0.533
		c0.388,0,1-0.207,1-0.795V36.372z"/>
	<path fill-rule="evenodd" clip-rule="evenodd" fill="#757676" d="M85.111,38.469H84.27v-0.566h-0.015
		c-0.243,0.482-0.741,0.68-1.246,0.68c-1.27,0-1.886-0.98-1.886-2.234c0-1.523,0.862-2.18,1.745-2.18
		c0.499,0,1.067,0.195,1.339,0.656h0.014V32.69h0.891V38.469z M83.123,37.852c0.787,0,1.132-0.75,1.132-1.48
		c0-0.932-0.429-1.473-1.112-1.473c-0.834,0-1.133,0.777-1.133,1.521C82.01,37.141,82.354,37.852,83.123,37.852z"/>
	<path fill-rule="evenodd" clip-rule="evenodd" fill="#757676" d="M86.101,32.69h0.888v0.877h-0.888V32.69z M86.101,34.284h0.888
		v4.188h-0.888V34.284z"/>
	<path fill-rule="evenodd" clip-rule="evenodd" fill="#757676" d="M90.672,35.684c-0.068-0.52-0.42-0.785-0.919-0.785
		c-0.46,0-1.105,0.26-1.105,1.521c0,0.695,0.296,1.432,1.065,1.432c0.521,0,0.873-0.346,0.959-0.955h0.887
		c-0.162,1.094-0.809,1.684-1.846,1.684c-1.259,0-1.955-0.932-1.955-2.16c0-1.262,0.663-2.252,1.988-2.252
		c0.934,0,1.729,0.49,1.812,1.516H90.672z"/>
	<path fill-rule="evenodd" clip-rule="evenodd" fill="#757676" d="M95.657,37.538c0,0.23,0.048,0.314,0.211,0.314h0.093
		c0.039,0,0.076-0.008,0.125-0.014v0.635c-0.133,0.051-0.412,0.109-0.561,0.109c-0.367,0-0.613-0.133-0.686-0.512
		c-0.35,0.355-0.919,0.512-1.396,0.512c-0.726,0-1.378-0.406-1.378-1.223c0-1.045,0.803-1.215,1.549-1.303
		c0.648-0.133,1.207-0.045,1.207-0.59c0-0.488-0.481-0.568-0.831-0.568c-0.499,0-0.851,0.211-0.888,0.664h-0.891
		c0.064-1.078,0.938-1.393,1.832-1.393c0.785,0,1.612,0.332,1.612,1.213V37.538z M94.77,36.372c-0.272,0.186-0.694,0.18-1.088,0.252
		c-0.383,0.064-0.727,0.209-0.727,0.695c0,0.422,0.505,0.533,0.818,0.533c0.39,0,0.996-0.207,0.996-0.795V36.372z"/>
	<rect x="96.641" y="32.69" fill-rule="evenodd" clip-rule="evenodd" fill="#757676" width="0.883" height="5.781"/>
	<path fill-rule="evenodd" clip-rule="evenodd" fill="#757676" d="M104.449,38.469h-0.84v-0.566h-0.014
		c-0.242,0.482-0.74,0.68-1.246,0.68c-1.268,0-1.885-0.98-1.885-2.234c0-1.523,0.861-2.18,1.744-2.18
		c0.498,0,1.064,0.195,1.338,0.656h0.018V32.69h0.885V38.469z M102.465,37.852c0.787,0,1.131-0.75,1.131-1.48
		c0-0.932-0.432-1.473-1.113-1.473c-0.834,0-1.132,0.777-1.132,1.521C101.351,37.141,101.693,37.852,102.465,37.852z"/>
	<path fill-rule="evenodd" clip-rule="evenodd" fill="#757676" d="M108.786,37.538c0,0.23,0.05,0.314,0.214,0.314h0.092
		c0.043,0,0.078-0.008,0.127-0.014v0.635c-0.134,0.051-0.415,0.109-0.561,0.109c-0.367,0-0.615-0.133-0.688-0.512
		c-0.35,0.355-0.92,0.512-1.395,0.512c-0.724,0-1.378-0.406-1.378-1.223c0-1.045,0.804-1.215,1.547-1.303
		c0.65-0.133,1.208-0.045,1.208-0.59c0-0.488-0.482-0.568-0.832-0.568c-0.497,0-0.849,0.211-0.884,0.664h-0.894
		c0.065-1.078,0.938-1.393,1.834-1.393c0.785,0,1.608,0.332,1.608,1.213V37.538z M107.902,36.372
		c-0.275,0.186-0.693,0.18-1.09,0.252c-0.382,0.064-0.727,0.209-0.727,0.695c0,0.422,0.508,0.533,0.817,0.533
		c0.391,0,0.999-0.207,0.999-0.795V36.372z"/>
	<path fill-rule="evenodd" clip-rule="evenodd" fill="#757676" d="M109.75,34.284h0.84v0.615l0.018,0.018
		c0.269-0.463,0.723-0.748,1.25-0.748c0.88,0,1.429,0.48,1.429,1.426v2.875h-0.892v-2.633c-0.022-0.654-0.256-0.938-0.783-0.938
		c-0.595,0-0.979,0.484-0.979,1.102v2.469h-0.883V34.284z"/>
	<path fill-rule="evenodd" clip-rule="evenodd" fill="#757676" d="M114.24,32.69h0.888v0.877h-0.888V32.69z M114.24,34.284h0.888
		v4.188h-0.888V34.284z"/>
	<path fill-rule="evenodd" clip-rule="evenodd" fill="#757676" d="M116.765,37.124c0.053,0.545,0.436,0.729,0.912,0.729
		c0.343,0,0.921-0.07,0.896-0.549c-0.024-0.486-0.671-0.545-1.316-0.697c-0.654-0.145-1.294-0.389-1.294-1.238
		c0-0.914,0.949-1.199,1.682-1.199c0.825,0,1.582,0.352,1.683,1.289H118.4c-0.084-0.447-0.42-0.561-0.816-0.561
		c-0.259,0-0.735,0.066-0.735,0.43c0,0.455,0.655,0.525,1.31,0.674c0.646,0.152,1.299,0.396,1.299,1.221
		c0,0.996-0.965,1.361-1.798,1.361c-1.018,0-1.758-0.471-1.782-1.459H116.765z"/>
	<path fill-rule="evenodd" clip-rule="evenodd" fill="#757676" d="M120.138,32.69h0.888v2.145h0.014
		c0.219-0.379,0.678-0.664,1.208-0.664c0.879,0,1.425,0.477,1.425,1.426v2.875h-0.885v-2.635c-0.023-0.652-0.259-0.938-0.788-0.938
		c-0.595,0-0.974,0.484-0.974,1.1v2.473h-0.888V32.69z"/>
	<path fill-rule="evenodd" clip-rule="evenodd" fill="#757676" d="M130.564,38.469h-0.838v-0.566h-0.018
		c-0.243,0.482-0.74,0.68-1.246,0.68c-1.268,0-1.883-0.98-1.883-2.234c0-1.523,0.863-2.18,1.745-2.18
		c0.499,0,1.065,0.195,1.334,0.656h0.02V32.69h0.886V38.469z M128.582,37.852c0.785,0,1.127-0.75,1.127-1.48
		c0-0.932-0.428-1.473-1.113-1.473c-0.833,0-1.13,0.777-1.13,1.521C127.466,37.141,127.811,37.852,128.582,37.852z"/>
	<path fill-rule="evenodd" clip-rule="evenodd" fill="#757676" d="M132.226,36.614c0,0.656,0.341,1.238,1.081,1.238
		c0.523,0,0.83-0.232,0.98-0.697h0.842c-0.184,0.914-0.95,1.426-1.822,1.426c-1.271,0-1.971-0.906-1.971-2.201
		c0-1.188,0.749-2.209,1.946-2.209c1.271,0,2.052,1.191,1.903,2.443H132.226z M134.297,36.008c-0.039-0.582-0.402-1.109-1.015-1.109
		c-0.614,0-1.036,0.486-1.057,1.109H134.297z"/>
	<path fill-rule="evenodd" clip-rule="evenodd" fill="#757676" d="M136.532,37.124c0.055,0.545,0.437,0.729,0.912,0.729
		c0.341,0,0.917-0.07,0.896-0.549c-0.025-0.486-0.668-0.545-1.317-0.697c-0.651-0.145-1.292-0.389-1.292-1.238
		c0-0.914,0.953-1.199,1.682-1.199c0.826,0,1.581,0.352,1.685,1.289h-0.929c-0.084-0.447-0.422-0.561-0.818-0.561
		c-0.257,0-0.731,0.066-0.731,0.43c0,0.455,0.655,0.525,1.308,0.674c0.646,0.152,1.303,0.396,1.303,1.221
		c0,0.996-0.965,1.361-1.802,1.361c-1.021,0-1.758-0.471-1.78-1.459H136.532z"/>
	<path fill-rule="evenodd" clip-rule="evenodd" fill="#757676" d="M139.93,32.69h0.885v0.877h-0.885V32.69z M139.93,34.284h0.885
		v4.188h-0.885V34.284z"/>
	<path fill-rule="evenodd" clip-rule="evenodd" fill="#757676" d="M145.504,38.247c0,1.264-0.697,1.879-1.977,1.879
		c-0.81,0-1.713-0.324-1.797-1.301h0.884c0.11,0.525,0.517,0.613,0.965,0.613c0.719,0,1.037-0.377,1.037-1.068v-0.639h-0.015
		c-0.249,0.463-0.709,0.738-1.207,0.738c-1.277,0-1.809-1.004-1.809-2.205c0-1.123,0.677-2.096,1.822-2.096
		c0.508,0,0.965,0.213,1.193,0.691h0.015v-0.576h0.888V38.247z M144.616,36.282c0-0.719-0.313-1.385-1.081-1.385
		c-0.787,0-1.061,0.764-1.061,1.457c0,0.682,0.318,1.385,1.061,1.385C144.322,37.739,144.616,37.002,144.616,36.282z"/>
	<path fill-rule="evenodd" clip-rule="evenodd" fill="#757676" d="M146.4,34.284h0.842v0.615l0.018,0.018
		c0.271-0.463,0.723-0.748,1.254-0.748c0.877,0,1.424,0.48,1.424,1.426v2.875h-0.891v-2.633c-0.021-0.654-0.256-0.938-0.783-0.938
		c-0.594,0-0.976,0.484-0.976,1.102v2.469H146.4V34.284z"/>
</g>
</svg>
