<svg id="Layer_1" xmlns="http://www.w3.org/2000/svg" viewBox="0 0 572.5 161.5"><style>.st0{fill:#5d5d5e}</style><path class="st0" d="M554.4 23.8C538 5.8 517.1 5 497.6 4.1H411v6.3h17.8l.4 21.2v100.8l-.4 17.9H427c-15-.2-17.4-6.7-17.8-26.3-.4-20.5-2.5-32.4-16.2-40.4-7.2-4.3-16-5.8-25-7.1 7.4-1.9 18.1-4.8 26.5-14 3.7-3.9 9.4-11.9 9.4-25.3 0-12.7-5.3-22.5-15.8-27.9-8.6-4.3-18.9-4.8-28.3-5.2h-85.9v6.3h17.2l.4 18.6v26.7C282.4 21.5 253-.7 214.1 0c-36.9.7-65.1 22.6-74 57.3V28.7l.4-18.4h17.4V4.1h-43.1v6.3h17l.4 18.1v65.6l-59.6-90H3l-3 6.3h18l.4 21.2v100.8l-.4 17.9H0v6.3h43.1v-6.3H26.7l-.4-17.9V17.5l101.1 144h12.7v-56.3c8.9 34.3 37.3 55.4 74.8 55.4 41.4 0 68.1-24.6 76.6-57.8v30.6l-.4 16.8h-17.2v6.3H351v-6.3h-17.2l-.4-17.3V80.1c15 0 20.5 0 26.5 7.6 5.5 6.9 5.9 13.8 6.8 31.7 1.6 32.2 9.8 37.4 34 37.1h103.5c21.7-1.7 51.3-4.1 63.6-44.9 3.5-11.9 4.7-23.3 4.7-33.5 0-20-4.7-40.1-18.1-54.3m-310 102.1c-1.4 5.4-6.4 27.2-28.7 27.2-22.2 0-26.9-20.7-28.3-27.2-1.8-8.4-2.7-17.1-3.1-25.5-.2-6.3-.4-12.5-.4-18.6 0-10.6.6-19.6 1-25.9 1-12.5 3.5-46.9 30.4-48.1 18.7-.9 24.8 14.9 26.5 19 4.5 11.7 5.9 33 5.9 52 0 3-.2 32.8-3.3 47.1m89-52.9V29l.4-18.1c17-.4 26.9-.4 26.9 30-.1 29.5-9.1 32.3-27.3 32.1m137.8 76.4l-.4-16.6V31.5l.4-20.3c29.7.2 49.4 4.5 53.5 46.2.8 9.7 1 17.7 1 23.3 0 61.4-18 69.4-54.5 68.7"/></svg>