<?xml version="1.0" encoding="utf-8"?>
<!-- Generator: Adobe Illustrator 19.2.1, SVG Export Plug-In . SVG Version: 6.00 Build 0)  -->
<svg version="1.1" id="Layer_1" xmlns="http://www.w3.org/2000/svg" xmlns:xlink="http://www.w3.org/1999/xlink" x="0px" y="0px"
	 viewBox="0 0 572.5 161.5" style="enable-background:new 0 0 572.5 161.5;" xml:space="preserve">
<style type="text/css">
	.st0{fill:#5D5D5E;}
</style>
<g>
	<path class="st0" d="M554.4,23.8C538,5.8,517.1,5,497.6,4.1h-86.6v6.3h17.8l0.4,21.2v100.8l-0.4,17.9h-1.8
		c-15-0.2-17.4-6.7-17.8-26.3c-0.4-20.5-2.5-32.4-16.2-40.4c-7.2-4.3-16-5.8-25-7.1c7.4-1.9,18.1-4.8,26.5-14
		c3.7-3.9,9.4-11.9,9.4-25.3c0-12.7-5.3-22.5-15.8-27.9c-8.6-4.3-18.9-4.8-28.3-5.2h-85.9v6.3h17.2l0.4,18.6v26.7
		C282.4,21.5,253-0.7,214.1,0c-36.9,0.7-65.1,22.6-74,57.3V28.7l0.4-18.4h17.4V4.1h-43.1v6.3h17l0.4,18.1v65.6l-59.6-90H3l-3,6.3h18
		l0.4,21.2v100.8L18,150.3H0v6.3h43.1v-6.3H26.7l-0.4-17.9V17.5l101.1,144h12.7v-56.3c8.9,34.3,37.3,55.4,74.8,55.4
		c41.4,0,68.1-24.6,76.6-57.8v30.6l-0.4,16.8h-17.2v6.3H351v-6.3h-17.2l-0.4-17.3V80.1c15,0,20.5,0,26.5,7.6
		c5.5,6.9,5.9,13.8,6.8,31.7c1.6,32.2,9.8,37.4,34,37.1h10.4h16h77.1c21.7-1.7,51.3-4.1,63.6-44.9c3.5-11.9,4.7-23.3,4.7-33.5
		C572.5,58.1,567.8,38,554.4,23.8 M244.4,125.9c-1.4,5.4-6.4,27.2-28.7,27.2c-22.2,0-26.9-20.7-28.3-27.2
		c-1.8-8.4-2.7-17.1-3.1-25.5c-0.2-6.3-0.4-12.5-0.4-18.6c0-10.6,0.6-19.6,1-25.9c1-12.5,3.5-46.9,30.4-48.1
		c18.7-0.9,24.8,14.9,26.5,19c4.5,11.7,5.9,33,5.9,52C247.7,81.8,247.5,111.6,244.4,125.9 M333.4,73v-44l0.4-18.1
		c17-0.4,26.9-0.4,26.9,30C360.6,70.4,351.6,73.2,333.4,73 M471.2,149.4l-0.4-16.6V31.5l0.4-20.3c29.7,0.2,49.4,4.5,53.5,46.2
		c0.8,9.7,1,17.7,1,23.3C525.7,142.1,507.7,150.1,471.2,149.4"/>
</g>
</svg>
