<svg xmlns="http://www.w3.org/2000/svg" xmlns:xlink="http://www.w3.org/1999/xlink" width="173.477" height="42.555" viewBox="0 0 173.477 42.555"><path fill="#757676" d="M33.309 32.458c3.023-3.443 4.866-7.992 4.866-12.992C38.175 8.715 29.629 0 19.088 0 8.545 0 0 8.715 0 19.466c0 10.757 8.545 19.476 19.088 19.476 3.988 0 7.689-1.248 10.753-3.383l6.164 6.996s3.362-3.053 3.418-3.146l-6.114-6.951zm-3.254-3.833l-7.383-8.203-3.412 3.14 7.315 8.145c-2.177 1.371-4.743 2.457-7.487 2.457-7.877 0-13.973-6.662-13.973-14.699 0-8.031 6.096-14.691 13.973-14.691s13.973 6.66 13.973 14.691c0 3.543-.949 6.639-3.006 9.16z"/><path fill-rule="evenodd" clip-rule="evenodd" fill="#757676" d="M60.631 33.516h-4.803v-2.697h-.074c-1.551 1.93-3.743 3.16-6.395 3.16-4.61 0-6.615-3.316-6.615-7.791V13.65h5.066v10.612c0 2.426.041 5.703 3.291 5.703 3.666 0 4.462-4.047 4.462-6.594V13.65h5.067v19.866z"/><path fill="#757676" d="M74.191 13.184c-5.746 0-10.17 3.976-10.17 10.534 0 5.713 3.742 10.262 10.17 10.262 6.469 0 10.213-4.549 10.213-10.262 0-6.559-4.425-10.534-10.213-10.534zm0 16.783c-3.855 0-4.876-3.582-4.876-6.865 0-2.97 1.588-5.905 4.876-5.905 3.328 0 4.918 2.854 4.918 5.905 0 3.318-1.023 6.865-4.918 6.865z"/><path fill-rule="evenodd" clip-rule="evenodd" fill="#757676" d="M97.722 13.184c5.789 0 10.208 3.976 10.208 10.534 0 5.713-3.74 10.262-10.208 10.262-6.427 0-10.171-4.549-10.171-10.262 0-6.559 4.422-10.534 10.171-10.534m0 16.783c3.893 0 4.916-3.547 4.916-6.865 0-3.051-1.589-5.905-4.916-5.905-3.288 0-4.876 2.935-4.876 5.905 0 3.283 1.017 6.865 4.876 6.865M111.58 4.585h5.066v17.009h.077l6.05-7.948h5.975l-7.26 8.876 8.166 10.996h-6.427l-6.504-9.646h-.077v9.646h-5.066zM146.955 32.399c-1.85 1.039-3.97 1.58-6.691 1.58-6.428 0-10.172-3.781-10.172-10.299 0-5.751 2.987-10.497 9.039-10.497 7.221 0 9.264 5.057 9.264 12.002h-13.459c.226 3.201 2.416 5.012 5.554 5.012 2.46 0 4.577-.924 6.466-2.002v4.204zm-3.4-10.763c-.15-2.509-1.286-4.669-4.124-4.669-2.834 0-4.27 2.004-4.495 4.669h8.619zM151.756 13.648h4.503v4.516h.073c.229-1.85 3.971-4.963 6.995-4.963 1.698 0 2.173.368 2.702.522v4.771c-.451-.271-1.627-.83-3.657-.806-5.427.063-5.548 5.683-5.548 8.537v7.291h-5.068V13.648z"/><defs><path id="a" d="M168.803 15.631a2.324 2.324 0 0 1 2.342-2.346c1.258 0 2.332.996 2.332 2.346a2.327 2.327 0 0 1-2.332 2.361 2.328 2.328 0 0 1-2.342-2.361zm2.342 1.967c1.045 0 1.868-.833 1.868-1.967 0-1.115-.823-1.953-1.868-1.953-1.052 0-1.879.838-1.879 1.953 0 1.134.827 1.967 1.879 1.967zm-.487-.602h-.404v-2.715h1.014c.627 0 .939.234.939.77 0 .486-.301.699-.689.748l.758 1.197h-.451l-.704-1.18h-.462v1.18zm.481-1.527c.34 0 .646-.023.646-.444 0-.333-.296-.396-.579-.396h-.547v.841h.48z"/></defs><use xlink:href="#a" overflow="visible" fill-rule="evenodd" clip-rule="evenodd" fill="#757676"/><clipPath id="b"><use xlink:href="#a" overflow="visible"/></clipPath><g clip-path="url(#b)"><defs><path id="c" d="M-.973-1.164h175.889v44.87H-.973z"/></defs><use xlink:href="#c" overflow="visible" fill="#757676"/><clipPath id="d"><use xlink:href="#c" overflow="visible"/></clipPath><path clip-path="url(#d)" fill="#757676" d="M159.829 4.312h22.622v22.654h-22.622z"/></g></svg>