<?xml version="1.0" encoding="utf-8"?>
<!-- Generator: Adobe Illustrator 16.0.0, SVG Export Plug-In . SVG Version: 6.00 Build 0)  -->
<!DOCTYPE svg PUBLIC "-//W3C//DTD SVG 1.1//EN" "http://www.w3.org/Graphics/SVG/1.1/DTD/svg11.dtd">
<svg version="1.1" id="Layer_1" xmlns="http://www.w3.org/2000/svg" xmlns:xlink="http://www.w3.org/1999/xlink" x="0px" y="0px"
	 width="173.477px" height="42.555px" viewBox="0 0 173.477 42.555" enable-background="new 0 0 173.477 42.555"
	 xml:space="preserve">
<g>
	<g>
		<path fill="#757676" d="M33.309,32.458c3.023-3.443,4.866-7.992,4.866-12.992C38.175,8.715,29.629,0,19.088,0
			C8.545,0,0,8.715,0,19.466c0,10.757,8.545,19.476,19.088,19.476c3.988,0,7.689-1.248,10.753-3.383l6.164,6.996
			c0,0,3.362-3.053,3.418-3.146L33.309,32.458z M30.055,28.625l-7.383-8.203l-3.412,3.14l7.315,8.145
			c-2.177,1.371-4.743,2.457-7.487,2.457c-7.877,0-13.973-6.662-13.973-14.699c0-8.031,6.096-14.691,13.973-14.691
			s13.973,6.66,13.973,14.691C33.061,23.008,32.112,26.104,30.055,28.625z"/>
	</g>
	<path fill-rule="evenodd" clip-rule="evenodd" fill="#757676" d="M60.631,33.516h-4.803v-2.697h-0.074
		c-1.551,1.93-3.743,3.16-6.395,3.16c-4.61,0-6.615-3.316-6.615-7.791V13.65h5.066v10.612c0,2.426,0.041,5.703,3.291,5.703
		c3.666,0,4.462-4.047,4.462-6.594V13.65h5.067V33.516z"/>
	<g>
		<path fill="#757676" d="M74.191,13.184c-5.746,0-10.17,3.976-10.17,10.534c0,5.713,3.742,10.262,10.17,10.262
			c6.469,0,10.213-4.549,10.213-10.262C84.404,17.159,79.979,13.184,74.191,13.184z M74.191,29.967
			c-3.855,0-4.876-3.582-4.876-6.865c0-2.97,1.588-5.905,4.876-5.905c3.328,0,4.918,2.854,4.918,5.905
			C79.109,26.42,78.086,29.967,74.191,29.967z"/>
	</g>
	<path fill-rule="evenodd" clip-rule="evenodd" fill="#757676" d="M97.722,13.184c5.789,0,10.208,3.976,10.208,10.534
		c0,5.713-3.74,10.262-10.208,10.262c-6.427,0-10.171-4.549-10.171-10.262C87.551,17.159,91.973,13.184,97.722,13.184
		 M97.722,29.967c3.893,0,4.916-3.547,4.916-6.865c0-3.051-1.589-5.905-4.916-5.905c-3.288,0-4.876,2.935-4.876,5.905
		C92.846,26.385,93.863,29.967,97.722,29.967"/>
	<polygon fill-rule="evenodd" clip-rule="evenodd" fill="#757676" points="111.58,4.585 116.646,4.585 116.646,21.594 
		116.723,21.594 122.773,13.646 128.748,13.646 121.488,22.522 129.654,33.518 123.227,33.518 116.723,23.872 116.646,23.872 
		116.646,33.518 111.58,33.518 	"/>
	<path fill-rule="evenodd" clip-rule="evenodd" fill="#757676" d="M146.955,32.399c-1.85,1.039-3.97,1.58-6.691,1.58
		c-6.428,0-10.172-3.781-10.172-10.299c0-5.751,2.987-10.497,9.039-10.497c7.221,0,9.264,5.057,9.264,12.002h-13.459
		c0.226,3.201,2.416,5.012,5.554,5.012c2.46,0,4.577-0.924,6.466-2.002V32.399z M143.555,21.636
		c-0.15-2.509-1.286-4.669-4.124-4.669c-2.834,0-4.27,2.004-4.495,4.669H143.555z"/>
	<path fill-rule="evenodd" clip-rule="evenodd" fill="#757676" d="M151.756,13.648h4.503v4.516h0.073
		c0.229-1.85,3.971-4.963,6.995-4.963c1.698,0,2.173,0.368,2.702,0.522v4.771c-0.451-0.271-1.627-0.83-3.657-0.806
		c-5.427,0.063-5.548,5.683-5.548,8.537v7.291h-5.068V13.648z"/>
	<g enable-background="new    ">
		<g>
			<g>
				<defs>
					<path id="SVGID_1_" d="M168.803,15.631c0-1.35,1.072-2.346,2.342-2.346c1.258,0,2.332,0.996,2.332,2.346
						c0,1.365-1.074,2.361-2.332,2.361C169.875,17.992,168.803,16.996,168.803,15.631z M171.145,17.598
						c1.045,0,1.868-0.833,1.868-1.967c0-1.115-0.823-1.953-1.868-1.953c-1.052,0-1.879,0.838-1.879,1.953
						C169.266,16.765,170.093,17.598,171.145,17.598z M170.658,16.996h-0.404v-2.715h1.014c0.627,0,0.939,0.234,0.939,0.77
						c0,0.486-0.301,0.699-0.689,0.748l0.758,1.197h-0.451l-0.704-1.18h-0.462V16.996z M171.139,15.469
						c0.34,0,0.646-0.023,0.646-0.444c0-0.333-0.296-0.396-0.579-0.396h-0.547v0.841H171.139z"/>
				</defs>
				<use xlink:href="#SVGID_1_"  overflow="visible" fill-rule="evenodd" clip-rule="evenodd" fill="#757676"/>
				<clipPath id="SVGID_2_">
					<use xlink:href="#SVGID_1_"  overflow="visible"/>
				</clipPath>
				<g clip-path="url(#SVGID_2_)">
					<defs>
						<rect id="SVGID_3_" x="-0.973" y="-1.164" width="175.889" height="44.87"/>
					</defs>
					<use xlink:href="#SVGID_3_"  overflow="visible" fill="#757676"/>
					<clipPath id="SVGID_4_">
						<use xlink:href="#SVGID_3_"  overflow="visible"/>
					</clipPath>
					<rect x="159.829" y="4.312" clip-path="url(#SVGID_4_)" fill="#757676" width="22.622" height="22.654"/>
				</g>
			</g>
		</g>
	</g>
</g>
</svg>
