<?xml version="1.0" encoding="utf-8"?>
<!-- Generator: Adobe Illustrator 16.0.0, SVG Export Plug-In . SVG Version: 6.00 Build 0)  -->
<!DOCTYPE svg PUBLIC "-//W3C//DTD SVG 1.1//EN" "http://www.w3.org/Graphics/SVG/1.1/DTD/svg11.dtd">
<svg version="1.1" id="Layer_1" xmlns="http://www.w3.org/2000/svg" xmlns:xlink="http://www.w3.org/1999/xlink" x="0px" y="0px"
	 width="169.077px" height="62.727px" viewBox="0 0 169.077 62.727" enable-background="new 0 0 169.077 62.727"
	 xml:space="preserve">
<g>
	<path fill-rule="evenodd" clip-rule="evenodd" fill="#757676" d="M78.839,49.771l0.721,0.369h5.311l8.53-23.245
		c0,0,1.449-4.69-3.446-4.864c-4.889-0.172-6.52,0-6.52,0s-3.504,0.479-4.398,3.312c-0.355,1.133-0.725,2.077-0.968,2.812L77.553,30
		h5.882l0.454-1.521c0.543-1.609,0.697-2.013,1.203-2.388c0.389-0.288,2.873-0.861,2.176,1.493
		c-0.702,2.354-1.399,4.021-1.399,4.021s-1.008,1.205-3.881,1.779c-2.467,0.494-6.214,1.32-7.146,4.02
		c-0.931,2.701-3.34,9.131-3.34,9.131s-0.774,3.447,2.72,3.561c0,0,2.883,0.316,4.511-0.287L78.839,49.771z M84.714,35.726
		c0,0-2.916,0.098-3.847,2.064c-0.933,1.967-2.937,7.174-2.937,7.174s-0.45,1.148,1.015,1.266c1.076,0.086,1.696-0.398,2.204-1.562
		s2.953-7.223,2.953-7.223L84.714,35.726z"/>
	<path fill-rule="evenodd" clip-rule="evenodd" fill="#757676" d="M161.938,25.013c0.653-0.052,1.035,0.323,0.855,0.837
		l-6.717,19.434c-0.18,0.516-0.852,0.975-1.503,1.027c-0.65,0.053-1.033-0.32-0.857-0.836l6.721-19.434
		C160.614,25.527,161.286,25.068,161.938,25.013 M159.687,21.967l6.479-0.047c2.06-0.016,3.31,1.206,2.796,2.728l-7.646,22.623
		c-0.516,1.523-2.6,2.77-4.659,2.785l-6.479,0.045c-2.059,0.016-3.309-1.205-2.795-2.727l7.646-22.622
		C155.543,23.23,157.628,21.983,159.687,21.967"/>
	<path fill-rule="evenodd" clip-rule="evenodd" fill="#757676" d="M52.967,10.205c3.784-0.025,9.317,0,9.317,0l3.612-10.179H48.92
		c0,0-5.888-0.388-9.972,1.854l-0.841,0.499c-2.532,1.616-5.05,4.321-6.565,8.833c-4.139,12.294-13.187,37.869-13.187,37.869
		s0,3.357-6.478,3.357H3.66L0,62.667l18.012,0.059c0,0,7.918,0.23,13.353-5.23c1.734-1.818,2.215-4.232,3.423-7.605
		c4.97-13.906,4.97-14.064,4.97-14.064l7.338-20.62c0,0,0.525-1.6,1.292-2.896C48.387,12.31,49.179,10.232,52.967,10.205"/>
	<polygon fill-rule="evenodd" clip-rule="evenodd" fill="#757676" points="80.174,58.667 86.705,54.142 86.999,53.147 
		79.621,53.147 79.311,54.202 84.298,54.202 77.644,58.806 77.361,59.772 85.155,59.772 85.482,58.667 	"/>
	<path fill-rule="evenodd" clip-rule="evenodd" fill="#757676" d="M92.377,57.405H89.79l2.181-2.984L92.377,57.405z M92.51,58.368
		l0.188,1.404h1.928l-1.201-6.625h-2.071l-5.223,6.625h1.914l1.043-1.404H92.51z"/>
	<polygon fill-rule="evenodd" clip-rule="evenodd" fill="#757676" points="98.189,53.147 96.236,59.772 98.01,59.772 99.418,54.999 
		102.078,59.772 103.979,59.772 105.93,53.147 104.158,53.147 102.789,57.782 100.16,53.147 	"/>
	<polygon fill-rule="evenodd" clip-rule="evenodd" fill="#757676" points="106.567,59.772 113.541,59.772 113.853,58.708 
		108.712,58.708 109.271,56.808 113.688,56.808 114.005,55.733 109.577,55.733 110.029,54.192 115.073,54.192 115.382,53.147 
		108.522,53.147 	"/>
	<polygon fill-rule="evenodd" clip-rule="evenodd" fill="#757676" points="121.326,54.222 124.261,54.222 124.579,53.147 
		116.863,53.147 116.547,54.222 119.481,54.222 117.845,59.772 119.688,59.772 	"/>
	<polygon fill-rule="evenodd" clip-rule="evenodd" fill="#757676" points="130.048,54.222 132.98,54.222 133.297,53.147 
		125.586,53.147 125.269,54.222 128.203,54.222 126.567,59.772 128.41,59.772 	"/>
	<polygon fill-rule="evenodd" clip-rule="evenodd" fill="#757676" points="135.102,53.147 133.148,59.772 134.993,59.772 
		136.946,53.147 	"/>
	<path fill-rule="evenodd" clip-rule="evenodd" fill="#757676" d="M128.636,25.044l0.367-0.008c0.684-0.016,1.09,0.387,0.9,0.896
		l-3.294,8.929c-0.188,0.51-0.898,0.934-1.584,0.947l-0.365,0.008c-0.688,0.016-1.091-0.387-0.904-0.896l3.296-8.928
		C127.241,25.483,127.948,25.058,128.636,25.044 M124.614,41.507h5.349l-1.936,6.086c0,0-1.517,2.527-4.464,2.527h-6.703
		c0,0-4.743,0.176-3.197-4.246c1.547-4.426,7.527-20.737,7.527-20.737s0.159-1.13,1.617-2.1c0.93-0.497,1.82-0.983,4.356-1.013
		c6.68-0.073,5.242,0,5.242,0s4.463,0.069,3.229,3.976c-1.236,3.904-4.659,13.09-4.659,13.09h-8.463l-2.411,5.805
		c0,0-0.792,1.674,1.272,1.383c1.641-0.232,1.645-0.512,2.075-1.672C123.913,43.343,124.614,41.507,124.614,41.507"/>
	<path fill-rule="evenodd" clip-rule="evenodd" fill="#757676" d="M102.738,50.12h-6.366l5.655-15.594l4.155-10.303l0.904-2.198
		h5.583c0,0,0.112,0.902,1.199,0.529c1.088-0.373,2.717-0.689,3.688-0.518s3.146,0.689,2.368,3.044
		c-0.774,2.355-1.592,4.536-1.592,4.536l-1.748,4.625l-0.681,1.482h-2.283h-3.233c0,0,0.218-0.363,0.49-1.281
		c0.274-0.92,2.718-7.409,2.718-7.409s0.118-0.229,0.234-0.66c0.115-0.431,0-0.861-0.934-1.033
		c-0.933-0.173-1.493,0.678-1.493,0.678c-0.06,0.095-0.125,0.203-0.174,0.326c-0.606,1.509-3.535,9.792-3.535,9.792l-3.921,10.824
		L102.738,50.12z"/>
	<path fill-rule="evenodd" clip-rule="evenodd" fill="#757676" d="M95.464,27.697c-0.794,2.206-2.312,5.943-2.312,5.943
		l-3.415,9.475l-2.37,7.004h6.21l4.428-12.115l4.621-12.232h1.864l1.596-3.744h-1.459c0,0-0.997,0.193-0.488-0.966
		c0.621-1.418,1.806-5.326,1.806-5.326s0.423-1.831,2.792-1.866c1.97-0.026,2.592-0.011,2.592-0.011l1.287-3.653h-7.911
		c0,0-3.205,0.174-4.604,4.395l-1.395,4.221l-1.049,2.614c0,0-0.124,0.693-1.327,0.693H95.63l-0.701,1.918l-0.497,1.623
		l-0.005,0.062h1.845L95.464,27.697z"/>
	<path fill-rule="evenodd" clip-rule="evenodd" fill="#757676" d="M145.415,25.041c0.651-0.053,1.035,0.32,0.857,0.834
		l-6.721,19.435c-0.178,0.518-0.85,0.977-1.5,1.029c-0.651,0.051-1.036-0.322-0.858-0.838l6.721-19.433
		C144.09,25.552,144.765,25.092,145.415,25.041z M158.13,10.197h-5.591c0,0-0.311-0.229-0.701,0.774
		c-0.388,1.005-2.56,7.121-2.56,7.121l-1.592,4.249c0,0-0.233,0.576-0.854,0.46c-0.622-0.113-2.913-0.832-4.351-0.632
		c-1.435,0.203-3.184,0.259-4.153,2.012c-0.97,1.752-2.408,5.973-2.408,5.973l-2.678,7.55l-2.795,7.84c0,0-0.699,2.729-0.155,3.389
		c0.541,0.66,1.785,2.037,5.123,1.205c3.339-0.832,0.776-0.201,0.776-0.201s1.256-0.65,1.477-0.486
		c0.352,0.258,0.543,0.717,0.543,0.717h5.747l0.776-2.066l1.669-4.539l1.515-4.275l3.417-9.65l3.3-9.446L158.13,10.197z"/>
	<path fill-rule="evenodd" clip-rule="evenodd" fill="#757676" d="M70.026,25.041c0.703-0.054,1.116,0.32,0.925,0.836L63.7,45.312
		c-0.191,0.516-0.916,0.977-1.619,1.029s-1.117-0.322-0.926-0.838l7.252-19.435C68.597,25.554,69.323,25.092,70.026,25.041z
		 M78.189,22.382h-5.979l-0.895,0.688c0,0-1.124-0.429-1.862-0.573c-0.794-0.155-2.836-0.059-3.61,0.145
		c-0.778,0.199-2.797,0.946-3.494,3.156c-0.699,2.212-5.67,16.083-5.67,16.083l-1.631,4.824c0,0-1.085,3.443,4.038,3.502
		c5.125,0.057,2.797,0,2.797,0l-0.778,2.584c0,0-0.154,1.377-3.649,1.377H52.72l-1.475,3.965h9.317c0,0,4.659,0.344,6.601-4.768
		l1.939-5.111l6.059-17.056L78.189,22.382z"/>
	<path fill-rule="evenodd" clip-rule="evenodd" fill="#757676" d="M52.609,47.567c0,0-1.538,2.586-4.485,2.586h-6.707
		c0,0-4.739,0.176-3.193-4.246c1.547-4.424,7.528-20.738,7.528-20.738s0.158-1.128,1.614-2.1c0.932-0.496,1.822-0.981,4.358-1.01
		c6.68-0.077,5.243,0,5.243,0s4.458,0.067,3.224,3.974c-1.234,3.905-4.657,13.09-4.657,13.09h-8.461l-2.411,5.805
		c0,0-0.794,1.672,1.27,1.383c1.644-0.232,1.647-0.51,2.076-1.672c0.466-1.266,1.167-3.098,1.167-3.098l5.459,0.008l-1.971,5.889
		L52.609,47.567z M53.194,25.042l0.369-0.008c0.684-0.014,1.088,0.387,0.9,0.898l-3.294,8.929c-0.19,0.508-0.897,0.932-1.584,0.947
		l-0.368,0.008c-0.687,0.014-1.09-0.389-0.902-0.896l3.295-8.928C51.802,25.483,52.509,25.058,53.194,25.042z"/>
</g>
</svg>
