<svg xmlns="http://www.w3.org/2000/svg" width="169.077" height="62.727" viewBox="0 0 169.077 62.727"><g fill-rule="evenodd" clip-rule="evenodd" fill="#757676"><path d="M78.839 49.771l.721.369h5.311l8.53-23.245s1.449-4.69-3.446-4.864c-4.889-.172-6.52 0-6.52 0s-3.504.479-4.398 3.312c-.355 1.133-.725 2.077-.968 2.812L77.553 30h5.882l.454-1.521c.543-1.609.697-2.013 1.203-2.388.389-.288 2.873-.861 2.176 1.493-.702 2.354-1.399 4.021-1.399 4.021s-1.008 1.205-3.881 1.779c-2.467.494-6.214 1.32-7.146 4.02-.931 2.701-3.34 9.131-3.34 9.131s-.774 3.447 2.72 3.561c0 0 2.883.316 4.511-.287l.106-.038zm5.875-14.045s-2.916.098-3.847 2.064c-.933 1.967-2.937 7.174-2.937 7.174s-.45 1.148 1.015 1.266c1.076.086 1.696-.398 2.204-1.562s2.953-7.223 2.953-7.223l.612-1.719zM161.938 25.013c.653-.052 1.035.323.855.837l-6.717 19.434c-.18.516-.852.975-1.503 1.027-.65.053-1.033-.32-.857-.836l6.721-19.434c.177-.514.849-.973 1.501-1.028m-2.251-3.046l6.479-.047c2.06-.016 3.31 1.206 2.796 2.728l-7.646 22.623c-.516 1.523-2.6 2.77-4.659 2.785l-6.479.045c-2.059.016-3.309-1.205-2.795-2.727l7.646-22.622c.514-1.522 2.599-2.769 4.658-2.785M52.967 10.205c3.784-.025 9.317 0 9.317 0L65.896.026H48.92s-5.888-.388-9.972 1.854l-.841.499c-2.532 1.616-5.05 4.321-6.565 8.833-4.139 12.294-13.187 37.869-13.187 37.869s0 3.357-6.478 3.357H3.66L0 62.667l18.012.059s7.918.23 13.353-5.23c1.734-1.818 2.215-4.232 3.423-7.605 4.97-13.906 4.97-14.064 4.97-14.064l7.338-20.62s.525-1.6 1.292-2.896c-.001-.001.791-2.079 4.579-2.106M80.174 58.667l6.531-4.525.294-.995h-7.378l-.31 1.055h4.987l-6.654 4.604-.283.966h7.794l.327-1.105zM92.377 57.405H89.79l2.181-2.984.406 2.984zm.133.963l.188 1.404h1.928l-1.201-6.625h-2.071l-5.223 6.625h1.914l1.043-1.404h3.422zM98.189 53.147l-1.953 6.625h1.774l1.408-4.773 2.66 4.773h1.901l1.951-6.625h-1.772l-1.369 4.635-2.629-4.635zM106.567 59.772h6.974l.312-1.064h-5.141l.559-1.9h4.417l.317-1.075h-4.428l.452-1.541h5.044l.309-1.045h-6.86zM121.326 54.222h2.935l.318-1.075h-7.716l-.316 1.075h2.934l-1.636 5.55h1.843zM130.048 54.222h2.932l.317-1.075h-7.711l-.317 1.075h2.934l-1.636 5.55h1.843zM135.102 53.147l-1.954 6.625h1.845l1.953-6.625zM128.636 25.044l.367-.008c.684-.016 1.09.387.9.896l-3.294 8.929c-.188.51-.898.934-1.584.947l-.365.008c-.688.016-1.091-.387-.904-.896l3.296-8.928c.189-.509.896-.934 1.584-.948m-4.022 16.463h5.349l-1.936 6.086s-1.517 2.527-4.464 2.527h-6.703s-4.743.176-3.197-4.246c1.547-4.426 7.527-20.737 7.527-20.737s.159-1.13 1.617-2.1c.93-.497 1.82-.983 4.356-1.013 6.68-.073 5.242 0 5.242 0s4.463.069 3.229 3.976c-1.236 3.904-4.659 13.09-4.659 13.09h-8.463l-2.411 5.805s-.792 1.674 1.272 1.383c1.641-.232 1.645-.512 2.075-1.672.465-1.263 1.166-3.099 1.166-3.099M102.738 50.12h-6.366l5.655-15.594 4.155-10.303.904-2.198h5.583s.112.902 1.199.529c1.088-.373 2.717-.689 3.688-.518s3.146.689 2.368 3.044c-.774 2.355-1.592 4.536-1.592 4.536l-1.748 4.625-.681 1.482h-5.516s.218-.363.49-1.281c.274-.92 2.718-7.409 2.718-7.409s.118-.229.234-.66c.115-.431 0-.861-.934-1.033-.933-.173-1.493.678-1.493.678a1.99 1.99 0 0 0-.174.326c-.606 1.509-3.535 9.792-3.535 9.792l-3.921 10.824-1.034 3.16z"/><path d="M95.464 27.697c-.794 2.206-2.312 5.943-2.312 5.943l-3.415 9.475-2.37 7.004h6.21l4.428-12.115 4.621-12.232h1.864l1.596-3.744h-1.459s-.997.193-.488-.966c.621-1.418 1.806-5.326 1.806-5.326s.423-1.831 2.792-1.866c1.97-.026 2.592-.011 2.592-.011l1.287-3.653h-7.911s-3.205.174-4.604 4.395l-1.395 4.221-1.049 2.614s-.124.693-1.327.693h-.7l-.701 1.918-.497 1.623-.005.062h1.845l-.808 1.965zM145.415 25.041c.651-.053 1.035.32.857.834l-6.721 19.435c-.178.518-.85.977-1.5 1.029-.651.051-1.036-.322-.858-.838l6.721-19.433c.176-.516.851-.976 1.501-1.027zm12.715-14.844h-5.591s-.311-.229-.701.774c-.388 1.005-2.56 7.121-2.56 7.121l-1.592 4.249s-.233.576-.854.46c-.622-.113-2.913-.832-4.351-.632-1.435.203-3.184.259-4.153 2.012-.97 1.752-2.408 5.973-2.408 5.973l-2.678 7.55-2.795 7.84s-.699 2.729-.155 3.389c.541.66 1.785 2.037 5.123 1.205 3.339-.832.776-.201.776-.201s1.256-.65 1.477-.486c.352.258.543.717.543.717h5.747l.776-2.066 1.669-4.539 1.515-4.275 3.417-9.65 3.3-9.446 3.495-9.995zM70.026 25.041c.703-.054 1.116.32.925.836L63.7 45.312c-.191.516-.916.977-1.619 1.029s-1.117-.322-.926-.838l7.252-19.435c.19-.514.916-.976 1.619-1.027zm8.163-2.659H72.21l-.895.688s-1.124-.429-1.862-.573c-.794-.155-2.836-.059-3.61.145-.778.199-2.797.946-3.494 3.156-.699 2.212-5.67 16.083-5.67 16.083l-1.631 4.824s-1.085 3.443 4.038 3.502c5.125.057 2.797 0 2.797 0l-.778 2.584s-.154 1.377-3.649 1.377H52.72l-1.475 3.965h9.317s4.659.344 6.601-4.768l1.939-5.111 6.059-17.056 3.028-8.816zM52.609 47.567s-1.538 2.586-4.485 2.586h-6.707s-4.739.176-3.193-4.246c1.547-4.424 7.528-20.738 7.528-20.738s.158-1.128 1.614-2.1c.932-.496 1.822-.981 4.358-1.01 6.68-.077 5.243 0 5.243 0s4.458.067 3.224 3.974c-1.234 3.905-4.657 13.09-4.657 13.09h-8.461l-2.411 5.805s-.794 1.672 1.27 1.383c1.644-.232 1.647-.51 2.076-1.672.466-1.266 1.167-3.098 1.167-3.098l5.459.008-1.971 5.889-.054.129zm.585-22.525l.369-.008c.684-.014 1.088.387.9.898l-3.294 8.929c-.19.508-.897.932-1.584.947l-.368.008c-.687.014-1.09-.389-.902-.896l3.295-8.928c.192-.509.899-.934 1.584-.95z"/></g></svg>