<svg id="Capa_1" xmlns="http://www.w3.org/2000/svg" viewBox="0 0 595.3 841.9"><style>.st0{fill-rule:evenodd;clip-rule:evenodd}.st0,.st1{fill:#575756}</style><path class="st0" d="M334.9 371.4h7.4v-12.3c0-2.5 1.2-4.8 4-4.8 4 0 3.7 3.1 3.7 6.2v10.9h7.4V357c0-3.3-.6-8.7-8.1-8.7-2.7 0-5.7 1.4-6.9 3.7l-.1-11.5h-7.4v30.9zm31.5-11.2c0-2.9 1-6.3 4.5-6.3 3.4 0 4.5 3.4 4.5 6.3s-1.1 6.2-4.5 6.2c-3.5 0-4.5-3.4-4.5-6.2zm-7.4 0c0 6.8 4.9 11.9 11.8 11.9 7 0 11.9-5.1 11.9-11.9 0-6.8-4.9-11.9-11.9-11.9-6.9 0-11.8 5.1-11.8 11.9zm39.4-11.3h-4.6v-6.8h-7.4v6.8h-3.7v4.8h3.7v10c0 6.1 1.6 7.9 7.9 7.9 1.3 0 2.7-.2 4-.2V366c-.7 0-1.3.1-1.9.1-1.6 0-2.6-.4-2.6-2.2v-10.2h4.6v-4.8zm9.6 8.9c.4-2.7 2.2-4.6 4.8-4.6 2.5 0 4.2 2.1 4.4 4.6H408zm16.6 4.1c.3-7.6-3.7-13.7-11.7-13.7-6.6 0-12.2 4.9-12.2 11.8 0 7.5 5 12 12.3 12 5 0 9.8-2.3 11.2-7.5h-6.9c-.7 1.6-2.4 2.5-4.2 2.5-3.1 0-4.9-2-5-5.1h16.5zm3.5 9.5h7.4v-31h-7.4v31zm9.9-7.4c.2 6.3 5.7 8.1 11 8.1 5.1 0 10.8-2 10.8-8 0-1.9-1.2-5.2-5.7-6.1-3.4-.7-8.3-1.1-8.3-3.3 0-1.6 1.9-1.7 3.2-1.7.9 0 1.7.2 2.3.6.6.4 1 1 1 2h6.8c-.3-5.9-5.4-7.3-10.4-7.3-4.4 0-10.3 1.5-10.3 6.9 0 6.1 5.8 6.2 10.5 7.4 1.3.3 3.6.6 3.6 2.4 0 1.8-2 2.4-3.5 2.4-1 0-2-.3-2.7-.8-.7-.6-1.2-1.4-1.2-2.5H438zM315.4 243.6l27.8 5.4-.5 2.4c-1.2 5.7-4.7 20.2-7.4 29.8-12.9 45.3-35.8 93.7-81.5 93.7-33.2 0-64.7-23.4-99.9-61.1l18.2-21.3c21.8 24.5 57.5 53 81.4 53 43.4.1 59.6-88.5 61.9-101.9zm-76.5 91.1h28.6v-25.9h-28.6v25.9zm-.4 140.6h30v-91.6h-30v91.6zm-7-91.6H201l-16.9 60.5h-.4L167 383.7h-31.2l30.5 91.6h34.6l30.6-91.6zm141.7 0h-30.5l-16.9 60.5h-.4l-16.8-60.5h-31.2l30.5 91.6h34.6l30.7-91.6zm89.1 91.6h-30.2c-1.1-2.8-1.4-5.6-1.8-8.6-7.8 8.1-19.2 11.3-30.2 11.3-17.5 0-31.2-8.8-31.2-27.7 0-29.8 32.5-27.5 53.3-31.8 5.1-1.1 7.9-2.8 7.9-8.5 0-6.9-8.3-9.5-14.5-9.5-8.3 0-13.6 3.7-15 11.5h-28.1c.5-12 6.2-19.8 14.3-24.5 8.1-4.6 18.7-6.3 29.1-6.3 21.7 0 42.7 4.8 42.7 30.7V452c.2 7.6.2 16.1 3.7 23.3zm-32.4-42.9c-4.2 2.6-12 3.2-18.5 4.9-6.7 1.6-12.3 4.4-12.3 11.6 0 7.4 5.8 10.4 12.5 10.4 14.2.1 19-8 18.3-26.9z"/><g><path class="st1" d="M94.5 547.8l23.8-28.5h-22v-8.2h34.9v7.7l-23.8 28.5h24.4v8.2H94.5v-7.7zM136.3 533.3c.5-8.3 7.9-10.8 15.1-10.8 6.4 0 14.1 1.4 14.1 9.1v16.7c0 2.9.3 5.8 1.1 7.2h-8.9c-.3-1-.6-2.1-.6-3.1-2.8 2.9-6.9 4-10.8 4-6.1 0-10.9-3-10.9-9.6 0-7.3 5.5-9 10.9-9.8 5.4-.8 10.4-.6 10.4-4.2 0-3.8-2.6-4.4-5.7-4.4-3.4 0-5.5 1.4-5.8 4.8h-8.9zm20.4 6.5c-1.5 1.3-4.6 1.4-7.3 1.9-2.7.6-5.2 1.5-5.2 4.7 0 3.3 2.6 4.1 5.4 4.1 6.9 0 7.1-5.5 7.1-7.4v-3.3zM174.3 529.3H169v-5.9h5.3v-2.5c0-5.7 3.5-9.8 10.8-9.8 1.6 0 3.2.2 4.7.2v6.6c-1.1-.1-2.1-.2-3.2-.2-2.4 0-3.4 1-3.4 3.7v1.9h6.1v5.9h-6.1v26.2h-8.8v-26.1zM202.1 518.4h-8.8v-7.3h8.8v7.3zm-8.8 5h8.8v32.1h-8.8v-32.1zM209.1 523.4h8.4v6h.1c1.6-4 6-6.8 10.3-6.8.6 0 1.4.1 1.9.3v8.2c-.8-.2-2.1-.3-3.2-.3-6.5 0-8.7 4.7-8.7 10.3v14.5h-8.8v-32.2zM247.8 522.5c10.1 0 16.7 6.7 16.7 17 0 10.2-6.5 16.9-16.7 16.9-10.1 0-16.6-6.7-16.6-16.9 0-10.3 6.5-17 16.6-17zm0 27.3c6 0 7.8-5.2 7.8-10.3 0-5.2-1.8-10.3-7.8-10.3s-7.8 5.2-7.8 10.3c0 5.1 1.8 10.3 7.8 10.3zM300.5 511.2h10l16.6 44.4H317l-3.4-9.9H297l-3.5 9.9h-9.9l16.9-44.4zm-.9 27.2h11.5l-5.6-16.3h-.1l-5.8 16.3zM330.3 511.2h8.8v44.4h-8.8v-44.4zM368 534.7c-.6-3.6-2.9-5.5-6.5-5.5-5.7 0-7.5 5.7-7.5 10.4 0 4.6 1.8 10.1 7.3 10.1 4.1 0 6.5-2.6 7-6.5h8.5c-1.1 8.5-7 13.2-15.5 13.2-9.7 0-16.2-6.8-16.2-16.5 0-10 6-17.4 16.4-17.4 7.6 0 14.5 4 15.1 12.2H368zM411.9 555.5h-8.4V551h-.2c-2.2 3.6-6.1 5.3-9.8 5.3-9.4 0-11.8-5.3-11.8-13.2v-19.8h8.8v18.2c0 5.3 1.6 7.9 5.7 7.9 4.8 0 6.8-2.7 6.8-9.2v-16.8h8.8v32.1zM441.6 551.4h-.1c-2.1 3.5-5.7 5-9.8 5-9.7 0-14.4-8.3-14.4-17.2 0-8.6 4.8-16.7 14.2-16.7 3.8 0 7.5 1.6 9.6 4.8h-.1.1v-16.2h8.8v44.4h-8.4v-4.1zm-7.7-22.2c-5.8 0-7.8 5-7.8 10.3 0 5 2.3 10.3 7.8 10.3 5.8 0 7.6-5.1 7.6-10.4 0-5.2-1.9-10.2-7.6-10.2zM465.7 518.4h-8.8v-7.3h8.8v7.3zm-8.8 5h8.8v32.1h-8.8v-32.1zM472.3 533.3c.5-8.3 7.9-10.8 15.1-10.8 6.4 0 14.1 1.4 14.1 9.1v16.7c0 2.9.3 5.8 1.1 7.2h-8.9c-.3-1-.6-2.1-.6-3.1-2.8 2.9-6.9 4-10.8 4-6.1 0-10.9-3-10.9-9.6 0-7.3 5.5-9 10.9-9.8 5.4-.8 10.4-.6 10.4-4.2 0-3.8-2.6-4.4-5.7-4.4-3.4 0-5.5 1.4-5.8 4.8h-8.9zm20.4 6.5c-1.5 1.3-4.6 1.4-7.3 1.9-2.7.6-5.2 1.5-5.2 4.7 0 3.3 2.6 4.1 5.4 4.1 6.9 0 7.1-5.5 7.1-7.4v-3.3z"/></g></svg>