<svg xmlns="http://www.w3.org/2000/svg" width="162.64" height="54.78" viewBox="0 0 162.64 54.78"><g fill-rule="evenodd" clip-rule="evenodd" fill="#757676"><path d="M144.046 24.691c.104-1.993 1.395-5.497 5.867-5.497 3.431 0 4.968 1.891 5.621 5.497h-11.488zm-29.567 15.993h7.066V28.745c0-5.382 1.787-8.488 6.964-8.488.29 0 .599.028.91.081v-6.339c-.57-.095-1.119-.166-1.345-.166-3.431 0-5.484 1.329-6.778 4.582h-.103v-4.021h-6.715v26.29zM14.63 22.967c.257-2.795 1.993-3.804 4.679-3.804 2.489 0 4.34 1.165 4.34 2.931 0 2.234-3.172 2.109-7.501 2.733-3.863.551-8.131 2.65-9.081 6.777V0H0v40.407h7.066v-5.209c.898 4.137 4.805 6.391 9.081 6.391 3.132 0 5.796-1.049 8.038-3.398-.208.844-.01 1.695.495 2.494h7.159c-1.115-1.713-1.032-3.688-1.032-6.035V23.716c0-8.2-6.023-9.883-11.147-9.883-5.774 0-11.405 1.953-11.427 9.134h6.397zm9.257 7.432c0 .777.019 2.076-.62 3.168-.817 1.383-3.306 2.453-5.052 2.453-2.295 0-4.31-1.039-4.329-2.879-.021-1.881 1.984-2.951 4.132-3.564 2.181-.613 4.432-1.111 5.869-1.548v2.37zm43.194 10.285h7.066V28.745c0-5.268 1.703-8.345 6.622-8.481a11.292 11.292 0 0 0-.331 2.703h6.406c.245-2.795 1.981-3.804 4.667-3.804 2.492 0 4.341 1.165 4.341 2.931 0 2.234-3.174 2.109-7.501 2.733-4.372.624-9.276 3.243-9.276 8.523 0 5.301 4.398 8.238 9.276 8.238 3.129 0 5.807-1.049 8.036-3.398-.195.844 0 1.695.496 2.494h7.169c-1.124-1.713-1.043-3.688-1.043-6.035V23.716c0-8.2-6.021-9.883-11.145-9.883-3.918 0-7.779.904-9.856 3.74v-3.574c-.569-.095-1.116-.166-1.344-.166-3.429 0-5.477 1.329-6.777 4.582h-.092v-4.021H67.08v8.334c-1.314-5.247-4.848-9.404-10.933-9.404-3.139 0-5.888 1.258-7.551 4.001h-.104v-2.786h-6.798V54.78h7.149V37.901h.093c1.673 2.547 4.566 3.305 7.605 3.305 5.69 0 9.215-3.877 10.538-8.812v8.29zm-12.398-5.443c-4.515 0-6.085-3.492-6.085-7.69 0-4.209 1.466-8.356 6.033-8.356 4.462 0 5.899 4.251 5.899 8.356 0 3.594-1.291 7.69-5.847 7.69zm41.405-4.842c0 .777.021 2.076-.62 3.168-.804 1.383-3.305 2.453-5.052 2.453-2.283 0-4.306-1.039-4.327-2.879-.01-1.881 1.984-2.951 4.133-3.564 2.19-.613 4.442-1.111 5.866-1.548v2.37zm41.573-25.722h-7.066v5.861h7.066V4.677zm-7.066 35.73h7.066v-8.119c1.621 5.365 6.085 8.824 12.45 8.824 5.824 0 10.05-2.607 12.035-8.719h-6.211c-.454 1.611-2.735 3.355-5.576 3.355-3.928 0-6.118-2.047-6.313-6.557h18.555c.496-7.951-3.729-15.359-12.489-15.359-6.17 0-10.786 3.688-12.45 9.072v-8.367h-7.066v25.87zm-18.36-35.73h-7.064v5.861h7.064V4.677zm-7.064 35.73h7.064V14.54h-7.064v25.867z"/><path d="M73.743 50.362c.041 1.932 1.663 2.783 3.678 2.783 1.757 0 3.503-.707 3.503-2.451 0-.801-.559-1.674-1.716-1.984-.454-.113-2.406-.562-2.542-.605-.63-.145-1.043-.455-1.043-.996 0-.791.9-1.018 1.613-1.018 1.062 0 1.827.373 1.9 1.381h1.54c0-1.631-1.54-2.492-3.379-2.492-1.592 0-3.225.736-3.225 2.297.01.799.444 1.609 1.953 1.975 1.21.289 2.015.434 2.624.643.36.115.733.354.733.955 0 .592-.506 1.176-1.858 1.176-1.24 0-2.242-.467-2.242-1.662h-1.539zm9.982 2.596h1.59l1.797-5.963h.032l1.756 5.963h1.569l2.428-7.791h-1.561l-1.642 5.953h-.02l-1.735-5.953h-1.572l-1.775 5.953h-.03l-1.594-5.953h-1.56l2.317 7.791zm10.184 0h1.539v-7.791h-1.539v7.791zm2.592-6.62h2.79v6.619h1.539v-6.619h2.802v-1.172h-7.131v1.172zm7.895 0h4.73l-5.124 5.498v1.121h7.211v-1.182h-5.249l5.125-5.572v-1.037h-6.693v1.172zm8.027 6.62h6.427v-1.182h-4.887v-2.279h4.44v-1.111h-4.44v-2.047h4.804v-1.172h-6.344v7.791zm9.307-6.68h2.511c.794 0 1.528.197 1.528 1.193 0 .811-.537 1.238-1.507 1.238h-2.532v-2.431zm-1.538 6.68h1.538v-3.211h2.273c1.416 0 1.756.635 1.756 2.059 0 .383 0 .812.228 1.152h1.654c-.332-.32-.478-1.152-.478-2.055 0-1.229-.774-1.582-1.312-1.643v-.021c.29-.094 1.457-.479 1.457-1.963 0-1.32-.981-2.109-2.913-2.109h-4.204v7.791zm8.69 0h6.01v-1.182h-4.473v-6.609h-1.537v7.791zm10.217-6.454h.041l1.321 3.346h-2.697l1.335-3.346zm-4.165 6.454h1.592l.827-2.066h3.512l.827 2.066h1.653l-3.391-7.791h-1.642l-3.378 7.791zm9.183 0h1.469v-5.736h.04l4.009 5.736h1.62v-7.791h-1.464v5.736h-.021l-4.018-5.736h-1.635v7.791zm10.509-6.68h1.519c2.417 0 2.933 1.227 2.933 2.783 0 1.559-.516 2.775-2.933 2.775h-1.519v-5.558zm-1.539 6.68h3.654c2.709 0 3.887-1.744 3.887-3.896 0-2.15-1.178-3.895-3.887-3.895h-3.654v7.791z"/></g></svg>