<?xml version="1.0" encoding="utf-8"?>
<!-- Generator: Adobe Illustrator 16.0.0, SVG Export Plug-In . SVG Version: 6.00 Build 0)  -->
<!DOCTYPE svg PUBLIC "-//W3C//DTD SVG 1.1//EN" "http://www.w3.org/Graphics/SVG/1.1/DTD/svg11.dtd">
<svg version="1.1" id="Layer_1" xmlns="http://www.w3.org/2000/svg" xmlns:xlink="http://www.w3.org/1999/xlink" x="0px" y="0px"
	 width="162.64px" height="54.78px" viewBox="0 0 162.64 54.78" enable-background="new 0 0 162.64 54.78" xml:space="preserve">
<g>
	<path fill-rule="evenodd" clip-rule="evenodd" fill="#757676" d="M144.046,24.691c0.104-1.993,1.395-5.497,5.867-5.497
		c3.431,0,4.968,1.891,5.621,5.497H144.046z M114.479,40.684h7.066V28.745c0-5.382,1.787-8.488,6.964-8.488
		c0.29,0,0.599,0.028,0.91,0.081v-6.339c-0.57-0.095-1.119-0.166-1.345-0.166c-3.431,0-5.484,1.329-6.778,4.582h-0.103v-4.021
		h-6.715V40.684z M14.63,22.967c0.257-2.795,1.993-3.804,4.679-3.804c2.489,0,4.34,1.165,4.34,2.931
		c0,2.234-3.172,2.109-7.501,2.733c-3.863,0.551-8.131,2.65-9.081,6.777V0H0v40.407h7.066v-5.209
		c0.898,4.137,4.805,6.391,9.081,6.391c3.132,0,5.796-1.049,8.038-3.398c-0.208,0.844-0.01,1.695,0.495,2.494h7.159
		c-1.115-1.713-1.032-3.688-1.032-6.035V23.716c0-8.2-6.023-9.883-11.147-9.883c-5.774,0-11.405,1.953-11.427,9.134H14.63z
		 M23.887,30.399c0,0.777,0.019,2.076-0.62,3.168c-0.817,1.383-3.306,2.453-5.052,2.453c-2.295,0-4.31-1.039-4.329-2.879
		c-0.021-1.881,1.984-2.951,4.132-3.564c2.181-0.613,4.432-1.111,5.869-1.548V30.399z M67.081,40.684h7.066V28.745
		c0-5.268,1.703-8.345,6.622-8.481c-0.207,0.802-0.321,1.706-0.331,2.703h6.406c0.245-2.795,1.981-3.804,4.667-3.804
		c2.492,0,4.341,1.165,4.341,2.931c0,2.234-3.174,2.109-7.501,2.733c-4.372,0.624-9.276,3.243-9.276,8.523
		c0,5.301,4.398,8.238,9.276,8.238c3.129,0,5.807-1.049,8.036-3.398c-0.195,0.844,0,1.695,0.496,2.494h7.169
		c-1.124-1.713-1.043-3.688-1.043-6.035V23.716c0-8.2-6.021-9.883-11.145-9.883c-3.918,0-7.779,0.904-9.856,3.74v-3.574
		c-0.569-0.095-1.116-0.166-1.344-0.166c-3.429,0-5.477,1.329-6.777,4.582h-0.092v-4.021h-6.715v8.334
		c-1.314-5.247-4.848-9.404-10.933-9.404c-3.139,0-5.888,1.258-7.551,4.001h-0.104v-2.786h-6.798V54.78h7.149V37.901h0.093
		c1.673,2.547,4.566,3.305,7.605,3.305c5.69,0,9.215-3.877,10.538-8.812V40.684z M54.683,35.241c-4.515,0-6.085-3.492-6.085-7.69
		c0-4.209,1.466-8.356,6.033-8.356c4.462,0,5.899,4.251,5.899,8.356C60.53,31.145,59.239,35.241,54.683,35.241z M96.088,30.399
		c0,0.777,0.021,2.076-0.62,3.168c-0.804,1.383-3.305,2.453-5.052,2.453c-2.283,0-4.306-1.039-4.327-2.879
		c-0.01-1.881,1.984-2.951,4.133-3.564c2.19-0.613,4.442-1.111,5.866-1.548V30.399z M137.661,4.677h-7.066v5.861h7.066V4.677z
		 M130.595,40.407h7.066v-8.119c1.621,5.365,6.085,8.824,12.45,8.824c5.824,0,10.05-2.607,12.035-8.719h-6.211
		c-0.454,1.611-2.735,3.355-5.576,3.355c-3.928,0-6.118-2.047-6.313-6.557h18.555c0.496-7.951-3.729-15.359-12.489-15.359
		c-6.17,0-10.786,3.688-12.45,9.072v-8.367h-7.066V40.407z M112.235,4.677h-7.064v5.861h7.064V4.677z M105.171,40.407h7.064V14.54
		h-7.064V40.407z"/>
	<path fill-rule="evenodd" clip-rule="evenodd" fill="#757676" d="M73.743,50.362c0.041,1.932,1.663,2.783,3.678,2.783
		c1.757,0,3.503-0.707,3.503-2.451c0-0.801-0.559-1.674-1.716-1.984c-0.454-0.113-2.406-0.562-2.542-0.605
		c-0.63-0.145-1.043-0.455-1.043-0.996c0-0.791,0.9-1.018,1.613-1.018c1.062,0,1.827,0.373,1.9,1.381h1.54
		c0-1.631-1.54-2.492-3.379-2.492c-1.592,0-3.225,0.736-3.225,2.297c0.01,0.799,0.444,1.609,1.953,1.975
		c1.21,0.289,2.015,0.434,2.624,0.643c0.36,0.115,0.733,0.354,0.733,0.955c0,0.592-0.506,1.176-1.858,1.176
		c-1.24,0-2.242-0.467-2.242-1.662H73.743z M83.725,52.958h1.59l1.797-5.963h0.032l1.756,5.963h1.569l2.428-7.791h-1.561
		l-1.642,5.953h-0.02l-1.735-5.953h-1.572l-1.775,5.953h-0.03l-1.594-5.953h-1.56L83.725,52.958z M93.909,52.958h1.539v-7.791
		h-1.539V52.958z M96.501,46.338h2.79v6.619h1.539v-6.619h2.802v-1.172h-7.131V46.338z M104.396,46.338h4.73l-5.124,5.498v1.121
		h7.211v-1.182h-5.249l5.125-5.572v-1.037h-6.693V46.338z M112.423,52.958h6.427v-1.182h-4.887v-2.279h4.44v-1.111h-4.44v-2.047
		h4.804v-1.172h-6.344V52.958z M121.73,46.278h2.511c0.794,0,1.528,0.197,1.528,1.193c0,0.811-0.537,1.238-1.507,1.238h-2.532
		V46.278z M120.192,52.958h1.538v-3.211h2.273c1.416,0,1.756,0.635,1.756,2.059c0,0.383,0,0.812,0.228,1.152h1.654
		c-0.332-0.32-0.478-1.152-0.478-2.055c0-1.229-0.774-1.582-1.312-1.643v-0.021c0.29-0.094,1.457-0.479,1.457-1.963
		c0-1.32-0.981-2.109-2.913-2.109h-4.204V52.958z M128.882,52.958h6.01v-1.182h-4.473v-6.609h-1.537V52.958z M139.099,46.504h0.041
		l1.321,3.346h-2.697L139.099,46.504z M134.934,52.958h1.592l0.827-2.066h3.512l0.827,2.066h1.653l-3.391-7.791h-1.642
		L134.934,52.958z M144.117,52.958h1.469v-5.736h0.04l4.009,5.736h1.62v-7.791h-1.464v5.736h-0.021l-4.018-5.736h-1.635V52.958z
		 M154.626,46.278h1.519c2.417,0,2.933,1.227,2.933,2.783c0,1.559-0.516,2.775-2.933,2.775h-1.519V46.278z M153.087,52.958h3.654
		c2.709,0,3.887-1.744,3.887-3.896c0-2.15-1.178-3.895-3.887-3.895h-3.654V52.958z"/>
</g>
</svg>
