<?xml version="1.0" encoding="utf-8"?>
<!-- Generator: Adobe Illustrator 16.0.0, SVG Export Plug-In . SVG Version: 6.00 Build 0)  -->
<!DOCTYPE svg PUBLIC "-//W3C//DTD SVG 1.1//EN" "http://www.w3.org/Graphics/SVG/1.1/DTD/svg11.dtd">
<svg version="1.1" id="Layer_1" xmlns="http://www.w3.org/2000/svg" xmlns:xlink="http://www.w3.org/1999/xlink" x="0px" y="0px"
	 width="213.153px" height="34.118px" viewBox="0 0 213.153 34.118" enable-background="new 0 0 213.153 34.118"
	 xml:space="preserve">
<g>
	<path fill-rule="evenodd" clip-rule="evenodd" fill="#757676" d="M0.094,29.048c-0.415-0.414,0.649-0.943,1.123-0.592
		c7.452,6.252,13.13,3.305,17.271-1.414c3.076-5.838,5.087-12.264,8.458-18.456c3.965-7.194,11.417-9.2,14.256-8.434l6.447,1.71
		c0.473,0.178-0.178,1.3-0.71,1.239C42.978,2.336,36.766-1.144,31.679,7.29l-6.861,18.102c-3.135,5.721-7.512,8.08-11.357,7.961
		C10.268,33.235,4.412,33.825,0.094,29.048z M42.741,4.871l0.06,28.128l4.968-0.059V19.79h16.386l-0.061,12.266h4.673V5.402h-4.85
		l0.058,11.617l-16.206-0.118V4.811L42.741,4.871z M73.792,5.224v26.832l4.617,0.117V5.286L73.792,5.224z M81.188,31.405
		c-0.237-0.471,0.65-0.705,1.063-0.414c3.136,2.303,5.619,1.299,7.928-1.826c2.662-6.426,5.264-13.501,10.469-20.403
		c3.371-3.243,7.336-4.303,12.008-2.947c0.532,0.117,1.183,0.708,1.007,1.179c-0.179,0.472-0.947,0.296-1.362,0.118
		c-3.254-1.534-4.91-0.708-6.801,1.71c-2.367,3.126-5.56,10.908-9.82,19.578c-1.42,2.83-4.14,4.895-8.398,5.719
		C84.737,34.001,82.193,33.767,81.188,31.405z M137.913,7.349V5.461h-22.181l-0.059,27.301h22.475v-1.477h-18.217l0.059-11.676
		h14.194l0.062-1.767l-14.314-0.059l0.059-10.436H137.913z M151.753,5.993v26.77h17.686c8.696,0,14.729-20.639,0-26.77H151.753z
		 M156.369,7.938v23.053h11.297c7.748,0,6.743-23.053-0.356-23.053H156.369z M142.112,5.756v26.829l4.614,0.117V5.815L142.112,5.756
		z M197.36,4.695c8.754,0,15.793,6.604,15.793,14.683c0,8.078-7.039,14.684-15.793,14.684c-8.696,0-15.796-6.605-15.796-14.684
		C181.564,11.299,188.664,4.695,197.36,4.695z M197.478,6.286c6.092,0,11.119,5.779,11.119,12.856
		c0,7.076-5.027,12.854-11.119,12.854c-6.152,0-11.121-5.777-11.121-12.854C186.357,12.065,191.326,6.286,197.478,6.286z"/>
</g>
</svg>
