<svg xmlns="http://www.w3.org/2000/svg" width="213.153" height="34.118" viewBox="0 0 213.153 34.118"><path fill-rule="evenodd" clip-rule="evenodd" fill="#757676" d="M.094 29.048c-.415-.414.649-.943 1.123-.592 7.452 6.252 13.13 3.305 17.271-1.414 3.076-5.838 5.087-12.264 8.458-18.456 3.965-7.194 11.417-9.2 14.256-8.434l6.447 1.71c.473.178-.178 1.3-.71 1.239-3.961-.765-10.173-4.245-15.26 4.189l-6.861 18.102c-3.135 5.721-7.512 8.08-11.357 7.961-3.193-.118-9.049.472-13.367-4.305zM42.741 4.871l.06 28.128 4.968-.059V19.79h16.386l-.061 12.266h4.673V5.402h-4.85l.058 11.617-16.206-.118V4.811l-5.028.06zm31.051.353v26.832l4.617.117V5.286l-4.617-.062zm7.396 26.181c-.237-.471.65-.705 1.063-.414 3.136 2.303 5.619 1.299 7.928-1.826 2.662-6.426 5.264-13.501 10.469-20.403 3.371-3.243 7.336-4.303 12.008-2.947.532.117 1.183.708 1.007 1.179-.179.472-.947.296-1.362.118-3.254-1.534-4.91-.708-6.801 1.71-2.367 3.126-5.56 10.908-9.82 19.578-1.42 2.83-4.14 4.895-8.398 5.719-2.545-.118-5.089-.352-6.094-2.714zm56.725-24.056V5.461h-22.181l-.059 27.301h22.475v-1.477h-18.217l.059-11.676h14.194l.062-1.767-14.314-.059.059-10.436h17.922zm13.84-1.356v26.77h17.686c8.696 0 14.729-20.639 0-26.77h-17.686zm4.616 1.945v23.053h11.297c7.748 0 6.743-23.053-.356-23.053h-10.941zm-14.257-2.182v26.829l4.614.117V5.815l-4.614-.059zm55.248-1.061c8.754 0 15.793 6.604 15.793 14.683 0 8.078-7.039 14.684-15.793 14.684-8.696 0-15.796-6.605-15.796-14.684 0-8.079 7.1-14.683 15.796-14.683zm.118 1.591c6.092 0 11.119 5.779 11.119 12.856 0 7.076-5.027 12.854-11.119 12.854-6.152 0-11.121-5.777-11.121-12.854 0-7.077 4.969-12.856 11.121-12.856z"/></svg>