<?xml version="1.0" encoding="utf-8"?>
<!-- Generator: Adobe Illustrator 16.0.0, SVG Export Plug-In . SVG Version: 6.00 Build 0)  -->
<!DOCTYPE svg PUBLIC "-//W3C//DTD SVG 1.1//EN" "http://www.w3.org/Graphics/SVG/1.1/DTD/svg11.dtd">
<svg version="1.1" id="Layer_1" xmlns="http://www.w3.org/2000/svg" xmlns:xlink="http://www.w3.org/1999/xlink" x="0px" y="0px"
	 width="435.583px" height="47.757px" viewBox="0 0 435.583 47.757" enable-background="new 0 0 435.583 47.757"
	 xml:space="preserve">
<g>
	<g>
		<path fill="#FFFFFF" d="M17.133,18.822l-1.052,0.277l-1.134,0.249l-1.024,0.166l-1.135,0.139l-1.107,0.083l-0.997,0.028
			c-1.624,0-3.072-0.23-4.345-0.692c-1.311-0.442-2.436-1.107-3.377-1.993c-0.941-0.868-1.67-1.938-2.187-3.211
			C0.258,12.649,0,11.247,0,9.66c0-0.922,0.138-1.836,0.415-2.74c0.277-0.904,0.674-1.734,1.19-2.491
			C2.14,3.653,2.786,2.961,3.542,2.353c1.107-0.831,2.288-1.43,3.542-1.799C8.396,0.185,9.927,0,11.68,0
			c1.181,0,2.306,0.111,3.377,0.332c0.59,0.11,1.198,0.249,1.826,0.416c0.184,0.037,0.406,0.092,0.665,0.166
			c0.203,0.056,0.396,0.102,0.581,0.139c0.037,0.019,0.12,0.046,0.25,0.083c0.239,0.075,0.452,0.139,0.636,0.194
			c-0.147,0.536-0.267,1.135-0.359,1.799l-0.222,2.186h-0.857V4.429c0-0.701-0.028-1.135-0.083-1.301
			C17.438,2.98,17.29,2.813,17.05,2.629c-0.775-0.442-1.661-0.793-2.658-1.051c-1.014-0.277-2.039-0.416-3.072-0.416
			c-1.347,0-2.546,0.185-3.598,0.554C6.725,2.067,5.858,2.611,5.121,3.349c-0.72,0.701-1.283,1.578-1.689,2.63
			C3.044,6.993,2.851,8.165,2.851,9.494c0,0.72,0.055,1.356,0.167,1.91c0.074,0.536,0.23,1.117,0.471,1.744
			c0.424,1.089,1.033,2.048,1.826,2.879c0.812,0.85,1.752,1.486,2.824,1.911c1.088,0.442,2.278,0.664,3.57,0.664
			c1.236,0,2.768-0.322,4.595-0.969v-0.886l0.083-2.187c0-0.664-0.101-1.125-0.304-1.384c-0.093-0.092-0.258-0.184-0.498-0.276
			c-0.203-0.073-0.471-0.11-0.803-0.11h-0.167l-0.913-0.028v-0.941l1.993,0.055l1.966,0.056l0.941-0.028l0.941-0.055h0.36h0.36
			l0.221-0.028v0.609l-0.553,0.221c-0.442,0.166-0.748,0.424-0.914,0.774c-0.166,0.351-0.248,0.988-0.248,1.91l0.027,0.664v0.609
			c0,0.259,0.037,0.545,0.111,0.858l0.11,0.748C18.646,18.36,18.019,18.563,17.133,18.822z"/>
		<path fill="#FFFFFF" d="M25.935,5.812c0.499-1.218,1.209-2.261,2.131-3.128c0.295-0.258,0.535-0.46,0.72-0.609
			c0.258-0.203,0.526-0.377,0.802-0.525c0.499-0.313,1.107-0.6,1.827-0.858C32.744,0.23,34.192,0,35.761,0
			c1.457,0,2.823,0.212,4.096,0.637c1.218,0.406,2.27,1.015,3.156,1.827c0.848,0.794,1.513,1.771,1.993,2.934
			c0.461,1.107,0.692,2.362,0.692,3.764c0,1.957-0.461,3.746-1.384,5.37c-0.904,1.624-2.177,2.897-3.819,3.82
			c-1.625,0.941-3.415,1.412-5.37,1.412c-1.514,0-2.869-0.221-4.069-0.664c-1.218-0.48-2.251-1.144-3.1-1.993
			c-0.886-0.887-1.568-1.928-2.048-3.129c-0.203-0.572-0.378-1.217-0.525-1.937c-0.111-0.664-0.167-1.384-0.167-2.159
			C25.215,8.406,25.455,7.049,25.935,5.812z M28.508,12.815c0.369,1.2,0.914,2.232,1.634,3.1c0.683,0.886,1.531,1.55,2.546,1.994
			c0.978,0.461,2.058,0.691,3.239,0.691c1.439,0,2.675-0.341,3.709-1.023c1.052-0.701,1.845-1.707,2.38-3.018
			c0.554-1.31,0.83-2.841,0.83-4.595c0-1.329-0.175-2.519-0.525-3.57c-0.37-1.106-0.886-2.048-1.55-2.823
			c-0.684-0.793-1.495-1.393-2.436-1.799c-0.941-0.406-1.975-0.609-3.1-0.609c-1.513,0-2.805,0.314-3.875,0.941
			c-1.107,0.646-1.947,1.542-2.519,2.685c-0.591,1.2-0.886,2.528-0.886,3.985C27.955,10.25,28.139,11.598,28.508,12.815z"/>
		<path fill="#FFFFFF" d="M57.323,18.212l1.163,0.028l1.522-0.028l1.274-0.028h0.387h0.305c0.092-0.018,0.184-0.027,0.277-0.027
			l0.885-0.111c0.499-0.056,1.033-0.166,1.606-0.333l0.83-3.183h0.885c-0.073,0.48-0.24,1.919-0.498,4.318l-0.055,0.442
			l-0.802,0.111l-0.582,0.056l-0.857,0.028h-0.388c-0.167,0-0.296,0.008-0.388,0.027l-1.329-0.055l-1.882-0.028l-4.262-0.056
			l-0.941,0.028l-1.135,0.056l-1.024,0.055v-0.609c0.405-0.221,0.701-0.405,0.885-0.553c0.111-0.092,0.212-0.267,0.305-0.526
			c0.055-0.221,0.083-0.571,0.083-1.051V2.989c0-0.498-0.065-0.867-0.193-1.107c-0.111-0.24-0.268-0.405-0.471-0.498
			c-0.185-0.074-0.462-0.139-0.83-0.194l-1.19-0.028V0.249l1.993,0.055l1.965,0.056l1.994-0.056l1.965-0.055v0.913h-0.499
			l-0.581,0.056l-0.525,0.027c-0.167,0.037-0.342,0.093-0.526,0.167c-0.203,0.093-0.341,0.268-0.415,0.526
			c-0.093,0.276-0.138,0.627-0.138,1.051v10.573v1.19v1.411l0.028,1.301v0.277v0.221l-0.028,0.194L57.323,18.212z"/>
		<path fill="#FFFFFF" d="M76.643,16.773c0,0.498,0.064,0.867,0.193,1.107c0.148,0.258,0.323,0.425,0.526,0.498
			c0.11,0.037,0.257,0.074,0.442,0.111l0.637,0.028l0.885,0.055v0.941l-1.964-0.055l-1.994-0.056l-1.965,0.056l-1.993,0.055v-0.941
			h0.387h0.36c0.074-0.018,0.148-0.028,0.222-0.028l0.665-0.083c0.221-0.018,0.461-0.156,0.72-0.415
			c0.221-0.258,0.332-0.682,0.332-1.273V2.989c0-0.498-0.056-0.867-0.167-1.107c-0.129-0.258-0.295-0.424-0.498-0.498l-0.139-0.055
			c-0.074-0.019-0.147-0.037-0.221-0.056c-0.185-0.036-0.342-0.055-0.47-0.055l-1.19-0.028V0.249l2.076,0.055l1.688,0.056
			l3.128-0.028l2.823-0.028l1.993-0.055c0.849,0,1.846,0.046,2.989,0.139c-0.019,0.074-0.055,0.221-0.11,0.443
			c-0.037,0.129-0.074,0.249-0.111,0.359c-0.055,0.24-0.11,0.572-0.166,0.997l-0.111,1.08L85.555,4.54h-0.913
			c0-0.959-0.046-1.79-0.138-2.491c-0.646-0.221-1.265-0.369-1.855-0.443l-1.135-0.083L80.13,1.467
			c-1.106,0-2.214,0.055-3.321,0.166c-0.111,1.07-0.166,2.123-0.166,3.156v4.207h0.47c0.203,0,0.368,0.01,0.499,0.028l1.412,0.084
			h1.106c0.185,0,0.351-0.009,0.499-0.028h0.498l0.637-0.056c0.184-0.018,0.387-0.073,0.609-0.166
			c0.239-0.092,0.396-0.23,0.47-0.416l0.111-0.36l0.055-0.499l0.028-0.581l0.028-0.47h0.913L83.895,9.66l0.083,3.155h-0.913
			l-0.028-0.471l-0.028-0.581c0-0.442-0.101-0.784-0.304-1.023c-0.167-0.203-0.508-0.341-1.025-0.416l-1.051-0.055l-1.605-0.028
			c-1.07,0-1.864,0.037-2.38,0.111V16.773z"/>
		<path fill="#FFFFFF" d="M113.345,8.359l2.103,0.083l2.962-0.055l2.962-0.056l-0.167,0.886l-0.139,1.024l-0.913-0.139l-0.803-0.055
			l-2.158-0.111l0.11,0.636l0.027,0.554c0,0.812-0.175,1.587-0.525,2.324c-0.332,0.701-0.923,1.504-1.771,2.408
			c1.753,1.256,3.386,1.883,4.899,1.883c0.239,0,0.433-0.037,0.581-0.111c0.221-0.073,0.544-0.249,0.969-0.525l0.193,0.636
			c-0.812,0.554-1.605,1.162-2.38,1.827c-0.332,0.128-0.702,0.193-1.107,0.193c-0.72,0-1.449-0.176-2.186-0.525
			c-0.83-0.388-1.716-0.959-2.657-1.716c-0.573,0.442-1.172,0.858-1.799,1.246c-0.369,0.184-0.655,0.313-0.858,0.387l-0.941,0.333
			c-0.609,0.184-1.301,0.276-2.076,0.276c-0.757,0-1.494-0.129-2.214-0.388c-0.221-0.092-0.536-0.267-0.941-0.525
			c-0.406-0.259-0.692-0.471-0.858-0.637c-0.517-0.535-0.905-1.134-1.162-1.799c-0.277-0.701-0.416-1.449-0.416-2.242
			c0-0.867,0.184-1.651,0.554-2.353c0.387-0.701,0.904-1.329,1.55-1.882c0.203-0.185,0.525-0.443,0.969-0.775
			c0.128-0.092,0.377-0.267,0.747-0.526c0.129-0.092,0.268-0.184,0.416-0.276l-0.388-1.08l-0.249-0.886
			c0-0.018-0.009-0.092-0.028-0.221c-0.037-0.222-0.064-0.388-0.083-0.499c-0.019-0.166-0.028-0.433-0.028-0.802
			c0-0.756,0.084-1.338,0.25-1.744c0.167-0.425,0.479-0.84,0.941-1.246c0.646-0.59,1.227-1.07,1.744-1.439
			c0.221-0.147,0.479-0.257,0.775-0.332C109.488,0.037,109.792,0,110.162,0c0.479,0,0.904,0.102,1.273,0.304
			c0.388,0.204,0.673,0.489,0.858,0.858c0.203,0.443,0.304,0.896,0.304,1.357c0,0.683-0.139,1.319-0.415,1.91
			c-0.13,0.295-0.305,0.59-0.526,0.885c-0.24,0.333-0.499,0.637-0.775,0.914c-0.48,0.536-1.228,1.162-2.242,1.882
			c0.499,0.941,1.033,1.818,1.606,2.63c0.664,0.922,1.301,1.715,1.91,2.379c0.591,0.665,1.282,1.366,2.076,2.104
			c0.461-0.554,0.803-1.107,1.024-1.661c0.221-0.536,0.332-1.134,0.332-1.799c0-0.609-0.055-1.033-0.167-1.273
			c-0.11-0.258-0.332-0.442-0.664-0.553l-0.637-0.111l-0.969-0.028h-0.581l-0.083-0.221L113.345,8.359z M109.387,13.368
			c-0.904-1.199-1.771-2.537-2.602-4.013c-0.849,0.609-1.439,1.2-1.771,1.772c-0.388,0.609-0.581,1.301-0.581,2.075
			c0,0.904,0.203,1.726,0.608,2.463c0.388,0.719,0.95,1.32,1.688,1.799c0.738,0.462,1.541,0.693,2.408,0.693
			c1.015,0,2.141-0.452,3.377-1.356C111.353,15.731,110.309,14.586,109.387,13.368z M110.051,5.175
			c0.406-0.626,0.609-1.291,0.609-1.993c0-0.498-0.138-0.922-0.415-1.273c-0.277-0.351-0.6-0.526-0.969-0.526
			c-0.572,0-1.016,0.213-1.329,0.637c-0.314,0.425-0.47,1.042-0.47,1.854V4.29c0,0.167,0.009,0.287,0.028,0.36l0.139,0.664
			c0.11,0.591,0.285,1.209,0.525,1.855C109.018,6.468,109.646,5.803,110.051,5.175z"/>
		<path fill="#FFFFFF" d="M148.027,8.635c0.277,0.038,0.59,0.093,0.941,0.167c0.24,0.056,0.627,0.185,1.163,0.388
			c0.018,0.019,0.055,0.037,0.111,0.055c0.812,0.351,1.421,0.849,1.826,1.495c0.388,0.627,0.581,1.402,0.581,2.324
			c0,1.237-0.323,2.343-0.968,3.321c-0.684,0.997-1.615,1.754-2.796,2.271c-1.181,0.553-2.538,0.83-4.069,0.83l-1.051-0.028
			l-1.301-0.056h-1.052l-2.547,0.11v-0.609c0.442-0.239,0.748-0.424,0.913-0.553c0.111-0.092,0.212-0.249,0.305-0.47
			c0.036-0.295,0.055-0.664,0.055-1.107V2.989c0-0.498-0.055-0.867-0.166-1.107c-0.129-0.258-0.296-0.424-0.499-0.498
			c-0.019,0-0.065-0.018-0.138-0.055c-0.111-0.019-0.194-0.037-0.25-0.056c-0.184-0.036-0.332-0.055-0.442-0.055l-1.19-0.028V0.249
			l1.163,0.028l2.796,0.083l1.688-0.028l1.745-0.055h0.83l0.858-0.028c1.365,0,2.564,0.268,3.598,0.803
			c1.033,0.536,1.55,1.439,1.55,2.712c0,0.812-0.149,1.504-0.444,2.076c-0.294,0.59-0.784,1.117-1.466,1.578
			c-0.646,0.424-1.514,0.821-2.603,1.19C147.556,8.608,147.843,8.618,148.027,8.635z M143.875,8.276
			c1.753,0,3.035-0.295,3.848-0.886c0.812-0.59,1.218-1.55,1.218-2.878c0-2.104-1.357-3.155-4.069-3.155l-0.997,0.055
			c-0.074,0-0.212,0.019-0.416,0.056h-0.083c-0.092,0.019-0.185,0.027-0.277,0.027c-0.092,0.019-0.184,0.037-0.276,0.056
			l-0.083,1.245l-0.056,1.439l-0.028,2.298v1.688L143.875,8.276z M144.788,18.323c1.053,0,1.947-0.193,2.686-0.581
			c0.756-0.369,1.337-0.922,1.743-1.661c0.388-0.72,0.582-1.587,0.582-2.603c0-1.623-0.508-2.721-1.522-3.293
			c-1.015-0.572-2.371-0.858-4.069-0.858c-0.479,0-0.996,0.019-1.55,0.055v4.789l0.028,1.605l0.028,1.606v0.332l-0.056,0.416
			C143.45,18.259,144.161,18.323,144.788,18.323z"/>
		<path fill="#FFFFFF" d="M171.886,0.249l1.633,0.055l1.688,0.056l3.294-0.111V1.19l-1.08,0.028l-0.526,0.027
			c-0.129,0.019-0.295,0.074-0.498,0.167c-0.222,0.093-0.369,0.249-0.443,0.47c-0.093,0.24-0.139,0.609-0.139,1.107v7.805
			l-0.028,1.744l-0.027,1.024v0.387c0,0.056-0.01,0.139-0.028,0.25c0,0.129-0.01,0.222-0.028,0.277
			c-0.019,0.185-0.074,0.461-0.167,0.831c-0.073,0.406-0.221,0.812-0.442,1.218c-0.074,0.129-0.185,0.296-0.332,0.499
			c-0.185,0.221-0.332,0.397-0.443,0.526c-0.665,0.738-1.514,1.292-2.547,1.661c-1.07,0.369-2.27,0.553-3.598,0.553
			c-1.771,0-3.285-0.276-4.54-0.831c-1.273-0.572-2.112-1.329-2.519-2.27l-0.193-0.499l-0.167-0.498l-0.083-0.582l-0.056-0.691
			v-1.19c0-0.203-0.009-0.388-0.027-0.553v-0.526V9.964V2.989c0-0.498-0.065-0.867-0.194-1.107c-0.11-0.258-0.286-0.424-0.525-0.498
			l-0.388-0.111l-0.36-0.055l-1.218-0.028V0.249l0.83,0.028l1.163,0.027l1.965,0.056l0.831-0.028l1.162-0.028l1.966-0.055V1.19
			l-0.581,0.028c-0.609,0-1.043,0.027-1.301,0.083c-0.222,0.056-0.425,0.212-0.609,0.471c-0.129,0.24-0.194,0.646-0.194,1.218v8.332
			l0.028,1.19l0.028,1.328l0.028,0.748c0.018,0.093,0.073,0.268,0.166,0.526l0.028,0.139c0.11,0.387,0.267,0.71,0.47,0.968
			c0.424,0.591,1.052,1.035,1.882,1.33c0.867,0.332,1.845,0.498,2.935,0.498c1.088,0,2.084-0.166,2.989-0.498
			c0.885-0.295,1.54-0.738,1.965-1.33c0.313-0.46,0.544-1.098,0.692-1.91c0.147-0.848,0.221-2.029,0.221-3.542V2.989
			c0-0.442-0.046-0.802-0.138-1.08c-0.111-0.258-0.249-0.424-0.416-0.498l-0.443-0.139c-0.148-0.036-0.286-0.055-0.416-0.055
			l-1.273-0.028V0.249z"/>
		<path fill="#FFFFFF" d="M195.469,2.768l-0.055,0.831l-0.056,1.301h-0.941V3.82c0-1.771-1.366-2.658-4.096-2.658
			c-1.015,0-1.855,0.148-2.519,0.443c-0.684,0.295-1.237,0.738-1.661,1.329c-0.425,0.591-0.637,1.255-0.637,1.994
			c0,1.181,0.323,2.021,0.969,2.518c0.627,0.517,1.522,0.858,2.685,1.024l3.432,0.388c1.163,0.111,2.058,0.369,2.686,0.775
			c0.479,0.295,0.875,0.757,1.19,1.384c0.313,0.646,0.471,1.292,0.471,1.937c0,0.996-0.194,1.91-0.582,2.74
			c-0.388,0.793-0.959,1.514-1.716,2.159c-0.757,0.628-1.642,1.107-2.657,1.439c-1.052,0.313-2.159,0.471-3.322,0.471
			c-0.831,0-1.438-0.037-1.827-0.111h-0.36l-0.166-0.028c-0.148-0.037-0.259-0.064-0.332-0.083l-0.831-0.194
			c-0.167-0.056-0.388-0.129-0.665-0.221l-0.193-0.056c-0.148-0.036-0.341-0.111-0.582-0.221l-0.36-0.139
			c0.018-0.24,0.046-0.489,0.083-0.748c0-0.128,0.009-0.239,0.028-0.332v-0.083c0.037-0.313,0.056-0.526,0.056-0.637l0.055-2.353
			h0.941v0.692c0,0.72,0.028,1.19,0.083,1.412c0.055,0.24,0.203,0.471,0.443,0.692c0.498,0.388,1.097,0.692,1.799,0.914
			c0.72,0.221,1.513,0.332,2.38,0.332c0.591,0,1.098-0.037,1.522-0.11c0.442-0.074,0.876-0.203,1.301-0.388
			c0.83-0.369,1.458-0.885,1.882-1.55c0.443-0.646,0.665-1.394,0.665-2.243c0-1.401-0.453-2.296-1.357-2.684
			c-0.885-0.35-2.288-0.627-4.207-0.831c-1.974-0.203-3.432-0.608-4.373-1.217c-0.997-0.646-1.495-1.864-1.495-3.654
			c0-0.922,0.166-1.752,0.498-2.491c0.333-0.701,0.831-1.319,1.495-1.854c0.646-0.499,1.421-0.886,2.325-1.164
			c0.333-0.11,0.812-0.211,1.439-0.304C189.37,0.037,189.924,0,190.569,0c1.679,0,3.414,0.388,5.204,1.162
			C195.588,1.771,195.487,2.307,195.469,2.768z"/>
		<path fill="#FFFFFF" d="M209.779,1.19l-1.08,0.028l-0.525,0.027c-0.167,0.037-0.342,0.093-0.526,0.167
			c-0.204,0.093-0.341,0.268-0.415,0.526c-0.093,0.276-0.139,0.627-0.139,1.051v13.784c0,0.498,0.064,0.867,0.193,1.107
			c0.148,0.258,0.323,0.425,0.526,0.498c0.11,0.037,0.258,0.074,0.442,0.111l0.637,0.028l0.885,0.055v0.941l-1.965-0.055
			l-1.994-0.056l-1.965,0.056l-1.993,0.055v-0.941h0.387h0.36c0.073-0.018,0.147-0.028,0.221-0.028l0.665-0.083
			c0.222-0.018,0.461-0.156,0.72-0.415c0.222-0.258,0.332-0.682,0.332-1.273V2.989c0-0.498-0.055-0.867-0.167-1.107
			c-0.129-0.258-0.294-0.424-0.498-0.498c-0.019,0-0.065-0.018-0.138-0.055c-0.111-0.019-0.194-0.037-0.25-0.056
			c-0.185-0.036-0.332-0.055-0.442-0.055l-1.19-0.028V0.249l1.993,0.055l1.965,0.056l0.831-0.028l1.163-0.028l1.965-0.055V1.19z"/>
		<path fill="#FFFFFF" d="M218.691,16.773c0,0.498,0.064,0.867,0.193,1.107c0.148,0.258,0.323,0.425,0.526,0.498
			c0.11,0.037,0.259,0.074,0.442,0.111l0.638,0.028l0.885,0.055v0.941l-1.604-0.055l-1.689-0.056l-3.321,0.11v-0.941h0.388h0.36
			c0.073-0.018,0.147-0.028,0.221-0.028l0.664-0.083c0.221-0.018,0.461-0.156,0.72-0.415c0.221-0.258,0.332-0.682,0.332-1.273V2.989
			c0-0.498-0.064-0.867-0.193-1.107c-0.074-0.24-0.231-0.405-0.471-0.498c-0.185-0.074-0.461-0.139-0.831-0.194l-1.19-0.028V0.249
			l2.104,0.055l1.771,0.056l0.498-0.056l0.471-0.055l2.686,3.432l2.297,2.879l4.623,5.674l1.106,1.383l1.412,1.717l1.08,1.134V2.989
			c0-0.536-0.037-0.886-0.111-1.051c-0.074-0.203-0.231-0.379-0.471-0.526c-0.093-0.074-0.23-0.12-0.415-0.139l-0.193-0.028
			c-0.093-0.018-0.157-0.027-0.194-0.027h-0.222l-0.581-0.056h-0.498V0.249l1.633,0.055l1.688,0.056l3.294-0.111v0.913h-0.498
			l-0.581,0.056l-0.526,0.027c-0.166,0.037-0.341,0.093-0.526,0.167c-0.184,0.074-0.332,0.249-0.442,0.526
			c-0.092,0.276-0.139,0.627-0.139,1.051v10.96l0.028,1.385l0.056,1.355l0.026,1.247l0.139,1.91
			c-0.405-0.037-0.849-0.111-1.328-0.222c-0.406-0.073-0.738-0.156-0.996-0.249c-0.259-0.184-0.471-0.368-0.637-0.553l-0.609-0.72
			l-0.498-0.637l-1.8-2.159l-9.715-11.985V16.773z"/>
		<path fill="#FFFFFF" d="M247.172,13.646v1.882c0,1.292,0.01,1.965,0.028,2.021v0.304l0.027,0.305c0.111,0,0.323,0.009,0.637,0.027
			c0.276,0.019,0.433,0.028,0.471,0.028c0.351,0.019,0.71,0.028,1.079,0.028l1.966,0.056c1.07,0,1.854-0.028,2.353-0.084
			c0.535-0.055,1.089-0.193,1.66-0.415l0.443-1.662l0.25-1.301H257c-0.24,1.735-0.36,3.249-0.36,4.54
			c-1.052,0.111-2.039,0.167-2.961,0.167l-1.855-0.028l-2.574-0.055l-3.459-0.056l-2.797,0.083l-1.162,0.027v-0.941h0.36h0.388
			c0.073-0.018,0.146-0.028,0.221-0.028l0.664-0.083c0.222-0.018,0.462-0.156,0.72-0.415c0.222-0.258,0.333-0.682,0.333-1.273V2.989
			c0-0.498-0.065-0.867-0.194-1.107c-0.11-0.24-0.268-0.405-0.471-0.498c-0.185-0.074-0.461-0.139-0.83-0.194l-1.19-0.028V0.249
			l2.076,0.055l1.8,0.056l3.985-0.056l3.958-0.055l0.969,0.055l2.021,0.083c-0.037,0.129-0.074,0.276-0.11,0.443
			c-0.056,0.166-0.102,0.314-0.139,0.442c-0.074,0.296-0.129,0.609-0.166,0.941l-0.111,1.08l-0.026,1.246h-0.914
			c0-0.922-0.047-1.753-0.139-2.491c-0.591-0.221-1.19-0.369-1.8-0.443L252.1,1.522l-1.439-0.055c-1.348,0-2.491,0.055-3.433,0.166
			l-0.027,2.297l-0.028,2.325v2.74h0.443c0.203,0,0.369,0.01,0.498,0.028l1.439,0.084h1.135c0.166,0,0.323-0.009,0.471-0.028h0.498
			l0.637-0.056c0.184-0.018,0.388-0.073,0.608-0.166c0.24-0.092,0.397-0.23,0.471-0.416l0.111-0.36l0.056-0.499l0.055-0.581v-0.47
			h0.914l-0.084,3.128l0.084,3.155h-0.914v-0.471l-0.055-0.581c0-0.442-0.102-0.784-0.306-1.023
			c-0.129-0.185-0.47-0.323-1.023-0.416l-1.052-0.055l-1.605-0.028c-1.089,0-1.882,0.037-2.381,0.111V13.646z"/>
		<path fill="#FFFFFF" d="M274.409,2.768l-0.056,0.831l-0.056,1.301h-0.94V3.82c0-1.771-1.366-2.658-4.096-2.658
			c-1.016,0-1.855,0.148-2.52,0.443c-0.684,0.295-1.236,0.738-1.66,1.329c-0.425,0.591-0.638,1.255-0.638,1.994
			c0,1.181,0.323,2.021,0.97,2.518c0.626,0.517,1.521,0.858,2.684,1.024l3.434,0.388c1.162,0.111,2.057,0.369,2.685,0.775
			c0.479,0.295,0.876,0.757,1.189,1.384c0.313,0.646,0.471,1.292,0.471,1.937c0,0.996-0.193,1.91-0.581,2.74
			c-0.388,0.793-0.96,1.514-1.717,2.159c-0.757,0.628-1.642,1.107-2.656,1.439c-1.052,0.313-2.159,0.471-3.321,0.471
			c-0.83,0-1.439-0.037-1.827-0.111h-0.359l-0.167-0.028c-0.147-0.037-0.258-0.064-0.332-0.083l-0.83-0.194
			c-0.166-0.056-0.388-0.129-0.664-0.221l-0.194-0.056c-0.147-0.036-0.341-0.111-0.581-0.221l-0.359-0.139
			c0.019-0.24,0.045-0.489,0.082-0.748c0-0.128,0.01-0.239,0.028-0.332v-0.083c0.037-0.313,0.056-0.526,0.056-0.637l0.055-2.353
			h0.941v0.692c0,0.72,0.027,1.19,0.083,1.412c0.056,0.24,0.203,0.471,0.443,0.692c0.498,0.388,1.097,0.692,1.799,0.914
			c0.72,0.221,1.513,0.332,2.381,0.332c0.59,0,1.097-0.037,1.521-0.11c0.442-0.074,0.876-0.203,1.301-0.388
			c0.831-0.369,1.458-0.885,1.882-1.55c0.444-0.646,0.665-1.394,0.665-2.243c0-1.401-0.452-2.296-1.356-2.684
			c-0.885-0.35-2.288-0.627-4.207-0.831c-1.975-0.203-3.433-0.608-4.373-1.217c-0.996-0.646-1.494-1.864-1.494-3.654
			c0-0.922,0.165-1.752,0.498-2.491c0.332-0.701,0.83-1.319,1.494-1.854c0.646-0.499,1.421-0.886,2.325-1.164
			c0.332-0.11,0.812-0.211,1.438-0.304C268.31,0.037,268.864,0,269.51,0c1.678,0,3.413,0.388,5.203,1.162
			C274.529,1.771,274.427,2.307,274.409,2.768z"/>
		<path fill="#FFFFFF" d="M292.733,2.768l-0.057,0.831l-0.055,1.301h-0.94V3.82c0-1.771-1.366-2.658-4.097-2.658
			c-1.016,0-1.854,0.148-2.52,0.443c-0.683,0.295-1.236,0.738-1.66,1.329c-0.425,0.591-0.637,1.255-0.637,1.994
			c0,1.181,0.322,2.021,0.969,2.518c0.627,0.517,1.522,0.858,2.685,1.024l3.433,0.388c1.162,0.111,2.058,0.369,2.686,0.775
			c0.479,0.295,0.875,0.757,1.189,1.384c0.313,0.646,0.471,1.292,0.471,1.937c0,0.996-0.194,1.91-0.581,2.74
			c-0.388,0.793-0.961,1.514-1.717,2.159c-0.757,0.628-1.643,1.107-2.657,1.439c-1.052,0.313-2.159,0.471-3.321,0.471
			c-0.83,0-1.439-0.037-1.827-0.111h-0.359l-0.166-0.028c-0.147-0.037-0.259-0.064-0.332-0.083l-0.83-0.194
			c-0.167-0.056-0.388-0.129-0.665-0.221l-0.193-0.056c-0.147-0.036-0.342-0.111-0.581-0.221l-0.36-0.139
			c0.019-0.24,0.046-0.489,0.083-0.748c0-0.128,0.01-0.239,0.028-0.332v-0.083c0.036-0.313,0.055-0.526,0.055-0.637l0.056-2.353
			h0.941v0.692c0,0.72,0.027,1.19,0.082,1.412c0.057,0.24,0.203,0.471,0.443,0.692c0.498,0.388,1.098,0.692,1.799,0.914
			c0.72,0.221,1.513,0.332,2.381,0.332c0.59,0,1.098-0.037,1.522-0.11c0.442-0.074,0.876-0.203,1.301-0.388
			c0.83-0.369,1.457-0.885,1.882-1.55c0.443-0.646,0.664-1.394,0.664-2.243c0-1.401-0.452-2.296-1.355-2.684
			c-0.886-0.35-2.288-0.627-4.207-0.831c-1.976-0.203-3.433-0.608-4.373-1.217c-0.997-0.646-1.495-1.864-1.495-3.654
			c0-0.922,0.166-1.752,0.498-2.491c0.332-0.701,0.83-1.319,1.495-1.854c0.646-0.499,1.42-0.886,2.324-1.164
			c0.332-0.11,0.812-0.211,1.439-0.304C286.633,0.037,287.187,0,287.833,0c1.679,0,3.413,0.388,5.203,1.162
			C292.852,1.771,292.75,2.307,292.733,2.768z"/>
		<path fill="#FFFFFF" d="M320.356,8.635c0.277,0.038,0.591,0.093,0.941,0.167c0.239,0.056,0.627,0.185,1.163,0.388
			c0.018,0.019,0.055,0.037,0.11,0.055c0.812,0.351,1.421,0.849,1.826,1.495c0.388,0.627,0.582,1.402,0.582,2.324
			c0,1.237-0.323,2.343-0.969,3.321c-0.684,0.997-1.615,1.754-2.796,2.271c-1.181,0.553-2.538,0.83-4.069,0.83l-1.052-0.028
			l-1.301-0.056h-1.052l-2.547,0.11v-0.609c0.443-0.239,0.748-0.424,0.913-0.553c0.112-0.092,0.213-0.249,0.306-0.47
			c0.036-0.295,0.055-0.664,0.055-1.107V2.989c0-0.498-0.055-0.867-0.166-1.107c-0.129-0.258-0.295-0.424-0.498-0.498
			c-0.019,0-0.065-0.018-0.139-0.055c-0.11-0.019-0.193-0.037-0.249-0.056c-0.185-0.036-0.332-0.055-0.442-0.055l-1.19-0.028V0.249
			l1.162,0.028l2.796,0.083l1.688-0.028l1.744-0.055h0.83l0.858-0.028c1.365,0,2.564,0.268,3.599,0.803
			c1.032,0.536,1.55,1.439,1.55,2.712c0,0.812-0.148,1.504-0.443,2.076c-0.295,0.59-0.784,1.117-1.467,1.578
			c-0.646,0.424-1.514,0.821-2.602,1.19C319.885,8.608,320.171,8.618,320.356,8.635z M316.205,8.276
			c1.752,0,3.034-0.295,3.848-0.886c0.812-0.59,1.218-1.55,1.218-2.878c0-2.104-1.356-3.155-4.069-3.155l-0.996,0.055
			c-0.074,0-0.213,0.019-0.415,0.056h-0.084c-0.092,0.019-0.184,0.027-0.276,0.027c-0.093,0.019-0.185,0.037-0.276,0.056
			l-0.083,1.245l-0.056,1.439l-0.028,2.298v1.688L316.205,8.276z M317.118,18.323c1.052,0,1.946-0.193,2.685-0.581
			c0.757-0.369,1.339-0.922,1.744-1.661c0.388-0.72,0.581-1.587,0.581-2.603c0-1.623-0.508-2.721-1.522-3.293
			c-1.015-0.572-2.371-0.858-4.068-0.858c-0.48,0-0.996,0.019-1.551,0.055v4.789l0.028,1.605l0.027,1.606v0.332l-0.056,0.416
			C315.78,18.259,316.491,18.323,317.118,18.323z"/>
		<path fill="#FFFFFF" d="M344.215,0.249l1.633,0.055l1.688,0.056l3.294-0.111V1.19l-1.08,0.028l-0.525,0.027
			c-0.129,0.019-0.296,0.074-0.498,0.167c-0.222,0.093-0.369,0.249-0.442,0.47c-0.094,0.24-0.139,0.609-0.139,1.107v7.805
			l-0.028,1.744l-0.027,1.024v0.387c0,0.056-0.01,0.139-0.027,0.25c0,0.129-0.01,0.222-0.028,0.277
			c-0.019,0.185-0.074,0.461-0.166,0.831c-0.073,0.406-0.222,0.812-0.442,1.218c-0.074,0.129-0.186,0.296-0.332,0.499
			c-0.186,0.221-0.332,0.397-0.443,0.526c-0.664,0.738-1.513,1.292-2.546,1.661c-1.07,0.369-2.271,0.553-3.599,0.553
			c-1.771,0-3.285-0.276-4.539-0.831c-1.273-0.572-2.114-1.329-2.52-2.27l-0.193-0.499l-0.166-0.498l-0.083-0.582l-0.056-0.691
			v-1.19c0-0.203-0.01-0.388-0.027-0.553v-0.526V9.964V2.989c0-0.498-0.064-0.867-0.194-1.107c-0.11-0.258-0.286-0.424-0.525-0.498
			l-0.388-0.111l-0.359-0.055l-1.219-0.028V0.249l0.831,0.028l1.162,0.027l1.966,0.056l0.83-0.028l1.162-0.028l1.966-0.055V1.19
			l-0.581,0.028c-0.609,0-1.043,0.027-1.302,0.083c-0.222,0.056-0.424,0.212-0.608,0.471c-0.13,0.24-0.194,0.646-0.194,1.218v8.332
			l0.028,1.19l0.027,1.328l0.027,0.748c0.019,0.093,0.074,0.268,0.166,0.526l0.028,0.139c0.11,0.387,0.267,0.71,0.471,0.968
			c0.424,0.591,1.052,1.035,1.882,1.33c0.867,0.332,1.845,0.498,2.935,0.498c1.088,0,2.085-0.166,2.989-0.498
			c0.885-0.295,1.54-0.738,1.965-1.33c0.313-0.46,0.544-1.098,0.691-1.91c0.148-0.848,0.222-2.029,0.222-3.542V2.989
			c0-0.442-0.046-0.802-0.138-1.08c-0.111-0.258-0.249-0.424-0.416-0.498l-0.442-0.139c-0.147-0.036-0.286-0.055-0.416-0.055
			l-1.272-0.028V0.249z"/>
		<path fill="#FFFFFF" d="M359.661,18.572h0.415h0.276c0.074-0.018,0.156-0.028,0.25-0.028c0.165,0,0.304-0.008,0.414-0.027
			c0.056-0.019,0.13-0.037,0.222-0.056c0.093,0,0.166-0.009,0.222-0.028c0.166-0.037,0.36-0.166,0.582-0.387
			c0.202-0.258,0.304-0.682,0.304-1.273v-11.1V4.401l-0.055-1.633l-0.028-1.274h-1.356c-0.222,0-0.434,0.01-0.636,0.028h-0.72
			h-0.693c-0.202,0.019-0.451,0.028-0.746,0.028c-0.333,0-0.555,0.009-0.665,0.028c-0.11,0.019-0.222,0.064-0.332,0.138
			c-0.055,0.038-0.12,0.157-0.193,0.359l-0.027,0.028l-0.111,0.719l-0.11,0.914l-0.084,0.941h-0.857l0.027-1.605
			c0-0.609-0.055-1.55-0.166-2.823l0.72,0.028l3.321,0.055l1.689,0.028h1.438h0.858h2.021l1.993-0.028l3.293-0.055l0.72-0.028v0.166
			v0.582c-0.019,0.092-0.027,0.193-0.027,0.304s-0.01,0.212-0.027,0.304c0,0.204-0.019,0.47-0.056,0.803
			c-0.019,0.129-0.028,0.24-0.028,0.332c0,0.167-0.009,0.277-0.026,0.332v0.775l0.026,0.83h-0.83l-0.11-1.55
			c0-0.258-0.027-0.452-0.083-0.581c0-0.037-0.009-0.083-0.027-0.139c0-0.073-0.01-0.12-0.028-0.139l-0.055-0.083l-0.083-0.167
			c-0.129-0.295-0.352-0.442-0.665-0.442l-1.355-0.028l-3.267-0.056l-0.056,1.855l-0.055,2.325v11.1
			c0,0.646,0.102,1.098,0.304,1.356c0.203,0.204,0.536,0.332,0.997,0.388l1.384,0.055v0.941l-1.965-0.055l-1.993-0.056l-1.966,0.056
			l-1.992,0.055V18.572z"/>
		<path fill="#FFFFFF" d="M383.077,18.212l1.162,0.028l1.522-0.028l1.273-0.028h0.388h0.305c0.092-0.018,0.184-0.027,0.276-0.027
			l0.886-0.111c0.498-0.056,1.033-0.166,1.605-0.333l0.83-3.183h0.886c-0.073,0.48-0.24,1.919-0.498,4.318l-0.056,0.442
			l-0.802,0.111l-0.581,0.056l-0.858,0.028h-0.388c-0.167,0-0.296,0.008-0.388,0.027l-1.329-0.055l-1.882-0.028l-4.263-0.056
			l-0.94,0.028l-1.136,0.056l-1.023,0.055v-0.609c0.405-0.221,0.701-0.405,0.885-0.553c0.111-0.092,0.212-0.267,0.306-0.526
			c0.055-0.221,0.082-0.571,0.082-1.051V2.989c0-0.498-0.064-0.867-0.193-1.107c-0.11-0.24-0.268-0.405-0.471-0.498
			c-0.185-0.074-0.461-0.139-0.83-0.194l-1.19-0.028V0.249l1.993,0.055l1.966,0.056l1.992-0.056l1.965-0.055v0.913h-0.497
			l-0.582,0.056l-0.525,0.027c-0.167,0.037-0.343,0.093-0.526,0.167c-0.203,0.093-0.342,0.268-0.415,0.526
			c-0.093,0.276-0.139,0.627-0.139,1.051v10.573v1.19v1.411l0.028,1.301v0.277v0.221l-0.028,0.194L383.077,18.212z"/>
		<path fill="#FFFFFF" d="M402.729,13.646v1.882c0,1.292,0.009,1.965,0.027,2.021v0.304l0.028,0.305c0.11,0,0.322,0.009,0.636,0.027
			c0.277,0.019,0.434,0.028,0.472,0.028c0.35,0.019,0.709,0.028,1.078,0.028l1.966,0.056c1.07,0,1.854-0.028,2.353-0.084
			c0.535-0.055,1.089-0.193,1.66-0.415l0.444-1.662l0.249-1.301h0.913c-0.24,1.735-0.36,3.249-0.36,4.54
			c-1.052,0.111-2.039,0.167-2.961,0.167l-1.855-0.028l-2.573-0.055l-3.46-0.056l-2.796,0.083l-1.163,0.027v-0.941h0.36h0.388
			c0.073-0.018,0.146-0.028,0.222-0.028l0.663-0.083c0.222-0.018,0.462-0.156,0.72-0.415c0.222-0.258,0.333-0.682,0.333-1.273V2.989
			c0-0.498-0.064-0.867-0.194-1.107c-0.11-0.24-0.268-0.405-0.471-0.498c-0.185-0.074-0.461-0.139-0.83-0.194l-1.19-0.028V0.249
			l2.077,0.055l1.799,0.056l3.985-0.056l3.958-0.055l0.969,0.055l2.021,0.083c-0.037,0.129-0.074,0.276-0.11,0.443
			c-0.056,0.166-0.102,0.314-0.139,0.442c-0.074,0.296-0.129,0.609-0.166,0.941l-0.111,1.08l-0.026,1.246h-0.914
			c0-0.922-0.047-1.753-0.139-2.491c-0.591-0.221-1.19-0.369-1.799-0.443l-1.135-0.083l-1.439-0.055
			c-1.348,0-2.491,0.055-3.432,0.166l-0.028,2.297l-0.027,2.325v2.74h0.443c0.202,0,0.368,0.01,0.497,0.028l1.439,0.084h1.136
			c0.165,0,0.322-0.009,0.47-0.028h0.499l0.636-0.056c0.185-0.018,0.388-0.073,0.609-0.166c0.239-0.092,0.396-0.23,0.47-0.416
			l0.111-0.36l0.056-0.499l0.055-0.581v-0.47h0.914L409.98,9.66l0.084,3.155h-0.914v-0.471l-0.055-0.581
			c0-0.442-0.102-0.784-0.305-1.023c-0.13-0.185-0.471-0.323-1.024-0.416l-1.052-0.055l-1.605-0.028
			c-1.089,0-1.882,0.037-2.38,0.111V13.646z"/>
		<path fill="#FFFFFF" d="M432.428,16.108l0.969,1.356c0.203,0.259,0.479,0.499,0.83,0.72c0.313,0.167,0.766,0.296,1.356,0.388
			v0.941h-0.443h-0.331c-0.094-0.019-0.176-0.027-0.25-0.027c-0.221,0-0.517-0.028-0.886-0.083l-1.91,0.11l-4.622-6.477
			c-0.867-1.273-1.799-2.435-2.795-3.487l0.138-0.442l1.053,0.055c1.069,0,1.955-0.175,2.656-0.526
			c0.701-0.332,1.264-0.83,1.688-1.494c0.388-0.664,0.581-1.439,0.581-2.325c0-0.72-0.165-1.356-0.498-1.91
			c-0.313-0.536-0.803-0.969-1.467-1.302c-0.239-0.111-0.581-0.211-1.024-0.304c-0.092-0.019-0.184-0.037-0.276-0.056
			c-0.093,0-0.185-0.008-0.276-0.027c-0.13-0.019-0.36-0.028-0.692-0.028c-0.904,0-1.846,0.176-2.824,0.526
			c0,0.259-0.009,0.517-0.026,0.775c-0.019,0.277-0.028,0.544-0.028,0.802c0,0.794-0.009,1.356-0.027,1.688
			c-0.019,0.499-0.047,0.941-0.083,1.329v10.463c0,0.498,0.064,0.867,0.193,1.107c0.147,0.258,0.322,0.425,0.526,0.498
			c0.11,0.037,0.259,0.074,0.442,0.111l0.637,0.028l0.886,0.055v0.941l-1.965-0.055l-1.993-0.056L420,19.458l-1.993,0.055v-0.941
			h0.387h0.36c0.073-0.018,0.147-0.028,0.222-0.028l0.664-0.083c0.222-0.018,0.461-0.156,0.72-0.415
			c0.222-0.258,0.332-0.682,0.332-1.273V2.989c0-0.498-0.055-0.867-0.165-1.107c-0.13-0.258-0.296-0.424-0.499-0.498
			c-0.019,0-0.064-0.018-0.139-0.055c-0.11-0.019-0.193-0.037-0.249-0.056c-0.185-0.036-0.332-0.055-0.442-0.055l-1.19-0.028V0.249
			l1.162,0.028l2.796,0.083l1.854-0.056l1.743-0.055l1.551-0.028c0.922,0,1.734,0.065,2.436,0.193
			c0.737,0.129,1.412,0.342,2.021,0.637c1.162,0.572,1.743,1.661,1.743,3.266c0,1.384-0.461,2.538-1.383,3.46
			c-0.924,0.922-2.252,1.577-3.986,1.965L432.428,16.108z"/>
	</g>
	<g>
		<path fill="#FFFFFF" d="M122.483,45.594c0,0.352,0.045,0.611,0.137,0.78c0.104,0.182,0.227,0.298,0.37,0.35
			c0.079,0.025,0.182,0.052,0.312,0.078l0.447,0.021l0.624,0.038v0.663l-1.129-0.04l-1.188-0.038l-2.338,0.078v-0.663h0.273h0.252
			c0.052-0.013,0.104-0.02,0.156-0.02l0.468-0.059c0.155-0.013,0.324-0.11,0.507-0.291c0.155-0.183,0.233-0.481,0.233-0.897v-9.702
			c0-0.351-0.045-0.61-0.136-0.779c-0.052-0.168-0.163-0.286-0.332-0.351c-0.129-0.053-0.324-0.098-0.583-0.137l-0.838-0.019v-0.645
			l1.481,0.04l1.247,0.038l0.35-0.038l0.331-0.04l1.89,2.416l1.617,2.026l3.254,3.994l0.78,0.974l0.994,1.208l0.759,0.799v-9.487
			c0-0.377-0.025-0.623-0.078-0.74c-0.052-0.144-0.163-0.267-0.331-0.37c-0.065-0.052-0.163-0.085-0.292-0.098l-0.137-0.02
			c-0.065-0.014-0.11-0.02-0.136-0.02h-0.155l-0.41-0.038h-0.35v-0.645l1.149,0.04l1.188,0.038l2.318-0.078v0.645h-0.35l-0.41,0.038
			l-0.37,0.02c-0.118,0.026-0.241,0.065-0.371,0.117c-0.129,0.051-0.233,0.176-0.311,0.37c-0.065,0.194-0.098,0.441-0.098,0.74
			v7.716l0.02,0.973l0.039,0.955l0.02,0.876l0.097,1.346c-0.285-0.025-0.599-0.078-0.935-0.156c-0.287-0.052-0.52-0.111-0.701-0.176
			c-0.184-0.129-0.331-0.259-0.449-0.388l-0.428-0.508l-0.351-0.447l-1.266-1.521l-6.838-8.437V45.594z"/>
		<path fill="#FFFFFF" d="M140.289,37.878c0.352-0.856,0.852-1.59,1.5-2.201c0.208-0.182,0.377-0.324,0.508-0.429
			c0.181-0.143,0.37-0.266,0.563-0.369c0.351-0.221,0.78-0.423,1.286-0.604c0.935-0.324,1.955-0.487,3.059-0.487
			c1.026,0,1.987,0.15,2.883,0.448c0.857,0.286,1.598,0.715,2.221,1.285c0.598,0.561,1.065,1.248,1.403,2.066
			c0.324,0.778,0.486,1.661,0.486,2.649c0,1.376-0.324,2.636-0.973,3.779c-0.638,1.145-1.533,2.039-2.689,2.689
			c-1.144,0.663-2.404,0.992-3.78,0.992c-1.066,0-2.021-0.155-2.864-0.467c-0.856-0.337-1.585-0.805-2.182-1.402
			c-0.624-0.624-1.104-1.356-1.441-2.202c-0.144-0.402-0.267-0.856-0.371-1.363c-0.078-0.468-0.116-0.974-0.116-1.52
			C139.784,39.705,139.952,38.749,140.289,37.878z M142.101,42.808c0.261,0.846,0.644,1.571,1.15,2.182
			c0.479,0.625,1.077,1.093,1.792,1.403c0.689,0.325,1.449,0.486,2.279,0.486c1.012,0,1.883-0.238,2.611-0.719
			c0.74-0.495,1.297-1.202,1.675-2.126c0.39-0.92,0.584-1.998,0.584-3.233c0-0.935-0.124-1.772-0.37-2.514
			c-0.261-0.778-0.624-1.44-1.091-1.986c-0.481-0.558-1.053-0.981-1.714-1.267c-0.663-0.285-1.39-0.428-2.183-0.428
			c-1.065,0-1.974,0.22-2.727,0.662c-0.779,0.454-1.372,1.084-1.773,1.89c-0.416,0.844-0.624,1.779-0.624,2.805
			C141.712,41.002,141.842,41.952,142.101,42.808z"/>
		<path fill="#FFFFFF" d="M169.105,45.126l0.683,0.956c0.142,0.181,0.337,0.35,0.583,0.506c0.222,0.117,0.539,0.207,0.954,0.272
			v0.663h-0.311h-0.233c-0.066-0.013-0.124-0.02-0.175-0.02c-0.156,0-0.365-0.021-0.624-0.059l-1.343,0.078l-3.255-4.561
			c-0.611-0.896-1.266-1.713-1.968-2.454l0.098-0.312l0.741,0.04c0.752,0,1.375-0.124,1.869-0.37
			c0.494-0.234,0.89-0.585,1.188-1.053c0.272-0.467,0.41-1.013,0.41-1.636c0-0.507-0.116-0.955-0.351-1.345
			c-0.221-0.377-0.565-0.682-1.032-0.916c-0.169-0.078-0.409-0.148-0.721-0.215c-0.065-0.012-0.13-0.024-0.195-0.038
			c-0.065,0-0.13-0.006-0.195-0.02c-0.09-0.013-0.253-0.02-0.486-0.02c-0.636,0-1.299,0.124-1.987,0.37
			c0,0.182-0.008,0.363-0.021,0.546c-0.013,0.193-0.02,0.383-0.02,0.564c0,0.559-0.006,0.954-0.019,1.189
			c-0.013,0.351-0.033,0.661-0.058,0.934v7.365c0,0.352,0.045,0.611,0.137,0.78c0.103,0.182,0.226,0.298,0.37,0.35
			c0.078,0.025,0.181,0.052,0.311,0.078l0.448,0.021l0.624,0.038v0.663l-1.383-0.04l-1.403-0.038l-1.384,0.038l-1.402,0.04v-0.663
			h0.272h0.253c0.052-0.013,0.105-0.02,0.157-0.02l0.467-0.059c0.156-0.013,0.324-0.11,0.507-0.291
			c0.155-0.183,0.233-0.481,0.233-0.897v-9.702c0-0.351-0.038-0.61-0.116-0.779c-0.092-0.182-0.208-0.299-0.351-0.351
			c-0.013,0-0.045-0.013-0.098-0.04c-0.077-0.013-0.136-0.025-0.175-0.038c-0.13-0.025-0.233-0.039-0.311-0.039l-0.838-0.02v-0.663
			l0.818,0.021l1.968,0.058l1.305-0.038l1.227-0.04l1.091-0.019c0.65,0,1.22,0.046,1.715,0.137c0.519,0.09,0.993,0.24,1.422,0.448
			c0.819,0.402,1.228,1.168,1.228,2.299c0,0.974-0.324,1.785-0.974,2.435c-0.648,0.649-1.585,1.111-2.805,1.383L169.105,45.126z"/>
		<path fill="#FFFFFF" d="M176.625,47.095c0.363-0.195,0.578-0.325,0.643-0.39c0.091-0.052,0.157-0.169,0.194-0.351
			c0.04-0.144,0.059-0.396,0.059-0.761v-9.702c0-0.351-0.038-0.61-0.117-0.779c-0.078-0.182-0.194-0.299-0.35-0.351l-0.097-0.04
			c-0.053-0.013-0.105-0.025-0.156-0.038c-0.129-0.025-0.234-0.039-0.312-0.039l-0.858-0.02v-0.663l0.585,0.021l0.818,0.02
			l1.383,0.038l1.947-0.038l2.086-0.04c0.207,0,0.384,0.007,0.526,0.021c0.13,0.013,0.344,0.02,0.643,0.02
			c0.104,0,0.273,0.013,0.507,0.038c0.233,0.027,0.409,0.053,0.526,0.079c0.583,0.091,1.149,0.259,1.695,0.506
			c0.479,0.221,0.941,0.526,1.382,0.916c1.261,1.092,1.89,2.61,1.89,4.559c0,0.221-0.013,0.487-0.039,0.799
			c-0.026,0.312-0.058,0.559-0.097,0.74c-0.079,0.506-0.221,0.987-0.429,1.441c-0.364,0.91-0.896,1.695-1.598,2.357
			c-0.689,0.663-1.513,1.176-2.473,1.54c-0.976,0.363-2.027,0.546-3.157,0.546l-0.624-0.04l-0.584-0.02l-1.616-0.039l-0.741,0.021
			l-0.778,0.038l-0.858,0.04V47.095z M179.684,46.548c0.429,0.053,0.74,0.086,0.935,0.099c0.351,0.038,0.682,0.059,0.994,0.059
			c1.948,0,3.436-0.545,4.462-1.637c1.025-1.065,1.539-2.586,1.539-4.56c0-0.96-0.13-1.812-0.39-2.553
			c-0.247-0.701-0.617-1.278-1.111-1.733c-0.481-0.441-1.091-0.792-1.831-1.053c-0.74-0.26-1.468-0.389-2.182-0.389
			c-0.78,0-1.669,0.07-2.669,0.214c-0.078,0.559-0.116,1.247-0.116,2.064v6.235l0.019,1.17l0.098,2.045L179.684,46.548z"/>
		<path fill="#FFFFFF" d="M200.237,34.625l-0.759,0.02l-0.37,0.02c-0.117,0.026-0.241,0.065-0.371,0.117
			c-0.144,0.064-0.24,0.188-0.292,0.37c-0.066,0.194-0.099,0.441-0.099,0.74v9.702c0,0.352,0.046,0.611,0.137,0.78
			c0.104,0.182,0.228,0.298,0.371,0.35c0.078,0.025,0.181,0.052,0.311,0.078l0.449,0.021l0.623,0.038v0.663l-1.382-0.04
			l-1.403-0.038l-1.383,0.038l-1.403,0.04v-0.663h0.273h0.254c0.05-0.013,0.103-0.02,0.155-0.02l0.468-0.059
			c0.155-0.013,0.324-0.11,0.505-0.291c0.157-0.183,0.235-0.481,0.235-0.897v-9.702c0-0.351-0.039-0.61-0.118-0.779
			c-0.09-0.182-0.208-0.299-0.35-0.351c-0.013,0-0.047-0.013-0.099-0.04c-0.078-0.013-0.135-0.025-0.174-0.038
			c-0.131-0.025-0.235-0.039-0.313-0.039l-0.837-0.02v-0.663l1.403,0.04l1.383,0.038l0.585-0.02l0.818-0.019l1.382-0.04V34.625z"/>
		<path fill="#FFFFFF" d="M216.661,35.716c-0.375-0.26-0.771-0.474-1.188-0.643l-0.585-0.214c-0.078-0.027-0.175-0.046-0.292-0.059
			c-0.169-0.039-0.279-0.064-0.332-0.079c-0.389-0.077-0.811-0.115-1.266-0.115c-0.87,0-1.663,0.13-2.376,0.389
			c-0.689,0.273-1.28,0.656-1.772,1.15c-0.495,0.506-0.877,1.122-1.15,1.851c-0.272,0.714-0.409,1.512-0.409,2.396
			c0,1.183,0.266,2.254,0.798,3.216c0.521,0.947,1.254,1.708,2.203,2.279c0.948,0.558,1.993,0.837,3.136,0.837
			c1.805,0,3.248-0.402,4.325-1.208l0.194,0.177l-0.137,0.331l-0.116,0.272l-0.117,0.292c-0.78,0.377-1.527,0.662-2.24,0.857
			c-0.208,0.038-0.52,0.097-0.935,0.175l-0.156,0.021c-0.039,0-0.129,0.006-0.273,0.02c-0.104,0-0.202,0.006-0.292,0.019
			c-0.117,0.013-0.32,0.019-0.604,0.019c-1.129,0-2.162-0.161-3.098-0.486c-0.934-0.325-1.766-0.8-2.492-1.422
			c-0.691-0.61-1.229-1.346-1.618-2.201c-0.39-0.883-0.585-1.812-0.585-2.787c0-1.064,0.182-2.026,0.545-2.883
			c0.376-0.884,0.902-1.623,1.578-2.222c0.662-0.584,1.513-1.059,2.552-1.422c0.467-0.143,1-0.266,1.598-0.371
			c0.571-0.077,1.143-0.116,1.714-0.116c0.442,0,0.923,0.039,1.442,0.116c0.624,0.092,1.182,0.196,1.675,0.312l1.48,0.312
			c-0.143,0.351-0.267,0.772-0.37,1.266c-0.091,0.455-0.137,0.993-0.137,1.616h-0.624L216.661,35.716z"/>
		<path fill="#FFFFFF" d="M243.08,47.038l-0.74,0.193l-0.799,0.176l-0.721,0.117l-0.799,0.097l-0.779,0.059l-0.701,0.019
			c-1.144,0-2.163-0.161-3.059-0.486c-0.923-0.312-1.715-0.779-2.376-1.402c-0.663-0.61-1.178-1.365-1.54-2.261
			c-0.365-0.857-0.546-1.843-0.546-2.961c0-0.649,0.098-1.293,0.292-1.929c0.195-0.637,0.474-1.221,0.838-1.753
			c0.377-0.546,0.832-1.033,1.364-1.462c0.779-0.584,1.609-1.007,2.493-1.268c0.922-0.258,2-0.389,3.234-0.389
			c0.831,0,1.623,0.078,2.377,0.233c0.416,0.079,0.844,0.177,1.286,0.292c0.129,0.027,0.285,0.065,0.468,0.118
			c0.143,0.039,0.279,0.07,0.409,0.098c0.025,0.013,0.084,0.031,0.175,0.058c0.169,0.052,0.319,0.098,0.448,0.136
			c-0.104,0.378-0.188,0.799-0.254,1.268l-0.155,1.539h-0.604v-0.623c0-0.495-0.019-0.8-0.058-0.916
			c-0.04-0.104-0.144-0.221-0.313-0.351c-0.544-0.312-1.167-0.559-1.868-0.741c-0.715-0.195-1.437-0.291-2.163-0.291
			c-0.948,0-1.793,0.13-2.533,0.389c-0.701,0.247-1.312,0.631-1.831,1.15c-0.507,0.493-0.902,1.109-1.188,1.851
			c-0.273,0.714-0.41,1.539-0.41,2.475c0,0.505,0.04,0.955,0.117,1.343c0.052,0.378,0.163,0.787,0.332,1.229
			c0.298,0.767,0.728,1.441,1.285,2.026c0.572,0.597,1.233,1.045,1.987,1.343c0.767,0.312,1.604,0.468,2.514,0.468
			c0.87,0,1.948-0.226,3.234-0.681v-0.624l0.058-1.54c0-0.467-0.071-0.791-0.214-0.973c-0.065-0.065-0.182-0.13-0.351-0.195
			c-0.143-0.052-0.331-0.077-0.564-0.077h-0.117l-0.645-0.02v-0.662l1.403,0.037l1.384,0.04l0.663-0.019l0.662-0.04h0.254h0.253
			l0.155-0.019v0.428l-0.391,0.155c-0.311,0.117-0.525,0.3-0.642,0.546c-0.117,0.247-0.176,0.695-0.176,1.344l0.021,0.468v0.43
			c0,0.182,0.026,0.383,0.078,0.604l0.077,0.524C244.144,46.712,243.703,46.855,243.08,47.038z"/>
		<path fill="#FFFFFF" d="M260.107,45.126l0.683,0.956c0.142,0.181,0.337,0.35,0.584,0.506c0.221,0.117,0.539,0.207,0.955,0.272
			v0.663h-0.312h-0.234c-0.065-0.013-0.123-0.02-0.176-0.02c-0.156,0-0.363-0.021-0.623-0.059l-1.345,0.078l-3.253-4.561
			c-0.61-0.896-1.267-1.713-1.968-2.454l0.098-0.312l0.74,0.04c0.753,0,1.377-0.124,1.87-0.37c0.493-0.234,0.89-0.585,1.188-1.053
			c0.273-0.467,0.41-1.013,0.41-1.636c0-0.507-0.118-0.955-0.352-1.345c-0.222-0.377-0.565-0.682-1.033-0.916
			c-0.168-0.078-0.409-0.148-0.72-0.215c-0.065-0.012-0.131-0.024-0.195-0.038c-0.065,0-0.13-0.006-0.194-0.02
			c-0.092-0.013-0.254-0.02-0.487-0.02c-0.637,0-1.3,0.124-1.987,0.37c0,0.182-0.007,0.363-0.02,0.546
			c-0.014,0.193-0.02,0.383-0.02,0.564c0,0.559-0.008,0.954-0.021,1.189c-0.013,0.351-0.031,0.661-0.057,0.934v7.365
			c0,0.352,0.044,0.611,0.135,0.78c0.104,0.182,0.229,0.298,0.37,0.35c0.079,0.025,0.183,0.052,0.312,0.078l0.447,0.021l0.623,0.038
			v0.663l-1.383-0.04l-1.402-0.038l-1.383,0.038l-1.403,0.04v-0.663h0.272h0.254c0.052-0.013,0.104-0.02,0.155-0.02l0.469-0.059
			c0.154-0.013,0.324-0.11,0.507-0.291c0.155-0.183,0.233-0.481,0.233-0.897v-9.702c0-0.351-0.04-0.61-0.118-0.779
			c-0.09-0.182-0.207-0.299-0.35-0.351c-0.013,0-0.046-0.013-0.098-0.04c-0.078-0.013-0.137-0.025-0.175-0.038
			c-0.131-0.025-0.234-0.039-0.312-0.039l-0.838-0.02v-0.663l0.818,0.021l1.968,0.058l1.306-0.038l1.228-0.04l1.092-0.019
			c0.648,0,1.22,0.046,1.713,0.137c0.521,0.09,0.994,0.24,1.423,0.448c0.818,0.402,1.228,1.168,1.228,2.299
			c0,0.974-0.325,1.785-0.974,2.435c-0.65,0.649-1.586,1.111-2.806,1.383L260.107,45.126z"/>
		<path fill="#FFFFFF" d="M267.218,37.878c0.351-0.856,0.851-1.59,1.5-2.201c0.208-0.182,0.377-0.324,0.507-0.429
			c0.182-0.143,0.37-0.266,0.564-0.369c0.352-0.221,0.779-0.423,1.286-0.604c0.935-0.324,1.954-0.487,3.059-0.487
			c1.026,0,1.987,0.15,2.884,0.448c0.857,0.286,1.599,0.715,2.221,1.285c0.598,0.561,1.065,1.248,1.403,2.066
			c0.325,0.778,0.486,1.661,0.486,2.649c0,1.376-0.324,2.636-0.973,3.779c-0.638,1.145-1.534,2.039-2.689,2.689
			c-1.143,0.663-2.402,0.992-3.779,0.992c-1.066,0-2.021-0.155-2.864-0.467c-0.857-0.337-1.585-0.805-2.183-1.402
			c-0.624-0.624-1.104-1.356-1.441-2.202c-0.143-0.402-0.267-0.856-0.37-1.363c-0.077-0.468-0.116-0.974-0.116-1.52
			C266.712,39.705,266.88,38.749,267.218,37.878z M269.03,42.808c0.26,0.846,0.645,1.571,1.15,2.182
			c0.479,0.625,1.076,1.093,1.792,1.403c0.688,0.325,1.448,0.486,2.279,0.486c1.014,0,1.884-0.238,2.61-0.719
			c0.741-0.495,1.3-1.202,1.676-2.126c0.391-0.92,0.585-1.998,0.585-3.233c0-0.935-0.124-1.772-0.37-2.514
			c-0.261-0.778-0.624-1.44-1.091-1.986c-0.48-0.558-1.053-0.981-1.715-1.267s-1.39-0.428-2.183-0.428
			c-1.064,0-1.974,0.22-2.727,0.662c-0.78,0.454-1.371,1.084-1.773,1.89c-0.416,0.844-0.624,1.779-0.624,2.805
			C268.64,41.002,268.77,41.952,269.03,42.808z"/>
		<path fill="#FFFFFF" d="M295.526,33.962l1.15,0.04l1.188,0.038l2.318-0.078v0.663l-0.76,0.02l-0.37,0.02
			c-0.092,0.014-0.208,0.052-0.351,0.117c-0.155,0.064-0.26,0.176-0.312,0.331c-0.065,0.169-0.097,0.429-0.097,0.779v5.495
			l-0.021,1.227l-0.019,0.72v0.274c0,0.039-0.008,0.096-0.021,0.175c0,0.091-0.007,0.156-0.02,0.194
			c-0.013,0.13-0.052,0.325-0.116,0.585c-0.053,0.286-0.156,0.573-0.312,0.857c-0.052,0.091-0.13,0.208-0.233,0.351
			c-0.13,0.155-0.233,0.279-0.312,0.369c-0.468,0.521-1.065,0.911-1.793,1.17c-0.753,0.26-1.598,0.389-2.532,0.389
			c-1.248,0-2.312-0.193-3.195-0.583c-0.897-0.402-1.487-0.936-1.773-1.599l-0.136-0.35l-0.117-0.352l-0.059-0.409l-0.039-0.486
			v-0.839c0-0.143-0.007-0.272-0.02-0.39v-0.369v-1.521v-4.909c0-0.351-0.045-0.61-0.136-0.779c-0.077-0.182-0.201-0.299-0.37-0.351
			l-0.273-0.078l-0.253-0.039l-0.857-0.02v-0.663l0.584,0.021l0.818,0.02l1.385,0.038l0.584-0.02l0.818-0.019l1.383-0.04v0.663
			l-0.41,0.02c-0.427,0-0.734,0.02-0.915,0.058c-0.155,0.04-0.299,0.149-0.429,0.332c-0.091,0.169-0.137,0.454-0.137,0.857v5.865
			l0.021,0.837l0.019,0.936l0.02,0.526c0.012,0.065,0.052,0.188,0.117,0.369l0.019,0.099c0.077,0.272,0.188,0.499,0.331,0.681
			c0.3,0.417,0.741,0.727,1.325,0.935c0.611,0.235,1.299,0.353,2.064,0.353c0.767,0,1.469-0.117,2.104-0.353
			c0.624-0.208,1.084-0.518,1.384-0.935c0.221-0.324,0.383-0.772,0.487-1.344c0.104-0.597,0.154-1.428,0.154-2.494v-5.475
			c0-0.312-0.031-0.565-0.096-0.76c-0.078-0.182-0.176-0.3-0.293-0.351l-0.312-0.098c-0.104-0.025-0.201-0.039-0.292-0.039
			l-0.897-0.02V33.962z"/>
		<path fill="#FFFFFF" d="M308.523,36.612l-0.02,1.326v7.656c0,0.352,0.044,0.611,0.136,0.78c0.104,0.182,0.228,0.298,0.37,0.35
			c0.078,0.025,0.183,0.052,0.312,0.078l0.448,0.021l0.623,0.038v0.663l-1.383-0.04l-1.403-0.038l-1.383,0.038l-1.402,0.04v-0.663
			h0.272h0.253c0.052-0.013,0.104-0.02,0.155-0.02l0.469-0.059c0.155-0.013,0.324-0.11,0.507-0.291
			c0.155-0.183,0.233-0.481,0.233-0.897v-9.702c0-0.351-0.039-0.61-0.117-0.779c-0.091-0.182-0.207-0.299-0.351-0.351
			c-0.013,0-0.046-0.013-0.098-0.04c-0.078-0.013-0.137-0.025-0.175-0.038c-0.13-0.025-0.233-0.039-0.312-0.039l-0.838-0.02v-0.663
			l0.818,0.021l1.967,0.058h0.449h0.194h0.156c0.052-0.013,0.11-0.02,0.175-0.02l1.306-0.059l1.637-0.037
			c1.403,0,2.48,0.266,3.233,0.797c0.74,0.521,1.11,1.306,1.11,2.357c0,0.65-0.208,1.293-0.624,1.93
			c-0.389,0.623-0.941,1.137-1.654,1.54c-0.677,0.389-1.403,0.583-2.183,0.583c-0.546,0-1.085-0.059-1.616-0.175l-0.176-0.721
			c0.571,0.143,0.986,0.214,1.246,0.214c0.493,0,0.916-0.064,1.267-0.195c0.391-0.143,0.701-0.331,0.935-0.564
			c0.261-0.26,0.455-0.578,0.585-0.955c0.144-0.401,0.215-0.838,0.215-1.305c0-0.884-0.292-1.566-0.878-2.047
			c-0.558-0.479-1.383-0.72-2.474-0.72h-0.292c-0.104,0-0.176,0.007-0.215,0.02c-0.064,0-0.188,0.019-0.37,0.059
			c-0.221,0.026-0.578,0.117-1.072,0.272L308.523,36.612z"/>
	</g>
</g>
</svg>
