<svg style="display: none"><defs><path id="quooker_logo-a" d="M168.803 15.631a2.324 2.324 0 0 1 2.342-2.346c1.258 0 2.332.996 2.332 2.346a2.327 2.327 0 0 1-2.332 2.361 2.328 2.328 0 0 1-2.342-2.361zm2.342 1.967c1.045 0 1.868-.833 1.868-1.967 0-1.115-.823-1.953-1.868-1.953-1.052 0-1.879.838-1.879 1.953 0 1.134.827 1.967 1.879 1.967zm-.487-.602h-.404v-2.715h1.014c.627 0 .939.234.939.77 0 .486-.301.699-.689.748l.758 1.197h-.451l-.704-1.18h-.462v1.18zm.481-1.527c.34 0 .646-.023.646-.444 0-.333-.296-.396-.579-.396h-.547v.841h.48z"/></defs><symbol viewBox="0 0 147.372 37.193" id="loewe_logo"><title>loewe_logo</title><g fill-rule="evenodd" clip-rule="evenodd" fill="#757676"><path d="M74.223 1.076c1.561 0 3.121.014 4.68-.01.395-.006.526.117.615.504C81.009 8.049 82.52 14.525 84.027 21c.031.135.082.268.103.334 1.702-6.705 3.42-13.46 5.139-20.228.213-.012.367-.027.521-.029 2.243 0 4.487.01 6.732-.01.361-.002.518.102.612.457 1.722 6.51 3.456 13.016 5.188 19.521.041.15.093.299.255.461.112-.547.221-1.096.341-1.639 1.051-4.726 2.102-9.453 3.156-14.177.312-1.402.65-2.803.952-4.209.063-.293.156-.412.472-.41 2.718.012 5.434.006 8.151.008.053 0 .103.018.213.037-.282 1.121-.557 2.236-.842 3.35-2.656 10.271-5.32 20.541-7.955 30.818-.153.598-.385.752-.979.742a240.06 240.06 0 0 0-7.1-.002c-.488.006-.651-.17-.765-.607-1.623-6.227-3.261-12.451-4.897-18.675a.713.713 0 0 0-.233-.393c-.186.678-.375 1.354-.557 2.031-1.524 5.71-3.052 11.419-4.566 17.132-.095.357-.219.514-.626.51a432.602 432.602 0 0 0-7.205-.004c-.359.004-.522-.1-.62-.451-3.195-11.305-6.4-22.609-9.604-33.912-.046-.166-.085-.332-.148-.578h4.458zM58.475 8.855v5.206h10.552v8.208H58.554v5.746h10.595v7.957H49.341V1.105h19.694v7.75zM116.657 35.978V1.117h19.704v7.721h-10.522v5.221h10.54v8.239h-10.483v5.725h10.57v7.955zM9.229 27.482h9.001v8.428H0V1.139h9.229zM140.012 28.019h7.36v7.998h-7.36zM47.709 15.133c-.294-3.014-1.132-5.869-2.802-8.461-1.859-2.881-4.294-4.988-7.592-5.986C36.317.383 35.276.225 34.256 0h-2.524c-.602.105-1.202.209-1.801.32-3.131.588-5.787 2-7.882 4.459-2.658 3.117-3.771 6.805-3.981 10.816a47.95 47.95 0 0 0 .004 4.796c.101 2.016.28 4.027.823 5.994 2.05 7.426 9.413 11.73 16.19 10.639 5.712-.918 10.582-5.201 11.992-10.936.887-3.6.991-7.279.632-10.955m-8.94 7.46c-.229 1.826-.944 3.459-2.453 4.625-2.235 1.725-7.102 1.588-8.711-2.568-.575-1.479-.622-3.014-.699-4.557-.024-.51-.004-1.021-.004-1.531.055-1.98-.056-3.977.632-5.893 1.69-4.717 7.262-4.549 9.414-2.195 1.045 1.139 1.622 2.508 1.821 4.014.355 2.698.337 5.41 0 8.105"/></g></symbol><symbol viewBox="0 0 239.327 36.964" id="nykredit_logo"><title>nykredit_logo</title><g fill-rule="evenodd" clip-rule="evenodd" fill="#757676"><path d="M215.077 28.376c0 .172-.139.352-.314.352h-10.799a.348.348 0 0 1-.352-.352V8.698a.31.31 0 0 1 .313-.317h10.837c.176 0 .314.142.314.317v19.678M215.077 5.721a.31.31 0 0 1-.314.31h-10.837a.307.307 0 0 1-.313-.31V.325c0-.172.134-.312.313-.312h10.837c.176 0 .314.141.314.312v5.396M141.78 14.872c.01.228.159.361.28.361h8.354c.255-.006.336-.203.336-.385v-1.564c-.065-.584-.114-1.102-.705-1.534-1.23-.776-6.614-.829-7.738.17-.345.298-.479.85-.526 1.387v1.565zm0 6.274c0 1.146.264 1.924.858 2.256 1.466.857 4.955.766 6.421.285.889-.318 1.124-.895 1.124-1.775 0-.107.149-.275.389-.275h10.485c.282 0 .342.305.326.506-.266 2.266-.212 7.074-16.128 7.074-12.719 0-14.824-4.295-14.824-7.5v-7.911c.035-3.158 2.065-7.572 14.824-7.572 9.406 0 13.382 1.545 15.193 3.929 1.017 1.347 1.11 2.728 1.11 2.728v6.2c0 .18-.125.418-.366.418h-19.021c-.253 0-.393.102-.393.352v1.285zM221.668 22.552c0 4.107 2.627 6.176 6.695 6.176h10.598c.255 0 .367-.182.363-.418v-5.123c.014-.244-.055-.342-.276-.35h-4.478c-.991 0-1.816-.582-1.816-1.742v-6.409c0-.302.246-.495.246-.495l5.803-2.87c.437-.209.488-.344.498-.429V7.458c-.031-.101-.062-.317-.352-.317h-5.94c-.229-.03-.285-.22-.277-.405V2.211s-.039-.29-.341-.29h-10.383s-.304.074-.34.298v20.333M185.45 14.375c0-1.647-1.627-2.463-3.17-2.463h-1.173c-1.562 0-3.172.815-3.172 2.463 0 0-.122 3.031-.122 3.363 0 .336.122 3.57.122 3.57 0 1.646 1.609 2.369 3.172 2.369h1.173c1.559 0 3.17-.723 3.17-2.369v-6.933M196.233.311v28.076c0 .252-.304.342-.304.342l-9.826.002c-1.766.004-7.117.965-12.159-.201-2.696-.656-4.924-1.252-6.601-3.807-.399-.76-.883-2.166-.883-4.197V15.19c0-1.675.274-4.553 2.156-6.023 4.598-3.585 11.936-3.108 16.768-2.562V.392c0-.302.396-.379.396-.379h10.225c.21-.016.228.298.228.298M0 28.455L.042.36c0-.324.316-.348.299-.348h13.917c.303-.008.344.312.354.307l9.417 17.57a.444.444 0 0 0 .494.162c.182-.074.259-.361.259-.361L24.387.38c-.004-.217.04-.328.253-.367h9.506c.375 0 .408.302.398.29v28.052s-.043.379-.429.375l-13.403.008c-.303 0-.556-.004-.842-.477l-9.334-17.624c-.339-.45-.825-.116-.825.39l.537 17.32c.037.252-.172.398-.377.383l-9.545.008c-.177.004-.335-.135-.326-.283M55.061 18.777l4.836-11.325c.115-.172.361-.29.551-.312h10.251c0-.008.345.01.223.327L56.978 33.294c-1.479 2.717-4.477 3.621-6.626 3.67H41.5s-.354.004-.354-.338v-6.189c.043-.232.186-.365.415-.365l5.968-.004c1.719 0 2.102-1.113 1.438-2.395L37.801 7.654c-.298-.624.431-.5.873-.5l9.682-.004c.205.051.284.249.35.365l5.79 11.273c.286.608.565-.011.565-.011M92.375 7.148h11.044c.767.002.193.572.193.572l-7.331 7.76c-.156.148-.156.261-.023.384l10.112 12.418c.353.316.095.463-.032.459l-12.792-.014c-.416 0-.52-.332-.614-.453l-6.099-8.922c-.31-.432-.677-.662-1.511-.584-.312.035-.321.484-.321.484v9.088s-.005.4-.394.4l-10.526-.008c-.224-.006-.344-.205-.344-.383V.289c0-.195.023-.284.324-.284h10.65c-.004-.018.316 0 .289.296v14.467c0 .346.217.624.598.297l5.996-7.588c.308-.315.781-.329.781-.329M121.022 28.419s-.035.309-.306.309h-10.499c-.227 0-.316-.312-.316-.312V7.484s.081-.334.311-.33h17.33c-.035.02.226.087.218.284v3.771s.008.274-.239.4l-6.205 3.034c-.214.073-.263.213-.318.259V28.41"/></g></symbol><symbol viewBox="0 0 268.658 54.707" id="braastad_logo"><title>braastad_logo</title><g fill-rule="evenodd" clip-rule="evenodd" fill="#757676"><path d="M89.354 42.583c0 .326.07 1.783.278 2.84-.093.219-.719.291-.881.127-.624-1.691-2.107-2.604-4.354-2.604-2.573 0-5.33 1.73-5.33 5.354 0 3.621 2.666 5.57 5.443 5.57 2.805 0 4.102-1.584 4.728-2.822.186-.146.741-.09.881.127-.163 1.348-.557 2.439-.881 2.857-1.25.275-2.896.674-4.702.674-2.271 0-4.588-.418-6.234-1.383-1.667-1-2.939-2.514-2.939-4.77 0-2.221 1.203-3.785 2.803-4.826 1.644-1.072 4.007-1.617 6.417-1.617 2.362.001 4.077.436 4.771.473M112.359 48.353c0 3.969-3.383 6.354-8.362 6.354-4.658 0-8.04-2.402-8.04-6.207 0-3.604 3.429-6.389 8.271-6.389 4.82 0 8.131 2.547 8.131 6.242m-8.316-5.406c-2.85 0-4.379 2.094-4.379 5.135 0 2.221.996 5.787 4.771 5.787 3.036 0 4.219-2.33 4.219-5.277 0-3.114-1.739-5.645-4.611-5.645M133.28 52.359c0 .764.046 1.129.486 1.201.093.072.07.383-.069.436-.394.057-.997.111-1.62.275-.812.199-2.806.436-4.102.436-1.576 0-2.919-.127-4.564-.637-2.711-.855-4.565-2.877-4.565-5.498 0-2.275 1.299-4.277 4.078-5.498 1.576-.674 3.452-.963 5.423-.963 2.571 0 3.846.436 4.586.436.069.547.093 1.82.324 2.932-.093.199-.719.217-.881.035-.74-1.711-2.2-2.566-4.354-2.566-3.685 0-5.468 2.402-5.468 5.279 0 2.604 1.134 4.15 2.642 4.951 1.11.584 2.315.693 3.174.693 1.319 0 1.598-.201 1.598-1.385v-1.148c0-.98-.14-1.09-1.25-1.219l-1.021-.107c-.255-.109-.255-.529 0-.639 1.644.037 2.78.055 3.916.055 1.11 0 2.246-.018 3.034-.055.186.109.186.529 0 .639l-.533.07c-.695.111-.834.275-.834 1.256v1.021zM154.665 51.32c0 1.186 0 2.332.046 2.934-.162.217-.812.418-1.367.418-.023 0-.788-.93-1.876-1.984l-5.353-5.207c-1.319-1.311-2.108-2.057-2.525-2.33-.116.182-.116.492-.116 1.166v3.531c0 1.473.094 2.84.349 3.33.208.383.741.492 1.344.584l.647.072c.186.145.139.527 0 .637-1.25-.035-2.177-.055-3.104-.055-.857 0-1.713.02-2.595.055-.139-.109-.185-.492 0-.637l.395-.053c.626-.111 1.066-.221 1.275-.604.231-.49.322-1.857.322-3.33v-4.625c0-1 0-1.293-.16-1.547-.162-.309-.51-.49-1.321-.619l-.649-.072c-.162-.146-.139-.584.093-.639 1.09.037 2.249.055 3.197.055.788 0 1.46-.018 1.945-.055.231.82 1.738 2.203 3.825 4.152l1.945 1.803c1.043.945 1.691 1.584 2.223 2 .093-.182.093-.49.093-.818V46.97c0-1.475-.093-2.84-.348-3.332-.206-.381-.717-.49-1.343-.582l-.625-.072c-.186-.146-.14-.527 0-.639 1.249.037 2.153.055 3.104.055.858 0 1.69-.018 2.595-.055.139.111.186.492 0 .639l-.417.053c-.602.111-1.041.221-1.25.602-.257.492-.348 1.857-.348 3.332v4.349zM166.433 50.302c-.554 0-.623.018-.765.363l-.855 2.111c-.142.365-.162.51-.162.656 0 .109.184.217.832.309l.695.092c.14.129.186.545-.046.637-.812-.035-1.736-.035-2.71-.055-.788 0-1.319.055-2.386.055-.256-.109-.232-.492-.07-.637l.626-.055c.555-.055 1.042-.201 1.412-.91.418-.729.812-1.602 1.438-2.914l2.085-4.441c.556-1.146.973-1.783.903-2.312 1.113-.199 1.969-1.09 2.015-1.09.302 0 .44.09.533.363.186.527.464 1.201 1.044 2.492l3.15 7.139c.486 1.092.695 1.492 1.553 1.619l.879.109c.14.092.186.527-.022.637a116.428 116.428 0 0 0-3.568-.055c-1.157 0-2.062.02-3.128.055-.253-.109-.301-.492-.046-.637l.742-.092c.533-.072.625-.199.625-.309 0-.129-.162-.564-.439-1.238l-.627-1.566c-.115-.291-.301-.326-1.112-.326h-2.596zm2.48-.965c.531 0 .671-.055.462-.527l-.601-1.475c-.324-.785-.626-1.529-.834-1.912-.232.4-.604 1.164-.951 2.004l-.579 1.363c-.232.492-.093.547.486.547h2.017zM195.531 42.583c0 .326.071 1.783.278 2.84-.091.219-.719.291-.879.127-.626-1.691-2.107-2.604-4.356-2.604-2.571 0-5.329 1.73-5.329 5.354 0 3.621 2.665 5.57 5.445 5.57 2.803 0 4.101-1.584 4.725-2.822.188-.146.742-.09.883.127-.164 1.348-.558 2.439-.883 2.857-1.25.275-2.896.674-4.701.674-2.271 0-4.588-.418-6.232-1.383-1.669-1-2.941-2.514-2.941-4.77 0-2.221 1.205-3.785 2.803-4.826 1.644-1.072 4.008-1.617 6.417-1.617 2.361.001 4.075.436 4.77.473M0 0v32.271h14.235c8.7 0 11.606-.125 14.102-.945 4.65-1.59 6.736-5.348 6.736-8.371 0-1.787-.771-6.116-7.9-7.728l-.499-.108.483-.166c3.608-1.225 5.853-3.877 5.853-6.913 0-2.488-1.624-4.812-4.464-6.379C25.973.235 22.816 0 16.712 0H0zm8.198 12.816V5.208h5.093c6.194 0 7.147 0 8.399.281 2.434.505 3.297 2.253 3.297 3.594 0 3.877-5.372 3.877-7.393 3.877H8.198v-.144zm0 14.093v-8.735h7.04c6.083 0 11.341 0 11.341 4.602 0 1.335-.62 3.091-3.583 3.911-1.317.367-4.854.367-6.758.367h-8.04v-.145zM43.915 7.263v25.008h6.303V21.707h1.473c4.483 0 4.989.571 8.888 5.042.057.058 4.816 5.575 4.816 5.575l7.515-.053-3.797-4.709c-3.233-3.988-4.523-4.943-7.271-6.145l-.521-.228.571-.12a15.208 15.208 0 0 0 3.626-.765c3.016-.97 4.888-3.3 4.888-6.083 0-2.224-1.371-5.21-5.249-6.325-.958-.243-2.571-.634-7.47-.634H43.915zm6.303 10.559v-6.57h5.318c4.486 0 5.293 0 6.561.572 1.147.525 1.777 1.489 1.777 2.712 0 .906-.34 2.51-2.629 3.106-1.157.322-3.949.322-5.983.322h-5.044v-.142zM88.826 7.261c-.071.151-12.417 24.602-12.624 25.01h6.81v-.008c0-.176 2.577-5.632 2.577-5.632l13.221-.081c.126.077 2.966 5.799 2.966 5.799s6.433-.072 6.873-.074L95.617 7.182s-6.617.079-6.791.079zm-1.221 15.096l4.565-9.672 4.762 9.877h-9.426l.099-.205zm34.633-14.806c-.077.15-12.423 24.595-12.626 25.007h6.813v-.004c0-.18 2.571-5.631 2.571-5.631l13.221-.087c.131.083 2.971 5.798 2.971 5.798s6.43-.068 6.862-.076c-.207-.404-13.026-25.086-13.026-25.086s-6.614.079-6.786.079zm-1.226 15.093l4.568-9.67 4.758 9.873h-9.425l.099-.203zm38.306-15.806c4.461 0 11.944.978 12.371 7.388-.831.024-6.317.206-6.324.311-.278-1.319-.8-3.78-6.14-3.78-2.619 0-5.682.697-5.682 2.654 0 1.777 2.295 2.492 7.467 3.429 4.904.904 11.625 2.135 11.625 8.228 0 3.21-2.728 5.623-5.26 6.505-2.065.744-4.646 1.123-7.69 1.123-2.964 0-11.925-.018-13.321-8.382.869-.062 6.079-.446 6.089-.548.334 1.355 1.215 4.944 7.276 4.944 4.556 0 6.6-1.831 6.6-3.642 0-2.271-2.473-2.731-8.51-3.86-3.344-.658-10.31-2.017-10.31-7.444.001-1.156.572-6.926 11.809-6.926zm42.594.425v3.989h-9.705v21.019h-6.304V11.252H176.2V7.263h25.712zm13.059-.002c-.081.151-12.423 24.602-12.628 25.01h6.812s-.004-.004-.004-.008c0-.176 2.577-5.632 2.577-5.632l13.221-.081c.129.077 2.969 5.799 2.969 5.799s6.426-.072 6.871-.074c-.216-.408-13.031-25.093-13.031-25.093s-6.621.079-6.787.079zm-1.229 15.096l4.572-9.672 4.758 9.877h-9.429l.099-.205zm27.74-15.094v25.008h12.259c2.054 0 7.505 0 10.801-2.793 4.116-3.452 4.116-7.978 4.116-9.461 0-5.214-1.903-7.542-2.71-8.532-3.485-4.222-8.925-4.222-12.525-4.222h-11.941zm6.301 20.879v-16.89h3.12c6.521 0 11.216 0 11.216 8.548 0 8.485-4.487 8.485-9.247 8.485h-5.089v-.143z"/></g></symbol><symbol viewBox="0 0 239.258 49.438" id="chivas_logo"><title>chivas_logo</title><path fill="#757676" d="M28.063 3.336L25.002.227a.768.768 0 0 0-1.091 0L20.85 3.336a2.185 2.185 0 0 1-1.618.681h-8.995a.574.574 0 0 0-.419.174L6.787 7.274a.763.763 0 0 0 0 1.076l1.744 1.773c1.41 1.434.608 2.898-1.271 3.609C1.42 15.944-1.647 22.149.908 29.48c.734 2.105 1.872 4.029 3.363 5.834.748.908.81 2.148-.02 2.979l-1.764 1.762a.77.77 0 0 0 0 1.086l2.891 2.896a.762.762 0 0 0 1.081.002l2.206-2.207c.682-.683 1.733-.883 2.518-.322 3.711 2.643 8.188 5.182 13.197 7.896l.075.032.078-.032c5.009-2.716 9.486-5.255 13.197-7.896.784-.561 1.835-.359 2.518.322l2.204 2.207a.764.764 0 0 0 1.083-.002l2.891-2.896a.771.771 0 0 0-.002-1.086l-1.762-1.762c-.831-.83-.768-2.07-.02-2.979 1.491-1.805 2.629-3.729 3.363-5.834 2.556-7.331-.514-13.536-6.352-15.748-1.88-.711-2.682-2.177-1.271-3.609l1.744-1.773a.767.767 0 0 0 0-1.076l-3.032-3.083a.576.576 0 0 0-.422-.174H29.68a2.182 2.182 0 0 1-1.617-.681zm-3.609 14.756l-2.837 2.836-9.995 9.997a.636.636 0 0 0 .028.922l3.284 2.881a.628.628 0 0 0 .862-.024l13.562-13.562c.79-.699 2.334-2.507 5.961-2.826 2.826-.247 5.867.185 7.392 2.889 1.01 2.095 1.089 4.26.237 6.422-1.598 4.164-5.036 7.26-8.646 9.707a122.59 122.59 0 0 1-9.855 6.006 109.426 109.426 0 0 1-11.027-6.865 27.946 27.946 0 0 1-4.856-4.42c-2.37-2.713-4.638-7.865-2.138-11.202 2.402-3.212 7.389-3.606 10.029-1.873l2.115 1.367a.618.618 0 0 0 .788-.083l3.182-3.186a.636.636 0 0 0-.002-.896l-4.961-4.947c-.731-.729-.214-1.979.817-1.979H30.52c.962 0 1.476 1.09.948 1.827l-7.014 7.009zm9.588 16.702l3.296-2.871a.635.635 0 0 0 .03-.924l-7.144-7.144a.633.633 0 0 0-.895 0l-3.079 3.086a.634.634 0 0 0 .002.894l6.93 6.93c.236.238.609.25.86.029zm148.619 2.6c-.199.082-.44.738-.59.972-.189.297-.557.584-.857.778-.851.558-1.827.203-1.827 1.449 0 .211.036.217.073.469l3.592.158h7.484c.284 0 .438-.066.625-.158.228-.418.155-.469.155-.936 0-.744-2.729-.299-2.729-2.105l1.639-5.074 10.828.005 1.727 4.989v.47c0 1.393-2.339.696-2.339 2.028v.078c0 .383.313.703.701.703l6.55.018 6.314-.1c.289-.428.271-.838.156-1.324l-.39-.155c-1.499 0-2.034-1.541-2.535-2.613L200.361 9.7c-.507-1.005-1.08-1.482-1.948-1.482h-2.965c-1.43 0-1.926 1.804-2.328 2.896l-10.459 26.28zm12.866-19.112h.156c1.358 3.84 2.741 7.537 4.078 11.381l-8.289.008 4.055-11.154v-.235zm-29.025-6.442a1.243 1.243 0 0 1-.062-.425v-.154c0-1.53 2.418-1.159 2.418-1.951 0-.562-.18-1.015-.856-1.015h-11.854c-1.367 0-1.11 1.242-.608 1.467.687.309 1.277.518 1.649 1.159.613 1.051 1.151 2.755 1.644 3.976l9.062 23.461c.609 1.228 1.329 2.861 2.523 2.861h2.062c1.479.006 1.565-.936 2.162-2.67 3.108-9.025 6.86-17.39 10.43-26.307.017.006.749-1.638 1.126-1.89.407-.274 1.844-.631 1.844-1.044v-.466c0-.218-.33-.547-.547-.547H177.28c-.109.31-.312.219-.312.779v.08c0 1.066 2.418.727 2.418 1.87v.235l-6.395 17.472-.156.002-6.333-16.893zm58.187-4.481c-2.384.201-5.181 1.708-6.489 3.023-1.457 1.466-2.867 3.693-2.867 6.573v.78c0 1.967 1.006 4.173 1.932 5.246.607.705 1.072 1.198 1.826 1.763.39.29 1.715 1.26 2.246 1.26.19.283 5.514 2.561 6.315 2.963 1.248.625 1.894.842 2.867 1.816.703.702 1.422 1.817 1.422 3.18v.311c0 2.591-2.185 4.525-4.756 4.525h-.856c-2.57 0-5.173-1.789-6.373-3.219-.838-.996-1.229-1.814-1.91-2.929-.457-.745-1.047-2.67-2.09-2.67-1.881 0-.957 2.521-.797 3.453.356 2.107.383 6.146 2.979 7.002 3.332 1.095 4.448 1.529 7.797 1.736 2.867-.039 5.424-.461 8.044-1.728 1.787-.862 3.537-2.719 4.325-4.567 1.153-2.709 1.308-5.726.204-8.488-2.598-6.514-10.506-5.594-14.739-10.064-.654-.691-1.106-1.623-1.106-2.945 0-1.184.357-1.893.857-2.575.934-1.273 2.514-1.403 3.82-1.403 6.063 0 7.255 7.725 8.812 7.725h.312c.509 0 .733-.401.938-.703 0-1.776-.188-4.261-.383-5.938-.152-1.302-.27-1.458-1.002-2.194-2.368-2.389-8.416-2.133-11.328-1.933zm-84.914 2.575c.802 0 1.638.545 1.901 1.138.416.932.436 1.396.436 2.686v22.467c0 1.019-.18 2.133-.732 2.623-.381.336-.572.402-1.068.568-.35.112-1.04.422-1.238.475v.857c0 .256.34.473.623.473h12.711c.775 0 1.014-.359 1.014-1.018 0-.8-3.119-.336-3.119-3.199V12.12c0-.568.506-1.447.949-1.781.559-.422 1.625-.487 1.625-1.183 0-.651-.342-.86-1.015-.86L139.62 8.14c-1.18.446-.774 1.646.155 1.794zm-27.682 26.602V26.005h12.555l-.077 10.377-.156 1.559c-.049.404-.511.992-1.203 1.369-.409.226-1.76.26-1.76.894v.469c0 .217.137.481.666.535h12.988c.773.014.852-.029.85-.224-.137-1.637-.57-1.133-1.897-1.688-.677-.285-1.3-1.49-1.3-2.367V12.743c0-3.179 3.041-2.578 3.041-3.355 0-.691-.114-1.092-.937-1.092h-12.397c-.418 0-1.014.25-1.014.625v.547c.356.129.168.252 1.016.465.377.097.75.217 1.046.438.479.358 1.059 1.21 1.059 1.982v10.453h-12.398v-10.22c0-3.075 3.118-2.295 3.118-3.432 0-.83-.456-.783-1.169-.859l-12.544-.004c-.389.106-.636.373-.636.551v.232c0 1.012 1.046.813 1.837 1.204.602.302 1.204 1.048 1.204 1.916l.077 23.483c0 1.242.114 2.074-.564 2.943-.589.756-1.549.819-2.396 1.268-.422.838-.527 1.33 1.091 1.33h12.242c.614 0 1.01-.344.857-.939-.058-.698-1.404-.709-1.965-1.075-.719-.469-1.234-1.805-1.234-2.668zm-44.99-12.951v2.654c.336 3.336 1.61 6.77 2.047 7.469.893 1.434 1.424 2.446 2.61 3.629.782.774 2.526 2.215 3.581 2.658 1.833 1.166 5.407 2.278 8.291 2.393h4.289c2.061.057 5.428-1.006 6.296-1.346 1.916-.752 3.04-1.181 3.372-3.959.34-1.978.715-3.336.858-4.838 0-.705-.395-1.091-1.092-1.091h-.079c-1.07 0-1.53 1.88-2.091 2.666-.729 1.023-1.162 1.796-2.059 2.695-1.621 1.631-3.695 2.596-6.922 2.596h-.547c-2.062 0-4.201-1.149-5.393-2.094-1.951-1.543-2.944-3.883-3.663-6.166-.529-1.68-.689-3.897-.689-5.628v-1.248c0-2.769.504-6.166 1.856-8.674.516-.956 1.037-1.766 1.762-2.528 1.333-1.407 3.367-2.528 6.05-2.528h.468c2.538 0 5.192 1.645 6.49 2.947a12.695 12.695 0 0 1 2.062 2.696c.44.756 1.078 2.705 1.977 2.705.642 0 1.049-.383 1.091-1.014.116-1.699-.301-3.912-.595-5.57-.314-1.773.089-1.936-1.369-2.762-2.482-1.41-6.112-1.738-8.875-2.201-5.07 0-9.146.694-13.366 3.791-.552.405-.956.824-1.429 1.3-.823.821-1.809 2.036-2.37 3.091-.707 1.329-1.123 2.202-1.656 3.805-.239.718-.788 2.714-.905 4.552z"/></symbol><symbol viewBox="0 0 207.48 31.394" id="gaggenau_logo"><title>gaggenau_logo</title><g fill-rule="evenodd" clip-rule="evenodd" fill="#757676"><path d="M19.888.865c3.684 1.377 7.897 4.668 8.908 8.85h-8.114c-2.23-2.312-5.837-3.061-8.761-1.752-2.883 1.158-4.902 4.255-4.938 7.472-.105 3.25 1.84 6.202 4.62 7.618 2.591 1.424 6.344.936 8.574-1.004.972-.9 1.621-1.984 2.16-3.064l-9.01-.072v-6.126h16.581c.396 4.63-.318 8.851-2.918 12.251-3.605 4.746-8.866 6.912-14.674 5.906C6.951 30.155 1.724 25.073.465 19.616-.514 15.542.066 10.913 2.086 7.55 4.754 3.103 9.108.337 13.946.003c2.124-.034 4.107.184 5.942.862M70.316.378c4.361 1.041 9.191 4.631 10.497 9.379h-8.119c-2.157-2.279-5.507-3.064-8.434-1.939-2.733.932-5.043 3.881-5.224 6.869-.327 3.105.976 5.791 3.389 7.664 2.415 1.934 6.488 1.977 9.01.219 1.337-.816 2.238-2.238 2.883-3.586l-8.974-.072v-6.126h15.247C81.454 7.14 86.363 1.572 91.802.419c3.531-.822 7.497-.303 10.529 1.342 2.918 1.607 6.127 4.596 6.885 7.998H101.1c-2.159-2.279-5.509-3.064-8.434-1.939-2.735.932-5.044 3.881-5.226 6.869-.325 3.105.976 5.791 3.391 7.664 2.31 1.824 6.159 2.018 8.611.484 1.478-.787 2.635-2.395 3.285-3.852l-8.979-.072v-6.126h16.542c.369 4.257-.174 8.332-2.448 11.583-3.676 5.449-9.768 7.918-16.04 6.385-4.646-.971-9.16-5.416-10.596-10.09-1.447 4.824-6.135 9.195-10.891 10.164-6.451 1.416-12.579-1.346-16.11-7.061-2.992-4.516-2.955-11.804-.037-16.364C57.669 1.65 63.865-1.045 70.316.378M129.256 8.071h-10.365v4.484l9.46.075v6.238h-9.46v4.412l10.365.037v7.364H111.34V.901h17.916zM188.232 17.827c.143 2.311 1.545 4.705 3.746 5.49 1.871.893 4.219.377 5.801-.822 3.068-2.43 2.131-6.76 2.309-10.421V.9h7.246l.146 15.767c-.115 5.234-2.055 10.314-6.707 12.926a12.592 12.592 0 0 1-5.334 1.76c-1.373.076-2.852.076-4.111-.264-4.217-.859-8.719-4.559-9.695-9.08-.43-2.09-.645-4.256-.689-6.501L180.908.9h7.281l.043 16.927zM40.907.338l-15.679 30.34h8.866l2.051-4.598h9.519c.726 1.455 1.402 3.027 2.055 4.562h8.829L40.907.338zm-2.599 20.85l2.777-5.98 2.526 5.98h-5.303zM169.02.338l-12.839 24.846v-.039L156.146.902h-7.676l-.037 14.157-17.882-13.895v29.515h7.502l.035-13.488.068.078 17.195 13.41 6.885-.035 2.016-4.562h9.592l2.02 4.598h8.791v-.076L169.02.338zm-2.598 20.85l2.809-5.98 2.523 5.939-5.332.041z"/></g></symbol><symbol viewBox="0 0 3109.635 1110.407" id="housing_denmark_logo"><title>housing_denmark_logo</title><path fill="#747071" d="M354.437 173.53h32.108v94.001h107.542V173.53h32.112v224.563h-32.112V295.858H386.545v102.235h-32.108z"/><g fill="#747071"><path d="M737.802 285.81c0-16.731 2.417-32.176 7.24-46.325 4.828-14.158 11.908-26.388 21.242-36.68 9.319-10.3 20.634-18.395 33.934-24.294 13.295-5.898 28.526-8.849 45.694-8.849 16.939 0 32.121 2.95 45.52 8.849 13.414 5.899 24.778 13.994 34.112 24.294 9.334 10.292 16.405 22.522 21.228 36.68 4.838 14.148 7.239 29.594 7.239 46.325 0 17.167-2.401 32.814-7.239 46.973-4.823 14.159-11.845 26.383-21.074 36.683-9.22 10.3-20.535 18.279-33.944 23.965-13.404 5.677-28.685 8.53-45.842 8.53-17.168 0-32.448-2.853-45.853-8.53-13.409-5.686-24.723-13.665-33.943-23.965-9.225-10.3-16.246-22.523-21.074-36.683-4.823-14.159-7.24-29.805-7.24-46.973m34.043 0c0 11.151 1.451 21.983 4.352 32.495 2.887 10.513 7.349 19.894 13.355 28.153 6.011 8.259 13.686 14.85 23.035 19.783 9.329 4.932 20.44 7.398 33.325 7.398 12.879 0 23.985-2.466 33.334-7.398 9.329-4.933 17.004-11.524 23.015-19.783 6.007-8.259 10.468-17.64 13.37-28.153 2.887-10.512 4.337-21.344 4.337-32.495 0-11.363-1.554-22.36-4.664-32.969-3.105-10.619-7.725-20-13.84-28.153-6.115-8.152-13.805-14.637-23.03-19.465-9.24-4.827-20.079-7.237-32.522-7.237-12.454 0-23.293 2.41-32.528 7.237-9.235 4.828-16.9 11.313-23.02 19.465-6.115 8.153-10.735 17.534-13.855 28.153-3.104 10.609-4.664 21.606-4.664 32.969M1338.625 305.124c0 31.75-7.556 55.813-22.669 72.224-15.112 16.422-36.607 24.613-64.47 24.613-27.868 0-49.358-8.191-64.47-24.613-15.113-16.411-22.664-40.474-22.664-72.224V173.53h32.105v127.396c0 10.726.906 20.542 2.734 29.439 1.822 8.907 4.882 16.576 9.17 22.998 4.298 6.431 9.977 11.441 17.063 14.971 7.066 3.53 15.761 5.304 26.061 5.304 10.299 0 18.979-1.774 26.065-5.304s12.766-8.54 17.054-14.971c4.298-6.422 7.353-14.091 9.18-22.998 1.812-8.897 2.733-18.714 2.733-29.439V173.53h32.107v131.594zM1662.448 207.307c-4.09-1.499-7.784-2.833-11.122-4.018a127.625 127.625 0 0 0-9.819-3.045 60.494 60.494 0 0 0-9.986-1.773c-3.432-.321-7.205-.483-11.271-.483-4.516 0-9.086.483-13.701 1.443-4.625.967-8.849 2.577-12.716 4.831-3.872 2.253-6.997 5.307-9.334 9.168-2.372 3.861-3.561 8.678-3.561 14.471 0 7.296 2.373 13.249 7.091 17.854 4.71 4.623 10.686 8.849 17.86 12.708 7.186 3.868 14.975 7.669 23.338 11.421 8.363 3.758 16.152 8.424 23.326 14.004 7.186 5.57 13.152 12.437 17.871 20.59 4.709 8.153 7.081 18.337 7.081 30.562 0 12.011-2.148 22.258-6.432 30.734-4.304 8.462-10.201 15.387-17.697 20.744-7.517 5.368-16.247 9.285-26.21 11.751-9.982 2.466-20.549 3.694-31.689 3.694a94.11 94.11 0 0 1-23.308-2.901 395.762 395.762 0 0 1-22.689-6.431l3.219-29.918c2.771 1.078 6.006 2.258 9.64 3.544a151.98 151.98 0 0 0 11.587 3.531 150.262 150.262 0 0 0 12.716 2.727c4.402.754 8.642 1.126 12.722 1.126 4.496 0 9.378-.691 14.651-2.093 5.249-1.403 10.037-3.53 14.311-6.432 4.303-2.901 7.883-6.644 10.785-11.267 2.9-4.603 4.352-10.232 4.352-16.876 0-8.365-2.372-15.174-7.081-20.435-4.718-5.252-10.685-9.865-17.87-13.83-7.175-3.965-14.964-7.775-23.327-11.42-8.363-3.646-16.152-7.989-23.337-13.038-7.185-5.039-13.142-11.316-17.871-18.82-4.709-7.505-7.071-17.051-7.071-28.632 0-9.869 1.877-18.61 5.62-26.227 3.764-7.61 8.859-13.989 15.292-19.139 6.446-5.15 14.067-9.067 22.871-11.75 8.77-2.677 18.228-4.019 28.309-4.019 7.521 0 15.454.648 23.818 1.929 8.367 1.292 16.414 3.33 24.148 6.118l-4.516 29.597zM1885.564 173.53h32.106v224.562h-32.106zM2138.8 173.53h43.684l99.182 180.8h.659v-180.8h32.105v224.563h-41.133l-101.761-184.669h-.624v184.669H2138.8zM2706.324 213.419c-7.948-5.14-16.583-9.001-25.917-11.571-9.334-2.573-21.297-3.861-35.881-3.861-12.883 0-24.633 2.2-35.25 6.593-10.611 4.4-19.732 10.564-27.342 18.494-7.621 7.949-13.47 17.272-17.555 27.998-4.09 10.721-6.12 22.302-6.12 34.739 0 13.298 2.203 25.31 6.606 36.035 4.4 10.726 10.462 19.942 18.201 27.669 7.734 7.718 16.762 13.666 27.061 17.854 10.3 4.178 21.248 6.271 32.835 6.271 5.58 0 10.2-.11 13.844-.324 3.66-.222 6.819-.532 9.509-.967 2.679-.416 5-.851 6.937-1.286 1.911-.421 3.848-.842 5.784-1.277v-68.114h-47.323V275.27h79.429V392c-6.219 2.142-14.796 4.333-25.724 6.576-10.958 2.254-25.223 3.385-42.797 3.385-17.796 0-33.993-2.727-48.576-8.191-14.606-5.479-27.03-13.298-37.33-23.5-10.299-10.185-18.28-22.516-23.956-37.003-5.688-14.469-8.542-30.614-8.542-48.413 0-17.38 2.951-33.153 8.849-47.303 5.902-14.159 14.173-26.274 24.789-36.356 10.61-10.083 23.162-17.853 37.642-23.332 14.459-5.464 30.299-8.201 47.437-8.201 8.151 0 15.355.271 21.564.802 6.22.54 11.8 1.345 16.732 2.418 4.932 1.072 9.605 2.306 14.002 3.699 4.373 1.393 8.948 2.844 13.657 4.343l-2.565 32.495zM350.956 722.574h66.271c16.732 0 32.336 2.53 46.809 7.561 14.482 5.046 27.135 12.281 37.969 21.708 10.829 9.453 19.356 20.991 25.58 34.598 6.215 13.617 9.324 29.11 9.324 46.495 0 18.861-2.783 35.449-8.368 49.7-5.576 14.266-13.513 26.175-23.803 35.716-10.284 9.527-22.835 16.732-37.646 21.55-14.797 4.833-31.417 7.244-49.865 7.244h-66.271V722.574zm32.108 196.243h33.81c27.699 0 48.961-6.868 63.772-20.589 14.823-13.726 22.221-35.068 22.221-64.015 0-13.073-2.095-24.768-6.279-35.058-4.189-10.299-9.985-19.024-17.392-26.228-7.399-7.185-16.103-12.647-26.088-16.39-9.986-3.754-20.769-5.64-32.365-5.64h-37.679v167.92zM725.205 722.574h125.846v28.323h-93.734v65.689h85.371V844.9h-85.371v73.918h93.734v28.328H725.205zM1040.63 722.574h43.693l99.187 180.819h.643V722.574h32.107v224.572h-41.128L1073.38 762.475h-.639v184.671h-32.111zM1412.176 722.574h53.096l70.462 186.593 69.19-186.593h53.091v224.572h-32.105V752.814h-.65l-74.397 194.332h-31.529l-74.413-194.332h-.638v194.332h-32.107zM1925.186 722.574h33.846l94.951 224.572h-35.008l-22.871-56.676h-110.135l-22.847 56.676h-33.85l95.914-224.572zm15.812 30.239l-44.729 111.263h89.507l-44.778-111.263zM2222.865 722.573h55.009c11.141 0 21.924.644 32.318 1.922 10.398 1.307 19.684 4.09 27.838 8.363 8.141 4.308 14.697 10.428 19.629 18.356 4.932 7.932 7.402 18.667 7.402 32.176 0 6.867-1.193 13.186-3.561 18.984-2.342 5.774-5.63 10.884-9.818 15.281-4.174 4.402-9.111 8.046-14.796 10.928-5.675 2.902-11.75 4.888-18.183 5.962v.634c4.933 1.936 8.898 4.451 11.924 7.576 3 3.105 6.338 8.096 9.982 14.95l42.535 89.441h-36.682l-34.498-77.845c-2.596-5.368-5.176-9.557-7.74-12.553-2.59-3-5.367-5.194-8.393-6.595-2.996-1.392-6.26-2.204-9.814-2.417a204.834 204.834 0 0 0-11.725-.322h-19.322v99.732h-32.106V722.573zm32.106 96.524h27.397c15.444 0 27.417-3.11 35.899-9.319 8.492-6.229 12.751-14.801 12.751-25.758 0-10.27-3.823-18.371-11.444-24.273-7.64-5.898-18.861-8.849-33.676-8.849h-30.928v68.199zM2561.384 722.574h32.106v98.78l95.988-98.78h42.817l-105.728 106.178 114.091 118.394h-46.971l-100.197-110.03v110.03h-32.106zM2781.469 130.706h-26.857v-10.894h66.105v10.894h-26.869v75.469h-12.379zM2833.195 119.812h20.405l27.075 71.767 26.595-71.767h20.412v86.364h-12.38v-74.735h-.271l-28.552 74.735h-12.086l-28.582-74.735h-.237v74.735h-12.379z"/></g><path fill="#747071" d="M3109.635 1110.407H0V0h3109.635v1110.407zm-3094.78-14.855H3094.78V544.543H14.855v551.009zm0-565.864H3094.78V14.855H14.855v514.833z"/></symbol><symbol viewBox="0 0 298.488 34.697" id="jacobsen_logo"><title>jacobsen_logo</title><g fill-rule="evenodd" clip-rule="evenodd" fill="#757676"><path d="M28.189 29.767s0-24.87.002-24.887c.018-.014 1.227-.697 1.227-.697V0H14.893v4.188l1.219.693v18.141c0 2.602 0 2.602-2.934 2.602H10.03V18.78L0 19.88v10.678c0 4.139 3.621 4.139 9.617 4.139h20.236v-3.379l-1.623-1.199c0-.002-.041-.077-.041-.352zm-.248-26.359l-.441.255c-.672.383-.789.573-.789 1.273v24.831c0 .742.172.945.756 1.25l.475.244v2.062H9.617c-6.6 0-8.141-.256-8.141-2.766V21.11l7.072-.77v4.666c0 2.139 0 2.139 3.643 2.139h.986c4.41 0 4.41 0 4.41-5.154V4.937c0-.707-.117-.896-.777-1.271l-.449-.256V1.382h11.58v2.026zM54.697 9.46c-.498-2.034-.643-2.034-1.123-2.034h-1.75c-.668 0-.668 0-1.16 2.067l-2.158 9.167h8.42l-2.229-9.2zm-2.338-.66h.598c.34 1.345 1.463 5.783 2.123 8.482h-4.734L52.359 8.8z"/><path d="M72.648 29.863l-.242-.174c-.459-.326-.766-.541-1.012-1.363-.062-.199-5.988-19.958-6.127-20.44-.385-1.408-1.051-4.313-1.24-5.888L63.783 0h-22.67v4.238l2.07.764-6.334 23.38c-.215.766-.498.963-1.115 1.396l-2.08 1.537v3.381h15.424v-2.98l-1.723-1.611.895-3.85h9.027l.92 3.834-1.996 1.627v2.98h18.402v-3.381l-1.955-1.452zm-.345 3.461H58.807v-2.061l.471-.246c.459-.24.57-.33.404-1.043l-1.217-5.096h-11.4l-1.189 5.096c-.166.711-.053.803.406 1.043l.471.244v2.062H35.951V31.27l.463-.248c.945-.516 1.496-1.014 1.857-2.307l6.34-23.404c.193-.745.098-1.18-.955-1.598l-.551-.22V1.382H62.46l.098.774c.205 1.659.893 4.655 1.289 6.091l6.127 20.454c.4 1.318.941 1.818 1.871 2.322l.457.25v2.051zM134.922 18.908v-3.13c.01-4.138.018-6.418-.883-7.349-.607-.628-1.83-.873-4.359-.873h-1.771c-2.537 0-3.76.243-4.365.871-.889.92-.881 3.296-.871 7.232v3.276c-.01 3.936-.018 6.312.918 7.283.637.656 1.889.928 4.318.928h1.771c2.434 0 3.686-.271 4.322-.93.939-.972.934-3.359.92-7.308m-2.027 6.394c-.145.137-.744.461-3.215.461h-1.771c-2.377 0-3.037-.291-3.215-.461-.576-.555-.562-3.512-.551-6.375l.006-1.603-.006-1.655c-.012-2.731-.025-5.826.492-6.326.131-.126.711-.416 3.273-.416h1.771c2.547 0 3.119.288 3.254.42.525.492.518 3.316.51 6.423v3.16c.014 2.995.024 5.825-.548 6.372"/><path d="M137.34 0h-19.119c-7.256 0-7.256 10.426-7.256 17.324 0 3.425.107 7.777.936 11.087 1.035 4.109 3.221 6.285 6.32 6.285h19.119c2.16 0 5.012-1.092 6.316-6.287.818-3.268.924-7.641.924-11.085 0-6.898 0-17.324-7.24-17.324m0 33.324h-19.119c-5.074 0-5.773-7.689-5.773-16 0-7.711.449-15.942 5.773-15.942h19.119c5.32 0 5.766 8.231 5.766 15.942-.001 8.31-.698 16-5.766 16M296.574 4.716a115.69 115.69 0 0 0 1.691-1.191l.223-.159V.002h-13.791v3.363l.225.159s1.422 1.016 1.682 1.186c.156.106.156.106.156.231l.025 2.35v8.988s-8.893-13.592-9.193-14.048V.002h-15.748v3.363l.225.159s1.414 1.008 1.676 1.188c.152.103.152.103.152.225v24.706c0 .186-.021.201-.188.328-.219.168-1.641 1.182-1.641 1.182l-.225.158v3.387h13.77V31.31l-1.879-1.338c-.166-.131-.186-.145-.186-.33V19.339l-.016-.97c2.256 3.46 8.879 13.652 9.166 14.093v2.234h15.789v-3.385l-.221-.16s-1.43-1.027-1.652-1.18c-.16-.127-.182-.141-.182-.33V4.937c.002-.125.002-.125.142-.221zm-.429-1.306l-.441.253c-.66.375-.775.566-.775 1.273v24.829c0 .758.158.947.742 1.25l.475.244v2.064h-11.98V32.08l-12.119-18.667v16.352c0 .76.16.949.748 1.248l.482.242v2.068h-9.133v-2.064l.475-.244c.596-.309.758-.498.758-1.25V4.937c0-.702-.119-.891-.787-1.273l-.445-.253V1.382h11.975v1.232l12.145 18.563V4.937c0-.7-.117-.889-.789-1.275l-.443-.251V1.382h9.115V3.41zM257.191 24.302l-.094.037c-3.223 1.326-5.15 1.422-7.943 1.422h-4.963c-.695 0-2.217 0-2.789-.1-.146-.664-.146-2.662-.146-3.672V20.29c2.006.088 5.439.25 5.439.25l.729-1.092c.627-.941 1.715-2.895 1.99-5.391l.273-2.499h-8.432V8.927h3.381c2.859 0 4.859.207 7.863 1.345l.086.031h2.088l-1.143-6.559c-.676-3.742-4.625-3.742-6.314-3.742h-20.5v3.365l.223.158s1.424 1.011 1.686 1.187c.152.103.152.103.152.225v24.706c0 .189-.021.203-.189.322-.227.168-1.871 1.346-1.871 1.346v3.387h24.996c1.684 0 5.637 0 6.318-3.74l1.113-6.654h-1.953zm-.617 6.416c-.434 2.404-2.643 2.605-4.861 2.605H229.01v-2.066l.479-.244c.6-.305.762-.496.762-1.248V4.937c0-.702-.119-.893-.791-1.271l-.449-.253v-2.03h18.207c2.221 0 4.422.199 4.855 2.584l.879 4.967s-1.252-.361-2.209-.595c-.893-.219-3.102-.784-6.105-.784h-4.857v5.38h8.279l-.111.987c-.252 2.327-1.326 4.132-1.777 4.799l-.271.402-6.119-.285v3.152c0 2.537.025 4.119.484 4.645.424.484 1.771.51 3.928.51h4.963c3.057 0 4.863-.453 6.088-.785l2.189-.598-.86 4.956zM214.143 12.353h-9.479c-.92 0-1.424-.033-1.693-.066-.035-.289-.059-.804-.059-1.711 0-.41 0-1.092.031-1.524.85-.124 2.816-.124 3.725-.124h2.311c3.275 0 5.93.41 7.889 1.221l.094.039h2.037l-1.127-6.435C217.211 0 213.252 0 211.562 0h-13.764c-1.748 0-4.672 0-6.139 2.562-.943 1.654-1.109 4.044-1.109 8.454 0 4.381.443 6.684 1.578 8.22 1.568 2.09 4.035 2.09 5.67 2.09 0 0 10.582.002 10.754.008.064.676.064 1.76.064 2.221 0 1.309-.08 1.818-.123 2-.432.137-1.789.209-4.045.209h-5.17c-2.836 0-5.123-.379-8.168-1.348l-.074-.023-1.848-.01 1.203 6.568c.635 3.746 4.609 3.746 6.307 3.746h17.443c2.266 0 4.791-.205 6.154-2.65.928-1.674 1.092-4.072 1.092-8.492.002-7.959-.655-11.202-7.244-11.202m0 20.971H196.7c-2.229 0-4.438-.201-4.855-2.605l-.871-4.955s.982.225 2.195.596c1.221.371 3.037.787 6.111.787h5.17c5.639 0 5.639-.07 5.639-3.592 0-3.609 0-3.609-2.152-3.609H197.8c-4.332 0-5.771-1.291-5.771-8.929 0-7.809.531-9.634 5.771-9.634h13.764c2.223 0 4.428.199 4.861 2.586l.865 4.963s-.996-.255-2.197-.595c-1.203-.338-3.055-.78-6.113-.78h-2.311c-2.627 0-4.266.027-4.838.399-.365.236-.398.943-.398 2.62 0 3.154 0 3.154 3.232 3.154h9.479c5.197 0 5.764 1.987 5.764 9.825-.002 7.917-.533 9.769-5.765 9.769M171.541 9.999c0-2.238 0-2.526-5.225-2.526h-2.199v5.812h2.199c2.605 0 4.441-.104 4.934-.614.299-.308.297-1.14.293-2.291l-.002-.381zm-1.471.667c0 .535-.012.855-.025 1.047-.41.087-1.389.193-3.729.193h-.716V8.842h.717c2.475 0 3.391.138 3.715.217.02.154.039.438.039.94v.667zM175.475 23.103l.004-.906c.012-1.246.021-2.146-.266-2.445-.486-.508-2.541-.549-4.975-.549h-6.121v2.789c0 5.289 0 5.289 3.182 5.289h2.939c2.314 0 4.43-.045 4.945-.578.316-.332.309-1.305.295-2.65l-.003-.95zm-1.465 1.645c0 .498-.018.803-.037.984-.439.086-1.457.166-3.734.166H167.3c-.859 0-1.309-.027-1.541-.055-.158-.766-.158-2.965-.158-3.852v-1.416h4.639c1.916 0 3.172.053 3.748.156.012.166.023.42.023.803l-.018 1.574.017 1.64z"/><path d="M180.064 12.122a9.216 9.216 0 0 0 .527-3.06c0-6.943-1.848-9.062-7.908-9.062h-21.832v3.365l.225.16s1.426 1.011 1.682 1.183c.15.104.15.104.15.229V29.64c0 .195-.02.209-.17.322-.23.168-1.887 1.348-1.887 1.348v3.387h26.877c6.893 0 7.229-4.189 7.229-11.594 0-6.156-.248-10.065-4.893-10.981m-2.335 21.202H153.15V31.26l.477-.244c.594-.307.768-.508.768-1.248V4.937c0-.696-.119-.887-.797-1.273l-.448-.254V1.382h19.533c4.83 0 6.436 1.11 6.436 7.681 0 1.395-.369 3.006-1.287 4.223 5.188.033 5.654 2.593 5.654 9.818 0 7.571-.47 10.22-5.757 10.22M105.896 24.328l-.078.027c-2.646.924-4.217 1.408-8.332 1.408H93.51c-2.549 0-3.01 0-3.01-4.396v-8.139c0-4.301.344-4.301 3.01-4.301h1.105c3.543 0 8.266 1.343 8.314 1.356l.068.02h1.643l-1.135-6.551c-.666-3.75-4.623-3.75-6.312-3.75H84.658c-7.246 0-7.246 10.424-7.246 17.322 0 3.441.105 7.81.92 11.085 1.027 4.111 3.213 6.287 6.326 6.287h15.398c1.686 0 5.635 0 6.311-3.746l1.111-6.623h-1.582zm-.988 6.394c-.436 2.4-2.633 2.602-4.852 2.602H84.658c-5.072 0-5.771-7.689-5.771-16 0-7.711.447-15.942 5.771-15.942h12.535c2.219 0 4.424.199 4.855 2.584l.875 4.965s-.748-.233-2.197-.591-3.031-.784-6.111-.784H93.51c-2.758 0-3.502.085-3.891.867-.576 1.161-.576 3.935-.576 8.973 0 4.907.031 7.739.611 8.889.393.775 1.115.861 3.795.861h4.037c3.107 0 5.131-.49 6.096-.787.844-.26 2.205-.596 2.205-.596l-.879 4.959z"/><path d="M17.225 2.887c.865.49 1.227.935 1.227 2.05V21.99c0 5.818-.129 6.043-5.271 6.043h-.988c-4.42 0-4.506-.359-4.506-3.023v-3.682l-5.35.58v8.65c0 1.43.213 1.877 7.281 1.877H27.08v-.627c-.854-.443-1.229-.932-1.229-2.041V4.937c0-1.115.375-1.56 1.229-2.05v-.616h-9.855v.616zM69.15 28.962L63.018 8.49c-.404-1.468-1.098-4.489-1.312-6.22h-17.74v.616c1.234.49 1.842 1.242 1.477 2.666L39.1 28.962c-.447 1.596-1.215 2.266-2.285 2.846v.627h9.08v-.627c-.857-.443-1.107-.977-.857-2.041l1.348-5.775H59.14l1.379 5.775c.25 1.064 0 1.598-.852 2.041v.627h11.777v-.627c-1.065-.58-1.805-1.25-2.294-2.846zm-21.738-9.416l2.402-10.215c.582-2.44.656-2.794 2.01-2.794h1.75c.982 0 1.346.217 1.959 2.707l2.492 10.302H47.412zm50.074 8.487h-3.973c-5.197 0-5.33.021-5.33-10.635 0-10.705.014-10.73 5.33-10.73h1.102c3.033 0 5.76.488 6.504.883h.697l-.613-3.421c-.25-1.374-1.232-1.858-4.01-1.858H84.66c-4.381 0-4.914 7.104-4.914 15.054 0 8 .658 15.111 4.914 15.111h15.396c2.783 0 3.756-.49 4.008-1.877l.615-3.416h-.693c-.742.404-3.48.889-6.5.889zM137.34 2.271h-19.119c-4.379 0-4.912 7.104-4.912 15.054 0 8 .658 15.111 4.912 15.111h19.119c4.252 0 4.906-7.111 4.906-15.111 0-7.95-.535-15.054-4.906-15.054zm-7.66 25.762h-1.771c-6.547 0-6.092-1.906-6.092-10.708 0-9.108-.455-10.657 6.092-10.657h1.771c6.516 0 6.098 1.549 6.098 10.657-.001 8.801.447 10.708-6.098 10.708zm48.049-13.859h-2.824c2.492-.535 3.355-3.065 3.355-5.111 0-6.219-1.32-6.792-5.574-6.792h-18.674v.616c.861.49 1.242.935 1.242 2.05v24.831c0 1.109-.381 1.598-1.242 2.041v.627h23.717c4.242 0 4.896-1.336 4.896-9.332 0-7.46-.535-8.93-4.896-8.93zm-14.471-7.588h3.059c5.557 0 6.088.477 6.088 3.413 0 3.545.242 4.175-6.088 4.175h-3.059V6.586zm6.98 21.583h-2.939c-3.832 0-4.041-.361-4.041-6.18v-3.676h6.98c6.627 0 6.098.428 6.098 4.79 0 4.57.529 5.066-6.098 5.066zm43.905-13.553h-9.479c-3.805 0-4.094-.395-4.094-4.039 0-3.781.1-3.91 6.098-3.91h2.311c2.996 0 5.781.488 6.51.883h.693l-.605-3.421c-.25-1.374-1.232-1.858-4.016-1.858h-13.762c-4.367 0-4.912.8-4.912 8.745 0 7.646 1.389 8.042 4.912 8.042h10.137c2.766 0 3.014.268 3.014 4.496 0 4.213-.578 4.479-6.5 4.479h-5.17c-2.996 0-5.777-.484-6.514-.891h-.688l.611 3.416c.242 1.387 1.209 1.877 4.01 1.877h17.443c4.379 0 4.904-.936 4.904-8.881.001-7.958-.655-8.938-4.903-8.938zm35.011 13.417h-4.963c-5.148 0-5.271-.129-5.271-6.043v-4.08l6.543.305c.654-.972 1.432-2.571 1.631-4.393h-8.174V6.667h5.719c2.945 0 5.766.488 6.5.883h.705l-.617-3.421c-.25-1.374-1.229-1.858-4.01-1.858h-17.346v.616c.871.49 1.238.935 1.238 2.05v24.831c0 1.109-.367 1.598-1.238 2.041v.627h21.842c2.787 0 3.766-.49 4.014-1.877l.6-3.416h-.68c-.743.405-3.489.89-6.493.89zm46.131-25.146v-.616h-7.395v.616c.855.49 1.234.935 1.234 2.05v19.141L275.258 2.887v-.616h-10.252v.616c.857.49 1.23.935 1.23 2.05v24.831c0 1.109-.373 1.598-1.23 2.041v.627h7.408v-.627c-.877-.443-1.23-.932-1.23-2.041V10.492l13.842 21.316v.627h10.26v-.627c-.859-.443-1.219-.932-1.219-2.041V4.937c-.001-1.116.359-1.56 1.218-2.05z"/></g></symbol><symbol viewBox="0 0 162.64 54.78" id="laprairie_logo"><title>laprairie_logo</title><g fill-rule="evenodd" clip-rule="evenodd" fill="#757676"><path d="M144.046 24.691c.104-1.993 1.395-5.497 5.867-5.497 3.431 0 4.968 1.891 5.621 5.497h-11.488zm-29.567 15.993h7.066V28.745c0-5.382 1.787-8.488 6.964-8.488.29 0 .599.028.91.081v-6.339c-.57-.095-1.119-.166-1.345-.166-3.431 0-5.484 1.329-6.778 4.582h-.103v-4.021h-6.715v26.29zM14.63 22.967c.257-2.795 1.993-3.804 4.679-3.804 2.489 0 4.34 1.165 4.34 2.931 0 2.234-3.172 2.109-7.501 2.733-3.863.551-8.131 2.65-9.081 6.777V0H0v40.407h7.066v-5.209c.898 4.137 4.805 6.391 9.081 6.391 3.132 0 5.796-1.049 8.038-3.398-.208.844-.01 1.695.495 2.494h7.159c-1.115-1.713-1.032-3.688-1.032-6.035V23.716c0-8.2-6.023-9.883-11.147-9.883-5.774 0-11.405 1.953-11.427 9.134h6.397zm9.257 7.432c0 .777.019 2.076-.62 3.168-.817 1.383-3.306 2.453-5.052 2.453-2.295 0-4.31-1.039-4.329-2.879-.021-1.881 1.984-2.951 4.132-3.564 2.181-.613 4.432-1.111 5.869-1.548v2.37zm43.194 10.285h7.066V28.745c0-5.268 1.703-8.345 6.622-8.481a11.292 11.292 0 0 0-.331 2.703h6.406c.245-2.795 1.981-3.804 4.667-3.804 2.492 0 4.341 1.165 4.341 2.931 0 2.234-3.174 2.109-7.501 2.733-4.372.624-9.276 3.243-9.276 8.523 0 5.301 4.398 8.238 9.276 8.238 3.129 0 5.807-1.049 8.036-3.398-.195.844 0 1.695.496 2.494h7.169c-1.124-1.713-1.043-3.688-1.043-6.035V23.716c0-8.2-6.021-9.883-11.145-9.883-3.918 0-7.779.904-9.856 3.74v-3.574c-.569-.095-1.116-.166-1.344-.166-3.429 0-5.477 1.329-6.777 4.582h-.092v-4.021H67.08v8.334c-1.314-5.247-4.848-9.404-10.933-9.404-3.139 0-5.888 1.258-7.551 4.001h-.104v-2.786h-6.798V54.78h7.149V37.901h.093c1.673 2.547 4.566 3.305 7.605 3.305 5.69 0 9.215-3.877 10.538-8.812v8.29zm-12.398-5.443c-4.515 0-6.085-3.492-6.085-7.69 0-4.209 1.466-8.356 6.033-8.356 4.462 0 5.899 4.251 5.899 8.356 0 3.594-1.291 7.69-5.847 7.69zm41.405-4.842c0 .777.021 2.076-.62 3.168-.804 1.383-3.305 2.453-5.052 2.453-2.283 0-4.306-1.039-4.327-2.879-.01-1.881 1.984-2.951 4.133-3.564 2.19-.613 4.442-1.111 5.866-1.548v2.37zm41.573-25.722h-7.066v5.861h7.066V4.677zm-7.066 35.73h7.066v-8.119c1.621 5.365 6.085 8.824 12.45 8.824 5.824 0 10.05-2.607 12.035-8.719h-6.211c-.454 1.611-2.735 3.355-5.576 3.355-3.928 0-6.118-2.047-6.313-6.557h18.555c.496-7.951-3.729-15.359-12.489-15.359-6.17 0-10.786 3.688-12.45 9.072v-8.367h-7.066v25.87zm-18.36-35.73h-7.064v5.861h7.064V4.677zm-7.064 35.73h7.064V14.54h-7.064v25.867z"/><path d="M73.743 50.362c.041 1.932 1.663 2.783 3.678 2.783 1.757 0 3.503-.707 3.503-2.451 0-.801-.559-1.674-1.716-1.984-.454-.113-2.406-.562-2.542-.605-.63-.145-1.043-.455-1.043-.996 0-.791.9-1.018 1.613-1.018 1.062 0 1.827.373 1.9 1.381h1.54c0-1.631-1.54-2.492-3.379-2.492-1.592 0-3.225.736-3.225 2.297.01.799.444 1.609 1.953 1.975 1.21.289 2.015.434 2.624.643.36.115.733.354.733.955 0 .592-.506 1.176-1.858 1.176-1.24 0-2.242-.467-2.242-1.662h-1.539zm9.982 2.596h1.59l1.797-5.963h.032l1.756 5.963h1.569l2.428-7.791h-1.561l-1.642 5.953h-.02l-1.735-5.953h-1.572l-1.775 5.953h-.03l-1.594-5.953h-1.56l2.317 7.791zm10.184 0h1.539v-7.791h-1.539v7.791zm2.592-6.62h2.79v6.619h1.539v-6.619h2.802v-1.172h-7.131v1.172zm7.895 0h4.73l-5.124 5.498v1.121h7.211v-1.182h-5.249l5.125-5.572v-1.037h-6.693v1.172zm8.027 6.62h6.427v-1.182h-4.887v-2.279h4.44v-1.111h-4.44v-2.047h4.804v-1.172h-6.344v7.791zm9.307-6.68h2.511c.794 0 1.528.197 1.528 1.193 0 .811-.537 1.238-1.507 1.238h-2.532v-2.431zm-1.538 6.68h1.538v-3.211h2.273c1.416 0 1.756.635 1.756 2.059 0 .383 0 .812.228 1.152h1.654c-.332-.32-.478-1.152-.478-2.055 0-1.229-.774-1.582-1.312-1.643v-.021c.29-.094 1.457-.479 1.457-1.963 0-1.32-.981-2.109-2.913-2.109h-4.204v7.791zm8.69 0h6.01v-1.182h-4.473v-6.609h-1.537v7.791zm10.217-6.454h.041l1.321 3.346h-2.697l1.335-3.346zm-4.165 6.454h1.592l.827-2.066h3.512l.827 2.066h1.653l-3.391-7.791h-1.642l-3.378 7.791zm9.183 0h1.469v-5.736h.04l4.009 5.736h1.62v-7.791h-1.464v5.736h-.021l-4.018-5.736h-1.635v7.791zm10.509-6.68h1.519c2.417 0 2.933 1.227 2.933 2.783 0 1.559-.516 2.775-2.933 2.775h-1.519v-5.558zm-1.539 6.68h3.654c2.709 0 3.887-1.744 3.887-3.896 0-2.15-1.178-3.895-3.887-3.895h-3.654v7.791z"/></g></symbol><symbol viewBox="0 0 162.305 72.21" id="latourdevence_logo"><title>latourdevence_logo</title><g fill-rule="evenodd" clip-rule="evenodd" fill="#757676"><path d="M12.269 11.656h.14l-.452 3.811H0v-.102l2.391-.37c.228-1.067.396-5.183.396-6.382V5.979c0-1.674-.108-4.199-.294-5.353L.021.258V.156h7.607v.102L5.132.626c-.165 1.283-.309 3.77-.309 5.742v4.499c0 1.045.084 2.503.165 3.378 1.174.393 2.289.539 3.547.539 1.343 0 2.351-.17 2.682-.283l1.052-2.845zm-9.197 3.407h.7V.537h-.7v14.526z"/><path d="M20.332 0l4.328 10.799a40.476 40.476 0 0 0 1.98 4.199l1.672.365v.104h-7.114v-.104l2.743-.365c-.207-1.392-.805-3.144-1.465-4.369h-6.308c-.454 1.202-1.237 3.188-1.423 4.369l2.638.365v.104h-5.626v-.104l1.853-.365c.433-.766.887-1.752 1.238-2.673L19.504 0h.828zm-3.897 9.925c.927.124 1.919.146 2.887.146.947 0 1.916-.022 2.885-.146-.533-1.629-1.814-4.78-2.969-6.988-.927 1.864-2.368 5.853-2.803 6.988zm2.967-7.863l5.216 13h.682L19.732 1.188l-.33.874zM18.314 48.89h8.285c6.478 0 8.271 4.373 8.271 7.627 0 4.479-3.034 7.691-7.342 7.691h-9.275v-.107l2.456-.363c.244-1.354.366-5.012.366-6.189v-2.725c0-1.691-.102-3.961-.267-5.441l-2.494-.381v-.112zm3.052 14.908h.699V49.294h-.699v14.504zm4.036-14.265c-1.252 0-1.646.154-2.039.256-.084.648-.244 2.914-.244 4.35v6.104c0 .793.058 1.951.142 2.746.845.426 2.103.596 3.067.596 2.889 0 6.15-2.225 6.15-7.045.001-4.992-3.423-7.007-7.076-7.007zm-.387-.385v.109c3.134 0 4.887.9 5.938 1.988 1.109 1.156 1.935 3.018 1.935 5.316 0 5.291-3.895 7.277-6.268 7.277h-.764v.113h.764c4.599 0 7.053-3.498 7.053-7.367 0-2.492-1.013-4.332-2.065-5.406-.655-.703-2.303-2.031-5.996-2.031h-.597zM36.004 48.892h10.719l.246 3.252h-.144l-.742-2.547a25.992 25.992 0 0 0-1.919-.068c-1.316 0-2.391.113-3.151.281a34.874 34.874 0 0 0-.207 3.879c0 .705.021 1.562.081 2.209.726.039 1.402.061 2.041.061.785 0 1.609-.021 2.352-.104l.452-1.803h.165v4.473h-.165l-.47-1.9a15.006 15.006 0 0 0-1.921-.107c-.801 0-1.527.021-2.433.125a22.33 22.33 0 0 0-.102 1.994c0 1.266.062 3.488.186 4.521.927.301 2.145.381 3.216.381.555 0 1.155 0 1.937-.08l.803-2.531h.144l-.203 3.281H36.025v-.107l2.391-.363c.186-1.072.351-5.035.351-6.402v-2.635c0-.932-.083-3.453-.293-5.338l-2.469-.361v-.111zm3.05 14.906h.701V49.296h-.701v14.502zM16.735 20.731c1.56 0 3.145-.124 4.705-.252l.305 4.979h-.186l-1.096-3.646a15.203 15.203 0 0 0-2.812-.257c-1.526 0-2.811.163-4.52.604a78.021 78.021 0 0 0-.366 6.814v5.153c0 2.696.18 6.54.458 8.571l3.726.566v.16H5.677v-.16l3.635-.566c.248-1.877.458-5.652.458-8.28v-5.628c0-2.219-.12-4.789-.33-6.629-1.898-.509-3.943-.569-4.375-.569a18.15 18.15 0 0 0-2.99.283l-1.101 3.68H.796l.303-5.074c.885.06 1.8.252 2.683.252h12.953zm-6.534 22.093h1.01V21.305h-1.01v21.519zM47.008 32.026c0 5.438-4.182 11.555-11.912 11.555-8.674 0-12.214-6.852-12.214-11.493 0-6.025 4.671-11.673 11.941-11.673 8.855.001 12.185 7.045 12.185 11.611zM34.213 20.857c-5.742.095-10.723 5.206-10.723 11.169 0 5.499 4.522 10.893 10.753 11.084v-.162c-6.108-.566-9.648-5.809-9.648-10.83 0-5.714 3.754-10.527 9.619-11.1v-.161zm-7.849 11.108c0 7.371 4.582 10.572 8.578 10.572 4.521 0 8.584-3.682 8.584-10.16 0-9.451-5.987-10.916-8.613-10.916-4.577 0-8.549 3.833-8.549 10.504zm9.346 11.146c5.009-.191 9.527-4.131 9.527-11.084 0-7.555-4.978-11.037-9.562-11.169v.162c3.484.287 8.464 2.627 8.464 11.1 0 4.927-2.198 10.263-8.429 10.83v.161zM51.961 28.219c0-2.283-.186-4.861-.372-6.817l-3.113-.509v-.163H59.35v.163l-3.912.509c-.275 1.93-.456 7.105-.456 8.59v6.393c0 4.821 3.173 6.188 6.412 6.188 3.635 0 6.387-1.713 6.387-6.697v-6.641c0-1.775-.154-5.934-.429-7.833l-3.882-.509v-.163h10.814v.163l-3.053.509c-.244 1.33-.428 5.006-.428 7.296v7.495c0 2.377-.554 3.967-1.647 5.108-1.499 1.553-3.425 2.346-7.884 2.346-5.314 0-9.311-1.678-9.311-6.783v-8.645zm.428 8.644c0 3.611 2.256 6.15 8.059 6.373v-.191c-4.094-.219-7.025-2.318-7.025-6.759V21.307h-1.034v15.556zm15.819-.864c0 3.938-1.56 6.536-5.808 7.045v.191c4.704-.285 6.846-2.57 6.846-7.207V21.307h-1.038v14.692zM78.928 29.396c0-2.386-.186-6.095-.428-7.965l-3.512-.54v-.161h9.801c6.139 0 7.361 4.794 7.361 6.347 0 3.076-2.289 5.013-4.426 5.301.824.347 1.31.757 1.68 1.149 1.523 1.621 4.395 6.788 5.985 8.442.853.887 1.647 1.299 2.476 1.299v.16h-2.598c-1.225 0-2.412-.256-3.449-1.359-1.318-1.344-4.277-6.451-5.592-7.844-.794-.821-1.283-1.116-2.717-1.116-.214 0-.946 0-1.469.095a17.77 17.77 0 0 0-.091 1.877v2.858c0 1.59.186 3.236.396 4.789l3.695.541v.16H74.988v-.16l3.449-.541c.305-2.316.491-7.332.491-8.538v-4.794zm1.466-8.06h-1.041v21.488h1.041V21.336zm1.556 8.311c0 .852.058 2.126.091 2.51.551.088 1.164.088 1.65.088 4 0 5.256-2.437 5.256-4.852 0-3.528-2.906-5.802-5.314-5.802-.275 0-.859 0-1.316.156-.181 1.142-.367 3.994-.367 5.36v2.54zm5.009 2.375c1.988-.505 3.541-2.375 3.541-4.852 0-3.938-3.327-6.087-6.352-6.087h-.733v.154c4.431.098 6.047 3.738 6.047 6.25 0 2.091-.946 3.614-2.597 4.479l.094.056zm-1.252 1.017c.672.458 1.158 1.09 1.617 1.753l3.209 4.889c1.341 2.062 2.413 3.174 4.243 3.209v-.164c-.946-.285-1.865-1.398-3.054-3.143l-2.598-3.872c-1.037-1.553-1.801-2.479-3.354-2.797l-.063.125zM56.458 49.619c.642 2.348 1.77 5.33 2.622 7.391l2.082 5.014c.61 1.496 1.4 3.078 2.044 4.408.827-1.521 1.863-3.898 2.562-5.645l2.328-5.74c.699-1.783 1.402-3.623 1.889-5.428l-4.52-.574v-.16h8.888v.131l-2.747.604c-.61.979-1.865 3.836-2.564 5.582L63.97 67.708c-.614 1.49-1.194 3.012-1.618 4.504h-.217a67.345 67.345 0 0 0-1.832-4.859l-4.73-11.482a62.595 62.595 0 0 0-2.995-6.287l-2.627-.537v-.16h10.415v.16l-3.908.572zm-3.055-.133l8.522 20.762.548-1.273-8.033-19.488h-1.037zM75.025 48.884H90.91l.362 4.828h-.21l-1.1-3.777a39.038 39.038 0 0 0-2.839-.098c-1.956 0-3.544.156-4.673.416-.128 1.012-.309 3.199-.309 5.74 0 1.047.028 2.318.123 3.268 1.068.066 2.075.098 3.021.098 1.16 0 2.384-.031 3.482-.162l.672-2.664h.245v6.635h-.245l-.701-2.82c-1.038-.135-1.896-.162-2.84-.162-1.189 0-2.261.027-3.604.188a33.245 33.245 0 0 0-.154 2.955c0 1.871.092 5.168.275 6.689 1.376.449 3.178.574 4.762.574.828 0 1.715 0 2.871-.125l1.191-3.746h.215l-.304 4.859H75.055v-.162l3.544-.539c.275-1.588.522-7.455.522-9.488v-3.9c0-1.373-.123-5.111-.431-7.908l-3.665-.535v-.164zm4.524 22.09h1.038V49.486h-1.038v21.488zM92.895 49.046v-.162h7.545c.977 1.398 2.655 3.523 4.029 5.076l6.689 7.746c1.28 1.459 2.471 2.857 3.969 4.314.095-1.111.186-2.732.186-3.742v-6.695c0-2.002-.124-4.219-.366-5.965l-3.635-.572v-.162h8.888v.162l-3.635.572c-.186 1.516-.273 3.838-.273 5.578v16.977h-.15a110.914 110.914 0 0 0-4.521-5.615l-9.135-10.564c-1.102-1.236-2.324-2.537-3.421-3.586a33.174 33.174 0 0 0-.245 3.932v9.807c0 1.592.15 3.332.305 4.697l3.785.574v.16h-9.07v-.16l3.664-.537c.245-1.557.338-5.619.338-6.855v-7.588c0-1.744-.062-3.682-.214-5.303l-1.987-1.516-2.746-.573zm4.458.411l18.021 20.816V68.82L98.607 49.457h-1.254zM141 71.638c-.369-.029-1.375-.123-2.078-.123-1.557 0-2.717.256-4.215.256-8.432 0-12.094-5.971-12.094-11.301 0-7.111 4.914-11.869 11.389-11.869.98 0 1.771.061 2.631.09.885.064 1.832.133 3.08.133 1.316 0 2.387 0 3.119-.133l.183 5.176h-.183l-1.012-3.424c-1.189-.285-3.754-.764-6.048-.764-6.322 0-9.649 4.158-9.649 10.312 0 6.604 4.734 10.6 10.082 10.6 2.26 0 4.824-.537 6.838-3.27l.152.068L141 71.638zm-4.553-.51c-8.397.193-12.094-5.49-12.094-10.85 0-5.082 3.086-11.107 11.058-11.107h1.036v-.223h-1.74c-7.18 0-11.486 5.174-11.486 11.484 0 5.752 4.459 11.521 13.227 10.889v-.193zM145.877 48.837h15.881l.367 4.83h-.215l-1.101-3.777a38.8 38.8 0 0 0-2.839-.098c-1.953 0-3.545.154-4.673.414a52.95 52.95 0 0 0-.306 5.74c0 1.049.033 2.318.121 3.27 1.069.066 2.079.098 3.025.098 1.16 0 2.379-.031 3.482-.162l.676-2.664h.241v6.633h-.241l-.709-2.82c-1.037-.135-1.889-.16-2.838-.16-1.191 0-2.259.025-3.605.188a32.844 32.844 0 0 0-.152 2.955c0 1.869.092 5.166.273 6.689 1.375.449 3.178.574 4.766.574.824 0 1.709 0 2.869-.125l1.194-3.746h.21L162 71.535h-16.092v-.164l3.541-.537c.271-1.588.521-7.457.521-9.488v-3.9c0-1.373-.123-5.111-.428-7.908l-3.666-.535v-.166zm4.518 22.092h1.038V49.441h-1.038v21.488z"/></g></symbol><symbol viewBox="0 0 229.43 46.343" id="mumm_logo"><title>mumm_logo</title><g fill-rule="evenodd" clip-rule="evenodd" fill="#757676"><path d="M17.423 24.533v1.004c2.855 0 2.78 3.756 2.78 3.756l.012 6.629c0 2.336-.278 4.188-.991 5.398-.711 1.221-2.392 2.531-5.239 2.531-2.844 0-4.973-1.896-6.32-5.016-1.358-3.113-1.588-9.156-1.588-10.623 0-1.459-.144-7.724 1.841-13.183 1.995-5.471 5.068-6.325 6.828-6.325 1.759 0 3.524.604 5.305 2.85 1.781 2.237 2.465 5.646 2.465 5.646l1.376-.186-.967-10.572-.543.018c-.255.316-1.114 1.793-4.358.641-2.967-1.02-5.733-.35-7.485.348-1.746.679-5.892 3.203-8.237 8.768C-.042 21.763 0 26.412 0 27.867c0 1.479.076 7.26 3.132 11.869 3.048 4.615 6.298 5.65 7.86 6.08 1.568.439 4.404.295 6.413-.365 2.009-.691 4.1-2.469 5.514-3.512 1.422-1.047 2.692-1.186 2.692-1.186v-4.832l-.028-6.629c0-3.516 2.424-3.756 2.424-3.756v-1.004H17.423M156.251 45.531h7.165v-.971s-3.688-.23-3.825-4.744l-.334-27.563 10.657 26.081s.101.217.383.217c.269 0 .396-.064.468-.217.069-.15 9.682-26.299 9.682-26.299l.178 27.745c0 4.799-3.454 4.781-3.454 4.781v.971h13.064v-.972s-3.701-.23-3.826-4.744l-.059-26.479c0-4.787 2.601-4.775 2.601-4.775v-.974h-8.913l-8.012 22.263-8.534-22.263h-9.253v.974s3.091-.012 3.091 4.775l.164 26.442c0 4.799-3.46 4.781-3.46 4.781v.971h2.217M195.448 45.531h7.167v-.971s-3.686-.23-3.817-4.744l-.34-27.563 10.663 26.081s.097.217.377.217c.269 0 .4-.064.464-.217.071-.15 9.686-26.299 9.686-26.299l.178 27.745c0 4.799-3.454 4.781-3.454 4.781v.971h13.059v-.972s-3.695-.23-3.822-4.744l-.059-26.479c0-4.787 2.597-4.775 2.597-4.775v-.974h-8.903l-8.012 22.263-8.546-22.263h-9.239v.974s3.089-.012 3.089 4.775l.152 26.442c0 4.799-3.452 4.781-3.452 4.781v.971h2.212M125.88 33.988l-.081-20.69c-.134-4.512-3.817-4.736-3.817-4.736v-.974h13.026v.974s-3.456-.012-3.456 4.775l.04 20.809s-.966 10.021 6.45 10.021c7.418 0 7.521-5.381 7.521-10.135l-.083-20.735c-.13-4.512-3.815-4.736-3.815-4.736v-.973h9.186v.974s-3.46-.012-3.46 4.775l.047 20.854c0 4.398-.018 12.092-10.598 12.092-10.57 0-10.96-7.586-10.96-12.295M79.808 45.531h8.6v-1.166s-4.424-.279-4.58-5.684l-.414-33.078 12.784 31.295s.138.25.46.25c.324 0 .469-.07.564-.256.077-.178 11.629-31.549 11.629-31.549l.214 33.286c0 5.756-4.155 5.736-4.155 5.736v1.166h15.669v-1.166s-4.426-.279-4.58-5.684L115.943 6.9c0-5.747 3.102-5.733 3.102-5.733V0h-10.683l-9.616 26.718L88.492 0H77.396v1.167s3.693-.014 3.693 5.733l.211 31.728c0 5.756-4.155 5.736-4.155 5.736v1.166h2.663M60.913 40.779s-.047 3.752 2.524 3.752v.994H52.595v-.994s2.593-.236 2.593-3.752l-.035-14.684h-9.211l.039 14.684s-.061 3.752 2.517 3.752v.994H37.664v-.994s2.585-.236 2.585-3.752l-.068-28.463s-.372-3.746-2.938-3.746V7.556h11.084V8.57s-2.421.232-2.421 3.746l.035 11.94h9.211l-.027-11.94s-.233-3.746-2.801-3.746V7.556h10.812V8.57s-2.287.232-2.287 3.746l.064 28.463M71.638 43.804a2.545 2.545 0 0 1-2.544 2.539 2.55 2.55 0 0 1-2.554-2.539 2.553 2.553 0 0 1 2.554-2.545c1.4 0 2.544 1.139 2.544 2.545"/></g></symbol><symbol viewBox="0 0 572.5 161.5" id="nord_logo"><title>nord_logo</title><style>.st0{fill:#5d5d5e}</style><path class="st0" d="M554.4 23.8C538 5.8 517.1 5 497.6 4.1H411v6.3h17.8l.4 21.2v100.8l-.4 17.9H427c-15-.2-17.4-6.7-17.8-26.3-.4-20.5-2.5-32.4-16.2-40.4-7.2-4.3-16-5.8-25-7.1 7.4-1.9 18.1-4.8 26.5-14 3.7-3.9 9.4-11.9 9.4-25.3 0-12.7-5.3-22.5-15.8-27.9-8.6-4.3-18.9-4.8-28.3-5.2h-85.9v6.3h17.2l.4 18.6v26.7C282.4 21.5 253-.7 214.1 0c-36.9.7-65.1 22.6-74 57.3V28.7l.4-18.4h17.4V4.1h-43.1v6.3h17l.4 18.1v65.6l-59.6-90H3l-3 6.3h18l.4 21.2v100.8l-.4 17.9H0v6.3h43.1v-6.3H26.7l-.4-17.9V17.5l101.1 144h12.7v-56.3c8.9 34.3 37.3 55.4 74.8 55.4 41.4 0 68.1-24.6 76.6-57.8v30.6l-.4 16.8h-17.2v6.3H351v-6.3h-17.2l-.4-17.3V80.1c15 0 20.5 0 26.5 7.6 5.5 6.9 5.9 13.8 6.8 31.7 1.6 32.2 9.8 37.4 34 37.1h103.5c21.7-1.7 51.3-4.1 63.6-44.9 3.5-11.9 4.7-23.3 4.7-33.5 0-20-4.7-40.1-18.1-54.3m-310 102.1c-1.4 5.4-6.4 27.2-28.7 27.2-22.2 0-26.9-20.7-28.3-27.2-1.8-8.4-2.7-17.1-3.1-25.5-.2-6.3-.4-12.5-.4-18.6 0-10.6.6-19.6 1-25.9 1-12.5 3.5-46.9 30.4-48.1 18.7-.9 24.8 14.9 26.5 19 4.5 11.7 5.9 33 5.9 52 0 3-.2 32.8-3.3 47.1m89-52.9V29l.4-18.1c17-.4 26.9-.4 26.9 30-.1 29.5-9.1 32.3-27.3 32.1m137.8 76.4l-.4-16.6V31.5l.4-20.3c29.7.2 49.4 4.5 53.5 46.2.8 9.7 1 17.7 1 23.3 0 61.4-18 69.4-54.5 68.7"/></symbol><symbol viewBox="0 0 173.477 42.555" id="quooker_logo"><title>quooker_logo</title><path fill="#757676" d="M33.309 32.458c3.023-3.443 4.866-7.992 4.866-12.992C38.175 8.715 29.629 0 19.088 0 8.545 0 0 8.715 0 19.466c0 10.757 8.545 19.476 19.088 19.476 3.988 0 7.689-1.248 10.753-3.383l6.164 6.996s3.362-3.053 3.418-3.146l-6.114-6.951zm-3.254-3.833l-7.383-8.203-3.412 3.14 7.315 8.145c-2.177 1.371-4.743 2.457-7.487 2.457-7.877 0-13.973-6.662-13.973-14.699 0-8.031 6.096-14.691 13.973-14.691s13.973 6.66 13.973 14.691c0 3.543-.949 6.639-3.006 9.16z"/><path fill-rule="evenodd" clip-rule="evenodd" fill="#757676" d="M60.631 33.516h-4.803v-2.697h-.074c-1.551 1.93-3.743 3.16-6.395 3.16-4.61 0-6.615-3.316-6.615-7.791V13.65h5.066v10.612c0 2.426.041 5.703 3.291 5.703 3.666 0 4.462-4.047 4.462-6.594V13.65h5.067v19.866z"/><path fill="#757676" d="M74.191 13.184c-5.746 0-10.17 3.976-10.17 10.534 0 5.713 3.742 10.262 10.17 10.262 6.469 0 10.213-4.549 10.213-10.262 0-6.559-4.425-10.534-10.213-10.534zm0 16.783c-3.855 0-4.876-3.582-4.876-6.865 0-2.97 1.588-5.905 4.876-5.905 3.328 0 4.918 2.854 4.918 5.905 0 3.318-1.023 6.865-4.918 6.865z"/><path fill-rule="evenodd" clip-rule="evenodd" fill="#757676" d="M97.722 13.184c5.789 0 10.208 3.976 10.208 10.534 0 5.713-3.74 10.262-10.208 10.262-6.427 0-10.171-4.549-10.171-10.262 0-6.559 4.422-10.534 10.171-10.534m0 16.783c3.893 0 4.916-3.547 4.916-6.865 0-3.051-1.589-5.905-4.916-5.905-3.288 0-4.876 2.935-4.876 5.905 0 3.283 1.017 6.865 4.876 6.865M111.58 4.585h5.066v17.009h.077l6.05-7.948h5.975l-7.26 8.876 8.166 10.996h-6.427l-6.504-9.646h-.077v9.646h-5.066zM146.955 32.399c-1.85 1.039-3.97 1.58-6.691 1.58-6.428 0-10.172-3.781-10.172-10.299 0-5.751 2.987-10.497 9.039-10.497 7.221 0 9.264 5.057 9.264 12.002h-13.459c.226 3.201 2.416 5.012 5.554 5.012 2.46 0 4.577-.924 6.466-2.002v4.204zm-3.4-10.763c-.15-2.509-1.286-4.669-4.124-4.669-2.834 0-4.27 2.004-4.495 4.669h8.619zM151.756 13.648h4.503v4.516h.073c.229-1.85 3.971-4.963 6.995-4.963 1.698 0 2.173.368 2.702.522v4.771c-.451-.271-1.627-.83-3.657-.806-5.427.063-5.548 5.683-5.548 8.537v7.291h-5.068V13.648z"/><use xlink:href="#quooker_logo-a" overflow="visible" fill-rule="evenodd" clip-rule="evenodd" fill="#757676"/><clipPath id="quooker_logo-b"><use xlink:href="#quooker_logo-a" overflow="visible"/></clipPath><g clip-path="url(#quooker_logo-b)"><defs><path id="quooker_logo-c" d="M-.973-1.164h175.889v44.87H-.973z"/></defs><use xlink:href="#quooker_logo-c" overflow="visible" fill="#757676"/><clipPath id="quooker_logo-d"><use xlink:href="#quooker_logo-c" overflow="visible"/></clipPath><path clip-path="url(#quooker_logo-d)" fill="#757676" d="M159.829 4.312h22.622v22.654h-22.622z"/></g></symbol><symbol viewBox="0 0 169.077 62.727" id="segafredo_logo"><title>segafredo_logo</title><g fill-rule="evenodd" clip-rule="evenodd" fill="#757676"><path d="M78.839 49.771l.721.369h5.311l8.53-23.245s1.449-4.69-3.446-4.864c-4.889-.172-6.52 0-6.52 0s-3.504.479-4.398 3.312c-.355 1.133-.725 2.077-.968 2.812L77.553 30h5.882l.454-1.521c.543-1.609.697-2.013 1.203-2.388.389-.288 2.873-.861 2.176 1.493-.702 2.354-1.399 4.021-1.399 4.021s-1.008 1.205-3.881 1.779c-2.467.494-6.214 1.32-7.146 4.02-.931 2.701-3.34 9.131-3.34 9.131s-.774 3.447 2.72 3.561c0 0 2.883.316 4.511-.287l.106-.038zm5.875-14.045s-2.916.098-3.847 2.064c-.933 1.967-2.937 7.174-2.937 7.174s-.45 1.148 1.015 1.266c1.076.086 1.696-.398 2.204-1.562s2.953-7.223 2.953-7.223l.612-1.719zM161.938 25.013c.653-.052 1.035.323.855.837l-6.717 19.434c-.18.516-.852.975-1.503 1.027-.65.053-1.033-.32-.857-.836l6.721-19.434c.177-.514.849-.973 1.501-1.028m-2.251-3.046l6.479-.047c2.06-.016 3.31 1.206 2.796 2.728l-7.646 22.623c-.516 1.523-2.6 2.77-4.659 2.785l-6.479.045c-2.059.016-3.309-1.205-2.795-2.727l7.646-22.622c.514-1.522 2.599-2.769 4.658-2.785M52.967 10.205c3.784-.025 9.317 0 9.317 0L65.896.026H48.92s-5.888-.388-9.972 1.854l-.841.499c-2.532 1.616-5.05 4.321-6.565 8.833-4.139 12.294-13.187 37.869-13.187 37.869s0 3.357-6.478 3.357H3.66L0 62.667l18.012.059s7.918.23 13.353-5.23c1.734-1.818 2.215-4.232 3.423-7.605 4.97-13.906 4.97-14.064 4.97-14.064l7.338-20.62s.525-1.6 1.292-2.896c-.001-.001.791-2.079 4.579-2.106M80.174 58.667l6.531-4.525.294-.995h-7.378l-.31 1.055h4.987l-6.654 4.604-.283.966h7.794l.327-1.105zM92.377 57.405H89.79l2.181-2.984.406 2.984zm.133.963l.188 1.404h1.928l-1.201-6.625h-2.071l-5.223 6.625h1.914l1.043-1.404h3.422zM98.189 53.147l-1.953 6.625h1.774l1.408-4.773 2.66 4.773h1.901l1.951-6.625h-1.772l-1.369 4.635-2.629-4.635zM106.567 59.772h6.974l.312-1.064h-5.141l.559-1.9h4.417l.317-1.075h-4.428l.452-1.541h5.044l.309-1.045h-6.86zM121.326 54.222h2.935l.318-1.075h-7.716l-.316 1.075h2.934l-1.636 5.55h1.843zM130.048 54.222h2.932l.317-1.075h-7.711l-.317 1.075h2.934l-1.636 5.55h1.843zM135.102 53.147l-1.954 6.625h1.845l1.953-6.625zM128.636 25.044l.367-.008c.684-.016 1.09.387.9.896l-3.294 8.929c-.188.51-.898.934-1.584.947l-.365.008c-.688.016-1.091-.387-.904-.896l3.296-8.928c.189-.509.896-.934 1.584-.948m-4.022 16.463h5.349l-1.936 6.086s-1.517 2.527-4.464 2.527h-6.703s-4.743.176-3.197-4.246c1.547-4.426 7.527-20.737 7.527-20.737s.159-1.13 1.617-2.1c.93-.497 1.82-.983 4.356-1.013 6.68-.073 5.242 0 5.242 0s4.463.069 3.229 3.976c-1.236 3.904-4.659 13.09-4.659 13.09h-8.463l-2.411 5.805s-.792 1.674 1.272 1.383c1.641-.232 1.645-.512 2.075-1.672.465-1.263 1.166-3.099 1.166-3.099M102.738 50.12h-6.366l5.655-15.594 4.155-10.303.904-2.198h5.583s.112.902 1.199.529c1.088-.373 2.717-.689 3.688-.518s3.146.689 2.368 3.044c-.774 2.355-1.592 4.536-1.592 4.536l-1.748 4.625-.681 1.482h-5.516s.218-.363.49-1.281c.274-.92 2.718-7.409 2.718-7.409s.118-.229.234-.66c.115-.431 0-.861-.934-1.033-.933-.173-1.493.678-1.493.678a1.99 1.99 0 0 0-.174.326c-.606 1.509-3.535 9.792-3.535 9.792l-3.921 10.824-1.034 3.16z"/><path d="M95.464 27.697c-.794 2.206-2.312 5.943-2.312 5.943l-3.415 9.475-2.37 7.004h6.21l4.428-12.115 4.621-12.232h1.864l1.596-3.744h-1.459s-.997.193-.488-.966c.621-1.418 1.806-5.326 1.806-5.326s.423-1.831 2.792-1.866c1.97-.026 2.592-.011 2.592-.011l1.287-3.653h-7.911s-3.205.174-4.604 4.395l-1.395 4.221-1.049 2.614s-.124.693-1.327.693h-.7l-.701 1.918-.497 1.623-.005.062h1.845l-.808 1.965zM145.415 25.041c.651-.053 1.035.32.857.834l-6.721 19.435c-.178.518-.85.977-1.5 1.029-.651.051-1.036-.322-.858-.838l6.721-19.433c.176-.516.851-.976 1.501-1.027zm12.715-14.844h-5.591s-.311-.229-.701.774c-.388 1.005-2.56 7.121-2.56 7.121l-1.592 4.249s-.233.576-.854.46c-.622-.113-2.913-.832-4.351-.632-1.435.203-3.184.259-4.153 2.012-.97 1.752-2.408 5.973-2.408 5.973l-2.678 7.55-2.795 7.84s-.699 2.729-.155 3.389c.541.66 1.785 2.037 5.123 1.205 3.339-.832.776-.201.776-.201s1.256-.65 1.477-.486c.352.258.543.717.543.717h5.747l.776-2.066 1.669-4.539 1.515-4.275 3.417-9.65 3.3-9.446 3.495-9.995zM70.026 25.041c.703-.054 1.116.32.925.836L63.7 45.312c-.191.516-.916.977-1.619 1.029s-1.117-.322-.926-.838l7.252-19.435c.19-.514.916-.976 1.619-1.027zm8.163-2.659H72.21l-.895.688s-1.124-.429-1.862-.573c-.794-.155-2.836-.059-3.61.145-.778.199-2.797.946-3.494 3.156-.699 2.212-5.67 16.083-5.67 16.083l-1.631 4.824s-1.085 3.443 4.038 3.502c5.125.057 2.797 0 2.797 0l-.778 2.584s-.154 1.377-3.649 1.377H52.72l-1.475 3.965h9.317s4.659.344 6.601-4.768l1.939-5.111 6.059-17.056 3.028-8.816zM52.609 47.567s-1.538 2.586-4.485 2.586h-6.707s-4.739.176-3.193-4.246c1.547-4.424 7.528-20.738 7.528-20.738s.158-1.128 1.614-2.1c.932-.496 1.822-.981 4.358-1.01 6.68-.077 5.243 0 5.243 0s4.458.067 3.224 3.974c-1.234 3.905-4.657 13.09-4.657 13.09h-8.461l-2.411 5.805s-.794 1.672 1.27 1.383c1.644-.232 1.647-.51 2.076-1.672.466-1.266 1.167-3.098 1.167-3.098l5.459.008-1.971 5.889-.054.129zm.585-22.525l.369-.008c.684-.014 1.088.387.9.898l-3.294 8.929c-.19.508-.897.932-1.584.947l-.368.008c-.687.014-1.09-.389-.902-.896l3.295-8.928c.192-.509.899-.934 1.584-.95z"/></g></symbol><symbol viewBox="0 0 213.153 34.118" id="shiseido_logo"><title>shiseido_logo</title><path fill-rule="evenodd" clip-rule="evenodd" fill="#757676" d="M.094 29.048c-.415-.414.649-.943 1.123-.592 7.452 6.252 13.13 3.305 17.271-1.414 3.076-5.838 5.087-12.264 8.458-18.456 3.965-7.194 11.417-9.2 14.256-8.434l6.447 1.71c.473.178-.178 1.3-.71 1.239-3.961-.765-10.173-4.245-15.26 4.189l-6.861 18.102c-3.135 5.721-7.512 8.08-11.357 7.961-3.193-.118-9.049.472-13.367-4.305zM42.741 4.871l.06 28.128 4.968-.059V19.79h16.386l-.061 12.266h4.673V5.402h-4.85l.058 11.617-16.206-.118V4.811l-5.028.06zm31.051.353v26.832l4.617.117V5.286l-4.617-.062zm7.396 26.181c-.237-.471.65-.705 1.063-.414 3.136 2.303 5.619 1.299 7.928-1.826 2.662-6.426 5.264-13.501 10.469-20.403 3.371-3.243 7.336-4.303 12.008-2.947.532.117 1.183.708 1.007 1.179-.179.472-.947.296-1.362.118-3.254-1.534-4.91-.708-6.801 1.71-2.367 3.126-5.56 10.908-9.82 19.578-1.42 2.83-4.14 4.895-8.398 5.719-2.545-.118-5.089-.352-6.094-2.714zm56.725-24.056V5.461h-22.181l-.059 27.301h22.475v-1.477h-18.217l.059-11.676h14.194l.062-1.767-14.314-.059.059-10.436h17.922zm13.84-1.356v26.77h17.686c8.696 0 14.729-20.639 0-26.77h-17.686zm4.616 1.945v23.053h11.297c7.748 0 6.743-23.053-.356-23.053h-10.941zm-14.257-2.182v26.829l4.614.117V5.815l-4.614-.059zm55.248-1.061c8.754 0 15.793 6.604 15.793 14.683 0 8.078-7.039 14.684-15.793 14.684-8.696 0-15.796-6.605-15.796-14.684 0-8.079 7.1-14.683 15.796-14.683zm.118 1.591c6.092 0 11.119 5.779 11.119 12.856 0 7.076-5.027 12.854-11.119 12.854-6.152 0-11.121-5.777-11.121-12.854 0-7.077 4.969-12.856 11.121-12.856z"/></symbol><symbol viewBox="0 0 125.2 122" id="songual_logo"><title>songual_logo</title><style>.st0{fill:#5c5b5b}</style><path class="st0" d="M38.6 101.9c0 4.8-.5 9.3-3.6 13.1-3.4 4.3-9 6.9-14.3 6.9-11.4 0-20.1-8.8-20.1-20.5C.6 90.8 9.9 82 21 82c6.7 0 11.9 3.4 16 8.4l-3.2 2.9c-3.1-4.2-7.5-7.2-12.8-7.2-8.7 0-16 7.1-16 15.4 0 9.2 6.8 16.4 15.7 16.4 4.6 0 9.5-2.7 11.9-6.5 1-1.8 1.4-2.8 1.6-5.4H22.5v-4h16.1zM47.2 106.4c0 4.1.3 5.7 1.3 7.4 1.5 2.4 4.9 4.2 8.2 4.2 3.3 0 6.6-1.7 8.1-4.2 1-1.7 1.3-3.3 1.3-7.4V82.7h4.3v24.8c0 4.2-.7 6.8-2.5 9.1-2.6 3.4-6.9 5.4-11.3 5.4-4.5 0-8.8-2.1-11.3-5.3-1.8-2.4-2.5-4.9-2.5-9.1V82.7h4.3v23.7zM81.5 110.4l-4.6 10.9h-4.7L90 80.9l17.3 40.4h-4.7L98 110.4H81.5zm8.3-19.5l-6.6 15.4h13l-6.4-15.4zM114.6 117.3h10.6v4h-14.9V82.7h4.3v34.6zM23 36.1c-2.3-3.7-4.3-5-7.6-5-4.5 0-7.9 2.9-7.9 6.8 0 9.6 21.2 7.5 21.2 21.7 0 8-6.3 14.2-14.4 14.2C6.9 73.8 1.7 69.5 0 62l5-1.4c1.2 5.5 4.4 8.4 9.2 8.4 5.4 0 9.4-3.9 9.4-9.3 0-10.4-21.2-8.3-21.2-21.6 0-6.9 5.5-11.8 13.3-11.8 4.8 0 8.7 2.5 11.4 7.2L23 36.1zM55.8 26.3c13 0 23.8 10.7 23.8 23.8 0 13-10.8 23.8-23.8 23.8-13.2 0-24-10.6-24-23.7.1-13.2 10.9-23.9 24-23.9zm0 42.7c10.3 0 18.7-8.5 18.7-18.9 0-10.5-8.3-19-18.7-19-10.4 0-18.7 8.5-18.7 19C37 60.5 45.5 69 55.8 69zM84.2 25.1l35.7 37.5V27h5.2v48L89.3 37.6V73h-5.2V25.1z"/><path class="st0" d="M69.5 50c0 7.6-6.1 13.7-13.7 13.7S42.1 57.6 42.1 50s6.1-13.7 13.7-13.7c7.5.1 13.7 6.2 13.7 13.7z"/><g><path class="st0" d="M18.1 8.7c0 2.1-.2 4.1-1.6 5.8-1.5 1.9-4 3.1-6.4 3.1-5.1 0-9-3.9-9-9C1.2 3.9 5.3 0 10.3 0c3 0 5.3 1.5 7.1 3.7L16 5c-1.4-1.8-3.3-3.2-5.7-3.2-3.9 0-7.1 3.1-7.1 6.8 0 4.1 3 7.2 7 7.2 2.1 0 4.3-1.2 5.3-2.9.5-.8.6-1.2.7-2.4H11V8.7h7.1zM50.8 0c4.9 0 8.9 4 8.9 8.8 0 4.8-4 8.8-8.9 8.8s-9-3.9-9-8.8c0-4.8 4.1-8.8 9-8.8zm0 15.8c3.9 0 7-3.1 7-7s-3.1-7-7-7-7 3.1-7 7c-.1 3.9 3.1 7 7 7zM87.9 15.5h4.7v1.8H86V.3h1.9v15.2zM119.1 2.1v5h5.7v1.8h-5.7v8.4h-1.9V.3h7.8v1.8h-5.9z"/></g></symbol><symbol viewBox="0 0 158.992 40.125" id="unoform_logo"><title>unoform_logo</title><g fill-rule="evenodd" clip-rule="evenodd" fill="#757676"><path d="M18.945 29.875h-5.301v-3.08h-.078c-1.266 2.344-3.48 3.658-6.406 3.658-4.154 0-7.16-2.467-7.16-8.057V8.012h5.537v13.563c0 3.371 1.896 4.029 3.598 4.029 1.822 0 4.271-1.07 4.271-4.977V8.012h5.539v21.863zM40.643 29.875h-5.538V16.603c0-1.602-.077-4.313-3.599-4.313-2.449 0-4.348 1.723-4.348 5.052v12.535h-5.539V8.012h5.298v3.206h.081c.75-1.314 2.334-3.78 6.328-3.78 4.113 0 7.316 2.506 7.316 7.317v15.12zM53.4 30.454c-5.654 0-10.757-3.619-10.757-11.506 0-7.891 5.103-11.51 10.757-11.51 5.658 0 10.758 3.619 10.758 11.51 0 7.886-5.099 11.506-10.758 11.506m0-18.169c-4.27 0-5.061 3.865-5.061 6.662 0 2.793.791 6.657 5.061 6.657 4.271 0 5.064-3.863 5.064-6.657.001-2.797-.792-6.662-5.064-6.662M79.895 29.875h-5.539V12.122h-3.045v-4.11h3.045V6.245C74.355 1.725 76.729 0 80.527 0c1.621 0 2.371.037 2.847.083v4.642h-1.543c-1.898 0-1.937.619-1.937 2.426v.861h3.598v4.11h-3.598v17.753zM93.882 30.454c-5.654 0-10.757-3.619-10.757-11.506 0-7.891 5.103-11.51 10.757-11.51 5.655 0 10.758 3.619 10.758 11.51 0 7.886-5.103 11.506-10.758 11.506m0-18.169c-4.271 0-5.063 3.865-5.063 6.662 0 2.793.793 6.657 5.063 6.657 4.273 0 5.064-3.863 5.064-6.657 0-2.797-.791-6.662-5.064-6.662M105.901 8.012h5.302v3.781h.08c1.143-2.219 2.412-4.357 5.773-4.357.356 0 .713.044 1.066.083v5.839c-.473-.083-1.066-.083-1.58-.083-4.315 0-5.104 2.793-5.104 5.218v11.385h-5.537V8.012zM149.908 29.875h-5.535V16.603c0-3.247-1.385-4.313-3.006-4.313-2.771 0-3.758 1.891-3.758 4.477v13.11h-5.539v-13.15c0-1.849 0-4.438-3.321-4.438-2.612 0-3.44 1.891-3.44 4.271v13.316h-5.539V8.012h5.303v3.206h.076c.713-1.438 2.254-3.78 5.974-3.78 3.046 0 4.428 1.151 5.853 3.496.713-1.07 2.254-3.496 5.615-3.496 4.118 0 7.318 2.506 7.318 7.317v15.12zM152.441 10.694c0-1.93 1.507-3.347 3.287-3.347 1.76 0 3.264 1.417 3.264 3.347 0 1.944-1.504 3.368-3.264 3.368-1.78 0-3.287-1.423-3.287-3.368zm3.288 2.806c1.459 0 2.613-1.192 2.613-2.806 0-1.593-1.154-2.791-2.613-2.791-1.481 0-2.633 1.198-2.633 2.791 0 1.614 1.151 2.806 2.633 2.806zm-.684-.861h-.568V8.765h1.421c.88 0 1.316.337 1.316 1.104 0 .692-.42.995-.965 1.065l1.06 1.705h-.633l-.984-1.677h-.646v1.677zm.674-2.177c.478 0 .906-.035.906-.633 0-.474-.42-.565-.812-.565h-.768v1.198h.674zM74.246 34.284h.835v.809h.015c.102-.443.636-.924 1.176-.924.211 0 .246.016.334.027v.889a2.334 2.334 0 0 0-.382-.039c-.601 0-1.093.5-1.093 1.432v1.992h-.885v-4.186zM80.357 37.538c0 .23.05.314.213.314h.094c.04 0 .077-.008.125-.014v.635a2.074 2.074 0 0 1-.562.109c-.366 0-.615-.133-.686-.512-.349.355-.918.512-1.395.512-.725 0-1.376-.406-1.376-1.223 0-1.045.8-1.215 1.546-1.303.649-.133 1.209-.045 1.209-.59 0-.488-.484-.568-.832-.568-.498 0-.85.211-.886.664h-.892c.063-1.078.936-1.393 1.832-1.393.785 0 1.609.332 1.609 1.213v2.156zm-.883-1.166c-.274.186-.696.18-1.093.252-.379.064-.727.209-.727.695 0 .422.506.533.819.533.388 0 1-.207 1-.795v-.685zM85.111 38.469h-.841v-.566h-.015c-.243.482-.741.68-1.246.68-1.27 0-1.886-.98-1.886-2.234 0-1.523.862-2.18 1.745-2.18.499 0 1.067.195 1.339.656h.014V32.69h.891v5.779zm-1.988-.617c.787 0 1.132-.75 1.132-1.48 0-.932-.429-1.473-1.112-1.473-.834 0-1.133.777-1.133 1.521 0 .721.344 1.432 1.113 1.432zM86.101 32.69h.888v.877h-.888v-.877zm0 1.594h.888v4.188h-.888v-4.188zM90.672 35.684c-.068-.52-.42-.785-.919-.785-.46 0-1.105.26-1.105 1.521 0 .695.296 1.432 1.065 1.432.521 0 .873-.346.959-.955h.887c-.162 1.094-.809 1.684-1.846 1.684-1.259 0-1.955-.932-1.955-2.16 0-1.262.663-2.252 1.988-2.252.934 0 1.729.49 1.812 1.516h-.886zM95.657 37.538c0 .23.048.314.211.314h.093c.039 0 .076-.008.125-.014v.635a2.06 2.06 0 0 1-.561.109c-.367 0-.613-.133-.686-.512-.35.355-.919.512-1.396.512-.726 0-1.378-.406-1.378-1.223 0-1.045.803-1.215 1.549-1.303.648-.133 1.207-.045 1.207-.59 0-.488-.481-.568-.831-.568-.499 0-.851.211-.888.664h-.891c.064-1.078.938-1.393 1.832-1.393.785 0 1.612.332 1.612 1.213v2.156zm-.887-1.166c-.272.186-.694.18-1.088.252-.383.064-.727.209-.727.695 0 .422.505.533.818.533.39 0 .996-.207.996-.795v-.685zM96.641 32.69h.883v5.781h-.883zM104.449 38.469h-.84v-.566h-.014c-.242.482-.74.68-1.246.68-1.268 0-1.885-.98-1.885-2.234 0-1.523.861-2.18 1.744-2.18.498 0 1.064.195 1.338.656h.018V32.69h.885v5.779zm-1.984-.617c.787 0 1.131-.75 1.131-1.48 0-.932-.432-1.473-1.113-1.473-.834 0-1.132.777-1.132 1.521 0 .721.342 1.432 1.114 1.432zM108.786 37.538c0 .23.05.314.214.314h.092c.043 0 .078-.008.127-.014v.635a2.09 2.09 0 0 1-.561.109c-.367 0-.615-.133-.688-.512-.35.355-.92.512-1.395.512-.724 0-1.378-.406-1.378-1.223 0-1.045.804-1.215 1.547-1.303.65-.133 1.208-.045 1.208-.59 0-.488-.482-.568-.832-.568-.497 0-.849.211-.884.664h-.894c.065-1.078.938-1.393 1.834-1.393.785 0 1.608.332 1.608 1.213v2.156zm-.884-1.166c-.275.186-.693.18-1.09.252-.382.064-.727.209-.727.695 0 .422.508.533.817.533.391 0 .999-.207.999-.795v-.685zM109.75 34.284h.84v.615l.018.018c.269-.463.723-.748 1.25-.748.88 0 1.429.48 1.429 1.426v2.875h-.892v-2.633c-.022-.654-.256-.938-.783-.938-.595 0-.979.484-.979 1.102v2.469h-.883v-4.186zM114.24 32.69h.888v.877h-.888v-.877zm0 1.594h.888v4.188h-.888v-4.188zM116.765 37.124c.053.545.436.729.912.729.343 0 .921-.07.896-.549-.024-.486-.671-.545-1.316-.697-.654-.145-1.294-.389-1.294-1.238 0-.914.949-1.199 1.682-1.199.825 0 1.582.352 1.683 1.289h-.928c-.084-.447-.42-.561-.816-.561-.259 0-.735.066-.735.43 0 .455.655.525 1.31.674.646.152 1.299.396 1.299 1.221 0 .996-.965 1.361-1.798 1.361-1.018 0-1.758-.471-1.782-1.459h.887zM120.138 32.69h.888v2.145h.014c.219-.379.678-.664 1.208-.664.879 0 1.425.477 1.425 1.426v2.875h-.885v-2.635c-.023-.652-.259-.938-.788-.938-.595 0-.974.484-.974 1.1v2.473h-.888V32.69zM130.564 38.469h-.838v-.566h-.018c-.243.482-.74.68-1.246.68-1.268 0-1.883-.98-1.883-2.234 0-1.523.863-2.18 1.745-2.18.499 0 1.065.195 1.334.656h.02V32.69h.886v5.779zm-1.982-.617c.785 0 1.127-.75 1.127-1.48 0-.932-.428-1.473-1.113-1.473-.833 0-1.13.777-1.13 1.521 0 .721.345 1.432 1.116 1.432zM132.226 36.614c0 .656.341 1.238 1.081 1.238.523 0 .83-.232.98-.697h.842c-.184.914-.95 1.426-1.822 1.426-1.271 0-1.971-.906-1.971-2.201 0-1.188.749-2.209 1.946-2.209 1.271 0 2.052 1.191 1.903 2.443h-2.959zm2.071-.606c-.039-.582-.402-1.109-1.015-1.109-.614 0-1.036.486-1.057 1.109h2.072zM136.532 37.124c.055.545.437.729.912.729.341 0 .917-.07.896-.549-.025-.486-.668-.545-1.317-.697-.651-.145-1.292-.389-1.292-1.238 0-.914.953-1.199 1.682-1.199.826 0 1.581.352 1.685 1.289h-.929c-.084-.447-.422-.561-.818-.561-.257 0-.731.066-.731.43 0 .455.655.525 1.308.674.646.152 1.303.396 1.303 1.221 0 .996-.965 1.361-1.802 1.361-1.021 0-1.758-.471-1.78-1.459h.883zM139.93 32.69h.885v.877h-.885v-.877zm0 1.594h.885v4.188h-.885v-4.188zM145.504 38.247c0 1.264-.697 1.879-1.977 1.879-.81 0-1.713-.324-1.797-1.301h.884c.11.525.517.613.965.613.719 0 1.037-.377 1.037-1.068v-.639h-.015a1.37 1.37 0 0 1-1.207.738c-1.277 0-1.809-1.004-1.809-2.205 0-1.123.677-2.096 1.822-2.096.508 0 .965.213 1.193.691h.015v-.576h.888v3.964zm-.888-1.965c0-.719-.313-1.385-1.081-1.385-.787 0-1.061.764-1.061 1.457 0 .682.318 1.385 1.061 1.385.787 0 1.081-.737 1.081-1.457zM146.4 34.284h.842v.615l.018.018c.271-.463.723-.748 1.254-.748.877 0 1.424.48 1.424 1.426v2.875h-.891v-2.633c-.021-.654-.256-.938-.783-.938-.594 0-.976.484-.976 1.102v2.469h-.888v-4.186z"/></g></symbol></svg>