<svg style="display: none"><symbol viewBox="0 0 17.2 13.6" id="burger"><title>burger</title> <style type="text/css"> .st0{fill:#7C562F;} </style> <g> <g> <path class="st0" d="M16.7,1H0.5C0.2,1,0,0.8,0,0.5S0.2,0,0.5,0h16.2c0.3,0,0.5,0.2,0.5,0.5S17,1,16.7,1z"/> </g> <g> <path class="st0" d="M16.7,7.3H0.5C0.2,7.3,0,7.1,0,6.8s0.2-0.5,0.5-0.5h16.2c0.3,0,0.5,0.2,0.5,0.5S17,7.3,16.7,7.3z"/> </g> <g> <path class="st0" d="M16.7,13.6H0.5c-0.3,0-0.5-0.2-0.5-0.5s0.2-0.5,0.5-0.5h16.2c0.3,0,0.5,0.2,0.5,0.5S17,13.6,16.7,13.6z"/> </g> </g> </symbol><symbol viewBox="0 0 237.707 26.062" id="gbb-logo"><title>gbb-logo</title><g fill="#835E48"><path d="M9.35 10.271l-.574.151-.619.136-.559.091-.619.075-.604.046-.544.015c-.886 0-1.677-.126-2.372-.377A4.986 4.986 0 0 1 1.616 9.32 4.81 4.81 0 0 1 .423 7.567C.141 6.903 0 6.138 0 5.271c0-.503.076-1.001.227-1.495a4.95 4.95 0 0 1 .649-1.359 5.37 5.37 0 0 1 1.057-1.133A6.068 6.068 0 0 1 3.867.302C4.582.101 5.417 0 6.375 0c.644 0 1.258.06 1.843.181.322.06.654.136.997.227.101.021.222.05.363.09.111.03.216.056.317.076.02.01.065.025.136.045.13.041.247.076.347.106a7.554 7.554 0 0 0-.196.981L10.06 2.9h-.468v-.483c0-.382-.015-.619-.045-.71-.03-.081-.111-.171-.242-.272a5.913 5.913 0 0 0-1.45-.574A6.31 6.31 0 0 0 6.178.634c-.735 0-1.39.101-1.963.302a3.739 3.739 0 0 0-1.421.892c-.393.382-.7.861-.921 1.435-.212.553-.317 1.193-.317 1.918 0 .393.03.74.091 1.042.04.292.125.609.257.951.231.595.563 1.118.996 1.571.443.464.957.811 1.541 1.043a5.115 5.115 0 0 0 1.949.362c.674 0 1.51-.176 2.507-.529v-.483l.045-1.193c0-.362-.055-.614-.166-.755a.799.799 0 0 0-.272-.15 1.287 1.287 0 0 0-.438-.061h-.091l-.498-.016V6.45l1.087.03 1.073.03.513-.015.514-.03h.392l.121-.015v.333l-.302.121c-.241.09-.408.231-.499.423-.09.191-.136.539-.136 1.042l.015.362v.333c0 .142.02.297.06.468l.061.408c-.201.08-.543.19-1.026.331zm4.803-7.099a4.812 4.812 0 0 1 1.163-1.707c.161-.141.292-.251.393-.333.141-.11.287-.206.438-.287.272-.171.604-.327.997-.468A7.181 7.181 0 0 1 19.516 0c.795 0 1.541.116 2.235.347a4.724 4.724 0 0 1 1.722.997 4.5 4.5 0 0 1 1.087 1.601c.252.604.378 1.289.378 2.055 0 1.067-.251 2.044-.755 2.93a5.314 5.314 0 0 1-2.084 2.084 5.738 5.738 0 0 1-2.931.771c-.826 0-1.566-.121-2.22-.362a4.894 4.894 0 0 1-1.692-1.087 5.029 5.029 0 0 1-1.118-1.708 7.81 7.81 0 0 1-.287-1.057 7.215 7.215 0 0 1-.091-1.178c0-.806.132-1.546.393-2.221zm1.405 3.821c.202.655.499 1.218.892 1.692.373.483.836.846 1.39 1.088a4.102 4.102 0 0 0 1.767.377c.786 0 1.46-.186 2.024-.559.574-.383 1.006-.932 1.299-1.647.302-.715.453-1.55.453-2.507 0-.725-.096-1.375-.287-1.949a4.568 4.568 0 0 0-.846-1.541 3.646 3.646 0 0 0-1.329-.982 4.239 4.239 0 0 0-1.692-.332c-.826 0-1.531.171-2.115.513a3.463 3.463 0 0 0-1.375 1.467c-.323.654-.483 1.379-.483 2.175 0 .806.1 1.541.302 2.205zm15.724 2.946l.634.015.831-.015.695-.016h.377a.859.859 0 0 1 .151-.015l.483-.06c.272-.031.563-.091.876-.182l.453-1.737h.483a80.415 80.415 0 0 0-.272 2.356l-.03.242-.438.061-.317.03-.468.015h-.21c-.091 0-.161.005-.211.015l-.725-.03-1.027-.015-2.326-.03-.514.015-.62.03-.559.03v-.333c.221-.121.383-.221.483-.302.061-.05.116-.146.167-.287a2.62 2.62 0 0 0 .045-.574V1.631c0-.272-.036-.474-.105-.604a.527.527 0 0 0-.257-.272 2.12 2.12 0 0 0-.453-.105l-.649-.015V.136l1.087.03 1.072.031 1.088-.031 1.072-.03v.499h-.272l-.317.03-.287.015a1.84 1.84 0 0 0-.287.09.42.42 0 0 0-.227.287 1.826 1.826 0 0 0-.076.574V8.82l.015.71v.272l-.015.106.65.031zm10.544-.786c0 .272.035.474.105.604.081.141.176.232.287.272.061.02.141.04.242.06l.348.015.483.03v.514l-1.072-.03-1.088-.03-1.072.03-1.088.03v-.514h.407a.501.501 0 0 1 .121-.015l.363-.045c.121-.01.252-.085.393-.226.121-.141.181-.373.181-.695V1.631c0-.272-.031-.474-.091-.604-.071-.141-.161-.231-.271-.272l-.076-.03-.121-.031a1.362 1.362 0 0 0-.257-.03l-.65-.015V.136l1.133.03.921.031 1.707-.015 1.541-.016 1.087-.03c.463 0 1.007.025 1.631.076l-.06.242c-.021.07-.04.136-.061.196-.03.131-.061.312-.09.544l-.061.589-.03.695h-.499c0-.523-.025-.977-.075-1.359a5.043 5.043 0 0 0-1.013-.242l-.619-.045L43.729.8c-.604 0-1.208.03-1.812.09-.061.584-.09 1.159-.09 1.723v2.295h.257c.111 0 .201.005.272.015l.77.046h.604c.101 0 .191-.005.272-.016h.272l.348-.03c.101-.01.211-.04.333-.09.13-.05.216-.126.257-.227l.06-.197.03-.272.015-.317.015-.257h.498l-.045 1.707.045 1.722h-.5l-.015-.257-.015-.316c0-.242-.056-.428-.166-.559-.091-.11-.277-.186-.559-.227L44 5.604l-.876-.016c-.584 0-1.017.021-1.299.061v3.504zm20.029-4.591l1.148.045 1.616-.03 1.616-.03-.09.483-.075.559-.499-.075-.438-.03-1.178-.06.061.347.015.302c0 .443-.095.866-.287 1.269-.181.382-.504.82-.967 1.313.957.686 1.848 1.028 2.674 1.028.13 0 .236-.02.317-.061.121-.04.297-.136.529-.287l.105.347c-.443.302-.876.634-1.299.997-.181.07-.383.105-.604.105-.393 0-.791-.096-1.193-.287-.453-.212-.937-.524-1.45-.937-.312.242-.64.469-.982.68a4.815 4.815 0 0 1-.468.211l-.514.182a3.9 3.9 0 0 1-1.133.151c-.413 0-.815-.07-1.208-.211a3.665 3.665 0 0 1-.513-.287 2.925 2.925 0 0 1-.469-.347 2.915 2.915 0 0 1-.634-.982 3.307 3.307 0 0 1-.227-1.224c0-.473.101-.901.302-1.284.211-.383.493-.725.846-1.027.11-.101.287-.242.528-.423l.408-.287c.07-.05.146-.101.227-.151l-.211-.589-.136-.484c0-.01-.005-.05-.016-.121l-.045-.272a4.464 4.464 0 0 1-.015-.438c0-.413.045-.73.136-.952.091-.231.262-.458.514-.68.353-.322.67-.584.952-.786.121-.08.262-.141.423-.181.129-.038.295-.058.497-.058.261 0 .493.055.694.166.212.111.368.267.469.469.11.241.166.488.166.74 0 .373-.075.72-.226 1.042a2.503 2.503 0 0 1-.287.483 4.047 4.047 0 0 1-.423.499c-.262.292-.67.634-1.224 1.027.272.513.564.992.876 1.435.362.503.71.937 1.042 1.299.322.363.7.745 1.132 1.148.252-.303.438-.604.559-.906.121-.292.181-.619.181-.982 0-.333-.03-.564-.091-.695-.06-.141-.181-.242-.362-.302l-.347-.061-.529-.015h-.317l-.045-.121.469-.664zm-2.16 2.733a19.397 19.397 0 0 1-1.42-2.19c-.463.333-.785.655-.966.967-.212.332-.317.71-.317 1.132 0 .494.111.942.332 1.344.211.393.519.721.921.982.403.252.841.378 1.314.378.554 0 1.168-.247 1.843-.74a14.168 14.168 0 0 1-1.707-1.873zm.362-4.471c.222-.342.333-.705.333-1.087 0-.272-.076-.503-.227-.695-.151-.191-.327-.287-.529-.287-.312 0-.554.116-.725.348-.171.232-.257.569-.257 1.012v.227c0 .091.005.156.016.196l.075.362c.061.323.156.66.287 1.012.463-.383.806-.745 1.027-1.088zm20.724 1.888c.151.021.322.051.514.091.131.03.343.101.635.211.01.01.03.021.061.03.443.192.775.463.997.816.211.343.317.766.317 1.269 0 .675-.176 1.278-.528 1.812a3.508 3.508 0 0 1-1.525 1.239c-.645.302-1.385.453-2.221.453l-.574-.015-.71-.03h-.574l-1.39.061v-.333c.242-.13.408-.231.499-.302a.665.665 0 0 0 .166-.256c.02-.161.03-.362.03-.604V1.631c0-.272-.03-.474-.09-.604a.517.517 0 0 0-.272-.272.264.264 0 0 1-.076-.03.95.95 0 0 1-.136-.031 1.3 1.3 0 0 0-.241-.03l-.649-.015V.136l.634.015 1.525.045.921-.015.952-.03h.453l.468-.015c.745 0 1.4.146 1.964.438s.846.786.846 1.48c0 .444-.081.821-.242 1.133-.161.322-.428.609-.8.861-.353.231-.826.448-1.42.65.21 0 .366.005.466.014zm-2.265-.195c.957 0 1.656-.162 2.1-.484.443-.322.665-.846.665-1.571 0-1.148-.74-1.722-2.221-1.722l-.544.03c-.041 0-.116.01-.227.03h-.045c-.05.01-.1.015-.151.015l-.151.03-.045.68-.03.785-.015 1.254v.921l.664.032zm.498 5.482c.574 0 1.062-.105 1.465-.317.413-.202.73-.503.952-.906.211-.393.317-.866.317-1.42 0-.885-.277-1.485-.831-1.797-.554-.312-1.294-.468-2.221-.468-.262 0-.543.01-.846.03v2.613l.015.876.015.876v.181l-.03.227c.434.07.821.105 1.164.105zM93.802.136l.891.03.922.031 1.798-.061V.65l-.589.015-.287.015a1.06 1.06 0 0 0-.272.091.408.408 0 0 0-.242.257c-.051.131-.076.333-.076.604v4.259l-.015.952-.015.559v.211c0 .03-.005.076-.015.136a.525.525 0 0 1-.015.151c-.011.1-.041.251-.091.453a2.205 2.205 0 0 1-.423.937c-.101.121-.181.217-.242.288a3.34 3.34 0 0 1-1.39.906c-.584.201-1.239.302-1.964.302-.967 0-1.792-.151-2.477-.453-.695-.312-1.153-.725-1.375-1.239l-.105-.273-.091-.272-.045-.317-.03-.377v-.65c0-.11-.005-.211-.015-.302V1.631c0-.272-.035-.474-.106-.604a.452.452 0 0 0-.287-.272l-.211-.061-.196-.03-.665-.015V.136l.453.015.634.015 1.073.031.453-.015.634-.016 1.073-.03V.65l-.317.015c-.332 0-.569.015-.709.045-.122.031-.232.116-.333.257-.071.131-.106.353-.106.665v4.546l.015.649.015.725.015.408c.01.051.04.146.09.287l.015.076c.061.211.146.388.257.528.231.323.574.564 1.027.726a4.454 4.454 0 0 0 1.601.272c.594 0 1.138-.091 1.631-.272.483-.161.84-.403 1.072-.726.171-.251.297-.599.378-1.042.081-.463.121-1.107.121-1.933V1.631c0-.242-.025-.438-.075-.589-.061-.141-.136-.231-.227-.272l-.241-.076a.946.946 0 0 0-.227-.03l-.694-.015V.136zm12.869 1.374l-.03.453-.031.71h-.513v-.589c0-.967-.746-1.45-2.235-1.45-.554 0-1.012.081-1.375.241a2.14 2.14 0 0 0-.906.725 1.819 1.819 0 0 0-.348 1.088c0 .645.176 1.103.529 1.375.342.282.831.468 1.465.559l1.873.211c.635.061 1.123.202 1.465.423.262.161.478.413.649.755.171.352.257.705.257 1.057 0 .543-.105 1.042-.317 1.495a3.644 3.644 0 0 1-.937 1.178 4.381 4.381 0 0 1-1.45.786 6.316 6.316 0 0 1-1.813.257c-.453 0-.785-.021-.997-.061h-.196l-.091-.015-.181-.045-.453-.106-.363-.121-.105-.03a1.899 1.899 0 0 1-.317-.121l-.196-.075a6.35 6.35 0 0 1 .045-.408c0-.07.005-.13.016-.181v-.044c.02-.171.03-.288.03-.348l.03-1.284h.514v.378c0 .393.015.649.045.77.03.131.111.257.242.377.272.212.599.378.982.499a4.4 4.4 0 0 0 1.299.181c.322 0 .599-.021.831-.061.242-.04.478-.11.71-.211.453-.202.796-.483 1.027-.846.242-.353.363-.761.363-1.224 0-.765-.247-1.253-.74-1.465-.483-.191-1.249-.342-2.296-.453-1.077-.111-1.873-.332-2.386-.665-.544-.353-.815-1.017-.815-1.994 0-.503.09-.957.271-1.359.182-.382.453-.719.816-1.012a3.955 3.955 0 0 1 1.269-.635c.182-.061.443-.115.785-.166.252-.04.554-.06.907-.06.916 0 1.863.211 2.84.634a3.544 3.544 0 0 0-.169.877zm7.81-.861l-.589.015-.287.015a1.964 1.964 0 0 0-.287.091.42.42 0 0 0-.227.287 1.826 1.826 0 0 0-.076.574v7.522c0 .272.035.474.105.604.081.141.176.232.288.272.06.02.141.04.241.06l.348.015.483.03v.514l-1.072-.03-1.088-.03-1.072.03-1.087.03v-.514h.407a.501.501 0 0 1 .121-.015l.363-.045c.121-.01.251-.085.393-.226.121-.141.181-.373.181-.695V1.631c0-.272-.03-.474-.091-.604a.512.512 0 0 0-.271-.272.264.264 0 0 1-.076-.03.918.918 0 0 1-.136-.031 1.308 1.308 0 0 0-.242-.03l-.649-.015V.136l1.087.03 1.072.031.453-.015.635-.016 1.072-.03v.513zm4.864 8.504c0 .272.035.474.105.604.08.141.176.232.287.272.061.02.141.04.241.06l.348.015.483.03v.514l-.876-.03-.922-.03-1.812.061v-.514h.407c.04-.01.08-.015.121-.015l.362-.045c.121-.01.251-.085.393-.226.121-.141.181-.373.181-.695V1.631c0-.272-.034-.474-.105-.604a.408.408 0 0 0-.257-.272 2.12 2.12 0 0 0-.453-.105L117.2.634V.136l1.147.03.967.031.271-.031.257-.03 1.466 1.873 1.253 1.571 2.522 3.097.604.755.771.937.589.619V1.631c0-.292-.02-.484-.06-.574a.584.584 0 0 0-.258-.287.44.44 0 0 0-.227-.076l-.105-.015a.66.66 0 0 0-.105-.015h-.121l-.317-.03h-.271V.136l.891.03.922.031 1.798-.061v.499h-.272l-.317.03-.287.015a2.003 2.003 0 0 0-.287.091c-.101.041-.181.136-.241.287-.05.151-.075.343-.075.574v5.981l.015.755.03.74.015.68.076 1.042a5.499 5.499 0 0 1-.726-.122 3.44 3.44 0 0 1-.543-.136 2.115 2.115 0 0 1-.348-.302l-.334-.392-.272-.348-.981-1.178-5.302-6.54v7.341zm15.543-1.707v1.027c0 .706.005 1.073.015 1.104v.166l.016.167c.061 0 .176.005.347.015.151.01.237.016.258.016.19.01.387.015.589.015l1.072.03c.584 0 1.012-.015 1.284-.045.292-.03.594-.106.906-.227l.241-.907.137-.71h.498a18.385 18.385 0 0 0-.196 2.478c-.574.061-1.113.091-1.616.091l-1.013-.015-1.404-.03-1.888-.03-1.526.045-.634.015v-.514h.407c.04-.01.08-.015.121-.015l.362-.045c.121-.01.252-.085.393-.226.121-.141.182-.373.182-.695V1.631c0-.272-.035-.474-.105-.604a.527.527 0 0 0-.257-.272 2.136 2.136 0 0 0-.453-.105l-.649-.015V.136l1.133.03.981.031 2.175-.031 2.16-.03.529.03 1.103.046a3.39 3.39 0 0 0-.061.242c-.03.091-.056.171-.075.241a3.789 3.789 0 0 0-.091.514l-.061.589-.015.68h-.499c0-.503-.025-.957-.075-1.359a4.222 4.222 0 0 0-.982-.242l-.619-.045-.785-.03c-.735 0-1.359.03-1.873.09l-.016 1.254-.015 1.269v1.496h.242c.11 0 .2.005.271.015l.785.046h.619c.091 0 .177-.005.257-.016h.272l.347-.03c.101-.01.212-.04.333-.09.131-.05.216-.126.256-.227l.061-.197.03-.272.03-.317v-.259h.499l-.046 1.707.046 1.722h-.499v-.257l-.03-.317c0-.242-.055-.428-.166-.559-.07-.1-.257-.176-.559-.227l-.574-.03-.876-.016c-.594 0-1.027.021-1.299.061v1.798zm14.863-5.936l-.03.453-.03.71h-.514v-.589c0-.967-.745-1.45-2.235-1.45-.554 0-1.013.081-1.375.241a2.147 2.147 0 0 0-.906.725 1.826 1.826 0 0 0-.348 1.088c0 .645.177 1.103.529 1.375.342.282.83.468 1.465.559l1.873.211c.635.061 1.123.202 1.465.423.263.161.479.413.65.755.171.352.256.705.256 1.057 0 .543-.105 1.042-.316 1.495a3.671 3.671 0 0 1-.937 1.178 4.381 4.381 0 0 1-1.45.786 6.319 6.319 0 0 1-1.812.257c-.453 0-.785-.021-.997-.061h-.196l-.091-.015-.182-.045-.453-.106-.362-.121-.105-.03a1.899 1.899 0 0 1-.317-.121l-.196-.075c.01-.131.024-.267.045-.408 0-.07.005-.13.016-.181v-.044c.021-.171.03-.288.03-.348l.03-1.284h.513v.378c0 .393.016.649.046.77.03.131.11.257.242.377.271.212.599.378.981.499.393.121.825.181 1.299.181.322 0 .599-.021.831-.061.241-.04.478-.11.71-.211.453-.202.795-.483 1.026-.846.242-.353.363-.761.363-1.224 0-.765-.247-1.253-.74-1.465-.483-.191-1.249-.342-2.296-.453-1.078-.111-1.873-.332-2.387-.665-.544-.353-.815-1.017-.815-1.994 0-.503.09-.957.271-1.359.182-.382.453-.719.815-1.012a3.96 3.96 0 0 1 1.27-.635c.181-.061.443-.115.785-.166.251-.04.554-.06.906-.06.916 0 1.863.211 2.84.634a3.53 3.53 0 0 0-.167.877zm9.999 0l-.03.453-.029.71h-.514v-.589c0-.967-.746-1.45-2.236-1.45-.554 0-1.012.081-1.374.241a2.14 2.14 0 0 0-.906.725 1.819 1.819 0 0 0-.348 1.088c0 .645.176 1.103.528 1.375.343.282.831.468 1.466.559l1.873.211c.634.061 1.123.202 1.465.423.262.161.479.413.649.755.172.352.257.705.257 1.057 0 .543-.105 1.042-.316 1.495a3.661 3.661 0 0 1-.938 1.178 4.381 4.381 0 0 1-1.45.786 6.309 6.309 0 0 1-1.812.257c-.453 0-.785-.021-.997-.061h-.196l-.09-.015-.182-.045-.453-.106-.362-.121-.105-.03a1.866 1.866 0 0 1-.317-.121l-.196-.075c.01-.131.024-.267.045-.408 0-.07.005-.13.016-.181v-.044c.02-.171.029-.288.029-.348l.03-1.284h.514v.378c0 .393.016.649.046.77.03.131.11.257.241.377.271.212.6.378.981.499.394.121.826.181 1.3.181.321 0 .599-.021.831-.061.241-.04.478-.11.71-.211.453-.202.795-.483 1.026-.846.242-.353.362-.761.362-1.224 0-.765-.246-1.253-.739-1.465-.484-.191-1.249-.342-2.297-.453-1.077-.111-1.872-.332-2.386-.665-.544-.353-.816-1.017-.816-1.994 0-.503.091-.957.272-1.359.181-.382.453-.719.815-1.012a3.965 3.965 0 0 1 1.269-.635 4.9 4.9 0 0 1 .786-.166c.251-.04.553-.06.906-.06.916 0 1.862.211 2.839.634a3.53 3.53 0 0 0-.167.877zm15.075 3.202c.151.021.322.051.514.091.131.03.342.101.635.211a.14.14 0 0 0 .061.03c.442.192.775.463.996.816.212.343.317.766.317 1.269 0 .675-.176 1.278-.528 1.812a3.51 3.51 0 0 1-1.526 1.239c-.644.302-1.385.453-2.22.453l-.574-.015-.71-.03h-.574l-1.39.061v-.333c.242-.13.408-.231.498-.302a.654.654 0 0 0 .167-.256c.02-.161.03-.362.03-.604V1.631c0-.272-.03-.474-.091-.604a.512.512 0 0 0-.271-.272.254.254 0 0 1-.076-.03.95.95 0 0 1-.136-.031 1.318 1.318 0 0 0-.242-.03l-.649-.015V.136l.635.015 1.525.045.922-.015.951-.03h.453l.469-.015c.745 0 1.399.146 1.964.438.563.292.846.786.846 1.48 0 .444-.081.821-.242 1.133-.161.322-.428.609-.8.861-.353.231-.826.448-1.42.65.209 0 .366.005.466.014zm-2.265-.195c.956 0 1.656-.162 2.1-.484s.665-.846.665-1.571c0-1.148-.74-1.722-2.221-1.722l-.544.03c-.04 0-.116.01-.227.03h-.046a.77.77 0 0 1-.15.015l-.151.03-.045.68-.03.785-.016 1.254v.921l.665.032zm.498 5.482c.574 0 1.062-.105 1.466-.317.412-.202.729-.503.951-.906.212-.393.317-.866.317-1.42 0-.885-.277-1.485-.831-1.797s-1.294-.468-2.221-.468c-.262 0-.543.01-.846.03v2.613l.016.876.015.876v.181l-.03.227c.432.07.821.105 1.163.105zM187.846.136l.891.03.922.031 1.797-.061V.65l-.589.015-.286.015a1.06 1.06 0 0 0-.272.091.407.407 0 0 0-.241.257c-.051.131-.076.333-.076.604v4.259l-.015.952-.016.559v.211c0 .03-.005.076-.015.136a.516.516 0 0 1-.016.151c-.01.101-.04.252-.091.453-.04.222-.12.443-.241.665-.04.071-.101.162-.181.272l-.242.288a3.333 3.333 0 0 1-1.39.906c-.584.201-1.238.302-1.964.302-.967 0-1.793-.151-2.477-.453-.695-.312-1.154-.725-1.375-1.239l-.105-.272-.091-.272-.045-.317-.031-.377v-.65c0-.11-.005-.211-.015-.302V1.631c0-.272-.035-.474-.105-.604a.454.454 0 0 0-.287-.272l-.212-.061-.196-.03-.664-.015V.136l.453.015.634.015 1.073.031.453-.015.634-.016 1.073-.03V.65l-.317.015c-.332 0-.569.015-.711.045-.12.031-.231.116-.331.257-.071.131-.106.353-.106.665v4.546l.016.649.015.725.015.408c.011.051.041.146.091.287l.016.076c.061.211.146.388.257.528.231.323.573.564 1.026.726a4.46 4.46 0 0 0 1.602.272c.594 0 1.138-.091 1.632-.272.483-.161.84-.403 1.072-.726.171-.251.297-.599.377-1.042.081-.463.121-1.107.121-1.933V1.631c0-.242-.024-.438-.075-.589-.061-.141-.136-.231-.227-.272l-.241-.076a.947.947 0 0 0-.228-.03l-.694-.015V.136zm8.428 9.999h.378a.56.56 0 0 1 .136-.015c.09 0 .166-.005.227-.015.03-.01.07-.02.12-.03a.404.404 0 0 0 .122-.015c.09-.02.196-.09.316-.211.111-.141.166-.373.166-.695V2.401l-.029-.891-.016-.695h-.74c-.121 0-.236.005-.348.015h-.771a4.62 4.62 0 0 1-.407.015c-.182 0-.303.005-.363.015a.472.472 0 0 0-.181.075c-.03.021-.065.086-.105.196l-.016.015-.061.393-.06.499-.046.514h-.468l.015-.876c0-.332-.03-.846-.091-1.541l.393.015 1.813.03.921.015h2.357l1.088-.015 1.797-.03.393-.015v.408a.846.846 0 0 0-.015.166.846.846 0 0 1-.015.166c0 .111-.011.257-.031.438-.01.071-.015.131-.015.181a.691.691 0 0 1-.015.181V2.1l.015.453h-.453l-.061-.846a.848.848 0 0 0-.045-.317.23.23 0 0 0-.016-.076c0-.04-.005-.065-.015-.076l-.03-.045-.045-.091a.37.37 0 0 0-.363-.242l-.739-.015-1.783-.03-.03 1.012-.03 1.269v6.057c0 .353.056.599.166.74.111.111.293.181.544.211l.756.03v.514l-1.072-.03-1.088-.03-1.072.03-1.088.03v-.513zm12.779-.196l.635.015.83-.015.695-.016h.378a.859.859 0 0 1 .151-.015l.482-.06c.272-.031.564-.091.877-.182l.453-1.737h.482a82.15 82.15 0 0 0-.271 2.356l-.03.242-.438.061-.317.03-.468.015h-.212c-.091 0-.161.005-.212.015l-.725-.03-1.027-.015-2.326-.03-.514.015-.619.03-.559.03v-.333c.221-.121.383-.221.482-.302.062-.05.116-.146.167-.287a2.62 2.62 0 0 0 .045-.574V1.631c0-.272-.035-.474-.105-.604a.527.527 0 0 0-.257-.272 2.12 2.12 0 0 0-.453-.105l-.649-.015V.136l1.087.03 1.073.031 1.087-.031 1.072-.03v.499h-.271l-.317.03-.286.015a1.974 1.974 0 0 0-.288.091.422.422 0 0 0-.226.287 1.826 1.826 0 0 0-.076.574v7.189l.016.71v.272l-.016.106.65.03zm10.724-2.493v1.027c0 .706.005 1.073.016 1.104v.166l.015.167c.061 0 .177.005.348.015.151.01.236.016.257.016.191.01.388.015.589.015l1.072.03c.584 0 1.013-.015 1.284-.045.292-.03.595-.106.906-.227l.242-.907.136-.71h.498a18.385 18.385 0 0 0-.196 2.478c-.573.061-1.112.091-1.616.091l-1.012-.015-1.405-.03-1.888-.03-1.525.045-.635.015v-.514h.408c.04-.01.08-.015.121-.015l.362-.045c.12-.01.251-.085.393-.226.12-.141.182-.373.182-.695V1.631c0-.272-.036-.474-.106-.604a.527.527 0 0 0-.257-.272 2.12 2.12 0 0 0-.453-.105l-.649-.015V.136l1.133.03.982.031 2.175-.031 2.16-.03.528.03 1.103.046c-.02.07-.04.151-.061.242a6.39 6.39 0 0 0-.075.241c-.04.162-.07.333-.091.514l-.061.589-.015.68h-.499c0-.503-.025-.957-.075-1.359a4.214 4.214 0 0 0-.981-.242l-.619-.045-.786-.03c-.735 0-1.359.03-1.873.09l-.015 1.254-.016 1.269v1.496h.242c.11 0 .201.005.271.015l.785.046h.62c.09 0 .176-.005.257-.016h.271l.348-.03c.101-.01.211-.04.332-.09.131-.05.217-.126.257-.227l.061-.197.03-.272.03-.317v-.259h.498l-.045 1.707.045 1.722h-.498v-.257l-.03-.317c0-.242-.056-.428-.166-.559-.071-.1-.257-.176-.56-.227l-.573-.03-.877-.016c-.594 0-1.026.021-1.299.061v1.798zm16.208 1.345l.528.74c.111.142.262.272.453.393.172.091.418.162.74.212v.514h-.423a.713.713 0 0 0-.136-.015c-.121 0-.282-.015-.483-.045l-1.043.061-2.521-3.537a15.303 15.303 0 0 0-1.524-1.903l.074-.241.575.03c.583 0 1.066-.095 1.449-.287.383-.181.689-.453.922-.815.211-.362.317-.786.317-1.269 0-.393-.091-.74-.272-1.042-.171-.292-.438-.529-.8-.71a2.768 2.768 0 0 0-.56-.166l-.15-.03a.69.69 0 0 1-.151-.015 3.147 3.147 0 0 0-.378-.015c-.493 0-1.007.096-1.541.287 0 .142-.005.282-.015.423-.01.151-.015.297-.015.438a18.85 18.85 0 0 1-.061 1.646v5.709c0 .272.035.474.105.604.08.141.176.232.287.272.061.02.141.04.241.06l.348.015.483.03v.514l-1.072-.03-1.088-.03-1.072.03-1.088.03v-.514h.408c.04-.01.08-.015.121-.015l.362-.045c.121-.01.252-.085.393-.226.121-.141.182-.373.182-.695V1.631c0-.272-.03-.474-.091-.604a.51.51 0 0 0-.272-.272.263.263 0 0 1-.075-.03.95.95 0 0 1-.136-.031 1.328 1.328 0 0 0-.242-.03l-.649-.015V.136l.635.015 1.525.045 1.012-.031.952-.03.846-.015c.503 0 .946.036 1.329.105.402.071.771.187 1.103.348.635.312.952.906.952 1.783 0 .755-.252 1.385-.756 1.888-.503.503-1.229.86-2.175 1.072l2.447 3.475zM66.841 24.881c0 .192.025.334.075.426.057.1.124.163.202.191.042.014.099.028.17.042l.244.012.34.021v.361l-.616-.021-.649-.021-1.276.042v-.361h.287a.348.348 0 0 1 .085-.011l.255-.032c.085-.007.177-.06.276-.158.085-.1.127-.263.127-.49v-5.294c0-.191-.025-.334-.074-.426a.285.285 0 0 0-.181-.191 1.573 1.573 0 0 0-.318-.075l-.458-.01v-.352l.808.022.681.021.191-.021.181-.022 1.032 1.318.882 1.106 1.776 2.18.425.531.542.659.414.436v-5.177c0-.206-.014-.341-.042-.404a.403.403 0 0 0-.181-.202.304.304 0 0 0-.16-.053l-.075-.011a.394.394 0 0 0-.074-.012h-.084l-.224-.021h-.191v-.352l.627.022.648.021 1.265-.043v.352h-.191l-.224.021-.202.012c-.064.014-.132.035-.203.063s-.127.096-.169.202c-.036.106-.054.24-.054.404v4.21l.011.531.021.521.011.478.053.734a3.88 3.88 0 0 1-.511-.085 2.33 2.33 0 0 1-.382-.097c-.1-.07-.181-.141-.245-.211l-.233-.277-.191-.244-.691-.83-3.732-4.604v5.169zm9.718-4.21c.192-.468.465-.868.819-1.201.114-.1.206-.178.277-.234.099-.078.202-.146.308-.201a3.63 3.63 0 0 1 .702-.33 5.032 5.032 0 0 1 1.669-.266c.56 0 1.084.081 1.574.244.468.156.872.39 1.212.701a3.2 3.2 0 0 1 .766 1.128c.177.425.266.906.266 1.445 0 .751-.177 1.438-.531 2.063a3.749 3.749 0 0 1-1.467 1.467 4.037 4.037 0 0 1-2.063.542 4.485 4.485 0 0 1-1.562-.255 3.427 3.427 0 0 1-1.978-1.968 5.456 5.456 0 0 1-.202-.743 5.106 5.106 0 0 1-.063-.829 4.23 4.23 0 0 1 .273-1.563zm.989 2.691c.142.461.351.857.627 1.189.262.342.588.597.978.766.376.179.791.266 1.244.266.552 0 1.027-.13 1.425-.392.404-.271.708-.656.914-1.16.213-.503.319-1.091.319-1.765 0-.511-.068-.968-.202-1.372a3.209 3.209 0 0 0-.595-1.084 2.567 2.567 0 0 0-.936-.691 2.991 2.991 0 0 0-1.191-.233c-.581 0-1.077.12-1.488.361a2.424 2.424 0 0 0-.967 1.031 3.42 3.42 0 0 0-.34 1.531c-.001.566.07 1.084.212 1.553zm14.736 1.264l.373.521c.078.099.184.191.318.276.121.063.294.113.521.148v.361h-.297a.497.497 0 0 0-.096-.01c-.085 0-.199-.012-.34-.032l-.733.042-1.776-2.488a10.741 10.741 0 0 0-1.074-1.339l.054-.171.404.021c.411 0 .75-.067 1.02-.202.27-.127.485-.318.648-.574.149-.255.224-.553.224-.893 0-.276-.063-.521-.191-.733a1.314 1.314 0 0 0-.563-.5 1.9 1.9 0 0 0-.394-.117l-.106-.021a.472.472 0 0 1-.106-.012 2.192 2.192 0 0 0-.266-.011c-.347 0-.708.068-1.084.203 0 .099-.004.198-.011.298a4.645 4.645 0 0 0-.011.308c0 .305-.003.521-.01.649-.007.19-.018.36-.032.51v4.019c0 .192.024.334.075.426.056.1.124.163.202.191.042.014.099.028.169.042l.245.012.34.021v.361l-.754-.021-.766-.021-.755.021-.766.021v-.361h.287a.354.354 0 0 1 .085-.011l.255-.032c.085-.007.177-.06.276-.158.084-.1.127-.263.127-.49v-5.294c0-.191-.021-.334-.063-.426-.05-.1-.113-.163-.191-.191a.197.197 0 0 1-.053-.021.7.7 0 0 1-.096-.021.856.856 0 0 0-.17-.022l-.458-.011v-.361l.447.012 1.074.031.712-.021.669-.022.596-.01c.354 0 .666.024.936.074.283.049.542.132.776.245.447.219.669.637.669 1.254 0 .531-.177.975-.531 1.329-.354.354-.865.606-1.531.755l1.722 2.446zm4.104 1.075c.198-.106.315-.178.351-.213.05-.028.086-.092.106-.191.021-.078.032-.216.032-.415v-5.294c0-.191-.021-.334-.064-.426a.313.313 0 0 0-.191-.191l-.053-.021-.085-.021a.847.847 0 0 0-.17-.022l-.468-.011v-.361l.319.012.446.011.755.021 1.063-.021 1.138-.022c.113 0 .209.004.287.012.071.007.188.011.351.011.057 0 .149.007.276.021.127.015.223.028.287.043.318.05.627.142.925.275.262.121.514.288.754.501.688.595 1.031 1.424 1.031 2.487a5.446 5.446 0 0 1-.074.84 2.97 2.97 0 0 1-.234.787 3.559 3.559 0 0 1-.872 1.286 3.915 3.915 0 0 1-1.35.84 4.9 4.9 0 0 1-1.723.298l-.34-.021-.319-.011-.882-.021-.405.012-.424.021-.468.021v-.237zm1.669-.299c.234.029.404.047.51.054.192.021.373.032.543.032 1.063 0 1.875-.297 2.435-.893.56-.582.84-1.411.84-2.488 0-.524-.071-.989-.212-1.394a2.296 2.296 0 0 0-.606-.945 2.855 2.855 0 0 0-1-.575 3.575 3.575 0 0 0-1.191-.212c-.425 0-.911.038-1.457.117-.042.305-.063.68-.063 1.126v3.402l.01.639.053 1.116.138.021zm11.216-6.507l-.414.011-.202.012a1.323 1.323 0 0 0-.202.063c-.079.035-.131.103-.16.202-.036.106-.054.24-.054.404v5.294c0 .192.025.334.075.426.057.1.124.163.202.191.042.014.099.028.169.042l.245.012.34.021v.361l-.754-.021-.766-.021-.755.021-.766.021v-.361h.287a.348.348 0 0 1 .085-.011l.255-.032c.084-.007.177-.06.276-.158.085-.1.128-.263.128-.49v-5.294c0-.191-.021-.334-.064-.426-.049-.1-.113-.163-.19-.191a.198.198 0 0 1-.054-.021.68.68 0 0 1-.095-.021.864.864 0 0 0-.171-.022l-.457-.011v-.361l.766.022.755.021.319-.011.446-.01.754-.022v.36zm8.963.596a3.39 3.39 0 0 0-.648-.351l-.319-.116a.716.716 0 0 0-.159-.032 5.624 5.624 0 0 1-.181-.043 3.493 3.493 0 0 0-.691-.063c-.475 0-.908.071-1.297.213a2.787 2.787 0 0 0-.967.627c-.27.276-.479.612-.627 1.01-.149.39-.223.825-.223 1.308 0 .646.145 1.23.435 1.755.284.518.685.933 1.202 1.244a3.307 3.307 0 0 0 1.711.457c.985 0 1.772-.22 2.36-.66l.106.097-.075.181-.063.149-.063.159c-.425.205-.833.36-1.222.468l-.511.096-.084.011c-.021 0-.071.003-.149.011-.057 0-.11.003-.159.01a3.472 3.472 0 0 1-.33.011c-.616 0-1.18-.088-1.691-.266a4.21 4.21 0 0 1-1.36-.776 3.542 3.542 0 0 1-.883-1.201 3.715 3.715 0 0 1-.319-1.521c0-.581.099-1.105.298-1.573.205-.482.492-.886.861-1.213.361-.318.826-.577 1.393-.775a7.25 7.25 0 0 1 .872-.203c.312-.042.624-.062.936-.062.241 0 .503.021.787.062.34.051.645.107.914.171l.808.171a4.088 4.088 0 0 0-.201.69 4.52 4.52 0 0 0-.075.882h-.34l-.046-.928zm14.418 6.178l-.404.105-.437.096-.393.063-.437.054-.425.031-.383.011c-.624 0-1.181-.088-1.669-.266a3.479 3.479 0 0 1-1.297-.766 3.373 3.373 0 0 1-.841-1.233c-.198-.468-.297-1.006-.297-1.616a3.596 3.596 0 0 1 .616-2.009c.205-.298.454-.563.744-.798.425-.318.878-.55 1.36-.691.503-.142 1.092-.212 1.766-.212.453 0 .886.042 1.297.127.228.043.46.097.702.159.07.015.155.036.255.064.078.021.152.039.224.054a.737.737 0 0 0 .095.031c.093.028.175.054.245.074a5.297 5.297 0 0 0-.139.691l-.085.84h-.329v-.34c0-.271-.011-.437-.032-.5a.489.489 0 0 0-.171-.191 4.082 4.082 0 0 0-1.02-.404 4.48 4.48 0 0 0-1.181-.159c-.517 0-.979.071-1.382.213a2.642 2.642 0 0 0-1 .627c-.276.27-.492.605-.647 1.01-.149.39-.225.84-.225 1.351 0 .276.022.521.064.733a3.343 3.343 0 0 0 .882 1.776c.312.325.674.57 1.085.732.418.171.875.255 1.372.255.475 0 1.062-.123 1.765-.371v-.341l.031-.84c0-.255-.038-.432-.116-.531a.585.585 0 0 0-.191-.106.935.935 0 0 0-.309-.042h-.063l-.352-.011v-.361l.769.022.756.021.361-.01.361-.021h.277l.085-.011v.233l-.213.085c-.17.064-.287.163-.351.298s-.096.379-.096.733l.011.255v.234c0 .1.015.209.043.33l.042.286a7.917 7.917 0 0 1-.723.236zm9.292-1.043l.372.521c.077.099.184.191.319.276.12.063.294.113.521.148v.361h-.298a.49.49 0 0 0-.096-.01c-.085 0-.198-.012-.34-.032l-.734.042-1.775-2.488a10.827 10.827 0 0 0-1.073-1.339l.053-.171.404.021c.411 0 .751-.067 1.021-.202.27-.127.485-.318.648-.574.149-.255.224-.553.224-.893a1.4 1.4 0 0 0-.191-.733 1.314 1.314 0 0 0-.563-.5 1.919 1.919 0 0 0-.394-.117l-.106-.021a.47.47 0 0 1-.105-.012 2.236 2.236 0 0 0-.267-.011c-.347 0-.709.068-1.084.203 0 .099-.004.198-.011.298a4.051 4.051 0 0 0-.011.308c0 .305-.004.521-.012.649a10.4 10.4 0 0 1-.03.51v4.019c0 .192.023.334.073.426a.4.4 0 0 0 .202.191c.043.014.1.028.171.042l.244.012.34.021v.361l-.755-.021-.766-.021-.754.021-.766.021v-.361h.287a.341.341 0 0 1 .085-.011l.255-.032c.084-.007.177-.06.276-.158.085-.1.128-.263.128-.49v-5.294c0-.191-.021-.334-.064-.426-.049-.1-.113-.163-.19-.191a.186.186 0 0 1-.054-.021.7.7 0 0 1-.096-.021.864.864 0 0 0-.17-.022l-.457-.011v-.361l.446.012 1.073.031.713-.021.67-.022.596-.01c.354 0 .666.024.935.074.284.049.543.132.777.245.445.219.669.637.669 1.254 0 .531-.177.975-.531 1.329s-.865.606-1.531.755l1.722 2.446zm3.881-3.955a3.38 3.38 0 0 1 1.094-1.435c.1-.078.202-.146.309-.201a3.62 3.62 0 0 1 .701-.33 5.038 5.038 0 0 1 1.67-.266c.56 0 1.084.081 1.573.244.468.156.872.39 1.212.701a3.2 3.2 0 0 1 .766 1.128c.178.425.266.906.266 1.445 0 .751-.177 1.438-.531 2.063a3.751 3.751 0 0 1-1.468 1.467 4.031 4.031 0 0 1-2.062.542 4.481 4.481 0 0 1-1.562-.255 3.427 3.427 0 0 1-1.191-.766c-.34-.34-.603-.74-.786-1.202a5.456 5.456 0 0 1-.202-.743 5.106 5.106 0 0 1-.063-.829 4.25 4.25 0 0 1 .274-1.563zm.988 2.691c.142.461.352.857.628 1.189.261.342.587.597.978.766.376.179.79.266 1.244.266.553 0 1.027-.13 1.425-.392.404-.271.709-.656.914-1.16.213-.503.319-1.091.319-1.765 0-.511-.067-.968-.202-1.372a3.209 3.209 0 0 0-.595-1.084 2.562 2.562 0 0 0-.937-.691 2.988 2.988 0 0 0-1.191-.233c-.58 0-1.077.12-1.487.361a2.426 2.426 0 0 0-.968 1.031 3.42 3.42 0 0 0-.341 1.531 5.38 5.38 0 0 0 .213 1.553zm14.46-4.828l.627.022.648.021 1.266-.043v.361l-.415.011-.202.012a.705.705 0 0 0-.19.063.287.287 0 0 0-.171.181 1.278 1.278 0 0 0-.053.426v2.998l-.011.669-.01.394v.149a.718.718 0 0 1-.012.096c0 .05-.004.085-.011.105a2.3 2.3 0 0 1-.063.319 1.557 1.557 0 0 1-.17.469 2.048 2.048 0 0 1-.128.19c-.07.085-.127.152-.17.202a2.347 2.347 0 0 1-.979.639c-.41.142-.872.212-1.382.212-.681 0-1.262-.105-1.744-.318-.489-.22-.811-.511-.968-.873l-.073-.19-.064-.191-.031-.224-.021-.266v-.458c0-.078-.004-.148-.011-.213v-3.71c0-.191-.024-.334-.074-.426a.313.313 0 0 0-.202-.191l-.149-.042-.138-.022-.468-.011v-.361l.318.012.447.011.755.021.319-.011.446-.01.754-.022v.361l-.223.011c-.233 0-.401.012-.5.032a.415.415 0 0 0-.233.181c-.05.093-.075.248-.075.469v3.2l.012.457.01.511.011.287c.007.035.028.103.064.201l.01.054c.042.148.104.272.182.372.163.227.403.396.723.51.333.128.709.192 1.127.192s.801-.064 1.148-.192c.34-.113.591-.283.755-.51.12-.178.209-.422.266-.733.057-.326.085-.78.085-1.361V19.59c0-.171-.018-.31-.053-.415-.043-.1-.096-.163-.16-.191l-.17-.053a.625.625 0 0 0-.159-.022l-.489-.011v-.364zm7.092 1.446l-.011.724v4.178c0 .192.024.334.074.426.057.1.124.163.202.191.043.014.1.028.17.042l.245.012.34.021v.361l-.755-.021-.766-.021-.755.021-.766.021v-.361h.287a.354.354 0 0 1 .085-.011l.256-.032c.085-.007.177-.06.276-.158.085-.1.127-.263.127-.49v-5.294c0-.191-.021-.334-.063-.426-.05-.1-.113-.163-.191-.191a.185.185 0 0 1-.053-.021.667.667 0 0 1-.096-.021.864.864 0 0 0-.17-.022l-.458-.011v-.361l.447.012 1.073.031h.436a.396.396 0 0 1 .096-.011l.712-.032.894-.021c.766 0 1.354.146 1.765.436.403.284.605.713.605 1.286 0 .355-.113.705-.34 1.053a2.472 2.472 0 0 1-.903.841 2.351 2.351 0 0 1-1.191.318 4.08 4.08 0 0 1-.882-.096l-.096-.394c.312.078.538.117.68.117.27 0 .5-.035.691-.106.213-.078.383-.181.511-.309.142-.142.248-.315.318-.521.078-.22.117-.457.117-.712 0-.482-.159-.855-.479-1.117-.305-.262-.755-.393-1.351-.393h-.159a.388.388 0 0 0-.117.011c-.035 0-.103.01-.202.031-.12.015-.314.064-.585.149l-.018.871z"/></g></symbol><symbol viewBox="120.641 49.287 99.154 137.335" id="gbb-shield"><title>gbb-shield</title><g fill="#FFF"><path d="M169.681 105.126l-2.259.596-2.438.535-2.198.357-2.438.297-2.378.18-2.143.058c-3.483 0-6.601-.499-9.333-1.485-2.812-.953-5.229-2.381-7.25-4.285-2.021-1.864-3.588-4.166-4.696-6.901-1.109-2.619-1.661-5.634-1.661-9.046 0-1.982.297-3.947.895-5.893a19.49 19.49 0 0 1 2.553-5.355 21.097 21.097 0 0 1 4.162-4.46c2.376-1.784 4.911-3.075 7.606-3.866 2.812-.796 6.103-1.192 9.867-1.192 2.534 0 4.95.24 7.252.712 1.268.24 2.569.538 3.922.893.396.08.872.201 1.428.357a19.6 19.6 0 0 0 1.247.298c.078.041.26.101.534.18.518.16.975.298 1.369.415a29.744 29.744 0 0 0-.772 3.867l-.477 3.532h-1.845v-.736c0-1.503-.062-2.438-.18-2.796-.119-.318-.438-.675-.952-1.07-1.663-.95-3.563-1.704-5.708-2.262a24.92 24.92 0 0 0-6.598-.893c-2.894 0-5.466.398-7.727 1.19a14.724 14.724 0 0 0-5.59 3.513c-1.547 1.508-2.753 3.391-3.625 5.652-.831 2.184-1.249 4.699-1.249 7.559 0 1.547.118 2.912.357 4.104.157 1.149.491 2.399 1.009 3.748a18.72 18.72 0 0 0 3.928 6.188 16.908 16.908 0 0 0 6.062 4.104c2.336.952 4.896 1.427 7.667 1.427 2.651 0 5.942-.691 9.865-2.082 0 0 1.935-6.729-2.243-10.208-.283-.506-.958-3.142-.958-3.142s2.015.007 5.397 0c4.146-.008 5.695 0 5.695 0s-1.082 2.344-1.325 3.142c-3.363 3.661-1.139 9.177-.979 9.854l.239 1.604c-.783.322-2.134.758-4.032 1.31"/><path d="M173.529 113.228c.595.08 1.271.199 2.021.355.515.121 1.35.396 2.494.832.037.043.117.08.239.123 1.738.752 3.049 1.822 3.921 3.211.834 1.351 1.248 3.017 1.248 5 0 2.655-.689 5.039-2.083 7.141-1.464 2.145-3.463 3.771-6.003 4.879-2.532 1.189-5.446 1.788-8.733 1.788l-2.26-.062-2.794-.121h-2.258l-5.471.238v-1.307c.952-.518 1.604-.912 1.962-1.189.237-.199.454-.535.653-1.017.075-.634.116-1.429.116-2.379v-29.636c0-1.069-.116-1.861-.354-2.379-.279-.556-.635-.91-1.073-1.07-.037 0-.138-.04-.295-.12a3.92 3.92 0 0 1-.537-.118 5.048 5.048 0 0 0-.951-.119l-2.555-.062v-2.022l2.497.062 6.005.179 3.625-.062 3.741-.117h1.781l1.847-.062c2.934 0 5.507.578 7.728 1.728 2.222 1.154 3.325 3.096 3.325 5.836 0 1.742-.312 3.229-.945 4.459-.638 1.27-1.686 2.4-3.147 3.394-1.392.914-3.252 1.767-5.589 2.558.836-.002 1.445.02 1.845.059zm-8.915-.773c3.764 0 6.52-.633 8.262-1.906 1.743-1.266 2.615-3.332 2.615-6.188 0-4.523-2.914-6.783-8.735-6.783l-2.142.121c-.16 0-.457.038-.893.118h-.181a3.074 3.074 0 0 1-.594.058c-.199.041-.396.08-.596.119l-.183 2.678-.116 3.095-.062 4.938v3.629l2.625.121zm1.961 21.601c2.259 0 4.179-.418 5.768-1.253 1.625-.789 2.87-1.979 3.742-3.568.83-1.548 1.248-3.409 1.248-5.592 0-3.49-1.093-5.853-3.27-7.083-2.188-1.229-5.093-1.846-8.737-1.846-1.03 0-2.14.041-3.328.119v10.295l.062 3.453.062 3.448v.714l-.12.895c1.701.276 3.225.418 4.573.418z"/><path d="M183.277 139.208c.597.08 1.27.199 2.021.354.514.125 1.35.398 2.496.835.035.042.119.08.235.122 1.745.751 3.052 1.82 3.923 3.21.831 1.354 1.249 3.019 1.249 5 0 2.66-.689 5.039-2.08 7.142-1.466 2.144-3.469 3.771-6.005 4.879-2.534 1.188-5.446 1.789-8.732 1.789l-2.262-.062-2.795-.117h-2.257l-5.468.234v-1.307c.949-.518 1.604-.912 1.96-1.191.236-.196.455-.535.652-1.012.078-.635.117-1.432.117-2.379v-29.631c0-1.072-.117-1.865-.354-2.38-.28-.558-.634-.911-1.073-1.071-.037 0-.138-.041-.293-.121a3.837 3.837 0 0 1-.538-.114 5.064 5.064 0 0 0-.951-.12l-2.555-.062v-2.021l2.498.062 6.001.176 3.627-.062 3.743-.114h1.783l1.847-.062c2.93 0 5.505.576 7.726 1.729 2.225 1.152 3.327 3.096 3.327 5.834 0 1.742-.312 3.231-.944 4.461-.642 1.27-1.688 2.399-3.152 3.394-1.386.913-3.246 1.767-5.589 2.558.832-.008 1.445.01 1.843.047zm-8.915-.771c3.764 0 6.517-.631 8.263-1.9 1.741-1.27 2.618-3.332 2.618-6.188 0-4.521-2.914-6.785-8.742-6.785l-2.139.122c-.16 0-.454.037-.89.116h-.184a3.032 3.032 0 0 1-.595.059c-.199.044-.396.08-.596.119l-.183 2.68-.112 3.096-.062 4.938v3.631l2.622.112zm1.965 21.6c2.254 0 4.181-.414 5.762-1.25a8.365 8.365 0 0 0 3.748-3.57c.83-1.549 1.248-3.409 1.248-5.592 0-3.49-1.096-5.853-3.271-7.084-2.183-1.223-5.093-1.842-8.738-1.842-1.03 0-2.139.039-3.328.116v10.296l.062 3.451.06 3.451v.717l-.122.893c1.7.278 3.229.414 4.579.414z"/><path d="M216.078 53.005v101.84l-47.937 27.439-43.785-27.439V53.005h91.722zm1.667-1.668h-95.058v104.43l.784.488 43.78 27.445.852.528.868-.497 47.936-27.439.842-.482V51.337h-.004z"/><path d="M218.865 50.217V156.46l-1.405.809-47.936 27.439-1.446.828-1.414-.888-43.789-27.438-1.307-.821V50.217h97.297zm.927-.93h-99.151v107.618l1.741 1.095 43.786 27.439 1.888 1.184 1.932-1.104 47.937-27.438 1.871-1.072V49.287h-.004z"/></g></symbol><symbol viewBox="0 0 109.468 111.879" id="insta"><title>insta</title><path fill="#FFF" d="M94.212 0H15.245C6.827 0 0 7.149 0 15.958v79.993c0 8.799 6.827 15.928 15.245 15.928h78.967c8.418 0 15.256-7.129 15.256-15.928V15.958C109.468 7.149 102.63 0 94.212 0zM76.731 16.231s.294-3.067 3.097-3.067h15.205s2.832.273 2.832 2.793v15.616s-.586 2.373-2.422 2.373H79.564s-2.833-.137-2.833-2.939V16.231zM54.915 34.689c11.915 0 21.602 9.59 21.602 21.417 0 11.818-9.688 21.408-21.602 21.408-11.944 0-21.603-9.59-21.603-21.408 0-11.827 9.659-21.417 21.603-21.417zm43.204 60.784s-.195 3.262-3.281 3.262H14.493s-3.135-.586-3.135-3.104.098-48.459.098-48.459H22.13s-6.074 20.687 10.909 34.572c0 0 9.043 8.174 22.471 7.948 0 0 16.28-.684 25.108-11.825 0 0 11.338-13.175 7.158-30.939h10.342v48.545z"/></symbol><symbol viewBox="0 0 50.429 31.942" id="learnmore"><title>learnmore</title><g fill="#888889"><path d="M.72 6.44h3.3v.64H0V0h.72v6.44zM9.14 4.6v.15c0 .054-.003.11-.01.17H5.25c.006.233.053.453.14.66.086.207.207.387.36.54s.333.275.54.365.43.135.67.135c.354 0 .658-.082.915-.245.256-.163.452-.352.585-.564l.51.399c-.28.353-.589.606-.925.76s-.698.23-1.085.23c-.347 0-.668-.062-.965-.186-.297-.122-.552-.294-.765-.514s-.382-.479-.505-.78c-.123-.3-.185-.626-.185-.98s.06-.68.18-.98c.12-.3.286-.56.5-.779A2.29 2.29 0 0 1 6.9 2.28c.367 0 .69.062.97.185.28.124.513.29.7.5s.328.455.425.735c.096.28.145.58.145.9zm-.69-.22c-.02-.44-.162-.805-.425-1.095S7.387 2.85 6.9 2.85c-.227 0-.437.042-.63.125a1.692 1.692 0 0 0-.86.83 1.565 1.565 0 0 0-.15.575h3.19zM13.5 4.051c0-.403-.107-.704-.32-.903-.213-.198-.523-.298-.93-.298-.28 0-.54.051-.78.15-.24.1-.443.233-.61.4l-.38-.45c.193-.193.448-.354.765-.48s.675-.19 1.075-.19c.253 0 .49.035.71.104.22.07.414.176.58.315s.296.318.39.531c.093.213.14.463.14.75v2.05c0 .18.006.366.02.56a4.2 4.2 0 0 0 .06.49h-.61a4.76 4.76 0 0 1-.07-.76h-.02c-.213.313-.455.538-.725.675s-.595.205-.975.205c-.18 0-.365-.025-.555-.075a1.537 1.537 0 0 1-.52-.246 1.377 1.377 0 0 1-.39-.441 1.311 1.311 0 0 1-.155-.663c0-.361.092-.647.275-.857.183-.211.428-.368.735-.472a4.3 4.3 0 0 1 1.055-.201c.397-.03.808-.045 1.235-.045v-.149zm-.2.689c-.28 0-.562.012-.845.035-.284.023-.54.069-.77.14s-.418.172-.565.305a.682.682 0 0 0-.22.53c0 .167.032.307.095.42a.774.774 0 0 0 .255.275c.106.069.225.12.355.149.13.031.262.046.395.046.24 0 .453-.041.64-.125.187-.083.343-.196.47-.34.126-.143.223-.308.29-.495.066-.187.1-.383.1-.59v-.35h-.2zM15.88 2.94c-.007-.2-.017-.38-.03-.54h.65c.014.126.023.267.03.42.006.153.01.279.01.38h.02c.133-.273.333-.495.6-.665s.566-.255.9-.255c.087 0 .165.003.235.01.07.007.142.021.215.04l-.09.65a1.177 1.177 0 0 0-.2-.04 1.885 1.885 0 0 0-.28-.021c-.18 0-.354.033-.52.1a1.124 1.124 0 0 0-.435.314c-.124.144-.224.326-.3.549s-.115.49-.115.803V7.08h-.68V3.43c0-.126-.004-.29-.01-.49zM20.1 2.4c.014.126.023.267.03.42.006.153.01.279.01.38h.02a1.54 1.54 0 0 1 .65-.665c.3-.17.616-.255.95-.255.593 0 1.039.177 1.335.53.297.353.445.819.445 1.399v2.87h-.68V4.49c0-.247-.021-.47-.06-.67a1.442 1.442 0 0 0-.205-.516.99.99 0 0 0-.391-.335 1.392 1.392 0 0 0-.615-.12 1.295 1.295 0 0 0-.98.445c-.133.15-.24.34-.32.57a2.48 2.48 0 0 0-.12.814v2.4h-.68V3.43a14.301 14.301 0 0 0-.04-1.029h.651zM29.085 2.535c.275-.17.584-.255.924-.255.127 0 .259.014.396.04s.271.078.399.154c.131.077.25.179.361.306.109.127.205.29.284.49.16-.32.378-.565.655-.735.276-.17.605-.255.984-.255.594 0 1.039.177 1.336.53.297.353.445.819.445 1.399v2.87h-.679V4.49c0-.493-.092-.891-.274-1.19-.184-.3-.497-.45-.936-.45-.246 0-.455.051-.625.15s-.307.231-.41.396c-.104.163-.178.348-.225.555s-.07.42-.07.64v2.49h-.68V4.35c0-.227-.018-.433-.051-.619s-.092-.346-.174-.476c-.084-.13-.199-.229-.346-.3s-.333-.105-.56-.105c-.16 0-.321.037-.484.11a1.25 1.25 0 0 0-.439.335 1.69 1.69 0 0 0-.315.57 2.48 2.48 0 0 0-.12.814v2.4H27.8V3.43a13.349 13.349 0 0 0-.041-1.029h.65a8.681 8.681 0 0 1 .041.799h.021a1.58 1.58 0 0 1 .614-.665zM41.279 4.74c0 .354-.061.68-.184.979a2.367 2.367 0 0 1-.515.781c-.221.22-.483.392-.79.515a2.675 2.675 0 0 1-1.011.185c-.359 0-.693-.062-1-.186a2.295 2.295 0 0 1-.789-.514 2.33 2.33 0 0 1-.516-.78c-.123-.3-.185-.626-.185-.979s.062-.68.185-.98a2.325 2.325 0 0 1 1.305-1.295 2.667 2.667 0 0 1 1-.185c.367 0 .704.062 1.011.185.307.124.569.295.79.516.22.22.392.479.516.779.122.3.183.626.183.979zm-.719 0c0-.26-.043-.505-.125-.735-.084-.229-.202-.43-.355-.6S39.74 3.1 39.519 3c-.22-.1-.467-.15-.74-.15s-.518.05-.735.15-.402.235-.555.405a1.8 1.8 0 0 0-.355.6c-.083.23-.125.476-.125.735s.042.505.125.734c.084.23.201.431.355.601.152.17.338.304.555.399.217.098.461.146.734.146s.521-.048.74-.146c.221-.096.407-.229.561-.399s.271-.37.355-.601a2.14 2.14 0 0 0 .126-.734zM42.73 2.94c-.008-.2-.018-.38-.031-.54h.65a8.466 8.466 0 0 1 .04.8h.021c.133-.273.333-.495.6-.665s.566-.255.9-.255c.086 0 .164.003.234.01s.143.021.215.04l-.09.65a1.905 1.905 0 0 0-.479-.061c-.181 0-.354.033-.521.1a1.132 1.132 0 0 0-.435.314 1.64 1.64 0 0 0-.3.549c-.077.223-.115.49-.115.803V7.08h-.68V3.43c.001-.126-.003-.29-.009-.49zM50.429 4.6v.15c0 .054-.003.11-.01.17h-3.88c.007.233.054.453.14.66a1.67 1.67 0 0 0 .9.905c.207.09.43.135.67.135.354 0 .658-.082.915-.245s.452-.352.585-.564l.51.399c-.279.354-.588.606-.925.76s-.698.23-1.084.23c-.347 0-.668-.062-.965-.186a2.246 2.246 0 0 1-.766-.514 2.426 2.426 0 0 1-.504-.78c-.124-.3-.186-.626-.186-.979s.061-.68.18-.98c.12-.3.287-.56.5-.779a2.29 2.29 0 0 1 1.68-.701c.367 0 .69.062.971.185.279.124.514.29.699.5.188.21.329.455.426.735.095.279.144.579.144.899zm-.689-.22c-.02-.439-.162-.805-.426-1.095-.263-.29-.638-.436-1.125-.436-.227 0-.436.042-.629.125a1.694 1.694 0 0 0-.861.83 1.57 1.57 0 0 0-.15.575h3.191z"/></g><path fill="#767676" d="M25.214 31.942c-4.783 0-8.673-3.813-8.673-8.5s3.891-8.5 8.673-8.5c4.783 0 8.674 3.813 8.674 8.5s-3.89 8.5-8.674 8.5zm0-16c-4.231 0-7.673 3.364-7.673 7.5s3.442 7.5 7.673 7.5 7.674-3.364 7.674-7.5-3.442-7.5-7.674-7.5z"/><path fill="#767676" d="M25.188 27.653a.5.5 0 0 1-.408-.212l-4.307-6.097a.5.5 0 1 1 .817-.576l3.899 5.519 3.899-5.519a.5.5 0 1 1 .816.576l-4.308 6.097a.5.5 0 0 1-.408.212z"/></symbol><symbol viewBox="0 0 114.803 119.08" id="linked"><title>linked</title><path d="M35.881 119.08V37.861h24.203v10.807s6.879-13.418 24.649-13.027c0 0 28.645-2.993 30.069 29.417v54.022H89.565V71.838s-.414-15.574-14.54-13.8c0 0-12.103-.577-13.518 14.638v46.404H35.881zM1.594 35.565h26.663v83.515H1.594zm28.258-20.797c0 8.184-6.671 14.822-14.932 14.822C6.671 29.59 0 22.952 0 14.768 0 6.617 6.671 0 14.921 0c8.26 0 14.931 6.617 14.931 14.768"/></symbol><symbol viewBox="0 0 37.655 14.269" id="signature"><title>signature</title><g fill="#825E48"><path d="M21.42.969c0 .016-.017.032-.048.048a2.44 2.44 0 0 1-.217.084c-.304.096-.609.184-.918.264a30.148 30.148 0 0 1-1.847.42c-.356.072-.72.144-1.092.216-.372.072-.732.144-1.08.216-.348.072-.634.136-.858.192a165.697 165.697 0 0 1-1.884 3.042c-.632.996-1.312 1.944-2.04 2.844s-1.524 1.74-2.388 2.52a15.56 15.56 0 0 1-2.928 2.07 11.751 11.751 0 0 1-2.76 1.032 8.823 8.823 0 0 1-1.53.222 4.49 4.49 0 0 1-1.398-.126 1.006 1.006 0 0 1-.42-.192c-.032-.032 0-.046.096-.042.096.004.208.002.336-.006.32 0 .678-.028 1.074-.084a13.352 13.352 0 0 0 2.376-.564c.38-.128.714-.268 1.002-.42a17.33 17.33 0 0 0 2.976-2.016 24.048 24.048 0 0 0 2.478-2.424 30.242 30.242 0 0 0 2.154-2.742c.672-.964 1.344-1.958 2.016-2.982-.288.056-.656.118-1.104.186l-1.392.21c-.48.072-.948.14-1.404.204-.456.064-.84.12-1.152.168a58.02 58.02 0 0 1-1.656.168c-.552.048-1.104.072-1.656.072l-.174-.006c-.092-.004-.19-.01-.294-.018s-.2-.022-.288-.042c-.088-.02-.136-.046-.144-.078-.025-.04-.006-.074.054-.102.06-.028.102-.046.126-.054.384-.128.79-.234 1.218-.318.428-.084.846-.158 1.254-.222.447-.072.892-.138 1.332-.198l1.344-.186 1.008-.132c.424-.056.86-.116 1.308-.18a161.986 161.986 0 0 1 2.28-.312l.654-.816c.204-.256.442-.52.714-.792a1.58 1.58 0 0 1 .072-.066c.032-.028.06-.034.084-.018.016.008.018.028.006.06a6.976 6.976 0 0 1-.414.822c-.144.244-.296.494-.456.75.176-.024.42-.06.732-.108a1120.598 1120.598 0 0 1 1.956-.3c.312-.048.556-.08.732-.096.023 0 .092-.008.204-.024a35.791 35.791 0 0 1 .918-.114 15 15 0 0 1 .504-.048c.156-.012.284-.016.384-.012s.15.014.15.03zM16.788 8.877c0 .008-.012.028-.036.06-.096.096-.2.188-.312.276l-.336.264c-.368.264-.764.572-1.188.924a2.796 2.796 0 0 0-.366.306 7.285 7.285 0 0 1-.354.33l-.15.114c-.068.052-.11.086-.126.102-.064.064-.148.086-.252.066s-.184-.066-.24-.138a.305.305 0 0 1-.066-.264c.02-.096.05-.188.09-.276.088-.2.182-.388.282-.564.1-.176.21-.355.33-.54-.12.104-.236.208-.348.312-.112.104-.224.2-.336.288-.176.16-.352.312-.528.456s-.36.288-.552.432a2.77 2.77 0 0 1-.174.132 1.045 1.045 0 0 1-.204.114.547.547 0 0 1-.21.042.334.334 0 0 1-.204-.072.324.324 0 0 1-.138-.264.79.79 0 0 1 .042-.3c.08-.28.21-.558.39-.834A7.715 7.715 0 0 1 13.2 8.229c.144-.136.314-.276.51-.42.196-.144.406-.274.63-.39a4.1 4.1 0 0 1 .69-.282c.236-.072.462-.108.678-.108.112 0 .236.016.372.048a.493.493 0 0 1 .336.234c.016.028.012.038-.012.03a1.38 1.38 0 0 0-.624-.024c-.2.04-.396.108-.588.204a3.11 3.11 0 0 0-.552.354c-.176.14-.348.274-.516.402-.144.12-.3.264-.468.432s-.332.354-.492.558c-.16.204-.314.42-.462.648s-.278.462-.39.702c.32-.208.658-.446 1.014-.714s.702-.526 1.038-.774c.16-.136.334-.27.522-.402s.37-.27.546-.414c.048-.04.11-.09.186-.15s.152-.116.228-.168c.076-.052.144-.1.204-.144s.102-.066.126-.066c.064-.016.116-.001.156.042a.15.15 0 0 1 .036.15c0 .016-.016.044-.048.084a8.592 8.592 0 0 1-.222.264.497.497 0 0 0-.066.084c-.128.144-.27.312-.426.504l-.456.558a36.467 36.467 0 0 0-.594.738l.294-.192c.124-.08.222-.148.294-.204.224-.152.452-.298.684-.438s.472-.274.72-.402a.555.555 0 0 1 .12-.072c.063-.032.103-.04.12-.024z"/><path d="M20.892 9.021c.008.016-.008.044-.048.084s-.086.082-.138.126a5.397 5.397 0 0 1-.156.126 21.41 21.41 0 0 1-.643.504c-.256.208-.528.41-.815.606-.288.196-.56.422-.816.678l-.126.102a.67.67 0 0 1-.144.09.37.37 0 0 1-.156.036.254.254 0 0 1-.162-.072c-.096-.064-.142-.168-.138-.312.004-.144.032-.298.084-.462.052-.164.114-.322.186-.474.072-.152.132-.272.18-.36a5.84 5.84 0 0 1 .444-.708 41.6 41.6 0 0 1 .492-.672c-.272.168-.526.322-.762.462a6.26 6.26 0 0 0-.714.498 6.95 6.95 0 0 0-.744.702 8.524 8.524 0 0 0-.828 1.086c-.032.04-.064.082-.096.126s-.072.074-.12.09a.284.284 0 0 1-.27-.018.253.253 0 0 1-.138-.234c-.016-.128.054-.334.21-.618s.366-.6.63-.948.566-.71.906-1.086a10.9 10.9 0 0 1 1.05-1.02l.264-.21a.666.666 0 0 1 .252-.138c.016 0 .01.024-.018.072a2.477 2.477 0 0 1-.114.174l-.15.21a6.07 6.07 0 0 0-.126.18 40.156 40.156 0 0 0-.648.912c-.088.128-.186.266-.294.414s-.254.342-.438.582c.28-.224.578-.466.894-.726.316-.26.63-.514.942-.762s.61-.472.894-.672c.284-.2.538-.352.762-.456a.387.387 0 0 1 .349.024.329.329 0 0 1 .168.222.3.3 0 0 1-.061.27c-.12.184-.286.38-.498.588-.212.208-.401.408-.569.6s-.33.388-.486.588c-.156.2-.302.408-.438.624l-.246.396c-.084.136-.15.28-.198.432.16-.128.324-.25.492-.366.168-.116.336-.23.503-.342l.162-.108.301-.198.366-.24c.128-.084.247-.158.359-.222.112-.064.206-.114.282-.15s.118-.046.126-.03zM37.655 2.133a2.504 2.504 0 0 1-.318.912c-.164.28-.364.54-.6.78a6.01 6.01 0 0 1-.769.66c-.275.2-.546.384-.81.552-.848.528-1.76.964-2.736 1.308a12.668 12.668 0 0 1-1.775.516c-.032.032-.084.092-.156.18s-.152.182-.24.282c-.088.1-.172.198-.252.294l-.18.216-2.088 2.376a264.1 264.1 0 0 1-2.101 2.364 67.835 67.835 0 0 1-1.02 1.092c-.072.08-.146.16-.222.24-.076.08-.158.156-.246.228l-.108.09a.255.255 0 0 1-.066.042c-.02.008-.029.004-.029-.012.016-.048.038-.102.065-.162.028-.06.062-.118.103-.174.191-.312.397-.614.618-.906.22-.292.438-.586.653-.882.624-.848 1.261-1.684 1.908-2.508.648-.824 1.312-1.648 1.992-2.472l-.432.072a8.04 8.04 0 0 1-.433.06c-.4.064-.798.11-1.193.138-.396.028-.799.034-1.206.018-.041-.008-.078-.014-.114-.018s-.066-.014-.09-.03c-.017-.008-.009-.022.023-.042.032-.02.07-.038.114-.054a1.679 1.679 0 0 1 .21-.06c.12-.024.294-.064.522-.12.228-.056.481-.114.762-.174s.565-.124.857-.192.561-.132.805-.192.447-.114.611-.162c.164-.048.254-.08.271-.096.096-.104.178-.196.246-.276l.186-.222c.056-.068.112-.134.168-.198l.192-.216c.336-.392.676-.778 1.02-1.158.345-.38.704-.75 1.08-1.11.12-.12.254-.24.402-.36.147-.12.282-.224.402-.312.023-.016.062-.04.113-.072.053-.032.086-.032.103 0 .023.048.012.128-.036.24a3.525 3.525 0 0 1-.174.348 4.747 4.747 0 0 1-.355.54c-.296.424-.604.834-.924 1.23s-.644.794-.972 1.194a38.932 38.932 0 0 0 2.142-.744 9.63 9.63 0 0 0 2.01-1.044c.2-.136.391-.278.57-.426s.35-.31.51-.486c.088-.096.172-.204.252-.324s.139-.246.175-.378a.998.998 0 0 0 .029-.39.733.733 0 0 0-.168-.372 1.53 1.53 0 0 0-.6-.438c-.24-.1-.477-.178-.708-.234-.504-.12-1.026-.182-1.566-.186s-1.065.014-1.578.054c-1.08.072-2.147.228-3.204.468a23.586 23.586 0 0 0-2.945.882 26.27 26.27 0 0 0-3.12 1.404c-.1.052-.202.102-.306.15-.008.008-.034.02-.078.036s-.062.02-.055.012a.262.262 0 0 1 .091-.108c.044-.032.077-.056.102-.072.185-.136.366-.266.546-.39s.362-.242.546-.354a18.15 18.15 0 0 1 1.608-.888 21.688 21.688 0 0 1 4.032-1.5 16.844 16.844 0 0 1 2.178-.426c.724-.092 1.436-.12 2.136-.084s1.358.154 1.974.354c.192.064.385.144.576.24.192.096.368.214.528.354.16.14.29.302.39.486.102.184.152.388.152.612z"/></g></symbol><symbol viewBox="0 0 143.625 123.017" id="vimeo"><title>vimeo</title><path fill-rule="evenodd" clip-rule="evenodd" fill="#FFF" d="M7.071 42.247L0 33.333S27.74 9.206 30.684 7.271c0 0 17.025-14.472 28.213 3.87 0 0 3.16 1.678 7.545 33.268 0 0 3.912 27.029 11.446 34.276 0 0 2.676 1.204 6.31-2.439 0 0 17.787-20 18.744-34.493 0 0 1.956-16.14-20.195-8.204 0 0 6.341-24.591 24.086-30.859 0 0 25.548-9.418 33.587 6.989 0 0 7.812 15.183-.957 35.934-8.77 20.74-39.67 61.759-54.039 69.952 0 0-21.163 15.924-33.104 1.215 0 0-8.275-9.408-11.178-24.385 0 0-12.65-60.761-23.88-56.653 0 0-9.47 4.817-10.191 6.505"/></symbol><symbol viewBox="0 0 158.268 109.199" id="youtube"><title>youtube</title><path fill="#FFF" d="M155.815 20.309C153.915 5.516 140.2 2.71 140.2 2.71c-70.686-6.098-122.495 0-122.495 0C5.416 5.771 2.343 19.602 2.343 19.602-1.68 29.189.697 79.353.697 79.353c.72 27.418 19.616 27.649 19.616 27.649 49.202 4.938 116.582 0 116.582 0 17.021-1.878 18.688-16.647 18.688-16.647 5.901-28.578.232-70.046.232-70.046zM57.527 83.516V25.688l43.221 28.914-43.221 28.914z"/></symbol></svg>